%TF.GenerationSoftware,KiCad,Pcbnew,(6.0.0)*%
%TF.CreationDate,2022-03-13T19:29:42-04:00*%
%TF.ProjectId,numpad_pcb,6e756d70-6164-45f7-9063-622e6b696361,rev?*%
%TF.SameCoordinates,Original*%
%TF.FileFunction,Copper,L1,Top*%
%TF.FilePolarity,Positive*%
%FSLAX46Y46*%
G04 Gerber Fmt 4.6, Leading zero omitted, Abs format (unit mm)*
G04 Created by KiCad (PCBNEW (6.0.0)) date 2022-03-13 19:29:42*
%MOMM*%
%LPD*%
G01*
G04 APERTURE LIST*
G04 Aperture macros list*
%AMFreePoly0*
4,1,6,1.000000,0.000000,0.500000,-0.750000,-0.500000,-0.750000,-0.500000,0.750000,0.500000,0.750000,1.000000,0.000000,1.000000,0.000000,$1*%
%AMFreePoly1*
4,1,6,0.500000,-0.750000,-0.650000,-0.750000,-0.150000,0.000000,-0.650000,0.750000,0.500000,0.750000,0.500000,-0.750000,0.500000,-0.750000,$1*%
G04 Aperture macros list end*
%TA.AperFunction,SMDPad,CuDef*%
%ADD10FreePoly0,90.000000*%
%TD*%
%TA.AperFunction,SMDPad,CuDef*%
%ADD11FreePoly1,90.000000*%
%TD*%
%TA.AperFunction,ComponentPad*%
%ADD12C,1.700000*%
%TD*%
%TA.AperFunction,ComponentPad*%
%ADD13R,1.700000X1.700000*%
%TD*%
%TA.AperFunction,ComponentPad*%
%ADD14O,1.700000X1.700000*%
%TD*%
%TA.AperFunction,ComponentPad*%
%ADD15R,1.600000X1.600000*%
%TD*%
%TA.AperFunction,ComponentPad*%
%ADD16C,1.600000*%
%TD*%
%TA.AperFunction,ViaPad*%
%ADD17C,0.800000*%
%TD*%
%TA.AperFunction,Conductor*%
%ADD18C,0.250000*%
%TD*%
%TA.AperFunction,Conductor*%
%ADD19C,0.400000*%
%TD*%
G04 APERTURE END LIST*
D10*
%TO.P,J11,1,Pin_1*%
%TO.N,Net-(J1-Pad21)*%
X154940000Y-86032000D03*
D11*
%TO.P,J11,2,Pin_2*%
%TO.N,Net-(J1-Pad13)*%
X154940000Y-84582000D03*
%TD*%
D10*
%TO.P,J7,1,Pin_1*%
%TO.N,Net-(J1-Pad11)*%
X136372600Y-66282400D03*
D11*
%TO.P,J7,2,Pin_2*%
%TO.N,/col2*%
X136372600Y-64832400D03*
%TD*%
D10*
%TO.P,J8,1,Pin_1*%
%TO.N,Net-(J1-Pad19)*%
X136474200Y-85408600D03*
D11*
%TO.P,J8,2,Pin_2*%
%TO.N,Net-(J1-Pad11)*%
X136474200Y-83958600D03*
%TD*%
D10*
%TO.P,J15,1,Pin_1*%
%TO.N,Net-(J17-Pad2)*%
X174117000Y-85942000D03*
D11*
%TO.P,J15,2,Pin_2*%
%TO.N,Net-(J1-Pad15)*%
X174117000Y-84492000D03*
%TD*%
D10*
%TO.P,J14,1,Pin_1*%
%TO.N,Net-(J1-Pad15)*%
X174269400Y-66434800D03*
D11*
%TO.P,J14,2,Pin_2*%
%TO.N,/col4*%
X174269400Y-64984800D03*
%TD*%
D12*
%TO.P,J1,1,A*%
%TO.N,/col1*%
X117220000Y-53160000D03*
%TO.P,J1,2,B*%
%TO.N,Net-(D1-Pad2)*%
X120200000Y-54940000D03*
%TO.P,J1,3,A*%
%TO.N,/col2*%
X136320000Y-53160000D03*
%TO.P,J1,4,B*%
%TO.N,Net-(D6-Pad2)*%
X139210000Y-54940000D03*
%TO.P,J1,5,A*%
%TO.N,/col3*%
X155120000Y-53160000D03*
%TO.P,J1,6,B*%
%TO.N,Net-(D10-Pad2)*%
X158110000Y-54940000D03*
%TO.P,J1,7,A*%
%TO.N,/col4*%
X174160000Y-53160000D03*
%TO.P,J1,8,B*%
%TO.N,Net-(D15-Pad2)*%
X177010000Y-54940000D03*
%TO.P,J1,9,A*%
%TO.N,Net-(J1-Pad9)*%
X117220000Y-72260000D03*
%TO.P,J1,10,B*%
%TO.N,Net-(D2-Pad2)*%
X120200000Y-73530000D03*
%TO.P,J1,11,A*%
%TO.N,Net-(J1-Pad11)*%
X136320000Y-72260000D03*
%TO.P,J1,12,B*%
%TO.N,Net-(D7-Pad2)*%
X139210000Y-73530000D03*
%TO.P,J1,13,A*%
%TO.N,Net-(J1-Pad13)*%
X155120000Y-72260000D03*
%TO.P,J1,14,B*%
%TO.N,Net-(D11-Pad2)*%
X158110000Y-73530000D03*
%TO.P,J1,15,A*%
%TO.N,Net-(J1-Pad15)*%
X174160000Y-72260000D03*
%TO.P,J1,16,B*%
%TO.N,Net-(D16-Pad2)*%
X177010000Y-73530000D03*
%TO.P,J1,17,A*%
%TO.N,Net-(J1-Pad17)*%
X117220000Y-91350000D03*
%TO.P,J1,18,B*%
%TO.N,Net-(D3-Pad2)*%
X120200000Y-93060000D03*
%TO.P,J1,19,A*%
%TO.N,Net-(J1-Pad19)*%
X136320000Y-91350000D03*
%TO.P,J1,20,B*%
%TO.N,Net-(D8-Pad2)*%
X139210000Y-93060000D03*
%TO.P,J1,21,A*%
%TO.N,Net-(J1-Pad21)*%
X155120000Y-91350000D03*
%TO.P,J1,22,B*%
%TO.N,Net-(D12-Pad2)*%
X158110000Y-93060000D03*
%TO.P,J1,23,A*%
%TO.N,Net-(J17-Pad2)*%
X174160000Y-91350000D03*
%TO.P,J1,24,B*%
%TO.N,Net-(D17-Pad2)*%
X177010000Y-93060000D03*
%TO.P,J1,25,A*%
%TO.N,Net-(J1-Pad25)*%
X117220000Y-110680000D03*
%TO.P,J1,26,B*%
%TO.N,Net-(D4-Pad2)*%
X120200000Y-112090000D03*
%TO.P,J1,27,A*%
%TO.N,Net-(J1-Pad27)*%
X136320000Y-110680000D03*
%TO.P,J1,28,B*%
%TO.N,Net-(D9-Pad2)*%
X139210000Y-112090000D03*
%TO.P,J1,29,A*%
%TO.N,Net-(J1-Pad29)*%
X155120000Y-110680000D03*
%TO.P,J1,30,B*%
%TO.N,Net-(D13-Pad2)*%
X158110000Y-112090000D03*
%TO.P,J1,31,A*%
%TO.N,Net-(J1-Pad31)*%
X174160000Y-119870000D03*
%TO.P,J1,32,B*%
%TO.N,Net-(D18-Pad2)*%
X177010000Y-121660000D03*
%TO.P,J1,33,A*%
%TO.N,Net-(J1-Pad33)*%
X126580000Y-129540000D03*
%TO.P,J1,34,B*%
%TO.N,Net-(D5-Pad2)*%
X129590000Y-131180000D03*
%TO.P,J1,35,A*%
%TO.N,Net-(J1-Pad35)*%
X155120000Y-129540000D03*
%TO.P,J1,36,B*%
%TO.N,Net-(D14-Pad2)*%
X158110000Y-131180000D03*
%TD*%
D10*
%TO.P,J9,1,Pin_1*%
%TO.N,Net-(J1-Pad27)*%
X136144000Y-100521600D03*
D11*
%TO.P,J9,2,Pin_2*%
%TO.N,Net-(J1-Pad19)*%
X136144000Y-99071600D03*
%TD*%
D10*
%TO.P,J10,1,Pin_1*%
%TO.N,Net-(J1-Pad13)*%
X154889200Y-66511000D03*
D11*
%TO.P,J10,2,Pin_2*%
%TO.N,/col3*%
X154889200Y-65061000D03*
%TD*%
D10*
%TO.P,J6,1,Pin_1*%
%TO.N,Net-(J1-Pad33)*%
X116840000Y-116332000D03*
D11*
%TO.P,J6,2,Pin_2*%
%TO.N,Net-(J1-Pad25)*%
X116840000Y-114882000D03*
%TD*%
D10*
%TO.P,J13,1,Pin_1*%
%TO.N,Net-(J1-Pad35)*%
X155143200Y-123635600D03*
D11*
%TO.P,J13,2,Pin_2*%
%TO.N,Net-(J1-Pad29)*%
X155143200Y-122185600D03*
%TD*%
D10*
%TO.P,J4,1,Pin_1*%
%TO.N,Net-(J1-Pad25)*%
X116738400Y-100597800D03*
D11*
%TO.P,J4,2,Pin_2*%
%TO.N,Net-(J1-Pad17)*%
X116738400Y-99147800D03*
%TD*%
D10*
%TO.P,J17,1,Pin_1*%
%TO.N,Net-(J1-Pad31)*%
X173990000Y-110453000D03*
D11*
%TO.P,J17,2,Pin_2*%
%TO.N,Net-(J17-Pad2)*%
X173990000Y-109003000D03*
%TD*%
D10*
%TO.P,J12,1,Pin_1*%
%TO.N,Net-(J1-Pad29)*%
X154559000Y-100521600D03*
D11*
%TO.P,J12,2,Pin_2*%
%TO.N,Net-(J1-Pad21)*%
X154559000Y-99071600D03*
%TD*%
D10*
%TO.P,J3,1,Pin_1*%
%TO.N,Net-(J1-Pad17)*%
X117195600Y-81471600D03*
D11*
%TO.P,J3,2,Pin_2*%
%TO.N,Net-(J1-Pad9)*%
X117195600Y-80021600D03*
%TD*%
D10*
%TO.P,J2,1,Pin_1*%
%TO.N,Net-(J1-Pad9)*%
X117322600Y-66739600D03*
D11*
%TO.P,J2,2,Pin_2*%
%TO.N,/col1*%
X117322600Y-65289600D03*
%TD*%
D13*
%TO.P,B1,1,Pin_1*%
%TO.N,Net-(B1-Pad1)*%
X129540000Y-81280000D03*
D14*
%TO.P,B1,2,Pin_2*%
%TO.N,GND*%
X127000000Y-81280000D03*
%TD*%
D15*
%TO.P,U1,1,TX*%
%TO.N,unconnected-(U1-Pad1)*%
X144780000Y-38100000D03*
D16*
%TO.P,U1,2,RX*%
%TO.N,unconnected-(U1-Pad2)*%
X144780000Y-40640000D03*
%TO.P,U1,3,GND*%
%TO.N,GND*%
X144780000Y-43180000D03*
%TO.P,U1,4,GND*%
X144780000Y-45720000D03*
%TO.P,U1,5,SDA*%
%TO.N,unconnected-(U1-Pad5)*%
X144780000Y-48260000D03*
%TO.P,U1,6,SCL*%
%TO.N,unconnected-(U1-Pad6)*%
X144780000Y-50800000D03*
%TO.P,U1,7,D4*%
%TO.N,/row1*%
X144780000Y-53340000D03*
%TO.P,U1,8,C6*%
%TO.N,unconnected-(U1-Pad8)*%
X144780000Y-55880000D03*
%TO.P,U1,9,D7*%
%TO.N,/row2*%
X144780000Y-58420000D03*
%TO.P,U1,10,E6*%
%TO.N,/row3*%
X144780000Y-60960000D03*
%TO.P,U1,11,B4*%
%TO.N,/row4*%
X144780000Y-63500000D03*
%TO.P,U1,12,B5*%
%TO.N,/row5*%
X144780000Y-66040000D03*
%TO.P,U1,13,B6*%
%TO.N,Net-(B1-Pad1)*%
X129540000Y-66040000D03*
%TO.P,U1,14,B2*%
%TO.N,unconnected-(U1-Pad14)*%
X129540000Y-63500000D03*
%TO.P,U1,15,B3*%
%TO.N,/col4*%
X129540000Y-60960000D03*
%TO.P,U1,16,B1*%
%TO.N,/col3*%
X129540000Y-58420000D03*
%TO.P,U1,17,F7*%
%TO.N,/col2*%
X129540000Y-55880000D03*
%TO.P,U1,18,F6*%
%TO.N,/col1*%
X129540000Y-53340000D03*
%TO.P,U1,19,F5*%
%TO.N,unconnected-(U1-Pad19)*%
X129540000Y-50800000D03*
%TO.P,U1,20,F4*%
%TO.N,unconnected-(U1-Pad20)*%
X129540000Y-48260000D03*
%TO.P,U1,21,VCC*%
%TO.N,unconnected-(U1-Pad21)*%
X129540000Y-45720000D03*
%TO.P,U1,22,RST*%
%TO.N,unconnected-(U1-Pad22)*%
X129540000Y-43180000D03*
%TO.P,U1,23,GND*%
%TO.N,GND*%
X129540000Y-40640000D03*
%TO.P,U1,24,RAW*%
%TO.N,unconnected-(U1-Pad24)*%
X129540000Y-38100000D03*
%TD*%
D17*
%TO.N,/row2*%
X152400000Y-78740000D03*
%TO.N,/row3*%
X151130000Y-96520000D03*
%TO.N,/row4*%
X149860000Y-116840000D03*
%TO.N,/row5*%
X148590000Y-134620000D03*
%TD*%
D18*
%TO.N,Net-(J1-Pad19)*%
X136320000Y-85562800D02*
X136320000Y-91350000D01*
X136474200Y-85408600D02*
X136320000Y-85562800D01*
%TO.N,Net-(J1-Pad11)*%
X136320000Y-72260000D02*
X136320000Y-83804400D01*
X136320000Y-83804400D02*
X136474200Y-83958600D01*
%TO.N,Net-(J1-Pad35)*%
X155120000Y-123658800D02*
X155120000Y-129540000D01*
X155143200Y-123635600D02*
X155120000Y-123658800D01*
%TO.N,Net-(J1-Pad29)*%
X155120000Y-122162400D02*
X155143200Y-122185600D01*
X155120000Y-110680000D02*
X155120000Y-122162400D01*
%TO.N,Net-(J1-Pad15)*%
X174160000Y-66544200D02*
X174160000Y-72260000D01*
X174269400Y-66434800D02*
X174160000Y-66544200D01*
%TO.N,/col4*%
X174160000Y-53160000D02*
X174160000Y-64875400D01*
X174160000Y-64875400D02*
X174269400Y-64984800D01*
D19*
%TO.N,/col3*%
X155120000Y-64830200D02*
X154889200Y-65061000D01*
X155120000Y-53160000D02*
X155120000Y-64830200D01*
D18*
%TO.N,Net-(J1-Pad13)*%
X155120000Y-66741800D02*
X154889200Y-66511000D01*
X155120000Y-72260000D02*
X155120000Y-66741800D01*
%TO.N,/col2*%
X136320000Y-64779800D02*
X136320000Y-53160000D01*
X136372600Y-64832400D02*
X136320000Y-64779800D01*
%TO.N,Net-(J1-Pad11)*%
X136320000Y-66335000D02*
X136320000Y-72260000D01*
X136372600Y-66282400D02*
X136320000Y-66335000D01*
%TO.N,/col1*%
X117220000Y-65187000D02*
X117220000Y-53160000D01*
X117322600Y-65289600D02*
X117220000Y-65187000D01*
%TO.N,Net-(J1-Pad9)*%
X117220000Y-66842200D02*
X117220000Y-72260000D01*
X117322600Y-66739600D02*
X117220000Y-66842200D01*
X117220000Y-79997200D02*
X117220000Y-72260000D01*
X117195600Y-80021600D02*
X117220000Y-79997200D01*
%TO.N,Net-(J1-Pad17)*%
X117220000Y-81496000D02*
X117220000Y-91350000D01*
X117195600Y-81471600D02*
X117220000Y-81496000D01*
X117220000Y-98666200D02*
X116738400Y-99147800D01*
X117220000Y-91350000D02*
X117220000Y-98666200D01*
%TO.N,Net-(J1-Pad25)*%
X117220000Y-101079400D02*
X116738400Y-100597800D01*
X117220000Y-110680000D02*
X117220000Y-101079400D01*
%TO.N,Net-(J1-Pad27)*%
X136320000Y-100697600D02*
X136144000Y-100521600D01*
X136320000Y-110680000D02*
X136320000Y-100697600D01*
%TO.N,Net-(J1-Pad19)*%
X136320000Y-98895600D02*
X136144000Y-99071600D01*
X136320000Y-91350000D02*
X136320000Y-98895600D01*
%TO.N,Net-(J1-Pad29)*%
X155120000Y-101082600D02*
X155120000Y-110680000D01*
X154559000Y-100521600D02*
X155120000Y-101082600D01*
%TO.N,Net-(J1-Pad21)*%
X155120000Y-98510600D02*
X154559000Y-99071600D01*
X155120000Y-91350000D02*
X155120000Y-98510600D01*
%TO.N,Net-(J17-Pad2)*%
X174160000Y-91350000D02*
X174160000Y-85985000D01*
X174160000Y-85985000D02*
X174117000Y-85942000D01*
%TO.N,Net-(J1-Pad15)*%
X174160000Y-84449000D02*
X174117000Y-84492000D01*
X174160000Y-72260000D02*
X174160000Y-84449000D01*
D19*
%TO.N,Net-(B1-Pad1)*%
X129540000Y-81280000D02*
X129540000Y-66040000D01*
%TO.N,/row2*%
X152400000Y-60960000D02*
X152400000Y-78740000D01*
X144780000Y-58420000D02*
X149860000Y-58420000D01*
X149860000Y-58420000D02*
X152400000Y-60960000D01*
%TO.N,/row3*%
X144780000Y-60960000D02*
X151130000Y-67310000D01*
X151130000Y-67310000D02*
X151130000Y-96520000D01*
%TO.N,/row4*%
X144780000Y-63500000D02*
X149860000Y-68580000D01*
X149860000Y-68580000D02*
X149860000Y-116840000D01*
%TO.N,/row5*%
X148590000Y-69850000D02*
X148590000Y-134620000D01*
X144780000Y-66040000D02*
X148590000Y-69850000D01*
%TO.N,/col3*%
X130739511Y-53410489D02*
X134620000Y-49530000D01*
X129540000Y-58420000D02*
X130739511Y-57220489D01*
X151490000Y-49530000D02*
X155120000Y-53160000D01*
X134620000Y-49530000D02*
X151490000Y-49530000D01*
X130739511Y-57220489D02*
X130739511Y-53410489D01*
%TO.N,/col4*%
X130880489Y-51999511D02*
X135819511Y-47060489D01*
X168060489Y-47060489D02*
X174160000Y-53160000D01*
X128340489Y-52843145D02*
X129184123Y-51999511D01*
X135819511Y-47060489D02*
X168060489Y-47060489D01*
X129184123Y-51999511D02*
X130880489Y-51999511D01*
X129540000Y-60960000D02*
X128340489Y-59760489D01*
X128340489Y-59760489D02*
X128340489Y-52843145D01*
D18*
%TO.N,Net-(J1-Pad13)*%
X155120000Y-72260000D02*
X155120000Y-84402000D01*
X155120000Y-84402000D02*
X154940000Y-84582000D01*
%TO.N,Net-(J1-Pad21)*%
X154940000Y-86032000D02*
X155120000Y-86212000D01*
X155120000Y-86212000D02*
X155120000Y-91350000D01*
%TO.N,Net-(J1-Pad25)*%
X117220000Y-114502000D02*
X117220000Y-110680000D01*
X116840000Y-114882000D02*
X117220000Y-114502000D01*
%TO.N,Net-(J1-Pad31)*%
X174160000Y-110623000D02*
X173990000Y-110453000D01*
X174160000Y-119870000D02*
X174160000Y-110623000D01*
D19*
%TO.N,Net-(J1-Pad33)*%
X117220000Y-120180000D02*
X126580000Y-129540000D01*
X117220000Y-120180000D02*
X117220000Y-116712000D01*
X117220000Y-116712000D02*
X116840000Y-116332000D01*
D18*
%TO.N,Net-(J17-Pad2)*%
X173990000Y-109003000D02*
X174160000Y-108833000D01*
X174160000Y-108833000D02*
X174160000Y-91350000D01*
%TD*%
%TA.AperFunction,Conductor*%
%TO.N,GND*%
G36*
X128321897Y-37358002D02*
G01*
X128368390Y-37411658D01*
X128378494Y-37481932D01*
X128367971Y-37517250D01*
X128305716Y-37650757D01*
X128246457Y-37871913D01*
X128226502Y-38100000D01*
X128246457Y-38328087D01*
X128305716Y-38549243D01*
X128308039Y-38554224D01*
X128308039Y-38554225D01*
X128400151Y-38751762D01*
X128400154Y-38751767D01*
X128402477Y-38756749D01*
X128533802Y-38944300D01*
X128695700Y-39106198D01*
X128700208Y-39109355D01*
X128700211Y-39109357D01*
X128741542Y-39138297D01*
X128883251Y-39237523D01*
X128888233Y-39239846D01*
X128888238Y-39239849D01*
X128923049Y-39256081D01*
X128976334Y-39302998D01*
X128995795Y-39371275D01*
X128975253Y-39439235D01*
X128923049Y-39484471D01*
X128888489Y-39500586D01*
X128878994Y-39506069D01*
X128826952Y-39542509D01*
X128818576Y-39552988D01*
X128825644Y-39566434D01*
X129527188Y-40267978D01*
X129541132Y-40275592D01*
X129542965Y-40275461D01*
X129549580Y-40271210D01*
X130255077Y-39565713D01*
X130261507Y-39553938D01*
X130252211Y-39541923D01*
X130201006Y-39506069D01*
X130191511Y-39500586D01*
X130156951Y-39484471D01*
X130103666Y-39437554D01*
X130084205Y-39369277D01*
X130104747Y-39301317D01*
X130156951Y-39256081D01*
X130191762Y-39239849D01*
X130191767Y-39239846D01*
X130196749Y-39237523D01*
X130338458Y-39138297D01*
X130379789Y-39109357D01*
X130379792Y-39109355D01*
X130384300Y-39106198D01*
X130546198Y-38944300D01*
X130677523Y-38756749D01*
X130679846Y-38751767D01*
X130679849Y-38751762D01*
X130771961Y-38554225D01*
X130771961Y-38554224D01*
X130774284Y-38549243D01*
X130833543Y-38328087D01*
X130853498Y-38100000D01*
X130833543Y-37871913D01*
X130774284Y-37650757D01*
X130712029Y-37517250D01*
X130701368Y-37447058D01*
X130730348Y-37382245D01*
X130789768Y-37343389D01*
X130826224Y-37338000D01*
X143345500Y-37338000D01*
X143413621Y-37358002D01*
X143460114Y-37411658D01*
X143471500Y-37464000D01*
X143471500Y-38948134D01*
X143478255Y-39010316D01*
X143529385Y-39146705D01*
X143616739Y-39263261D01*
X143733295Y-39350615D01*
X143869684Y-39401745D01*
X143880474Y-39402917D01*
X143882606Y-39403803D01*
X143885222Y-39404425D01*
X143885121Y-39404848D01*
X143946035Y-39430155D01*
X143986463Y-39488517D01*
X143988922Y-39559471D01*
X143952629Y-39620490D01*
X143943969Y-39627489D01*
X143940207Y-39630646D01*
X143935700Y-39633802D01*
X143773802Y-39795700D01*
X143642477Y-39983251D01*
X143640154Y-39988233D01*
X143640151Y-39988238D01*
X143640034Y-39988489D01*
X143545716Y-40190757D01*
X143544294Y-40196065D01*
X143544293Y-40196067D01*
X143523019Y-40275461D01*
X143486457Y-40411913D01*
X143466502Y-40640000D01*
X143486457Y-40868087D01*
X143487881Y-40873400D01*
X143487881Y-40873402D01*
X143525025Y-41012022D01*
X143545716Y-41089243D01*
X143548039Y-41094224D01*
X143548039Y-41094225D01*
X143640151Y-41291762D01*
X143640154Y-41291767D01*
X143642477Y-41296749D01*
X143773802Y-41484300D01*
X143935700Y-41646198D01*
X143940208Y-41649355D01*
X143940211Y-41649357D01*
X144018389Y-41704098D01*
X144123251Y-41777523D01*
X144128233Y-41779846D01*
X144128238Y-41779849D01*
X144163049Y-41796081D01*
X144216334Y-41842998D01*
X144235795Y-41911275D01*
X144215253Y-41979235D01*
X144163049Y-42024471D01*
X144128489Y-42040586D01*
X144118994Y-42046069D01*
X144066952Y-42082509D01*
X144058576Y-42092988D01*
X144065644Y-42106434D01*
X144767188Y-42807978D01*
X144781132Y-42815592D01*
X144782965Y-42815461D01*
X144789580Y-42811210D01*
X145495077Y-42105713D01*
X145501507Y-42093938D01*
X145492211Y-42081923D01*
X145441006Y-42046069D01*
X145431511Y-42040586D01*
X145396951Y-42024471D01*
X145343666Y-41977554D01*
X145324205Y-41909277D01*
X145344747Y-41841317D01*
X145396951Y-41796081D01*
X145431762Y-41779849D01*
X145431767Y-41779846D01*
X145436749Y-41777523D01*
X145541611Y-41704098D01*
X145619789Y-41649357D01*
X145619792Y-41649355D01*
X145624300Y-41646198D01*
X145786198Y-41484300D01*
X145917523Y-41296749D01*
X145919846Y-41291767D01*
X145919849Y-41291762D01*
X146011961Y-41094225D01*
X146011961Y-41094224D01*
X146014284Y-41089243D01*
X146034976Y-41012022D01*
X146072119Y-40873402D01*
X146072119Y-40873400D01*
X146073543Y-40868087D01*
X146081888Y-40772703D01*
X179500743Y-40772703D01*
X179501302Y-40776947D01*
X179501302Y-40776951D01*
X179513988Y-40873312D01*
X179538268Y-41057734D01*
X179614129Y-41335036D01*
X179726923Y-41599476D01*
X179795636Y-41714287D01*
X179872338Y-41842446D01*
X179874561Y-41846161D01*
X180054313Y-42070528D01*
X180262851Y-42268423D01*
X180496317Y-42436186D01*
X180500112Y-42438195D01*
X180500113Y-42438196D01*
X180521869Y-42449715D01*
X180750392Y-42570712D01*
X181020373Y-42669511D01*
X181301264Y-42730755D01*
X181329841Y-42733004D01*
X181524282Y-42748307D01*
X181524291Y-42748307D01*
X181526739Y-42748500D01*
X181682271Y-42748500D01*
X181684407Y-42748354D01*
X181684418Y-42748354D01*
X181892548Y-42734165D01*
X181892554Y-42734164D01*
X181896825Y-42733873D01*
X181901020Y-42733004D01*
X181901022Y-42733004D01*
X182037584Y-42704723D01*
X182178342Y-42675574D01*
X182449343Y-42579607D01*
X182704812Y-42447750D01*
X182708313Y-42445289D01*
X182708317Y-42445287D01*
X182822417Y-42365096D01*
X182940023Y-42282441D01*
X183142876Y-42093938D01*
X183147479Y-42089661D01*
X183147481Y-42089658D01*
X183150622Y-42086740D01*
X183332713Y-41864268D01*
X183482927Y-41619142D01*
X183542119Y-41484300D01*
X183596757Y-41359830D01*
X183598483Y-41355898D01*
X183677244Y-41079406D01*
X183717751Y-40794784D01*
X183717845Y-40776951D01*
X183719235Y-40511583D01*
X183719235Y-40511576D01*
X183719257Y-40507297D01*
X183706700Y-40411913D01*
X183688735Y-40275461D01*
X183681732Y-40222266D01*
X183605871Y-39944964D01*
X183594580Y-39918493D01*
X183494763Y-39684476D01*
X183494761Y-39684472D01*
X183493077Y-39680524D01*
X183350294Y-39441951D01*
X183347643Y-39437521D01*
X183347640Y-39437517D01*
X183345439Y-39433839D01*
X183165687Y-39209472D01*
X182957149Y-39011577D01*
X182723683Y-38843814D01*
X182701843Y-38832250D01*
X182567760Y-38761257D01*
X182469608Y-38709288D01*
X182199627Y-38610489D01*
X181918736Y-38549245D01*
X181887685Y-38546801D01*
X181695718Y-38531693D01*
X181695709Y-38531693D01*
X181693261Y-38531500D01*
X181537729Y-38531500D01*
X181535593Y-38531646D01*
X181535582Y-38531646D01*
X181327452Y-38545835D01*
X181327446Y-38545836D01*
X181323175Y-38546127D01*
X181318980Y-38546996D01*
X181318978Y-38546996D01*
X181182417Y-38575276D01*
X181041658Y-38604426D01*
X180770657Y-38700393D01*
X180515188Y-38832250D01*
X180511687Y-38834711D01*
X180511683Y-38834713D01*
X180501594Y-38841804D01*
X180279977Y-38997559D01*
X180069378Y-39193260D01*
X179887287Y-39415732D01*
X179737073Y-39660858D01*
X179735347Y-39664791D01*
X179735346Y-39664792D01*
X179675901Y-39800211D01*
X179621517Y-39924102D01*
X179542756Y-40200594D01*
X179502249Y-40485216D01*
X179502227Y-40489505D01*
X179502226Y-40489512D01*
X179500765Y-40768417D01*
X179500743Y-40772703D01*
X146081888Y-40772703D01*
X146093498Y-40640000D01*
X146073543Y-40411913D01*
X146036981Y-40275461D01*
X146015707Y-40196067D01*
X146015706Y-40196065D01*
X146014284Y-40190757D01*
X145919966Y-39988489D01*
X145919849Y-39988238D01*
X145919846Y-39988233D01*
X145917523Y-39983251D01*
X145786198Y-39795700D01*
X145624300Y-39633802D01*
X145619789Y-39630643D01*
X145615576Y-39627108D01*
X145616527Y-39625974D01*
X145576529Y-39575929D01*
X145569224Y-39505310D01*
X145601258Y-39441951D01*
X145662462Y-39405970D01*
X145679517Y-39402918D01*
X145690316Y-39401745D01*
X145826705Y-39350615D01*
X145943261Y-39263261D01*
X146030615Y-39146705D01*
X146081745Y-39010316D01*
X146088500Y-38948134D01*
X146088500Y-37464000D01*
X146108502Y-37395879D01*
X146162158Y-37349386D01*
X146214500Y-37338000D01*
X181560672Y-37338000D01*
X181580057Y-37339500D01*
X181594858Y-37341805D01*
X181594861Y-37341805D01*
X181603730Y-37343186D01*
X181622411Y-37340743D01*
X181645342Y-37339852D01*
X181948557Y-37355743D01*
X181961665Y-37357120D01*
X182120299Y-37382245D01*
X182290002Y-37409123D01*
X182302902Y-37411865D01*
X182624000Y-37497903D01*
X182636536Y-37501977D01*
X182909358Y-37606703D01*
X182946876Y-37621105D01*
X182958924Y-37626469D01*
X183255120Y-37777388D01*
X183266536Y-37783979D01*
X183545334Y-37965033D01*
X183555992Y-37972776D01*
X183719863Y-38105475D01*
X183814344Y-38181984D01*
X183824145Y-38190810D01*
X184059190Y-38425855D01*
X184068015Y-38435655D01*
X184210787Y-38611964D01*
X184277221Y-38694004D01*
X184284967Y-38704666D01*
X184466018Y-38983459D01*
X184472612Y-38994880D01*
X184623531Y-39291076D01*
X184628895Y-39303124D01*
X184733616Y-39575929D01*
X184748021Y-39613456D01*
X184752097Y-39625999D01*
X184755232Y-39637699D01*
X184838135Y-39947098D01*
X184840877Y-39959998D01*
X184854928Y-40048715D01*
X184890862Y-40275592D01*
X184892879Y-40288329D01*
X184894257Y-40301443D01*
X184904823Y-40503049D01*
X184909764Y-40597330D01*
X184908436Y-40623312D01*
X184908195Y-40624856D01*
X184908195Y-40624860D01*
X184906814Y-40633730D01*
X184907978Y-40642632D01*
X184907978Y-40642635D01*
X184910936Y-40665251D01*
X184912000Y-40681589D01*
X184912000Y-139176000D01*
X184891998Y-139244121D01*
X184838342Y-139290614D01*
X184786000Y-139302000D01*
X109854000Y-139302000D01*
X109785879Y-139281998D01*
X109739386Y-139228342D01*
X109728000Y-139176000D01*
X109728000Y-131146695D01*
X128227251Y-131146695D01*
X128227548Y-131151848D01*
X128227548Y-131151851D01*
X128233011Y-131246590D01*
X128240110Y-131369715D01*
X128241247Y-131374761D01*
X128241248Y-131374767D01*
X128261119Y-131462939D01*
X128289222Y-131587639D01*
X128373266Y-131794616D01*
X128489987Y-131985088D01*
X128636250Y-132153938D01*
X128808126Y-132296632D01*
X129001000Y-132409338D01*
X129209692Y-132489030D01*
X129214760Y-132490061D01*
X129214763Y-132490062D01*
X129322017Y-132511883D01*
X129428597Y-132533567D01*
X129433772Y-132533757D01*
X129433774Y-132533757D01*
X129646673Y-132541564D01*
X129646677Y-132541564D01*
X129651837Y-132541753D01*
X129656957Y-132541097D01*
X129656959Y-132541097D01*
X129868288Y-132514025D01*
X129868289Y-132514025D01*
X129873416Y-132513368D01*
X129878366Y-132511883D01*
X130082429Y-132450661D01*
X130082434Y-132450659D01*
X130087384Y-132449174D01*
X130287994Y-132350896D01*
X130469860Y-132221173D01*
X130628096Y-132063489D01*
X130687594Y-131980689D01*
X130755435Y-131886277D01*
X130758453Y-131882077D01*
X130857430Y-131681811D01*
X130922370Y-131468069D01*
X130951529Y-131246590D01*
X130953156Y-131180000D01*
X130934852Y-130957361D01*
X130880431Y-130740702D01*
X130791354Y-130535840D01*
X130670014Y-130348277D01*
X130519670Y-130183051D01*
X130515619Y-130179852D01*
X130515615Y-130179848D01*
X130348414Y-130047800D01*
X130348410Y-130047798D01*
X130344359Y-130044598D01*
X130339311Y-130041811D01*
X130292136Y-130015769D01*
X130148789Y-129936638D01*
X130143920Y-129934914D01*
X130143916Y-129934912D01*
X129943087Y-129863795D01*
X129943083Y-129863794D01*
X129938212Y-129862069D01*
X129933119Y-129861162D01*
X129933116Y-129861161D01*
X129723373Y-129823800D01*
X129723367Y-129823799D01*
X129718284Y-129822894D01*
X129644452Y-129821992D01*
X129500081Y-129820228D01*
X129500079Y-129820228D01*
X129494911Y-129820165D01*
X129274091Y-129853955D01*
X129061756Y-129923357D01*
X128863607Y-130026507D01*
X128859474Y-130029610D01*
X128859471Y-130029612D01*
X128689100Y-130157530D01*
X128684965Y-130160635D01*
X128681393Y-130164373D01*
X128603124Y-130246277D01*
X128530629Y-130322138D01*
X128527715Y-130326410D01*
X128527714Y-130326411D01*
X128512798Y-130348277D01*
X128404743Y-130506680D01*
X128310688Y-130709305D01*
X128250989Y-130924570D01*
X128227251Y-131146695D01*
X109728000Y-131146695D01*
X109728000Y-101097800D01*
X115474671Y-101097800D01*
X115479900Y-101170911D01*
X115498722Y-101235011D01*
X115517736Y-101299767D01*
X115521096Y-101311211D01*
X115525967Y-101318790D01*
X115595278Y-101426641D01*
X115595280Y-101426644D01*
X115600150Y-101434221D01*
X115606960Y-101440122D01*
X115703845Y-101524074D01*
X115703848Y-101524076D01*
X115710657Y-101529976D01*
X115718854Y-101533720D01*
X115718855Y-101533720D01*
X115722378Y-101535329D01*
X115843666Y-101590719D01*
X115988400Y-101611529D01*
X116460500Y-101611529D01*
X116528621Y-101631531D01*
X116575114Y-101685187D01*
X116586500Y-101737529D01*
X116586500Y-109401692D01*
X116566498Y-109469813D01*
X116518683Y-109513453D01*
X116493607Y-109526507D01*
X116489474Y-109529610D01*
X116489471Y-109529612D01*
X116319100Y-109657530D01*
X116314965Y-109660635D01*
X116160629Y-109822138D01*
X116034743Y-110006680D01*
X115940688Y-110209305D01*
X115880989Y-110424570D01*
X115857251Y-110646695D01*
X115857548Y-110651848D01*
X115857548Y-110651851D01*
X115869812Y-110864547D01*
X115870110Y-110869715D01*
X115871247Y-110874761D01*
X115871248Y-110874767D01*
X115884624Y-110934118D01*
X115919222Y-111087639D01*
X115957461Y-111181811D01*
X116001157Y-111289421D01*
X116003266Y-111294616D01*
X116005965Y-111299020D01*
X116108737Y-111466729D01*
X116119987Y-111485088D01*
X116266250Y-111653938D01*
X116438126Y-111796632D01*
X116442593Y-111799242D01*
X116524070Y-111846853D01*
X116572794Y-111898491D01*
X116586500Y-111955641D01*
X116586500Y-113742271D01*
X116566498Y-113810392D01*
X116512842Y-113856885D01*
X116460500Y-113868271D01*
X116090000Y-113868271D01*
X116058014Y-113870559D01*
X116023627Y-113873018D01*
X116023626Y-113873018D01*
X116016889Y-113873500D01*
X115937382Y-113896845D01*
X115885235Y-113912157D01*
X115885233Y-113912158D01*
X115876589Y-113914696D01*
X115869010Y-113919567D01*
X115761159Y-113988878D01*
X115761156Y-113988880D01*
X115753579Y-113993750D01*
X115747678Y-114000560D01*
X115663726Y-114097445D01*
X115663724Y-114097448D01*
X115657824Y-114104257D01*
X115597081Y-114237266D01*
X115576271Y-114382000D01*
X115576271Y-115532000D01*
X115582800Y-115613645D01*
X115584890Y-115620343D01*
X115584890Y-115620345D01*
X115591328Y-115640981D01*
X115595762Y-115696438D01*
X115576271Y-115832000D01*
X115576271Y-116832000D01*
X115581500Y-116905111D01*
X115602531Y-116976734D01*
X115616223Y-117023365D01*
X115622696Y-117045411D01*
X115627567Y-117052990D01*
X115696878Y-117160841D01*
X115696880Y-117160844D01*
X115701750Y-117168421D01*
X115708560Y-117174322D01*
X115805445Y-117258274D01*
X115805448Y-117258276D01*
X115812257Y-117264176D01*
X115945266Y-117324919D01*
X116090000Y-117345729D01*
X116385500Y-117345729D01*
X116453621Y-117365731D01*
X116500114Y-117419387D01*
X116511500Y-117471729D01*
X116511500Y-120151088D01*
X116511208Y-120159658D01*
X116507275Y-120217352D01*
X116508580Y-120224829D01*
X116508580Y-120224830D01*
X116518261Y-120280299D01*
X116519223Y-120286821D01*
X116526898Y-120350242D01*
X116529581Y-120357343D01*
X116530222Y-120359952D01*
X116534685Y-120376262D01*
X116535450Y-120378798D01*
X116536757Y-120386284D01*
X116539811Y-120393241D01*
X116562442Y-120444795D01*
X116564935Y-120450904D01*
X116579338Y-120489020D01*
X116587513Y-120510656D01*
X116591817Y-120516919D01*
X116593054Y-120519285D01*
X116601299Y-120534097D01*
X116602632Y-120536351D01*
X116605685Y-120543305D01*
X116624204Y-120567438D01*
X116644579Y-120593991D01*
X116648459Y-120599332D01*
X116680339Y-120645720D01*
X116680344Y-120645725D01*
X116684643Y-120651981D01*
X116690313Y-120657032D01*
X116690314Y-120657034D01*
X116731170Y-120693435D01*
X116736446Y-120698416D01*
X125207252Y-129169222D01*
X125241278Y-129231534D01*
X125241914Y-129281235D01*
X125240989Y-129284570D01*
X125217251Y-129506695D01*
X125217548Y-129511848D01*
X125217548Y-129511851D01*
X125223011Y-129606590D01*
X125230110Y-129729715D01*
X125231247Y-129734761D01*
X125231248Y-129734767D01*
X125251095Y-129822831D01*
X125279222Y-129947639D01*
X125363266Y-130154616D01*
X125479987Y-130345088D01*
X125626250Y-130513938D01*
X125798126Y-130656632D01*
X125991000Y-130769338D01*
X126199692Y-130849030D01*
X126204760Y-130850061D01*
X126204763Y-130850062D01*
X126312017Y-130871883D01*
X126418597Y-130893567D01*
X126423772Y-130893757D01*
X126423774Y-130893757D01*
X126636673Y-130901564D01*
X126636677Y-130901564D01*
X126641837Y-130901753D01*
X126646957Y-130901097D01*
X126646959Y-130901097D01*
X126858288Y-130874025D01*
X126858289Y-130874025D01*
X126863416Y-130873368D01*
X126868366Y-130871883D01*
X127072429Y-130810661D01*
X127072434Y-130810659D01*
X127077384Y-130809174D01*
X127277994Y-130710896D01*
X127459860Y-130581173D01*
X127618096Y-130423489D01*
X127669023Y-130352617D01*
X127745435Y-130246277D01*
X127748453Y-130242077D01*
X127777626Y-130183051D01*
X127845136Y-130046453D01*
X127845137Y-130046451D01*
X127847430Y-130041811D01*
X127912370Y-129828069D01*
X127941529Y-129606590D01*
X127943156Y-129540000D01*
X127924852Y-129317361D01*
X127870431Y-129100702D01*
X127781354Y-128895840D01*
X127660014Y-128708277D01*
X127509670Y-128543051D01*
X127505619Y-128539852D01*
X127505615Y-128539848D01*
X127338414Y-128407800D01*
X127338410Y-128407798D01*
X127334359Y-128404598D01*
X127329831Y-128402098D01*
X127213988Y-128338150D01*
X127138789Y-128296638D01*
X127133920Y-128294914D01*
X127133916Y-128294912D01*
X126933087Y-128223795D01*
X126933083Y-128223794D01*
X126928212Y-128222069D01*
X126923119Y-128221162D01*
X126923116Y-128221161D01*
X126713373Y-128183800D01*
X126713367Y-128183799D01*
X126708284Y-128182894D01*
X126634452Y-128181992D01*
X126490081Y-128180228D01*
X126490079Y-128180228D01*
X126484911Y-128180165D01*
X126320059Y-128205391D01*
X126249698Y-128195923D01*
X126211906Y-128169936D01*
X117965405Y-119923435D01*
X117931379Y-119861123D01*
X117928500Y-119834340D01*
X117928500Y-117264846D01*
X117948502Y-117196725D01*
X117959271Y-117182339D01*
X118022176Y-117109743D01*
X118082919Y-116976734D01*
X118103729Y-116832000D01*
X118103729Y-115832000D01*
X118103605Y-115830032D01*
X118100066Y-115773920D01*
X118100065Y-115773916D01*
X118099657Y-115767443D01*
X118087075Y-115721768D01*
X118083833Y-115670375D01*
X118103729Y-115532000D01*
X118103729Y-114382000D01*
X118098500Y-114308889D01*
X118057304Y-114168589D01*
X118015960Y-114104257D01*
X117983122Y-114053159D01*
X117983120Y-114053156D01*
X117978250Y-114045579D01*
X117896987Y-113975164D01*
X117858604Y-113915438D01*
X117853500Y-113879940D01*
X117853500Y-112056695D01*
X118837251Y-112056695D01*
X118837548Y-112061848D01*
X118837548Y-112061851D01*
X118843011Y-112156590D01*
X118850110Y-112279715D01*
X118851247Y-112284761D01*
X118851248Y-112284767D01*
X118871119Y-112372939D01*
X118899222Y-112497639D01*
X118983266Y-112704616D01*
X119099987Y-112895088D01*
X119246250Y-113063938D01*
X119418126Y-113206632D01*
X119611000Y-113319338D01*
X119819692Y-113399030D01*
X119824760Y-113400061D01*
X119824763Y-113400062D01*
X119932017Y-113421883D01*
X120038597Y-113443567D01*
X120043772Y-113443757D01*
X120043774Y-113443757D01*
X120256673Y-113451564D01*
X120256677Y-113451564D01*
X120261837Y-113451753D01*
X120266957Y-113451097D01*
X120266959Y-113451097D01*
X120478288Y-113424025D01*
X120478289Y-113424025D01*
X120483416Y-113423368D01*
X120488366Y-113421883D01*
X120692429Y-113360661D01*
X120692434Y-113360659D01*
X120697384Y-113359174D01*
X120897994Y-113260896D01*
X121079860Y-113131173D01*
X121238096Y-112973489D01*
X121297594Y-112890689D01*
X121365435Y-112796277D01*
X121368453Y-112792077D01*
X121467430Y-112591811D01*
X121532370Y-112378069D01*
X121561529Y-112156590D01*
X121563156Y-112090000D01*
X121560418Y-112056695D01*
X137847251Y-112056695D01*
X137847548Y-112061848D01*
X137847548Y-112061851D01*
X137853011Y-112156590D01*
X137860110Y-112279715D01*
X137861247Y-112284761D01*
X137861248Y-112284767D01*
X137881119Y-112372939D01*
X137909222Y-112497639D01*
X137993266Y-112704616D01*
X138109987Y-112895088D01*
X138256250Y-113063938D01*
X138428126Y-113206632D01*
X138621000Y-113319338D01*
X138829692Y-113399030D01*
X138834760Y-113400061D01*
X138834763Y-113400062D01*
X138942017Y-113421883D01*
X139048597Y-113443567D01*
X139053772Y-113443757D01*
X139053774Y-113443757D01*
X139266673Y-113451564D01*
X139266677Y-113451564D01*
X139271837Y-113451753D01*
X139276957Y-113451097D01*
X139276959Y-113451097D01*
X139488288Y-113424025D01*
X139488289Y-113424025D01*
X139493416Y-113423368D01*
X139498366Y-113421883D01*
X139702429Y-113360661D01*
X139702434Y-113360659D01*
X139707384Y-113359174D01*
X139907994Y-113260896D01*
X140089860Y-113131173D01*
X140248096Y-112973489D01*
X140307594Y-112890689D01*
X140375435Y-112796277D01*
X140378453Y-112792077D01*
X140477430Y-112591811D01*
X140542370Y-112378069D01*
X140571529Y-112156590D01*
X140573156Y-112090000D01*
X140554852Y-111867361D01*
X140500431Y-111650702D01*
X140411354Y-111445840D01*
X140316372Y-111299020D01*
X140292822Y-111262617D01*
X140292820Y-111262614D01*
X140290014Y-111258277D01*
X140139670Y-111093051D01*
X140135619Y-111089852D01*
X140135615Y-111089848D01*
X139968414Y-110957800D01*
X139968410Y-110957798D01*
X139964359Y-110954598D01*
X139768789Y-110846638D01*
X139763920Y-110844914D01*
X139763916Y-110844912D01*
X139563087Y-110773795D01*
X139563083Y-110773794D01*
X139558212Y-110772069D01*
X139553119Y-110771162D01*
X139553116Y-110771161D01*
X139343373Y-110733800D01*
X139343367Y-110733799D01*
X139338284Y-110732894D01*
X139264452Y-110731992D01*
X139120081Y-110730228D01*
X139120079Y-110730228D01*
X139114911Y-110730165D01*
X138894091Y-110763955D01*
X138681756Y-110833357D01*
X138483607Y-110936507D01*
X138479474Y-110939610D01*
X138479471Y-110939612D01*
X138309100Y-111067530D01*
X138304965Y-111070635D01*
X138150629Y-111232138D01*
X138024743Y-111416680D01*
X137930688Y-111619305D01*
X137870989Y-111834570D01*
X137847251Y-112056695D01*
X121560418Y-112056695D01*
X121544852Y-111867361D01*
X121490431Y-111650702D01*
X121401354Y-111445840D01*
X121306372Y-111299020D01*
X121282822Y-111262617D01*
X121282820Y-111262614D01*
X121280014Y-111258277D01*
X121129670Y-111093051D01*
X121125619Y-111089852D01*
X121125615Y-111089848D01*
X120958414Y-110957800D01*
X120958410Y-110957798D01*
X120954359Y-110954598D01*
X120758789Y-110846638D01*
X120753920Y-110844914D01*
X120753916Y-110844912D01*
X120553087Y-110773795D01*
X120553083Y-110773794D01*
X120548212Y-110772069D01*
X120543119Y-110771162D01*
X120543116Y-110771161D01*
X120333373Y-110733800D01*
X120333367Y-110733799D01*
X120328284Y-110732894D01*
X120254452Y-110731992D01*
X120110081Y-110730228D01*
X120110079Y-110730228D01*
X120104911Y-110730165D01*
X119884091Y-110763955D01*
X119671756Y-110833357D01*
X119473607Y-110936507D01*
X119469474Y-110939610D01*
X119469471Y-110939612D01*
X119299100Y-111067530D01*
X119294965Y-111070635D01*
X119140629Y-111232138D01*
X119014743Y-111416680D01*
X118920688Y-111619305D01*
X118860989Y-111834570D01*
X118837251Y-112056695D01*
X117853500Y-112056695D01*
X117853500Y-111960427D01*
X117873502Y-111892306D01*
X117914618Y-111852550D01*
X117917994Y-111850896D01*
X118099860Y-111721173D01*
X118258096Y-111563489D01*
X118274697Y-111540387D01*
X118385435Y-111386277D01*
X118388453Y-111382077D01*
X118437993Y-111281841D01*
X118485136Y-111186453D01*
X118485137Y-111186451D01*
X118487430Y-111181811D01*
X118532766Y-111032594D01*
X118550865Y-110973023D01*
X118550865Y-110973021D01*
X118552370Y-110968069D01*
X118581529Y-110746590D01*
X118581611Y-110743240D01*
X118583074Y-110683365D01*
X118583074Y-110683361D01*
X118583156Y-110680000D01*
X118564852Y-110457361D01*
X118510431Y-110240702D01*
X118421354Y-110035840D01*
X118300014Y-109848277D01*
X118149670Y-109683051D01*
X118145619Y-109679852D01*
X118145615Y-109679848D01*
X117978414Y-109547800D01*
X117978410Y-109547798D01*
X117974359Y-109544598D01*
X117969835Y-109542101D01*
X117969831Y-109542098D01*
X117918608Y-109513822D01*
X117868636Y-109463390D01*
X117853500Y-109403513D01*
X117853500Y-101499949D01*
X117873502Y-101431828D01*
X117884275Y-101417437D01*
X117914675Y-101382354D01*
X117914677Y-101382351D01*
X117920576Y-101375543D01*
X117924318Y-101367349D01*
X117924320Y-101367346D01*
X117977575Y-101250732D01*
X117981319Y-101242534D01*
X118002129Y-101097800D01*
X118002129Y-101021600D01*
X134880271Y-101021600D01*
X134885500Y-101094711D01*
X134926696Y-101235011D01*
X134931567Y-101242590D01*
X135000878Y-101350441D01*
X135000880Y-101350444D01*
X135005750Y-101358021D01*
X135012560Y-101363922D01*
X135109445Y-101447874D01*
X135109448Y-101447876D01*
X135116257Y-101453776D01*
X135249266Y-101514519D01*
X135394000Y-101535329D01*
X135560500Y-101535329D01*
X135628621Y-101555331D01*
X135675114Y-101608987D01*
X135686500Y-101661329D01*
X135686500Y-109401692D01*
X135666498Y-109469813D01*
X135618683Y-109513453D01*
X135593607Y-109526507D01*
X135589474Y-109529610D01*
X135589471Y-109529612D01*
X135419100Y-109657530D01*
X135414965Y-109660635D01*
X135260629Y-109822138D01*
X135134743Y-110006680D01*
X135040688Y-110209305D01*
X134980989Y-110424570D01*
X134957251Y-110646695D01*
X134957548Y-110651848D01*
X134957548Y-110651851D01*
X134969812Y-110864547D01*
X134970110Y-110869715D01*
X134971247Y-110874761D01*
X134971248Y-110874767D01*
X134984624Y-110934118D01*
X135019222Y-111087639D01*
X135057461Y-111181811D01*
X135101157Y-111289421D01*
X135103266Y-111294616D01*
X135105965Y-111299020D01*
X135208737Y-111466729D01*
X135219987Y-111485088D01*
X135366250Y-111653938D01*
X135538126Y-111796632D01*
X135731000Y-111909338D01*
X135939692Y-111989030D01*
X135944760Y-111990061D01*
X135944763Y-111990062D01*
X136052017Y-112011883D01*
X136158597Y-112033567D01*
X136163772Y-112033757D01*
X136163774Y-112033757D01*
X136376673Y-112041564D01*
X136376677Y-112041564D01*
X136381837Y-112041753D01*
X136386957Y-112041097D01*
X136386959Y-112041097D01*
X136598288Y-112014025D01*
X136598289Y-112014025D01*
X136603416Y-112013368D01*
X136608366Y-112011883D01*
X136812429Y-111950661D01*
X136812434Y-111950659D01*
X136817384Y-111949174D01*
X137017994Y-111850896D01*
X137199860Y-111721173D01*
X137358096Y-111563489D01*
X137374697Y-111540387D01*
X137485435Y-111386277D01*
X137488453Y-111382077D01*
X137537993Y-111281841D01*
X137585136Y-111186453D01*
X137585137Y-111186451D01*
X137587430Y-111181811D01*
X137632766Y-111032594D01*
X137650865Y-110973023D01*
X137650865Y-110973021D01*
X137652370Y-110968069D01*
X137681529Y-110746590D01*
X137681611Y-110743240D01*
X137683074Y-110683365D01*
X137683074Y-110683361D01*
X137683156Y-110680000D01*
X137664852Y-110457361D01*
X137610431Y-110240702D01*
X137521354Y-110035840D01*
X137400014Y-109848277D01*
X137249670Y-109683051D01*
X137245619Y-109679852D01*
X137245615Y-109679848D01*
X137078414Y-109547800D01*
X137078410Y-109547798D01*
X137074359Y-109544598D01*
X137069835Y-109542101D01*
X137069831Y-109542098D01*
X137018608Y-109513822D01*
X136968636Y-109463390D01*
X136953500Y-109403513D01*
X136953500Y-101628419D01*
X136973502Y-101560298D01*
X137027158Y-101513805D01*
X137044001Y-101507523D01*
X137069795Y-101499949D01*
X137107411Y-101488904D01*
X137183317Y-101440122D01*
X137222841Y-101414722D01*
X137222844Y-101414720D01*
X137230421Y-101409850D01*
X137236322Y-101403040D01*
X137320274Y-101306155D01*
X137320276Y-101306152D01*
X137326176Y-101299343D01*
X137386919Y-101166334D01*
X137407729Y-101021600D01*
X137407729Y-100021600D01*
X137407605Y-100019632D01*
X137404066Y-99963520D01*
X137404065Y-99963516D01*
X137403657Y-99957043D01*
X137391075Y-99911368D01*
X137387833Y-99859975D01*
X137407729Y-99721600D01*
X137407729Y-98571600D01*
X137402500Y-98498489D01*
X137361304Y-98358189D01*
X137318329Y-98291319D01*
X137287122Y-98242759D01*
X137287120Y-98242756D01*
X137282250Y-98235179D01*
X137275440Y-98229278D01*
X137178555Y-98145326D01*
X137178552Y-98145324D01*
X137171743Y-98139424D01*
X137135090Y-98122685D01*
X137046929Y-98082423D01*
X137046926Y-98082422D01*
X137038734Y-98078681D01*
X137038911Y-98078293D01*
X136984276Y-98043181D01*
X136954783Y-97978600D01*
X136953500Y-97960668D01*
X136953500Y-93026695D01*
X137847251Y-93026695D01*
X137847548Y-93031848D01*
X137847548Y-93031851D01*
X137853011Y-93126590D01*
X137860110Y-93249715D01*
X137861247Y-93254761D01*
X137861248Y-93254767D01*
X137881119Y-93342939D01*
X137909222Y-93467639D01*
X137993266Y-93674616D01*
X138109987Y-93865088D01*
X138256250Y-94033938D01*
X138428126Y-94176632D01*
X138621000Y-94289338D01*
X138829692Y-94369030D01*
X138834760Y-94370061D01*
X138834763Y-94370062D01*
X138942017Y-94391883D01*
X139048597Y-94413567D01*
X139053772Y-94413757D01*
X139053774Y-94413757D01*
X139266673Y-94421564D01*
X139266677Y-94421564D01*
X139271837Y-94421753D01*
X139276957Y-94421097D01*
X139276959Y-94421097D01*
X139488288Y-94394025D01*
X139488289Y-94394025D01*
X139493416Y-94393368D01*
X139498366Y-94391883D01*
X139702429Y-94330661D01*
X139702434Y-94330659D01*
X139707384Y-94329174D01*
X139907994Y-94230896D01*
X140089860Y-94101173D01*
X140248096Y-93943489D01*
X140307594Y-93860689D01*
X140375435Y-93766277D01*
X140378453Y-93762077D01*
X140477430Y-93561811D01*
X140542370Y-93348069D01*
X140571529Y-93126590D01*
X140573156Y-93060000D01*
X140554852Y-92837361D01*
X140500431Y-92620702D01*
X140411354Y-92415840D01*
X140290014Y-92228277D01*
X140139670Y-92063051D01*
X140135619Y-92059852D01*
X140135615Y-92059848D01*
X139968414Y-91927800D01*
X139968410Y-91927798D01*
X139964359Y-91924598D01*
X139768789Y-91816638D01*
X139763920Y-91814914D01*
X139763916Y-91814912D01*
X139563087Y-91743795D01*
X139563083Y-91743794D01*
X139558212Y-91742069D01*
X139553119Y-91741162D01*
X139553116Y-91741161D01*
X139343373Y-91703800D01*
X139343367Y-91703799D01*
X139338284Y-91702894D01*
X139264452Y-91701992D01*
X139120081Y-91700228D01*
X139120079Y-91700228D01*
X139114911Y-91700165D01*
X138894091Y-91733955D01*
X138681756Y-91803357D01*
X138483607Y-91906507D01*
X138479474Y-91909610D01*
X138479471Y-91909612D01*
X138400347Y-91969020D01*
X138304965Y-92040635D01*
X138150629Y-92202138D01*
X138024743Y-92386680D01*
X137930688Y-92589305D01*
X137870989Y-92804570D01*
X137847251Y-93026695D01*
X136953500Y-93026695D01*
X136953500Y-92630427D01*
X136973502Y-92562306D01*
X137014618Y-92522550D01*
X137017994Y-92520896D01*
X137199860Y-92391173D01*
X137358096Y-92233489D01*
X137377554Y-92206411D01*
X137485435Y-92056277D01*
X137488453Y-92052077D01*
X137561579Y-91904118D01*
X137585136Y-91856453D01*
X137585137Y-91856451D01*
X137587430Y-91851811D01*
X137652370Y-91638069D01*
X137681529Y-91416590D01*
X137683156Y-91350000D01*
X137664852Y-91127361D01*
X137610431Y-90910702D01*
X137521354Y-90705840D01*
X137400014Y-90518277D01*
X137249670Y-90353051D01*
X137245619Y-90349852D01*
X137245615Y-90349848D01*
X137078414Y-90217800D01*
X137078410Y-90217798D01*
X137074359Y-90214598D01*
X137069835Y-90212101D01*
X137069831Y-90212098D01*
X137018608Y-90183822D01*
X136968636Y-90133390D01*
X136953500Y-90073513D01*
X136953500Y-86548329D01*
X136973502Y-86480208D01*
X137027158Y-86433715D01*
X137079500Y-86422329D01*
X137224200Y-86422329D01*
X137256186Y-86420041D01*
X137290573Y-86417582D01*
X137290574Y-86417582D01*
X137297311Y-86417100D01*
X137376818Y-86393755D01*
X137428965Y-86378443D01*
X137428967Y-86378442D01*
X137437611Y-86375904D01*
X137501455Y-86334874D01*
X137553041Y-86301722D01*
X137553044Y-86301720D01*
X137560621Y-86296850D01*
X137605531Y-86245021D01*
X137650474Y-86193155D01*
X137650476Y-86193152D01*
X137656376Y-86186343D01*
X137717119Y-86053334D01*
X137737929Y-85908600D01*
X137737929Y-84908600D01*
X137737805Y-84906632D01*
X137734266Y-84850520D01*
X137734265Y-84850516D01*
X137733857Y-84844043D01*
X137721275Y-84798368D01*
X137718033Y-84746975D01*
X137737929Y-84608600D01*
X137737929Y-83458600D01*
X137732700Y-83385489D01*
X137691504Y-83245189D01*
X137650160Y-83180857D01*
X137617322Y-83129759D01*
X137617320Y-83129756D01*
X137612450Y-83122179D01*
X137605640Y-83116278D01*
X137508755Y-83032326D01*
X137508752Y-83032324D01*
X137501943Y-83026424D01*
X137368934Y-82965681D01*
X137224200Y-82944871D01*
X137079500Y-82944871D01*
X137011379Y-82924869D01*
X136964886Y-82871213D01*
X136953500Y-82818871D01*
X136953500Y-73540427D01*
X136966341Y-73496695D01*
X137847251Y-73496695D01*
X137847548Y-73501848D01*
X137847548Y-73501851D01*
X137853011Y-73596590D01*
X137860110Y-73719715D01*
X137861247Y-73724761D01*
X137861248Y-73724767D01*
X137881119Y-73812939D01*
X137909222Y-73937639D01*
X137993266Y-74144616D01*
X138109987Y-74335088D01*
X138256250Y-74503938D01*
X138428126Y-74646632D01*
X138621000Y-74759338D01*
X138829692Y-74839030D01*
X138834760Y-74840061D01*
X138834763Y-74840062D01*
X138942017Y-74861883D01*
X139048597Y-74883567D01*
X139053772Y-74883757D01*
X139053774Y-74883757D01*
X139266673Y-74891564D01*
X139266677Y-74891564D01*
X139271837Y-74891753D01*
X139276957Y-74891097D01*
X139276959Y-74891097D01*
X139488288Y-74864025D01*
X139488289Y-74864025D01*
X139493416Y-74863368D01*
X139498366Y-74861883D01*
X139702429Y-74800661D01*
X139702434Y-74800659D01*
X139707384Y-74799174D01*
X139907994Y-74700896D01*
X140089860Y-74571173D01*
X140248096Y-74413489D01*
X140307594Y-74330689D01*
X140375435Y-74236277D01*
X140378453Y-74232077D01*
X140477430Y-74031811D01*
X140542370Y-73818069D01*
X140571529Y-73596590D01*
X140573156Y-73530000D01*
X140554852Y-73307361D01*
X140500431Y-73090702D01*
X140411354Y-72885840D01*
X140290014Y-72698277D01*
X140139670Y-72533051D01*
X140135619Y-72529852D01*
X140135615Y-72529848D01*
X139968414Y-72397800D01*
X139968410Y-72397798D01*
X139964359Y-72394598D01*
X139768789Y-72286638D01*
X139763920Y-72284914D01*
X139763916Y-72284912D01*
X139563087Y-72213795D01*
X139563083Y-72213794D01*
X139558212Y-72212069D01*
X139553119Y-72211162D01*
X139553116Y-72211161D01*
X139343373Y-72173800D01*
X139343367Y-72173799D01*
X139338284Y-72172894D01*
X139264452Y-72171992D01*
X139120081Y-72170228D01*
X139120079Y-72170228D01*
X139114911Y-72170165D01*
X138894091Y-72203955D01*
X138681756Y-72273357D01*
X138651443Y-72289137D01*
X138579497Y-72326590D01*
X138483607Y-72376507D01*
X138479474Y-72379610D01*
X138479471Y-72379612D01*
X138379374Y-72454767D01*
X138304965Y-72510635D01*
X138301393Y-72514373D01*
X138159748Y-72662596D01*
X138150629Y-72672138D01*
X138024743Y-72856680D01*
X137930688Y-73059305D01*
X137870989Y-73274570D01*
X137847251Y-73496695D01*
X136966341Y-73496695D01*
X136973502Y-73472306D01*
X137014618Y-73432550D01*
X137017994Y-73430896D01*
X137199860Y-73301173D01*
X137358096Y-73143489D01*
X137417594Y-73060689D01*
X137485435Y-72966277D01*
X137488453Y-72962077D01*
X137526132Y-72885840D01*
X137585136Y-72766453D01*
X137585137Y-72766451D01*
X137587430Y-72761811D01*
X137652370Y-72548069D01*
X137681529Y-72326590D01*
X137682505Y-72286638D01*
X137683074Y-72263365D01*
X137683074Y-72263361D01*
X137683156Y-72260000D01*
X137664852Y-72037361D01*
X137610431Y-71820702D01*
X137521354Y-71615840D01*
X137400014Y-71428277D01*
X137249670Y-71263051D01*
X137245619Y-71259852D01*
X137245615Y-71259848D01*
X137078414Y-71127800D01*
X137078410Y-71127798D01*
X137074359Y-71124598D01*
X137069835Y-71122101D01*
X137069831Y-71122098D01*
X137018608Y-71093822D01*
X136968636Y-71043390D01*
X136953500Y-70983513D01*
X136953500Y-67422129D01*
X136973502Y-67354008D01*
X137027158Y-67307515D01*
X137079500Y-67296129D01*
X137122600Y-67296129D01*
X137154586Y-67293841D01*
X137188973Y-67291382D01*
X137188974Y-67291382D01*
X137195711Y-67290900D01*
X137288546Y-67263641D01*
X137327365Y-67252243D01*
X137327367Y-67252242D01*
X137336011Y-67249704D01*
X137390671Y-67214576D01*
X137451441Y-67175522D01*
X137451444Y-67175520D01*
X137459021Y-67170650D01*
X137484465Y-67141286D01*
X137548874Y-67066955D01*
X137548876Y-67066952D01*
X137554776Y-67060143D01*
X137561145Y-67046198D01*
X137609980Y-66939263D01*
X137615519Y-66927134D01*
X137636329Y-66782400D01*
X137636329Y-65782400D01*
X137636100Y-65778765D01*
X137632666Y-65724320D01*
X137632665Y-65724316D01*
X137632257Y-65717843D01*
X137629678Y-65708479D01*
X137629131Y-65706494D01*
X137619675Y-65672168D01*
X137616433Y-65620775D01*
X137619986Y-65596067D01*
X137636329Y-65482400D01*
X137636329Y-64332400D01*
X137631100Y-64259289D01*
X137602307Y-64161229D01*
X137592443Y-64127635D01*
X137592442Y-64127633D01*
X137589904Y-64118989D01*
X137544848Y-64048880D01*
X137515722Y-64003559D01*
X137515720Y-64003556D01*
X137510850Y-63995979D01*
X137482105Y-63971071D01*
X137407155Y-63906126D01*
X137407152Y-63906124D01*
X137400343Y-63900224D01*
X137267334Y-63839481D01*
X137122600Y-63818671D01*
X137079500Y-63818671D01*
X137011379Y-63798669D01*
X136964886Y-63745013D01*
X136953500Y-63692671D01*
X136953500Y-54906695D01*
X137847251Y-54906695D01*
X137847548Y-54911848D01*
X137847548Y-54911851D01*
X137854689Y-55035700D01*
X137860110Y-55129715D01*
X137861247Y-55134761D01*
X137861248Y-55134767D01*
X137882275Y-55228069D01*
X137909222Y-55347639D01*
X137993266Y-55554616D01*
X138109987Y-55745088D01*
X138256250Y-55913938D01*
X138428126Y-56056632D01*
X138621000Y-56169338D01*
X138829692Y-56249030D01*
X138834760Y-56250061D01*
X138834763Y-56250062D01*
X138942017Y-56271883D01*
X139048597Y-56293567D01*
X139053772Y-56293757D01*
X139053774Y-56293757D01*
X139266673Y-56301564D01*
X139266677Y-56301564D01*
X139271837Y-56301753D01*
X139276957Y-56301097D01*
X139276959Y-56301097D01*
X139488288Y-56274025D01*
X139488289Y-56274025D01*
X139493416Y-56273368D01*
X139498366Y-56271883D01*
X139702429Y-56210661D01*
X139702434Y-56210659D01*
X139707384Y-56209174D01*
X139907994Y-56110896D01*
X140089860Y-55981173D01*
X140248096Y-55823489D01*
X140307594Y-55740689D01*
X140375435Y-55646277D01*
X140378453Y-55642077D01*
X140477430Y-55441811D01*
X140542370Y-55228069D01*
X140571529Y-55006590D01*
X140573156Y-54940000D01*
X140554852Y-54717361D01*
X140500431Y-54500702D01*
X140411354Y-54295840D01*
X140306615Y-54133938D01*
X140292822Y-54112617D01*
X140292820Y-54112614D01*
X140290014Y-54108277D01*
X140139670Y-53943051D01*
X140135619Y-53939852D01*
X140135615Y-53939848D01*
X139968414Y-53807800D01*
X139968410Y-53807798D01*
X139964359Y-53804598D01*
X139936544Y-53789243D01*
X139876593Y-53756149D01*
X139768789Y-53696638D01*
X139763920Y-53694914D01*
X139763916Y-53694912D01*
X139563087Y-53623795D01*
X139563083Y-53623794D01*
X139558212Y-53622069D01*
X139553119Y-53621162D01*
X139553116Y-53621161D01*
X139343373Y-53583800D01*
X139343367Y-53583799D01*
X139338284Y-53582894D01*
X139264452Y-53581992D01*
X139120081Y-53580228D01*
X139120079Y-53580228D01*
X139114911Y-53580165D01*
X138894091Y-53613955D01*
X138681756Y-53683357D01*
X138651443Y-53699137D01*
X138488552Y-53783933D01*
X138483607Y-53786507D01*
X138479474Y-53789610D01*
X138479471Y-53789612D01*
X138382957Y-53862077D01*
X138304965Y-53920635D01*
X138150629Y-54082138D01*
X138024743Y-54266680D01*
X138009003Y-54300590D01*
X137944093Y-54440427D01*
X137930688Y-54469305D01*
X137870989Y-54684570D01*
X137847251Y-54906695D01*
X136953500Y-54906695D01*
X136953500Y-54440427D01*
X136973502Y-54372306D01*
X137014618Y-54332550D01*
X137017994Y-54330896D01*
X137199860Y-54201173D01*
X137212882Y-54188197D01*
X137354435Y-54047137D01*
X137358096Y-54043489D01*
X137395266Y-53991762D01*
X137485435Y-53866277D01*
X137488453Y-53862077D01*
X137521988Y-53794225D01*
X137585136Y-53666453D01*
X137585137Y-53666451D01*
X137587430Y-53661811D01*
X137652370Y-53448069D01*
X137681529Y-53226590D01*
X137683156Y-53160000D01*
X137664852Y-52937361D01*
X137610431Y-52720702D01*
X137521354Y-52515840D01*
X137459712Y-52420556D01*
X137402822Y-52332617D01*
X137402820Y-52332614D01*
X137400014Y-52328277D01*
X137249670Y-52163051D01*
X137245619Y-52159852D01*
X137245615Y-52159848D01*
X137078414Y-52027800D01*
X137078410Y-52027798D01*
X137074359Y-52024598D01*
X136878789Y-51916638D01*
X136873920Y-51914914D01*
X136873916Y-51914912D01*
X136673087Y-51843795D01*
X136673083Y-51843794D01*
X136668212Y-51842069D01*
X136663119Y-51841162D01*
X136663116Y-51841161D01*
X136453373Y-51803800D01*
X136453367Y-51803799D01*
X136448284Y-51802894D01*
X136374452Y-51801992D01*
X136230081Y-51800228D01*
X136230079Y-51800228D01*
X136224911Y-51800165D01*
X136004091Y-51833955D01*
X135791756Y-51903357D01*
X135593607Y-52006507D01*
X135589474Y-52009610D01*
X135589471Y-52009612D01*
X135419436Y-52137278D01*
X135414965Y-52140635D01*
X135260629Y-52302138D01*
X135134743Y-52486680D01*
X135119003Y-52520590D01*
X135045591Y-52678743D01*
X135040688Y-52689305D01*
X134980989Y-52904570D01*
X134957251Y-53126695D01*
X134957548Y-53131848D01*
X134957548Y-53131851D01*
X134963011Y-53226590D01*
X134970110Y-53349715D01*
X134971247Y-53354761D01*
X134971248Y-53354767D01*
X134991119Y-53442939D01*
X135019222Y-53567639D01*
X135103266Y-53774616D01*
X135120109Y-53802101D01*
X135190844Y-53917530D01*
X135219987Y-53965088D01*
X135366250Y-54133938D01*
X135538126Y-54276632D01*
X135618164Y-54323402D01*
X135624070Y-54326853D01*
X135672794Y-54378491D01*
X135686500Y-54435641D01*
X135686500Y-63696791D01*
X135666498Y-63764912D01*
X135612842Y-63811405D01*
X135569487Y-63822470D01*
X135549489Y-63823900D01*
X135477388Y-63845071D01*
X135417835Y-63862557D01*
X135417833Y-63862558D01*
X135409189Y-63865096D01*
X135401610Y-63869967D01*
X135293759Y-63939278D01*
X135293756Y-63939280D01*
X135286179Y-63944150D01*
X135280278Y-63950960D01*
X135196326Y-64047845D01*
X135196324Y-64047848D01*
X135190424Y-64054657D01*
X135186680Y-64062854D01*
X135186680Y-64062855D01*
X135171292Y-64096550D01*
X135129681Y-64187666D01*
X135108871Y-64332400D01*
X135108871Y-65482400D01*
X135115400Y-65564045D01*
X135117490Y-65570743D01*
X135117490Y-65570745D01*
X135123928Y-65591381D01*
X135128362Y-65646838D01*
X135108871Y-65782400D01*
X135108871Y-66782400D01*
X135114100Y-66855511D01*
X135155296Y-66995811D01*
X135167239Y-67014394D01*
X135229478Y-67111241D01*
X135229480Y-67111244D01*
X135234350Y-67118821D01*
X135241160Y-67124722D01*
X135338045Y-67208674D01*
X135338048Y-67208676D01*
X135344857Y-67214576D01*
X135353054Y-67218320D01*
X135353055Y-67218320D01*
X135366393Y-67224411D01*
X135477866Y-67275319D01*
X135578435Y-67289779D01*
X135643012Y-67319270D01*
X135681396Y-67378996D01*
X135686500Y-67414495D01*
X135686500Y-70981692D01*
X135666498Y-71049813D01*
X135618683Y-71093453D01*
X135593607Y-71106507D01*
X135589474Y-71109610D01*
X135589471Y-71109612D01*
X135565247Y-71127800D01*
X135414965Y-71240635D01*
X135260629Y-71402138D01*
X135134743Y-71586680D01*
X135040688Y-71789305D01*
X134980989Y-72004570D01*
X134957251Y-72226695D01*
X134957548Y-72231848D01*
X134957548Y-72231851D01*
X134963011Y-72326590D01*
X134970110Y-72449715D01*
X134971247Y-72454761D01*
X134971248Y-72454767D01*
X134991119Y-72542939D01*
X135019222Y-72667639D01*
X135103266Y-72874616D01*
X135219987Y-73065088D01*
X135366250Y-73233938D01*
X135538126Y-73376632D01*
X135542593Y-73379242D01*
X135624070Y-73426853D01*
X135672794Y-73478491D01*
X135686500Y-73535641D01*
X135686500Y-82845380D01*
X135666498Y-82913501D01*
X135612842Y-82959994D01*
X135595999Y-82966276D01*
X135510789Y-82991296D01*
X135503210Y-82996167D01*
X135395359Y-83065478D01*
X135395356Y-83065480D01*
X135387779Y-83070350D01*
X135381878Y-83077160D01*
X135297926Y-83174045D01*
X135297924Y-83174048D01*
X135292024Y-83180857D01*
X135231281Y-83313866D01*
X135210471Y-83458600D01*
X135210471Y-84608600D01*
X135217000Y-84690245D01*
X135219090Y-84696943D01*
X135219090Y-84696945D01*
X135225528Y-84717581D01*
X135229962Y-84773038D01*
X135210471Y-84908600D01*
X135210471Y-85908600D01*
X135215700Y-85981711D01*
X135256896Y-86122011D01*
X135261767Y-86129590D01*
X135331078Y-86237441D01*
X135331080Y-86237444D01*
X135335950Y-86245021D01*
X135342760Y-86250922D01*
X135439645Y-86334874D01*
X135439648Y-86334876D01*
X135446457Y-86340776D01*
X135454654Y-86344520D01*
X135454655Y-86344520D01*
X135571271Y-86397777D01*
X135571274Y-86397778D01*
X135579466Y-86401519D01*
X135588382Y-86402801D01*
X135595998Y-86405037D01*
X135655724Y-86443420D01*
X135685217Y-86508001D01*
X135686500Y-86525933D01*
X135686500Y-90071692D01*
X135666498Y-90139813D01*
X135618683Y-90183453D01*
X135593607Y-90196507D01*
X135589474Y-90199610D01*
X135589471Y-90199612D01*
X135565247Y-90217800D01*
X135414965Y-90330635D01*
X135260629Y-90492138D01*
X135134743Y-90676680D01*
X135040688Y-90879305D01*
X134980989Y-91094570D01*
X134957251Y-91316695D01*
X134957548Y-91321848D01*
X134957548Y-91321851D01*
X134963011Y-91416590D01*
X134970110Y-91539715D01*
X134971247Y-91544761D01*
X134971248Y-91544767D01*
X134991119Y-91632939D01*
X135019222Y-91757639D01*
X135103266Y-91964616D01*
X135219987Y-92155088D01*
X135366250Y-92323938D01*
X135538126Y-92466632D01*
X135542593Y-92469242D01*
X135624070Y-92516853D01*
X135672794Y-92568491D01*
X135686500Y-92625641D01*
X135686500Y-97931871D01*
X135666498Y-97999992D01*
X135612842Y-98046485D01*
X135560500Y-98057871D01*
X135394000Y-98057871D01*
X135362014Y-98060159D01*
X135327627Y-98062618D01*
X135327626Y-98062618D01*
X135320889Y-98063100D01*
X135263623Y-98079915D01*
X135189235Y-98101757D01*
X135189233Y-98101758D01*
X135180589Y-98104296D01*
X135173010Y-98109167D01*
X135065159Y-98178478D01*
X135065156Y-98178480D01*
X135057579Y-98183350D01*
X135051678Y-98190160D01*
X134967726Y-98287045D01*
X134967724Y-98287048D01*
X134961824Y-98293857D01*
X134901081Y-98426866D01*
X134880271Y-98571600D01*
X134880271Y-99721600D01*
X134886800Y-99803245D01*
X134888890Y-99809943D01*
X134888890Y-99809945D01*
X134895328Y-99830581D01*
X134899762Y-99886038D01*
X134880271Y-100021600D01*
X134880271Y-101021600D01*
X118002129Y-101021600D01*
X118002129Y-100097800D01*
X118002005Y-100095832D01*
X117998466Y-100039720D01*
X117998465Y-100039716D01*
X117998057Y-100033243D01*
X117985475Y-99987568D01*
X117982233Y-99936175D01*
X118002129Y-99797800D01*
X118002129Y-98647800D01*
X117996900Y-98574689D01*
X117955704Y-98434389D01*
X117876650Y-98311379D01*
X117878747Y-98310032D01*
X117854782Y-98257556D01*
X117853500Y-98239625D01*
X117853500Y-93026695D01*
X118837251Y-93026695D01*
X118837548Y-93031848D01*
X118837548Y-93031851D01*
X118843011Y-93126590D01*
X118850110Y-93249715D01*
X118851247Y-93254761D01*
X118851248Y-93254767D01*
X118871119Y-93342939D01*
X118899222Y-93467639D01*
X118983266Y-93674616D01*
X119099987Y-93865088D01*
X119246250Y-94033938D01*
X119418126Y-94176632D01*
X119611000Y-94289338D01*
X119819692Y-94369030D01*
X119824760Y-94370061D01*
X119824763Y-94370062D01*
X119932017Y-94391883D01*
X120038597Y-94413567D01*
X120043772Y-94413757D01*
X120043774Y-94413757D01*
X120256673Y-94421564D01*
X120256677Y-94421564D01*
X120261837Y-94421753D01*
X120266957Y-94421097D01*
X120266959Y-94421097D01*
X120478288Y-94394025D01*
X120478289Y-94394025D01*
X120483416Y-94393368D01*
X120488366Y-94391883D01*
X120692429Y-94330661D01*
X120692434Y-94330659D01*
X120697384Y-94329174D01*
X120897994Y-94230896D01*
X121079860Y-94101173D01*
X121238096Y-93943489D01*
X121297594Y-93860689D01*
X121365435Y-93766277D01*
X121368453Y-93762077D01*
X121467430Y-93561811D01*
X121532370Y-93348069D01*
X121561529Y-93126590D01*
X121563156Y-93060000D01*
X121544852Y-92837361D01*
X121490431Y-92620702D01*
X121401354Y-92415840D01*
X121280014Y-92228277D01*
X121129670Y-92063051D01*
X121125619Y-92059852D01*
X121125615Y-92059848D01*
X120958414Y-91927800D01*
X120958410Y-91927798D01*
X120954359Y-91924598D01*
X120758789Y-91816638D01*
X120753920Y-91814914D01*
X120753916Y-91814912D01*
X120553087Y-91743795D01*
X120553083Y-91743794D01*
X120548212Y-91742069D01*
X120543119Y-91741162D01*
X120543116Y-91741161D01*
X120333373Y-91703800D01*
X120333367Y-91703799D01*
X120328284Y-91702894D01*
X120254452Y-91701992D01*
X120110081Y-91700228D01*
X120110079Y-91700228D01*
X120104911Y-91700165D01*
X119884091Y-91733955D01*
X119671756Y-91803357D01*
X119473607Y-91906507D01*
X119469474Y-91909610D01*
X119469471Y-91909612D01*
X119390347Y-91969020D01*
X119294965Y-92040635D01*
X119140629Y-92202138D01*
X119014743Y-92386680D01*
X118920688Y-92589305D01*
X118860989Y-92804570D01*
X118837251Y-93026695D01*
X117853500Y-93026695D01*
X117853500Y-92630427D01*
X117873502Y-92562306D01*
X117914618Y-92522550D01*
X117917994Y-92520896D01*
X118099860Y-92391173D01*
X118258096Y-92233489D01*
X118277554Y-92206411D01*
X118385435Y-92056277D01*
X118388453Y-92052077D01*
X118461579Y-91904118D01*
X118485136Y-91856453D01*
X118485137Y-91856451D01*
X118487430Y-91851811D01*
X118552370Y-91638069D01*
X118581529Y-91416590D01*
X118583156Y-91350000D01*
X118564852Y-91127361D01*
X118510431Y-90910702D01*
X118421354Y-90705840D01*
X118300014Y-90518277D01*
X118149670Y-90353051D01*
X118145619Y-90349852D01*
X118145615Y-90349848D01*
X117978414Y-90217800D01*
X117978410Y-90217798D01*
X117974359Y-90214598D01*
X117969835Y-90212101D01*
X117969831Y-90212098D01*
X117918608Y-90183822D01*
X117868636Y-90133390D01*
X117853500Y-90073513D01*
X117853500Y-82609226D01*
X117873502Y-82541105D01*
X117927158Y-82494612D01*
X117970511Y-82483547D01*
X118018711Y-82480100D01*
X118111894Y-82452739D01*
X118150365Y-82441443D01*
X118150367Y-82441442D01*
X118159011Y-82438904D01*
X118222855Y-82397874D01*
X118274441Y-82364722D01*
X118274444Y-82364720D01*
X118282021Y-82359850D01*
X118287922Y-82353040D01*
X118371874Y-82256155D01*
X118371876Y-82256152D01*
X118377776Y-82249343D01*
X118381899Y-82240316D01*
X118434775Y-82124532D01*
X118438519Y-82116334D01*
X118459329Y-81971600D01*
X118459329Y-81547966D01*
X125668257Y-81547966D01*
X125698565Y-81682446D01*
X125701645Y-81692275D01*
X125781770Y-81889603D01*
X125786413Y-81898794D01*
X125897694Y-82080388D01*
X125903777Y-82088699D01*
X126043213Y-82249667D01*
X126050580Y-82256883D01*
X126214434Y-82392916D01*
X126222881Y-82398831D01*
X126406756Y-82506279D01*
X126416042Y-82510729D01*
X126615001Y-82586703D01*
X126624899Y-82589579D01*
X126728250Y-82610606D01*
X126742299Y-82609410D01*
X126746000Y-82599065D01*
X126746000Y-82598517D01*
X127254000Y-82598517D01*
X127258064Y-82612359D01*
X127271478Y-82614393D01*
X127278184Y-82613534D01*
X127288262Y-82611392D01*
X127492255Y-82550191D01*
X127501842Y-82546433D01*
X127693095Y-82452739D01*
X127701945Y-82447464D01*
X127875328Y-82323792D01*
X127883193Y-82317145D01*
X127987897Y-82212805D01*
X128050268Y-82178889D01*
X128121075Y-82184077D01*
X128177837Y-82226723D01*
X128194819Y-82257826D01*
X128239385Y-82376705D01*
X128326739Y-82493261D01*
X128443295Y-82580615D01*
X128579684Y-82631745D01*
X128641866Y-82638500D01*
X130438134Y-82638500D01*
X130500316Y-82631745D01*
X130636705Y-82580615D01*
X130753261Y-82493261D01*
X130840615Y-82376705D01*
X130891745Y-82240316D01*
X130898500Y-82178134D01*
X130898500Y-80381866D01*
X130891745Y-80319684D01*
X130840615Y-80183295D01*
X130753261Y-80066739D01*
X130636705Y-79979385D01*
X130500316Y-79928255D01*
X130438134Y-79921500D01*
X130374500Y-79921500D01*
X130306379Y-79901498D01*
X130259886Y-79847842D01*
X130248500Y-79795500D01*
X130248500Y-67206878D01*
X130268502Y-67138757D01*
X130302229Y-67103665D01*
X130379789Y-67049357D01*
X130379792Y-67049355D01*
X130384300Y-67046198D01*
X130546198Y-66884300D01*
X130566357Y-66855511D01*
X130674366Y-66701257D01*
X130677523Y-66696749D01*
X130679846Y-66691767D01*
X130679849Y-66691762D01*
X130771961Y-66494225D01*
X130771961Y-66494224D01*
X130774284Y-66489243D01*
X130833543Y-66268087D01*
X130853498Y-66040000D01*
X130833543Y-65811913D01*
X130832119Y-65806598D01*
X130775707Y-65596067D01*
X130775706Y-65596065D01*
X130774284Y-65590757D01*
X130722581Y-65479879D01*
X130679849Y-65388238D01*
X130679846Y-65388233D01*
X130677523Y-65383251D01*
X130546198Y-65195700D01*
X130384300Y-65033802D01*
X130379792Y-65030645D01*
X130379789Y-65030643D01*
X130301611Y-64975902D01*
X130196749Y-64902477D01*
X130191767Y-64900154D01*
X130191762Y-64900151D01*
X130157543Y-64884195D01*
X130104258Y-64837278D01*
X130084797Y-64769001D01*
X130105339Y-64701041D01*
X130157543Y-64655805D01*
X130191762Y-64639849D01*
X130191767Y-64639846D01*
X130196749Y-64637523D01*
X130312409Y-64556537D01*
X130379789Y-64509357D01*
X130379792Y-64509355D01*
X130384300Y-64506198D01*
X130546198Y-64344300D01*
X130551376Y-64336906D01*
X130634160Y-64218678D01*
X130677523Y-64156749D01*
X130679846Y-64151767D01*
X130679849Y-64151762D01*
X130771961Y-63954225D01*
X130771961Y-63954224D01*
X130774284Y-63949243D01*
X130780366Y-63926547D01*
X130832119Y-63733402D01*
X130832119Y-63733400D01*
X130833543Y-63728087D01*
X130853498Y-63500000D01*
X130833543Y-63271913D01*
X130832119Y-63266598D01*
X130775707Y-63056067D01*
X130775706Y-63056065D01*
X130774284Y-63050757D01*
X130771961Y-63045775D01*
X130679849Y-62848238D01*
X130679846Y-62848233D01*
X130677523Y-62843251D01*
X130546198Y-62655700D01*
X130384300Y-62493802D01*
X130379792Y-62490645D01*
X130379789Y-62490643D01*
X130301611Y-62435902D01*
X130196749Y-62362477D01*
X130191767Y-62360154D01*
X130191762Y-62360151D01*
X130157543Y-62344195D01*
X130104258Y-62297278D01*
X130084797Y-62229001D01*
X130105339Y-62161041D01*
X130157543Y-62115805D01*
X130191762Y-62099849D01*
X130191767Y-62099846D01*
X130196749Y-62097523D01*
X130301611Y-62024098D01*
X130379789Y-61969357D01*
X130379792Y-61969355D01*
X130384300Y-61966198D01*
X130546198Y-61804300D01*
X130677523Y-61616749D01*
X130679846Y-61611767D01*
X130679849Y-61611762D01*
X130771961Y-61414225D01*
X130771961Y-61414224D01*
X130774284Y-61409243D01*
X130809216Y-61278878D01*
X130832119Y-61193402D01*
X130832119Y-61193400D01*
X130833543Y-61188087D01*
X130853498Y-60960000D01*
X130833543Y-60731913D01*
X130774284Y-60510757D01*
X130743227Y-60444154D01*
X130679849Y-60308238D01*
X130679846Y-60308233D01*
X130677523Y-60303251D01*
X130556083Y-60129817D01*
X130549357Y-60120211D01*
X130549355Y-60120208D01*
X130546198Y-60115700D01*
X130384300Y-59953802D01*
X130379792Y-59950645D01*
X130379789Y-59950643D01*
X130301611Y-59895902D01*
X130196749Y-59822477D01*
X130191767Y-59820154D01*
X130191762Y-59820151D01*
X130157543Y-59804195D01*
X130104258Y-59757278D01*
X130084797Y-59689001D01*
X130105339Y-59621041D01*
X130157543Y-59575805D01*
X130191762Y-59559849D01*
X130191767Y-59559846D01*
X130196749Y-59557523D01*
X130301611Y-59484098D01*
X130379789Y-59429357D01*
X130379792Y-59429355D01*
X130384300Y-59426198D01*
X130546198Y-59264300D01*
X130677523Y-59076749D01*
X130679846Y-59071767D01*
X130679849Y-59071762D01*
X130771961Y-58874225D01*
X130771961Y-58874224D01*
X130774284Y-58869243D01*
X130833543Y-58648087D01*
X130853498Y-58420000D01*
X130833556Y-58192064D01*
X130847545Y-58122460D01*
X130869982Y-58091988D01*
X131220031Y-57741939D01*
X131226296Y-57736085D01*
X131254478Y-57711500D01*
X131269896Y-57698050D01*
X131306625Y-57645789D01*
X131310557Y-57640494D01*
X131345302Y-57596183D01*
X131349988Y-57590207D01*
X131353113Y-57583285D01*
X131354475Y-57581037D01*
X131362879Y-57566304D01*
X131364133Y-57563965D01*
X131368501Y-57557750D01*
X131371260Y-57550674D01*
X131371262Y-57550670D01*
X131391711Y-57498220D01*
X131394260Y-57492155D01*
X131420556Y-57433916D01*
X131421940Y-57426451D01*
X131422737Y-57423907D01*
X131427370Y-57407641D01*
X131428032Y-57405061D01*
X131430793Y-57397980D01*
X131439133Y-57334632D01*
X131440164Y-57328118D01*
X131448039Y-57285634D01*
X131451807Y-57265302D01*
X131448220Y-57203091D01*
X131448011Y-57195838D01*
X131448011Y-53756149D01*
X131468013Y-53688028D01*
X131484916Y-53667054D01*
X134876566Y-50275405D01*
X134938878Y-50241379D01*
X134965661Y-50238500D01*
X143411588Y-50238500D01*
X143479709Y-50258502D01*
X143526202Y-50312158D01*
X143536306Y-50382432D01*
X143533295Y-50397111D01*
X143486457Y-50571913D01*
X143466502Y-50800000D01*
X143486457Y-51028087D01*
X143545716Y-51249243D01*
X143548039Y-51254224D01*
X143548039Y-51254225D01*
X143640151Y-51451762D01*
X143640154Y-51451767D01*
X143642477Y-51456749D01*
X143773802Y-51644300D01*
X143935700Y-51806198D01*
X143940208Y-51809355D01*
X143940211Y-51809357D01*
X143963110Y-51825391D01*
X144123251Y-51937523D01*
X144128233Y-51939846D01*
X144128238Y-51939849D01*
X144162457Y-51955805D01*
X144215742Y-52002722D01*
X144235203Y-52070999D01*
X144214661Y-52138959D01*
X144162457Y-52184195D01*
X144128238Y-52200151D01*
X144128233Y-52200154D01*
X144123251Y-52202477D01*
X144018389Y-52275902D01*
X143940211Y-52330643D01*
X143940208Y-52330645D01*
X143935700Y-52333802D01*
X143773802Y-52495700D01*
X143770645Y-52500208D01*
X143770643Y-52500211D01*
X143756374Y-52520590D01*
X143642477Y-52683251D01*
X143640154Y-52688233D01*
X143640151Y-52688238D01*
X143564006Y-52851534D01*
X143545716Y-52890757D01*
X143544294Y-52896065D01*
X143544293Y-52896067D01*
X143487881Y-53106598D01*
X143486457Y-53111913D01*
X143466502Y-53340000D01*
X143486457Y-53568087D01*
X143487881Y-53573400D01*
X143487881Y-53573402D01*
X143500922Y-53622069D01*
X143545716Y-53789243D01*
X143548039Y-53794224D01*
X143548039Y-53794225D01*
X143640151Y-53991762D01*
X143640154Y-53991767D01*
X143642477Y-53996749D01*
X143773802Y-54184300D01*
X143935700Y-54346198D01*
X143940208Y-54349355D01*
X143940211Y-54349357D01*
X143972986Y-54372306D01*
X144123251Y-54477523D01*
X144128233Y-54479846D01*
X144128238Y-54479849D01*
X144162457Y-54495805D01*
X144215742Y-54542722D01*
X144235203Y-54610999D01*
X144214661Y-54678959D01*
X144162457Y-54724195D01*
X144128238Y-54740151D01*
X144128233Y-54740154D01*
X144123251Y-54742477D01*
X144018389Y-54815902D01*
X143940211Y-54870643D01*
X143940208Y-54870645D01*
X143935700Y-54873802D01*
X143773802Y-55035700D01*
X143642477Y-55223251D01*
X143640154Y-55228233D01*
X143640151Y-55228238D01*
X143548039Y-55425775D01*
X143545716Y-55430757D01*
X143544294Y-55436065D01*
X143544293Y-55436067D01*
X143487967Y-55646277D01*
X143486457Y-55651913D01*
X143466502Y-55880000D01*
X143486457Y-56108087D01*
X143487881Y-56113400D01*
X143487881Y-56113402D01*
X143536157Y-56293567D01*
X143545716Y-56329243D01*
X143548039Y-56334224D01*
X143548039Y-56334225D01*
X143640151Y-56531762D01*
X143640154Y-56531767D01*
X143642477Y-56536749D01*
X143773802Y-56724300D01*
X143935700Y-56886198D01*
X143940208Y-56889355D01*
X143940211Y-56889357D01*
X144018389Y-56944098D01*
X144123251Y-57017523D01*
X144128233Y-57019846D01*
X144128238Y-57019849D01*
X144162457Y-57035805D01*
X144215742Y-57082722D01*
X144235203Y-57150999D01*
X144214661Y-57218959D01*
X144162457Y-57264195D01*
X144128238Y-57280151D01*
X144128233Y-57280154D01*
X144123251Y-57282477D01*
X144018389Y-57355902D01*
X143940211Y-57410643D01*
X143940208Y-57410645D01*
X143935700Y-57413802D01*
X143773802Y-57575700D01*
X143770645Y-57580208D01*
X143770643Y-57580211D01*
X143728433Y-57640494D01*
X143642477Y-57763251D01*
X143640154Y-57768233D01*
X143640151Y-57768238D01*
X143548039Y-57965775D01*
X143545716Y-57970757D01*
X143486457Y-58191913D01*
X143466502Y-58420000D01*
X143486457Y-58648087D01*
X143545716Y-58869243D01*
X143548039Y-58874224D01*
X143548039Y-58874225D01*
X143640151Y-59071762D01*
X143640154Y-59071767D01*
X143642477Y-59076749D01*
X143773802Y-59264300D01*
X143935700Y-59426198D01*
X143940208Y-59429355D01*
X143940211Y-59429357D01*
X144018389Y-59484098D01*
X144123251Y-59557523D01*
X144128233Y-59559846D01*
X144128238Y-59559849D01*
X144162457Y-59575805D01*
X144215742Y-59622722D01*
X144235203Y-59690999D01*
X144214661Y-59758959D01*
X144162457Y-59804195D01*
X144128238Y-59820151D01*
X144128233Y-59820154D01*
X144123251Y-59822477D01*
X144018389Y-59895902D01*
X143940211Y-59950643D01*
X143940208Y-59950645D01*
X143935700Y-59953802D01*
X143773802Y-60115700D01*
X143770645Y-60120208D01*
X143770643Y-60120211D01*
X143763917Y-60129817D01*
X143642477Y-60303251D01*
X143640154Y-60308233D01*
X143640151Y-60308238D01*
X143576773Y-60444154D01*
X143545716Y-60510757D01*
X143486457Y-60731913D01*
X143466502Y-60960000D01*
X143486457Y-61188087D01*
X143487881Y-61193400D01*
X143487881Y-61193402D01*
X143510785Y-61278878D01*
X143545716Y-61409243D01*
X143548039Y-61414224D01*
X143548039Y-61414225D01*
X143640151Y-61611762D01*
X143640154Y-61611767D01*
X143642477Y-61616749D01*
X143773802Y-61804300D01*
X143935700Y-61966198D01*
X143940208Y-61969355D01*
X143940211Y-61969357D01*
X144018389Y-62024098D01*
X144123251Y-62097523D01*
X144128233Y-62099846D01*
X144128238Y-62099849D01*
X144162457Y-62115805D01*
X144215742Y-62162722D01*
X144235203Y-62230999D01*
X144214661Y-62298959D01*
X144162457Y-62344195D01*
X144128238Y-62360151D01*
X144128233Y-62360154D01*
X144123251Y-62362477D01*
X144018389Y-62435902D01*
X143940211Y-62490643D01*
X143940208Y-62490645D01*
X143935700Y-62493802D01*
X143773802Y-62655700D01*
X143642477Y-62843251D01*
X143640154Y-62848233D01*
X143640151Y-62848238D01*
X143548039Y-63045775D01*
X143545716Y-63050757D01*
X143544294Y-63056065D01*
X143544293Y-63056067D01*
X143487881Y-63266598D01*
X143486457Y-63271913D01*
X143466502Y-63500000D01*
X143486457Y-63728087D01*
X143487881Y-63733400D01*
X143487881Y-63733402D01*
X143539635Y-63926547D01*
X143545716Y-63949243D01*
X143548039Y-63954224D01*
X143548039Y-63954225D01*
X143640151Y-64151762D01*
X143640154Y-64151767D01*
X143642477Y-64156749D01*
X143685840Y-64218678D01*
X143768625Y-64336906D01*
X143773802Y-64344300D01*
X143935700Y-64506198D01*
X143940208Y-64509355D01*
X143940211Y-64509357D01*
X144007591Y-64556537D01*
X144123251Y-64637523D01*
X144128233Y-64639846D01*
X144128238Y-64639849D01*
X144162457Y-64655805D01*
X144215742Y-64702722D01*
X144235203Y-64770999D01*
X144214661Y-64838959D01*
X144162457Y-64884195D01*
X144128238Y-64900151D01*
X144128233Y-64900154D01*
X144123251Y-64902477D01*
X144018389Y-64975902D01*
X143940211Y-65030643D01*
X143940208Y-65030645D01*
X143935700Y-65033802D01*
X143773802Y-65195700D01*
X143642477Y-65383251D01*
X143640154Y-65388233D01*
X143640151Y-65388238D01*
X143597419Y-65479879D01*
X143545716Y-65590757D01*
X143544294Y-65596065D01*
X143544293Y-65596067D01*
X143487881Y-65806598D01*
X143486457Y-65811913D01*
X143466502Y-66040000D01*
X143486457Y-66268087D01*
X143545716Y-66489243D01*
X143548039Y-66494224D01*
X143548039Y-66494225D01*
X143640151Y-66691762D01*
X143640154Y-66691767D01*
X143642477Y-66696749D01*
X143645634Y-66701257D01*
X143753644Y-66855511D01*
X143773802Y-66884300D01*
X143935700Y-67046198D01*
X143940208Y-67049355D01*
X143940211Y-67049357D01*
X143999104Y-67090594D01*
X144123251Y-67177523D01*
X144128233Y-67179846D01*
X144128238Y-67179849D01*
X144307933Y-67263641D01*
X144330757Y-67274284D01*
X144336065Y-67275706D01*
X144336067Y-67275707D01*
X144546598Y-67332119D01*
X144546600Y-67332119D01*
X144551913Y-67333543D01*
X144780000Y-67353498D01*
X145007936Y-67333556D01*
X145077540Y-67347545D01*
X145108012Y-67369982D01*
X147844595Y-70106565D01*
X147878621Y-70168877D01*
X147881500Y-70195660D01*
X147881500Y-134001256D01*
X147861498Y-134069377D01*
X147857436Y-134075317D01*
X147855379Y-134078148D01*
X147850960Y-134083056D01*
X147755473Y-134248444D01*
X147696458Y-134430072D01*
X147676496Y-134620000D01*
X147696458Y-134809928D01*
X147755473Y-134991556D01*
X147850960Y-135156944D01*
X147978747Y-135298866D01*
X148133248Y-135411118D01*
X148139276Y-135413802D01*
X148139278Y-135413803D01*
X148301681Y-135486109D01*
X148307712Y-135488794D01*
X148401112Y-135508647D01*
X148488056Y-135527128D01*
X148488061Y-135527128D01*
X148494513Y-135528500D01*
X148685487Y-135528500D01*
X148691939Y-135527128D01*
X148691944Y-135527128D01*
X148778888Y-135508647D01*
X148872288Y-135488794D01*
X148878319Y-135486109D01*
X149040722Y-135413803D01*
X149040724Y-135413802D01*
X149046752Y-135411118D01*
X149201253Y-135298866D01*
X149329040Y-135156944D01*
X149424527Y-134991556D01*
X149483542Y-134809928D01*
X149503504Y-134620000D01*
X149483542Y-134430072D01*
X149424527Y-134248444D01*
X149329040Y-134083056D01*
X149324621Y-134078148D01*
X149322564Y-134075317D01*
X149298705Y-134008449D01*
X149298500Y-134001256D01*
X149298500Y-131146695D01*
X156747251Y-131146695D01*
X156747548Y-131151848D01*
X156747548Y-131151851D01*
X156753011Y-131246590D01*
X156760110Y-131369715D01*
X156761247Y-131374761D01*
X156761248Y-131374767D01*
X156781119Y-131462939D01*
X156809222Y-131587639D01*
X156893266Y-131794616D01*
X157009987Y-131985088D01*
X157156250Y-132153938D01*
X157328126Y-132296632D01*
X157521000Y-132409338D01*
X157729692Y-132489030D01*
X157734760Y-132490061D01*
X157734763Y-132490062D01*
X157842017Y-132511883D01*
X157948597Y-132533567D01*
X157953772Y-132533757D01*
X157953774Y-132533757D01*
X158166673Y-132541564D01*
X158166677Y-132541564D01*
X158171837Y-132541753D01*
X158176957Y-132541097D01*
X158176959Y-132541097D01*
X158388288Y-132514025D01*
X158388289Y-132514025D01*
X158393416Y-132513368D01*
X158398366Y-132511883D01*
X158602429Y-132450661D01*
X158602434Y-132450659D01*
X158607384Y-132449174D01*
X158807994Y-132350896D01*
X158989860Y-132221173D01*
X159148096Y-132063489D01*
X159207594Y-131980689D01*
X159275435Y-131886277D01*
X159278453Y-131882077D01*
X159377430Y-131681811D01*
X159442370Y-131468069D01*
X159471529Y-131246590D01*
X159473156Y-131180000D01*
X159454852Y-130957361D01*
X159400431Y-130740702D01*
X159311354Y-130535840D01*
X159190014Y-130348277D01*
X159039670Y-130183051D01*
X159035619Y-130179852D01*
X159035615Y-130179848D01*
X158868414Y-130047800D01*
X158868410Y-130047798D01*
X158864359Y-130044598D01*
X158859311Y-130041811D01*
X158812136Y-130015769D01*
X158668789Y-129936638D01*
X158663920Y-129934914D01*
X158663916Y-129934912D01*
X158463087Y-129863795D01*
X158463083Y-129863794D01*
X158458212Y-129862069D01*
X158453119Y-129861162D01*
X158453116Y-129861161D01*
X158243373Y-129823800D01*
X158243367Y-129823799D01*
X158238284Y-129822894D01*
X158164452Y-129821992D01*
X158020081Y-129820228D01*
X158020079Y-129820228D01*
X158014911Y-129820165D01*
X157794091Y-129853955D01*
X157581756Y-129923357D01*
X157383607Y-130026507D01*
X157379474Y-130029610D01*
X157379471Y-130029612D01*
X157209100Y-130157530D01*
X157204965Y-130160635D01*
X157201393Y-130164373D01*
X157123124Y-130246277D01*
X157050629Y-130322138D01*
X157047715Y-130326410D01*
X157047714Y-130326411D01*
X157032798Y-130348277D01*
X156924743Y-130506680D01*
X156830688Y-130709305D01*
X156770989Y-130924570D01*
X156747251Y-131146695D01*
X149298500Y-131146695D01*
X149298500Y-117778504D01*
X149318502Y-117710383D01*
X149372158Y-117663890D01*
X149442432Y-117653786D01*
X149475747Y-117663396D01*
X149577712Y-117708794D01*
X149671113Y-117728647D01*
X149758056Y-117747128D01*
X149758061Y-117747128D01*
X149764513Y-117748500D01*
X149955487Y-117748500D01*
X149961939Y-117747128D01*
X149961944Y-117747128D01*
X150048887Y-117728647D01*
X150142288Y-117708794D01*
X150265839Y-117653786D01*
X150310722Y-117633803D01*
X150310724Y-117633802D01*
X150316752Y-117631118D01*
X150471253Y-117518866D01*
X150599040Y-117376944D01*
X150694527Y-117211556D01*
X150753542Y-117029928D01*
X150773504Y-116840000D01*
X150753542Y-116650072D01*
X150694527Y-116468444D01*
X150599040Y-116303056D01*
X150594621Y-116298148D01*
X150592564Y-116295317D01*
X150568705Y-116228449D01*
X150568500Y-116221256D01*
X150568500Y-97458504D01*
X150588502Y-97390383D01*
X150642158Y-97343890D01*
X150712432Y-97333786D01*
X150745747Y-97343396D01*
X150847712Y-97388794D01*
X150941112Y-97408647D01*
X151028056Y-97427128D01*
X151028061Y-97427128D01*
X151034513Y-97428500D01*
X151225487Y-97428500D01*
X151231939Y-97427128D01*
X151231944Y-97427128D01*
X151318888Y-97408647D01*
X151412288Y-97388794D01*
X151535839Y-97333786D01*
X151580722Y-97313803D01*
X151580724Y-97313802D01*
X151586752Y-97311118D01*
X151741253Y-97198866D01*
X151869040Y-97056944D01*
X151964527Y-96891556D01*
X152023542Y-96709928D01*
X152043504Y-96520000D01*
X152023542Y-96330072D01*
X151964527Y-96148444D01*
X151869040Y-95983056D01*
X151864621Y-95978148D01*
X151862564Y-95975317D01*
X151838705Y-95908449D01*
X151838500Y-95901256D01*
X151838500Y-79678504D01*
X151858502Y-79610383D01*
X151912158Y-79563890D01*
X151982432Y-79553786D01*
X152015747Y-79563396D01*
X152117712Y-79608794D01*
X152211113Y-79628647D01*
X152298056Y-79647128D01*
X152298061Y-79647128D01*
X152304513Y-79648500D01*
X152495487Y-79648500D01*
X152501939Y-79647128D01*
X152501944Y-79647128D01*
X152588887Y-79628647D01*
X152682288Y-79608794D01*
X152805839Y-79553786D01*
X152850722Y-79533803D01*
X152850724Y-79533802D01*
X152856752Y-79531118D01*
X152863651Y-79526106D01*
X152912157Y-79490864D01*
X153011253Y-79418866D01*
X153049070Y-79376866D01*
X153134621Y-79281852D01*
X153134622Y-79281851D01*
X153139040Y-79276944D01*
X153197314Y-79176010D01*
X153231223Y-79117279D01*
X153231224Y-79117278D01*
X153234527Y-79111556D01*
X153293542Y-78929928D01*
X153313504Y-78740000D01*
X153293542Y-78550072D01*
X153234527Y-78368444D01*
X153139040Y-78203056D01*
X153134621Y-78198148D01*
X153132564Y-78195317D01*
X153108705Y-78128449D01*
X153108500Y-78121256D01*
X153108500Y-60988911D01*
X153108792Y-60980342D01*
X153112209Y-60930223D01*
X153112209Y-60930219D01*
X153112725Y-60922647D01*
X153101736Y-60859685D01*
X153100777Y-60853182D01*
X153094015Y-60797302D01*
X153093102Y-60789758D01*
X153090416Y-60782649D01*
X153089784Y-60780078D01*
X153085324Y-60763772D01*
X153084549Y-60761204D01*
X153083242Y-60753716D01*
X153057561Y-60695212D01*
X153055069Y-60689105D01*
X153035173Y-60636452D01*
X153035173Y-60636451D01*
X153032487Y-60629344D01*
X153028184Y-60623083D01*
X153026947Y-60620717D01*
X153018720Y-60605937D01*
X153017369Y-60603652D01*
X153014315Y-60596695D01*
X153009695Y-60590675D01*
X153009692Y-60590669D01*
X152975421Y-60546009D01*
X152971541Y-60540668D01*
X152939661Y-60494280D01*
X152939656Y-60494275D01*
X152935357Y-60488019D01*
X152888829Y-60446564D01*
X152883554Y-60441584D01*
X150381450Y-57939480D01*
X150375596Y-57933215D01*
X150375201Y-57932762D01*
X150337561Y-57889615D01*
X150285280Y-57852871D01*
X150279986Y-57848939D01*
X150235693Y-57814209D01*
X150229718Y-57809524D01*
X150222802Y-57806401D01*
X150220516Y-57805017D01*
X150205835Y-57796643D01*
X150203475Y-57795378D01*
X150197261Y-57791010D01*
X150190182Y-57788250D01*
X150190180Y-57788249D01*
X150137725Y-57767798D01*
X150131656Y-57765247D01*
X150073427Y-57738955D01*
X150065960Y-57737571D01*
X150063405Y-57736770D01*
X150047152Y-57732141D01*
X150044572Y-57731478D01*
X150037491Y-57728718D01*
X150029960Y-57727727D01*
X150029958Y-57727726D01*
X150000339Y-57723827D01*
X149974139Y-57720378D01*
X149967641Y-57719348D01*
X149904814Y-57707704D01*
X149897234Y-57708141D01*
X149897233Y-57708141D01*
X149842608Y-57711291D01*
X149835354Y-57711500D01*
X145946878Y-57711500D01*
X145878757Y-57691498D01*
X145843665Y-57657771D01*
X145789357Y-57580211D01*
X145789355Y-57580208D01*
X145786198Y-57575700D01*
X145624300Y-57413802D01*
X145619792Y-57410645D01*
X145619789Y-57410643D01*
X145541611Y-57355902D01*
X145436749Y-57282477D01*
X145431767Y-57280154D01*
X145431762Y-57280151D01*
X145397543Y-57264195D01*
X145344258Y-57217278D01*
X145324797Y-57149001D01*
X145345339Y-57081041D01*
X145397543Y-57035805D01*
X145431762Y-57019849D01*
X145431767Y-57019846D01*
X145436749Y-57017523D01*
X145541611Y-56944098D01*
X145619789Y-56889357D01*
X145619792Y-56889355D01*
X145624300Y-56886198D01*
X145786198Y-56724300D01*
X145917523Y-56536749D01*
X145919846Y-56531767D01*
X145919849Y-56531762D01*
X146011961Y-56334225D01*
X146011961Y-56334224D01*
X146014284Y-56329243D01*
X146023844Y-56293567D01*
X146072119Y-56113402D01*
X146072119Y-56113400D01*
X146073543Y-56108087D01*
X146093498Y-55880000D01*
X146073543Y-55651913D01*
X146072033Y-55646277D01*
X146015707Y-55436067D01*
X146015706Y-55436065D01*
X146014284Y-55430757D01*
X146011961Y-55425775D01*
X145919849Y-55228238D01*
X145919846Y-55228233D01*
X145917523Y-55223251D01*
X145786198Y-55035700D01*
X145624300Y-54873802D01*
X145619792Y-54870645D01*
X145619789Y-54870643D01*
X145541611Y-54815902D01*
X145436749Y-54742477D01*
X145431767Y-54740154D01*
X145431762Y-54740151D01*
X145397543Y-54724195D01*
X145344258Y-54677278D01*
X145324797Y-54609001D01*
X145345339Y-54541041D01*
X145397543Y-54495805D01*
X145431762Y-54479849D01*
X145431767Y-54479846D01*
X145436749Y-54477523D01*
X145587014Y-54372306D01*
X145619789Y-54349357D01*
X145619792Y-54349355D01*
X145624300Y-54346198D01*
X145786198Y-54184300D01*
X145917523Y-53996749D01*
X145919846Y-53991767D01*
X145919849Y-53991762D01*
X146011961Y-53794225D01*
X146011961Y-53794224D01*
X146014284Y-53789243D01*
X146059079Y-53622069D01*
X146072119Y-53573402D01*
X146072119Y-53573400D01*
X146073543Y-53568087D01*
X146093498Y-53340000D01*
X146073543Y-53111913D01*
X146072119Y-53106598D01*
X146015707Y-52896067D01*
X146015706Y-52896065D01*
X146014284Y-52890757D01*
X145995994Y-52851534D01*
X145919849Y-52688238D01*
X145919846Y-52688233D01*
X145917523Y-52683251D01*
X145803626Y-52520590D01*
X145789357Y-52500211D01*
X145789355Y-52500208D01*
X145786198Y-52495700D01*
X145624300Y-52333802D01*
X145619792Y-52330645D01*
X145619789Y-52330643D01*
X145541611Y-52275902D01*
X145436749Y-52202477D01*
X145431767Y-52200154D01*
X145431762Y-52200151D01*
X145397543Y-52184195D01*
X145344258Y-52137278D01*
X145324797Y-52069001D01*
X145345339Y-52001041D01*
X145397543Y-51955805D01*
X145431762Y-51939849D01*
X145431767Y-51939846D01*
X145436749Y-51937523D01*
X145596890Y-51825391D01*
X145619789Y-51809357D01*
X145619792Y-51809355D01*
X145624300Y-51806198D01*
X145786198Y-51644300D01*
X145917523Y-51456749D01*
X145919846Y-51451767D01*
X145919849Y-51451762D01*
X146011961Y-51254225D01*
X146011961Y-51254224D01*
X146014284Y-51249243D01*
X146073543Y-51028087D01*
X146093498Y-50800000D01*
X146073543Y-50571913D01*
X146026705Y-50397111D01*
X146028395Y-50326135D01*
X146068189Y-50267339D01*
X146133453Y-50239391D01*
X146148412Y-50238500D01*
X151144340Y-50238500D01*
X151212461Y-50258502D01*
X151233435Y-50275405D01*
X153747251Y-52789222D01*
X153781277Y-52851534D01*
X153781915Y-52901231D01*
X153780989Y-52904570D01*
X153757251Y-53126695D01*
X153757548Y-53131848D01*
X153757548Y-53131851D01*
X153763011Y-53226590D01*
X153770110Y-53349715D01*
X153771247Y-53354761D01*
X153771248Y-53354767D01*
X153791119Y-53442939D01*
X153819222Y-53567639D01*
X153903266Y-53774616D01*
X153920109Y-53802101D01*
X153990844Y-53917530D01*
X154019987Y-53965088D01*
X154166250Y-54133938D01*
X154338126Y-54276632D01*
X154349070Y-54283027D01*
X154397793Y-54334664D01*
X154411500Y-54391815D01*
X154411500Y-63921271D01*
X154391498Y-63989392D01*
X154337842Y-64035885D01*
X154285500Y-64047271D01*
X154139200Y-64047271D01*
X154107214Y-64049559D01*
X154072827Y-64052018D01*
X154072826Y-64052018D01*
X154066089Y-64052500D01*
X153987490Y-64075579D01*
X153934435Y-64091157D01*
X153934433Y-64091158D01*
X153925789Y-64093696D01*
X153918210Y-64098567D01*
X153810359Y-64167878D01*
X153810356Y-64167880D01*
X153802779Y-64172750D01*
X153796878Y-64179560D01*
X153712926Y-64276445D01*
X153712924Y-64276448D01*
X153707024Y-64283257D01*
X153703280Y-64291454D01*
X153703280Y-64291455D01*
X153686971Y-64327167D01*
X153646281Y-64416266D01*
X153625471Y-64561000D01*
X153625471Y-65711000D01*
X153625672Y-65713513D01*
X153625672Y-65713514D01*
X153631181Y-65782400D01*
X153632000Y-65792645D01*
X153634090Y-65799343D01*
X153634090Y-65799345D01*
X153640528Y-65819981D01*
X153644962Y-65875438D01*
X153625471Y-66011000D01*
X153625471Y-67011000D01*
X153630700Y-67084111D01*
X153671896Y-67224411D01*
X153688151Y-67249704D01*
X153746078Y-67339841D01*
X153746080Y-67339844D01*
X153750950Y-67347421D01*
X153757760Y-67353322D01*
X153854645Y-67437274D01*
X153854648Y-67437276D01*
X153861457Y-67443176D01*
X153994466Y-67503919D01*
X154139200Y-67524729D01*
X154360500Y-67524729D01*
X154428621Y-67544731D01*
X154475114Y-67598387D01*
X154486500Y-67650729D01*
X154486500Y-70981692D01*
X154466498Y-71049813D01*
X154418683Y-71093453D01*
X154393607Y-71106507D01*
X154389474Y-71109610D01*
X154389471Y-71109612D01*
X154365247Y-71127800D01*
X154214965Y-71240635D01*
X154060629Y-71402138D01*
X153934743Y-71586680D01*
X153840688Y-71789305D01*
X153780989Y-72004570D01*
X153757251Y-72226695D01*
X153757548Y-72231848D01*
X153757548Y-72231851D01*
X153763011Y-72326590D01*
X153770110Y-72449715D01*
X153771247Y-72454761D01*
X153771248Y-72454767D01*
X153791119Y-72542939D01*
X153819222Y-72667639D01*
X153903266Y-72874616D01*
X154019987Y-73065088D01*
X154166250Y-73233938D01*
X154338126Y-73376632D01*
X154342593Y-73379242D01*
X154424070Y-73426853D01*
X154472794Y-73478491D01*
X154486500Y-73535641D01*
X154486500Y-83442271D01*
X154466498Y-83510392D01*
X154412842Y-83556885D01*
X154360500Y-83568271D01*
X154190000Y-83568271D01*
X154158014Y-83570559D01*
X154123627Y-83573018D01*
X154123626Y-83573018D01*
X154116889Y-83573500D01*
X154037382Y-83596845D01*
X153985235Y-83612157D01*
X153985233Y-83612158D01*
X153976589Y-83614696D01*
X153969010Y-83619567D01*
X153861159Y-83688878D01*
X153861156Y-83688880D01*
X153853579Y-83693750D01*
X153847678Y-83700560D01*
X153763726Y-83797445D01*
X153763724Y-83797448D01*
X153757824Y-83804257D01*
X153754080Y-83812454D01*
X153754080Y-83812455D01*
X153731906Y-83861010D01*
X153697081Y-83937266D01*
X153676271Y-84082000D01*
X153676271Y-85232000D01*
X153676472Y-85234513D01*
X153676472Y-85234514D01*
X153682224Y-85306438D01*
X153682800Y-85313645D01*
X153684890Y-85320343D01*
X153684890Y-85320345D01*
X153691328Y-85340981D01*
X153695762Y-85396438D01*
X153676271Y-85532000D01*
X153676271Y-86532000D01*
X153681500Y-86605111D01*
X153722696Y-86745411D01*
X153727567Y-86752990D01*
X153796878Y-86860841D01*
X153796880Y-86860844D01*
X153801750Y-86868421D01*
X153808560Y-86874322D01*
X153905445Y-86958274D01*
X153905448Y-86958276D01*
X153912257Y-86964176D01*
X154045266Y-87024919D01*
X154190000Y-87045729D01*
X154360500Y-87045729D01*
X154428621Y-87065731D01*
X154475114Y-87119387D01*
X154486500Y-87171729D01*
X154486500Y-90071692D01*
X154466498Y-90139813D01*
X154418683Y-90183453D01*
X154393607Y-90196507D01*
X154389474Y-90199610D01*
X154389471Y-90199612D01*
X154365247Y-90217800D01*
X154214965Y-90330635D01*
X154060629Y-90492138D01*
X153934743Y-90676680D01*
X153840688Y-90879305D01*
X153780989Y-91094570D01*
X153757251Y-91316695D01*
X153757548Y-91321848D01*
X153757548Y-91321851D01*
X153763011Y-91416590D01*
X153770110Y-91539715D01*
X153771247Y-91544761D01*
X153771248Y-91544767D01*
X153791119Y-91632939D01*
X153819222Y-91757639D01*
X153903266Y-91964616D01*
X154019987Y-92155088D01*
X154166250Y-92323938D01*
X154338126Y-92466632D01*
X154342593Y-92469242D01*
X154424070Y-92516853D01*
X154472794Y-92568491D01*
X154486500Y-92625641D01*
X154486500Y-97931871D01*
X154466498Y-97999992D01*
X154412842Y-98046485D01*
X154360500Y-98057871D01*
X153809000Y-98057871D01*
X153777014Y-98060159D01*
X153742627Y-98062618D01*
X153742626Y-98062618D01*
X153735889Y-98063100D01*
X153678623Y-98079915D01*
X153604235Y-98101757D01*
X153604233Y-98101758D01*
X153595589Y-98104296D01*
X153588010Y-98109167D01*
X153480159Y-98178478D01*
X153480156Y-98178480D01*
X153472579Y-98183350D01*
X153466678Y-98190160D01*
X153382726Y-98287045D01*
X153382724Y-98287048D01*
X153376824Y-98293857D01*
X153316081Y-98426866D01*
X153295271Y-98571600D01*
X153295271Y-99721600D01*
X153301800Y-99803245D01*
X153303890Y-99809943D01*
X153303890Y-99809945D01*
X153310328Y-99830581D01*
X153314762Y-99886038D01*
X153295271Y-100021600D01*
X153295271Y-101021600D01*
X153300500Y-101094711D01*
X153341696Y-101235011D01*
X153346567Y-101242590D01*
X153415878Y-101350441D01*
X153415880Y-101350444D01*
X153420750Y-101358021D01*
X153427560Y-101363922D01*
X153524445Y-101447874D01*
X153524448Y-101447876D01*
X153531257Y-101453776D01*
X153664266Y-101514519D01*
X153809000Y-101535329D01*
X154360500Y-101535329D01*
X154428621Y-101555331D01*
X154475114Y-101608987D01*
X154486500Y-101661329D01*
X154486500Y-109401692D01*
X154466498Y-109469813D01*
X154418683Y-109513453D01*
X154393607Y-109526507D01*
X154389474Y-109529610D01*
X154389471Y-109529612D01*
X154219100Y-109657530D01*
X154214965Y-109660635D01*
X154060629Y-109822138D01*
X153934743Y-110006680D01*
X153840688Y-110209305D01*
X153780989Y-110424570D01*
X153757251Y-110646695D01*
X153757548Y-110651848D01*
X153757548Y-110651851D01*
X153769812Y-110864547D01*
X153770110Y-110869715D01*
X153771247Y-110874761D01*
X153771248Y-110874767D01*
X153784624Y-110934118D01*
X153819222Y-111087639D01*
X153857461Y-111181811D01*
X153901157Y-111289421D01*
X153903266Y-111294616D01*
X153905965Y-111299020D01*
X154008737Y-111466729D01*
X154019987Y-111485088D01*
X154166250Y-111653938D01*
X154338126Y-111796632D01*
X154342593Y-111799242D01*
X154424070Y-111846853D01*
X154472794Y-111898491D01*
X154486500Y-111955641D01*
X154486500Y-121047888D01*
X154466498Y-121116009D01*
X154412842Y-121162502D01*
X154369488Y-121173567D01*
X154320089Y-121177100D01*
X154240582Y-121200445D01*
X154188435Y-121215757D01*
X154188433Y-121215758D01*
X154179789Y-121218296D01*
X154159144Y-121231564D01*
X154064359Y-121292478D01*
X154064356Y-121292480D01*
X154056779Y-121297350D01*
X154050878Y-121304160D01*
X153966926Y-121401045D01*
X153966924Y-121401048D01*
X153961024Y-121407857D01*
X153900281Y-121540866D01*
X153879471Y-121685600D01*
X153879471Y-122835600D01*
X153879672Y-122838113D01*
X153879672Y-122838114D01*
X153883916Y-122891181D01*
X153886000Y-122917245D01*
X153888090Y-122923943D01*
X153888090Y-122923945D01*
X153894528Y-122944581D01*
X153898962Y-123000038D01*
X153897017Y-123013567D01*
X153879471Y-123135600D01*
X153879471Y-124135600D01*
X153884700Y-124208711D01*
X153925896Y-124349011D01*
X153930767Y-124356590D01*
X154000078Y-124464441D01*
X154000080Y-124464444D01*
X154004950Y-124472021D01*
X154011760Y-124477922D01*
X154108645Y-124561874D01*
X154108648Y-124561876D01*
X154115457Y-124567776D01*
X154248466Y-124628519D01*
X154257389Y-124629802D01*
X154378432Y-124647206D01*
X154443013Y-124676699D01*
X154481396Y-124736425D01*
X154486500Y-124771923D01*
X154486500Y-128261692D01*
X154466498Y-128329813D01*
X154418683Y-128373453D01*
X154393607Y-128386507D01*
X154389474Y-128389610D01*
X154389471Y-128389612D01*
X154365247Y-128407800D01*
X154214965Y-128520635D01*
X154060629Y-128682138D01*
X153934743Y-128866680D01*
X153840688Y-129069305D01*
X153780989Y-129284570D01*
X153757251Y-129506695D01*
X153757548Y-129511848D01*
X153757548Y-129511851D01*
X153763011Y-129606590D01*
X153770110Y-129729715D01*
X153771247Y-129734761D01*
X153771248Y-129734767D01*
X153791095Y-129822831D01*
X153819222Y-129947639D01*
X153903266Y-130154616D01*
X154019987Y-130345088D01*
X154166250Y-130513938D01*
X154338126Y-130656632D01*
X154531000Y-130769338D01*
X154739692Y-130849030D01*
X154744760Y-130850061D01*
X154744763Y-130850062D01*
X154852017Y-130871883D01*
X154958597Y-130893567D01*
X154963772Y-130893757D01*
X154963774Y-130893757D01*
X155176673Y-130901564D01*
X155176677Y-130901564D01*
X155181837Y-130901753D01*
X155186957Y-130901097D01*
X155186959Y-130901097D01*
X155398288Y-130874025D01*
X155398289Y-130874025D01*
X155403416Y-130873368D01*
X155408366Y-130871883D01*
X155612429Y-130810661D01*
X155612434Y-130810659D01*
X155617384Y-130809174D01*
X155817994Y-130710896D01*
X155999860Y-130581173D01*
X156158096Y-130423489D01*
X156209023Y-130352617D01*
X156285435Y-130246277D01*
X156288453Y-130242077D01*
X156317626Y-130183051D01*
X156385136Y-130046453D01*
X156385137Y-130046451D01*
X156387430Y-130041811D01*
X156452370Y-129828069D01*
X156481529Y-129606590D01*
X156483156Y-129540000D01*
X156464852Y-129317361D01*
X156410431Y-129100702D01*
X156321354Y-128895840D01*
X156200014Y-128708277D01*
X156049670Y-128543051D01*
X156045619Y-128539852D01*
X156045615Y-128539848D01*
X155878414Y-128407800D01*
X155878410Y-128407798D01*
X155874359Y-128404598D01*
X155869835Y-128402101D01*
X155869831Y-128402098D01*
X155818608Y-128373822D01*
X155768636Y-128323390D01*
X155753500Y-128263513D01*
X155753500Y-124775329D01*
X155773502Y-124707208D01*
X155827158Y-124660715D01*
X155879500Y-124649329D01*
X155893200Y-124649329D01*
X155925186Y-124647041D01*
X155959573Y-124644582D01*
X155959574Y-124644582D01*
X155966311Y-124644100D01*
X156045818Y-124620755D01*
X156097965Y-124605443D01*
X156097967Y-124605442D01*
X156106611Y-124602904D01*
X156170455Y-124561874D01*
X156222041Y-124528722D01*
X156222044Y-124528720D01*
X156229621Y-124523850D01*
X156274531Y-124472021D01*
X156319474Y-124420155D01*
X156319476Y-124420152D01*
X156325376Y-124413343D01*
X156386119Y-124280334D01*
X156406929Y-124135600D01*
X156406929Y-123135600D01*
X156406805Y-123133632D01*
X156403266Y-123077520D01*
X156403265Y-123077516D01*
X156402857Y-123071043D01*
X156390275Y-123025368D01*
X156387033Y-122973975D01*
X156387744Y-122969030D01*
X156406929Y-122835600D01*
X156406929Y-121685600D01*
X156402716Y-121626695D01*
X175647251Y-121626695D01*
X175647548Y-121631848D01*
X175647548Y-121631851D01*
X175653011Y-121726590D01*
X175660110Y-121849715D01*
X175661247Y-121854761D01*
X175661248Y-121854767D01*
X175681119Y-121942939D01*
X175709222Y-122067639D01*
X175793266Y-122274616D01*
X175909987Y-122465088D01*
X176056250Y-122633938D01*
X176228126Y-122776632D01*
X176421000Y-122889338D01*
X176629692Y-122969030D01*
X176634760Y-122970061D01*
X176634763Y-122970062D01*
X176737019Y-122990866D01*
X176848597Y-123013567D01*
X176853772Y-123013757D01*
X176853774Y-123013757D01*
X177066673Y-123021564D01*
X177066677Y-123021564D01*
X177071837Y-123021753D01*
X177076957Y-123021097D01*
X177076959Y-123021097D01*
X177288288Y-122994025D01*
X177288289Y-122994025D01*
X177293416Y-122993368D01*
X177301756Y-122990866D01*
X177502429Y-122930661D01*
X177502434Y-122930659D01*
X177507384Y-122929174D01*
X177707994Y-122830896D01*
X177889860Y-122701173D01*
X178048096Y-122543489D01*
X178107594Y-122460689D01*
X178175435Y-122366277D01*
X178178453Y-122362077D01*
X178277430Y-122161811D01*
X178342370Y-121948069D01*
X178371529Y-121726590D01*
X178371611Y-121723240D01*
X178373074Y-121663365D01*
X178373074Y-121663361D01*
X178373156Y-121660000D01*
X178354852Y-121437361D01*
X178300431Y-121220702D01*
X178211354Y-121015840D01*
X178143642Y-120911173D01*
X178092822Y-120832617D01*
X178092820Y-120832614D01*
X178090014Y-120828277D01*
X177939670Y-120663051D01*
X177935619Y-120659852D01*
X177935615Y-120659848D01*
X177768414Y-120527800D01*
X177768410Y-120527798D01*
X177764359Y-120524598D01*
X177754735Y-120519285D01*
X177683260Y-120479829D01*
X177568789Y-120416638D01*
X177563920Y-120414914D01*
X177563916Y-120414912D01*
X177363087Y-120343795D01*
X177363083Y-120343794D01*
X177358212Y-120342069D01*
X177353119Y-120341162D01*
X177353116Y-120341161D01*
X177143373Y-120303800D01*
X177143367Y-120303799D01*
X177138284Y-120302894D01*
X177064452Y-120301992D01*
X176920081Y-120300228D01*
X176920079Y-120300228D01*
X176914911Y-120300165D01*
X176694091Y-120333955D01*
X176481756Y-120403357D01*
X176283607Y-120506507D01*
X176279474Y-120509610D01*
X176279471Y-120509612D01*
X176109100Y-120637530D01*
X176104965Y-120640635D01*
X175950629Y-120802138D01*
X175947715Y-120806410D01*
X175947714Y-120806411D01*
X175878736Y-120907529D01*
X175824743Y-120986680D01*
X175809003Y-121020590D01*
X175735470Y-121179004D01*
X175730688Y-121189305D01*
X175670989Y-121404570D01*
X175647251Y-121626695D01*
X156402716Y-121626695D01*
X156401700Y-121612489D01*
X156360504Y-121472189D01*
X156317048Y-121404570D01*
X156286322Y-121356759D01*
X156286320Y-121356756D01*
X156281450Y-121349179D01*
X156274640Y-121343278D01*
X156177755Y-121259326D01*
X156177752Y-121259324D01*
X156170943Y-121253424D01*
X156037934Y-121192681D01*
X155893200Y-121171871D01*
X155879500Y-121171871D01*
X155811379Y-121151869D01*
X155764886Y-121098213D01*
X155753500Y-121045871D01*
X155753500Y-112056695D01*
X156747251Y-112056695D01*
X156747548Y-112061848D01*
X156747548Y-112061851D01*
X156753011Y-112156590D01*
X156760110Y-112279715D01*
X156761247Y-112284761D01*
X156761248Y-112284767D01*
X156781119Y-112372939D01*
X156809222Y-112497639D01*
X156893266Y-112704616D01*
X157009987Y-112895088D01*
X157156250Y-113063938D01*
X157328126Y-113206632D01*
X157521000Y-113319338D01*
X157729692Y-113399030D01*
X157734760Y-113400061D01*
X157734763Y-113400062D01*
X157842017Y-113421883D01*
X157948597Y-113443567D01*
X157953772Y-113443757D01*
X157953774Y-113443757D01*
X158166673Y-113451564D01*
X158166677Y-113451564D01*
X158171837Y-113451753D01*
X158176957Y-113451097D01*
X158176959Y-113451097D01*
X158388288Y-113424025D01*
X158388289Y-113424025D01*
X158393416Y-113423368D01*
X158398366Y-113421883D01*
X158602429Y-113360661D01*
X158602434Y-113360659D01*
X158607384Y-113359174D01*
X158807994Y-113260896D01*
X158989860Y-113131173D01*
X159148096Y-112973489D01*
X159207594Y-112890689D01*
X159275435Y-112796277D01*
X159278453Y-112792077D01*
X159377430Y-112591811D01*
X159442370Y-112378069D01*
X159471529Y-112156590D01*
X159473156Y-112090000D01*
X159454852Y-111867361D01*
X159400431Y-111650702D01*
X159311354Y-111445840D01*
X159216372Y-111299020D01*
X159192822Y-111262617D01*
X159192820Y-111262614D01*
X159190014Y-111258277D01*
X159039670Y-111093051D01*
X159035619Y-111089852D01*
X159035615Y-111089848D01*
X158868414Y-110957800D01*
X158868410Y-110957798D01*
X158864359Y-110954598D01*
X158668789Y-110846638D01*
X158663920Y-110844914D01*
X158663916Y-110844912D01*
X158463087Y-110773795D01*
X158463083Y-110773794D01*
X158458212Y-110772069D01*
X158453119Y-110771162D01*
X158453116Y-110771161D01*
X158243373Y-110733800D01*
X158243367Y-110733799D01*
X158238284Y-110732894D01*
X158164452Y-110731992D01*
X158020081Y-110730228D01*
X158020079Y-110730228D01*
X158014911Y-110730165D01*
X157794091Y-110763955D01*
X157581756Y-110833357D01*
X157383607Y-110936507D01*
X157379474Y-110939610D01*
X157379471Y-110939612D01*
X157209100Y-111067530D01*
X157204965Y-111070635D01*
X157050629Y-111232138D01*
X156924743Y-111416680D01*
X156830688Y-111619305D01*
X156770989Y-111834570D01*
X156747251Y-112056695D01*
X155753500Y-112056695D01*
X155753500Y-111960427D01*
X155773502Y-111892306D01*
X155814618Y-111852550D01*
X155817994Y-111850896D01*
X155999860Y-111721173D01*
X156158096Y-111563489D01*
X156174697Y-111540387D01*
X156285435Y-111386277D01*
X156288453Y-111382077D01*
X156337993Y-111281841D01*
X156385136Y-111186453D01*
X156385137Y-111186451D01*
X156387430Y-111181811D01*
X156432766Y-111032594D01*
X156450865Y-110973023D01*
X156450865Y-110973021D01*
X156452370Y-110968069D01*
X156481529Y-110746590D01*
X156481611Y-110743240D01*
X156483074Y-110683365D01*
X156483074Y-110683361D01*
X156483156Y-110680000D01*
X156464852Y-110457361D01*
X156410431Y-110240702D01*
X156321354Y-110035840D01*
X156200014Y-109848277D01*
X156049670Y-109683051D01*
X156045619Y-109679852D01*
X156045615Y-109679848D01*
X155878414Y-109547800D01*
X155878410Y-109547798D01*
X155874359Y-109544598D01*
X155869835Y-109542101D01*
X155869831Y-109542098D01*
X155818608Y-109513822D01*
X155768636Y-109463390D01*
X155753500Y-109403513D01*
X155753500Y-101299767D01*
X155764886Y-101247425D01*
X155798175Y-101174532D01*
X155801919Y-101166334D01*
X155822729Y-101021600D01*
X155822729Y-100021600D01*
X155822605Y-100019632D01*
X155819066Y-99963520D01*
X155819065Y-99963516D01*
X155818657Y-99957043D01*
X155806075Y-99911368D01*
X155802833Y-99859975D01*
X155822729Y-99721600D01*
X155822729Y-98571600D01*
X155817500Y-98498489D01*
X155776304Y-98358189D01*
X155771430Y-98350605D01*
X155767688Y-98342411D01*
X155769858Y-98341420D01*
X155753500Y-98285709D01*
X155753500Y-93026695D01*
X156747251Y-93026695D01*
X156747548Y-93031848D01*
X156747548Y-93031851D01*
X156753011Y-93126590D01*
X156760110Y-93249715D01*
X156761247Y-93254761D01*
X156761248Y-93254767D01*
X156781119Y-93342939D01*
X156809222Y-93467639D01*
X156893266Y-93674616D01*
X157009987Y-93865088D01*
X157156250Y-94033938D01*
X157328126Y-94176632D01*
X157521000Y-94289338D01*
X157729692Y-94369030D01*
X157734760Y-94370061D01*
X157734763Y-94370062D01*
X157842017Y-94391883D01*
X157948597Y-94413567D01*
X157953772Y-94413757D01*
X157953774Y-94413757D01*
X158166673Y-94421564D01*
X158166677Y-94421564D01*
X158171837Y-94421753D01*
X158176957Y-94421097D01*
X158176959Y-94421097D01*
X158388288Y-94394025D01*
X158388289Y-94394025D01*
X158393416Y-94393368D01*
X158398366Y-94391883D01*
X158602429Y-94330661D01*
X158602434Y-94330659D01*
X158607384Y-94329174D01*
X158807994Y-94230896D01*
X158989860Y-94101173D01*
X159148096Y-93943489D01*
X159207594Y-93860689D01*
X159275435Y-93766277D01*
X159278453Y-93762077D01*
X159377430Y-93561811D01*
X159442370Y-93348069D01*
X159471529Y-93126590D01*
X159473156Y-93060000D01*
X159454852Y-92837361D01*
X159400431Y-92620702D01*
X159311354Y-92415840D01*
X159190014Y-92228277D01*
X159039670Y-92063051D01*
X159035619Y-92059852D01*
X159035615Y-92059848D01*
X158868414Y-91927800D01*
X158868410Y-91927798D01*
X158864359Y-91924598D01*
X158668789Y-91816638D01*
X158663920Y-91814914D01*
X158663916Y-91814912D01*
X158463087Y-91743795D01*
X158463083Y-91743794D01*
X158458212Y-91742069D01*
X158453119Y-91741162D01*
X158453116Y-91741161D01*
X158243373Y-91703800D01*
X158243367Y-91703799D01*
X158238284Y-91702894D01*
X158164452Y-91701992D01*
X158020081Y-91700228D01*
X158020079Y-91700228D01*
X158014911Y-91700165D01*
X157794091Y-91733955D01*
X157581756Y-91803357D01*
X157383607Y-91906507D01*
X157379474Y-91909610D01*
X157379471Y-91909612D01*
X157300347Y-91969020D01*
X157204965Y-92040635D01*
X157050629Y-92202138D01*
X156924743Y-92386680D01*
X156830688Y-92589305D01*
X156770989Y-92804570D01*
X156747251Y-93026695D01*
X155753500Y-93026695D01*
X155753500Y-92630427D01*
X155773502Y-92562306D01*
X155814618Y-92522550D01*
X155817994Y-92520896D01*
X155999860Y-92391173D01*
X156158096Y-92233489D01*
X156177554Y-92206411D01*
X156285435Y-92056277D01*
X156288453Y-92052077D01*
X156361579Y-91904118D01*
X156385136Y-91856453D01*
X156385137Y-91856451D01*
X156387430Y-91851811D01*
X156452370Y-91638069D01*
X156481529Y-91416590D01*
X156483156Y-91350000D01*
X156464852Y-91127361D01*
X156410431Y-90910702D01*
X156321354Y-90705840D01*
X156200014Y-90518277D01*
X156049670Y-90353051D01*
X156045619Y-90349852D01*
X156045615Y-90349848D01*
X155878414Y-90217800D01*
X155878410Y-90217798D01*
X155874359Y-90214598D01*
X155869835Y-90212101D01*
X155869831Y-90212098D01*
X155818608Y-90183822D01*
X155768636Y-90133390D01*
X155753500Y-90073513D01*
X155753500Y-87137644D01*
X155773502Y-87069523D01*
X155827158Y-87023030D01*
X155844002Y-87016748D01*
X155894765Y-87001843D01*
X155894767Y-87001842D01*
X155903411Y-86999304D01*
X155972214Y-86955087D01*
X156018841Y-86925122D01*
X156018844Y-86925120D01*
X156026421Y-86920250D01*
X156040127Y-86904433D01*
X156116274Y-86816555D01*
X156116276Y-86816552D01*
X156122176Y-86809743D01*
X156182919Y-86676734D01*
X156203729Y-86532000D01*
X156203729Y-85532000D01*
X156203605Y-85530032D01*
X156200066Y-85473920D01*
X156200065Y-85473916D01*
X156199657Y-85467443D01*
X156187075Y-85421768D01*
X156183833Y-85370375D01*
X156203729Y-85232000D01*
X156203729Y-84082000D01*
X156198500Y-84008889D01*
X156174052Y-83925627D01*
X156159843Y-83877235D01*
X156159842Y-83877233D01*
X156157304Y-83868589D01*
X156115960Y-83804257D01*
X156083122Y-83753159D01*
X156083120Y-83753156D01*
X156078250Y-83745579D01*
X156034241Y-83707445D01*
X155974555Y-83655726D01*
X155974552Y-83655724D01*
X155967743Y-83649824D01*
X155856187Y-83598878D01*
X155834734Y-83589081D01*
X155835405Y-83587612D01*
X155784281Y-83554761D01*
X155754784Y-83490182D01*
X155753500Y-83472243D01*
X155753500Y-73540427D01*
X155766341Y-73496695D01*
X156747251Y-73496695D01*
X156747548Y-73501848D01*
X156747548Y-73501851D01*
X156753011Y-73596590D01*
X156760110Y-73719715D01*
X156761247Y-73724761D01*
X156761248Y-73724767D01*
X156781119Y-73812939D01*
X156809222Y-73937639D01*
X156893266Y-74144616D01*
X157009987Y-74335088D01*
X157156250Y-74503938D01*
X157328126Y-74646632D01*
X157521000Y-74759338D01*
X157729692Y-74839030D01*
X157734760Y-74840061D01*
X157734763Y-74840062D01*
X157842017Y-74861883D01*
X157948597Y-74883567D01*
X157953772Y-74883757D01*
X157953774Y-74883757D01*
X158166673Y-74891564D01*
X158166677Y-74891564D01*
X158171837Y-74891753D01*
X158176957Y-74891097D01*
X158176959Y-74891097D01*
X158388288Y-74864025D01*
X158388289Y-74864025D01*
X158393416Y-74863368D01*
X158398366Y-74861883D01*
X158602429Y-74800661D01*
X158602434Y-74800659D01*
X158607384Y-74799174D01*
X158807994Y-74700896D01*
X158989860Y-74571173D01*
X159148096Y-74413489D01*
X159207594Y-74330689D01*
X159275435Y-74236277D01*
X159278453Y-74232077D01*
X159377430Y-74031811D01*
X159442370Y-73818069D01*
X159471529Y-73596590D01*
X159473156Y-73530000D01*
X159454852Y-73307361D01*
X159400431Y-73090702D01*
X159311354Y-72885840D01*
X159190014Y-72698277D01*
X159039670Y-72533051D01*
X159035619Y-72529852D01*
X159035615Y-72529848D01*
X158868414Y-72397800D01*
X158868410Y-72397798D01*
X158864359Y-72394598D01*
X158668789Y-72286638D01*
X158663920Y-72284914D01*
X158663916Y-72284912D01*
X158463087Y-72213795D01*
X158463083Y-72213794D01*
X158458212Y-72212069D01*
X158453119Y-72211162D01*
X158453116Y-72211161D01*
X158243373Y-72173800D01*
X158243367Y-72173799D01*
X158238284Y-72172894D01*
X158164452Y-72171992D01*
X158020081Y-72170228D01*
X158020079Y-72170228D01*
X158014911Y-72170165D01*
X157794091Y-72203955D01*
X157581756Y-72273357D01*
X157551443Y-72289137D01*
X157479497Y-72326590D01*
X157383607Y-72376507D01*
X157379474Y-72379610D01*
X157379471Y-72379612D01*
X157279374Y-72454767D01*
X157204965Y-72510635D01*
X157201393Y-72514373D01*
X157059748Y-72662596D01*
X157050629Y-72672138D01*
X156924743Y-72856680D01*
X156830688Y-73059305D01*
X156770989Y-73274570D01*
X156747251Y-73496695D01*
X155766341Y-73496695D01*
X155773502Y-73472306D01*
X155814618Y-73432550D01*
X155817994Y-73430896D01*
X155999860Y-73301173D01*
X156158096Y-73143489D01*
X156217594Y-73060689D01*
X156285435Y-72966277D01*
X156288453Y-72962077D01*
X156326132Y-72885840D01*
X156385136Y-72766453D01*
X156385137Y-72766451D01*
X156387430Y-72761811D01*
X156452370Y-72548069D01*
X156481529Y-72326590D01*
X156482505Y-72286638D01*
X156483074Y-72263365D01*
X156483074Y-72263361D01*
X156483156Y-72260000D01*
X156464852Y-72037361D01*
X156410431Y-71820702D01*
X156321354Y-71615840D01*
X156200014Y-71428277D01*
X156049670Y-71263051D01*
X156045619Y-71259852D01*
X156045615Y-71259848D01*
X155878414Y-71127800D01*
X155878410Y-71127798D01*
X155874359Y-71124598D01*
X155869835Y-71122101D01*
X155869831Y-71122098D01*
X155818608Y-71093822D01*
X155768636Y-71043390D01*
X155753500Y-70983513D01*
X155753500Y-67601728D01*
X155773502Y-67533607D01*
X155827158Y-67487114D01*
X155843934Y-67480857D01*
X155843966Y-67480843D01*
X155852611Y-67478304D01*
X155875639Y-67463505D01*
X155968041Y-67404122D01*
X155968044Y-67404120D01*
X155975621Y-67399250D01*
X155996278Y-67375411D01*
X156065474Y-67295555D01*
X156065476Y-67295552D01*
X156071376Y-67288743D01*
X156089205Y-67249704D01*
X156128375Y-67163932D01*
X156132119Y-67155734D01*
X156152929Y-67011000D01*
X156152929Y-66011000D01*
X156152805Y-66009032D01*
X156149266Y-65952920D01*
X156149265Y-65952916D01*
X156148857Y-65946443D01*
X156146278Y-65937079D01*
X156145650Y-65934800D01*
X156136275Y-65900768D01*
X156133033Y-65849375D01*
X156152929Y-65711000D01*
X156152929Y-64561000D01*
X156149235Y-64509357D01*
X156148182Y-64494627D01*
X156148182Y-64494626D01*
X156147700Y-64487889D01*
X156106504Y-64347589D01*
X156060826Y-64276513D01*
X156032322Y-64232159D01*
X156032320Y-64232156D01*
X156027450Y-64224579D01*
X156007229Y-64207057D01*
X155923755Y-64134726D01*
X155923752Y-64134724D01*
X155916943Y-64128824D01*
X155902158Y-64122072D01*
X155848502Y-64075579D01*
X155828500Y-64007458D01*
X155828500Y-54906695D01*
X156747251Y-54906695D01*
X156747548Y-54911848D01*
X156747548Y-54911851D01*
X156754689Y-55035700D01*
X156760110Y-55129715D01*
X156761247Y-55134761D01*
X156761248Y-55134767D01*
X156782275Y-55228069D01*
X156809222Y-55347639D01*
X156893266Y-55554616D01*
X157009987Y-55745088D01*
X157156250Y-55913938D01*
X157328126Y-56056632D01*
X157521000Y-56169338D01*
X157729692Y-56249030D01*
X157734760Y-56250061D01*
X157734763Y-56250062D01*
X157842017Y-56271883D01*
X157948597Y-56293567D01*
X157953772Y-56293757D01*
X157953774Y-56293757D01*
X158166673Y-56301564D01*
X158166677Y-56301564D01*
X158171837Y-56301753D01*
X158176957Y-56301097D01*
X158176959Y-56301097D01*
X158388288Y-56274025D01*
X158388289Y-56274025D01*
X158393416Y-56273368D01*
X158398366Y-56271883D01*
X158602429Y-56210661D01*
X158602434Y-56210659D01*
X158607384Y-56209174D01*
X158807994Y-56110896D01*
X158989860Y-55981173D01*
X159148096Y-55823489D01*
X159207594Y-55740689D01*
X159275435Y-55646277D01*
X159278453Y-55642077D01*
X159377430Y-55441811D01*
X159442370Y-55228069D01*
X159471529Y-55006590D01*
X159473156Y-54940000D01*
X159454852Y-54717361D01*
X159400431Y-54500702D01*
X159311354Y-54295840D01*
X159206615Y-54133938D01*
X159192822Y-54112617D01*
X159192820Y-54112614D01*
X159190014Y-54108277D01*
X159039670Y-53943051D01*
X159035619Y-53939852D01*
X159035615Y-53939848D01*
X158868414Y-53807800D01*
X158868410Y-53807798D01*
X158864359Y-53804598D01*
X158836544Y-53789243D01*
X158776593Y-53756149D01*
X158668789Y-53696638D01*
X158663920Y-53694914D01*
X158663916Y-53694912D01*
X158463087Y-53623795D01*
X158463083Y-53623794D01*
X158458212Y-53622069D01*
X158453119Y-53621162D01*
X158453116Y-53621161D01*
X158243373Y-53583800D01*
X158243367Y-53583799D01*
X158238284Y-53582894D01*
X158164452Y-53581992D01*
X158020081Y-53580228D01*
X158020079Y-53580228D01*
X158014911Y-53580165D01*
X157794091Y-53613955D01*
X157581756Y-53683357D01*
X157551443Y-53699137D01*
X157388552Y-53783933D01*
X157383607Y-53786507D01*
X157379474Y-53789610D01*
X157379471Y-53789612D01*
X157282957Y-53862077D01*
X157204965Y-53920635D01*
X157050629Y-54082138D01*
X156924743Y-54266680D01*
X156909003Y-54300590D01*
X156844093Y-54440427D01*
X156830688Y-54469305D01*
X156770989Y-54684570D01*
X156747251Y-54906695D01*
X155828500Y-54906695D01*
X155828500Y-54388297D01*
X155848502Y-54320176D01*
X155881332Y-54285718D01*
X155995656Y-54204172D01*
X155995659Y-54204170D01*
X155999860Y-54201173D01*
X156012882Y-54188197D01*
X156154435Y-54047137D01*
X156158096Y-54043489D01*
X156195266Y-53991762D01*
X156285435Y-53866277D01*
X156288453Y-53862077D01*
X156321988Y-53794225D01*
X156385136Y-53666453D01*
X156385137Y-53666451D01*
X156387430Y-53661811D01*
X156452370Y-53448069D01*
X156481529Y-53226590D01*
X156483156Y-53160000D01*
X156464852Y-52937361D01*
X156410431Y-52720702D01*
X156321354Y-52515840D01*
X156259712Y-52420556D01*
X156202822Y-52332617D01*
X156202820Y-52332614D01*
X156200014Y-52328277D01*
X156049670Y-52163051D01*
X156045619Y-52159852D01*
X156045615Y-52159848D01*
X155878414Y-52027800D01*
X155878410Y-52027798D01*
X155874359Y-52024598D01*
X155678789Y-51916638D01*
X155673920Y-51914914D01*
X155673916Y-51914912D01*
X155473087Y-51843795D01*
X155473083Y-51843794D01*
X155468212Y-51842069D01*
X155463119Y-51841162D01*
X155463116Y-51841161D01*
X155253373Y-51803800D01*
X155253367Y-51803799D01*
X155248284Y-51802894D01*
X155174452Y-51801992D01*
X155030081Y-51800228D01*
X155030079Y-51800228D01*
X155024911Y-51800165D01*
X154860059Y-51825391D01*
X154789698Y-51815923D01*
X154751906Y-51789936D01*
X152011450Y-49049480D01*
X152005596Y-49043215D01*
X152005201Y-49042762D01*
X151967561Y-48999615D01*
X151915280Y-48962871D01*
X151909986Y-48958939D01*
X151865693Y-48924209D01*
X151859718Y-48919524D01*
X151852802Y-48916401D01*
X151850516Y-48915017D01*
X151835835Y-48906643D01*
X151833475Y-48905378D01*
X151827261Y-48901010D01*
X151820182Y-48898250D01*
X151820180Y-48898249D01*
X151767725Y-48877798D01*
X151761656Y-48875247D01*
X151703427Y-48848955D01*
X151695960Y-48847571D01*
X151693405Y-48846770D01*
X151677152Y-48842141D01*
X151674572Y-48841478D01*
X151667491Y-48838718D01*
X151659960Y-48837727D01*
X151659958Y-48837726D01*
X151630339Y-48833827D01*
X151604139Y-48830378D01*
X151597641Y-48829348D01*
X151534814Y-48817704D01*
X151527234Y-48818141D01*
X151527233Y-48818141D01*
X151472608Y-48821291D01*
X151465354Y-48821500D01*
X146148412Y-48821500D01*
X146080291Y-48801498D01*
X146033798Y-48747842D01*
X146023694Y-48677568D01*
X146026705Y-48662889D01*
X146072119Y-48493402D01*
X146072119Y-48493400D01*
X146073543Y-48488087D01*
X146093498Y-48260000D01*
X146073543Y-48031913D01*
X146045592Y-47927599D01*
X146047282Y-47856624D01*
X146087076Y-47797828D01*
X146152340Y-47769880D01*
X146167299Y-47768989D01*
X167714829Y-47768989D01*
X167782950Y-47788991D01*
X167803924Y-47805894D01*
X172787251Y-52789222D01*
X172821277Y-52851534D01*
X172821915Y-52901231D01*
X172820989Y-52904570D01*
X172797251Y-53126695D01*
X172797548Y-53131848D01*
X172797548Y-53131851D01*
X172803011Y-53226590D01*
X172810110Y-53349715D01*
X172811247Y-53354761D01*
X172811248Y-53354767D01*
X172831119Y-53442939D01*
X172859222Y-53567639D01*
X172943266Y-53774616D01*
X172960109Y-53802101D01*
X173030844Y-53917530D01*
X173059987Y-53965088D01*
X173206250Y-54133938D01*
X173378126Y-54276632D01*
X173458164Y-54323402D01*
X173464070Y-54326853D01*
X173512794Y-54378491D01*
X173526500Y-54435641D01*
X173526500Y-63858426D01*
X173506498Y-63926547D01*
X173452842Y-63973040D01*
X173436001Y-63979321D01*
X173380474Y-63995625D01*
X173314635Y-64014957D01*
X173314633Y-64014958D01*
X173305989Y-64017496D01*
X173298410Y-64022367D01*
X173190559Y-64091678D01*
X173190556Y-64091680D01*
X173182979Y-64096550D01*
X173177078Y-64103360D01*
X173093126Y-64200245D01*
X173093124Y-64200248D01*
X173087224Y-64207057D01*
X173083480Y-64215254D01*
X173083480Y-64215255D01*
X173061306Y-64263810D01*
X173026481Y-64340066D01*
X173005671Y-64484800D01*
X173005671Y-65634800D01*
X173012200Y-65716445D01*
X173014290Y-65723143D01*
X173014290Y-65723145D01*
X173020728Y-65743781D01*
X173025162Y-65799238D01*
X173005671Y-65934800D01*
X173005671Y-66934800D01*
X173010900Y-67007911D01*
X173031296Y-67077373D01*
X173041241Y-67111241D01*
X173052096Y-67148211D01*
X173056967Y-67155790D01*
X173126278Y-67263641D01*
X173126280Y-67263644D01*
X173131150Y-67271221D01*
X173137960Y-67277122D01*
X173234845Y-67361074D01*
X173234848Y-67361076D01*
X173241657Y-67366976D01*
X173249854Y-67370720D01*
X173249855Y-67370720D01*
X173297617Y-67392532D01*
X173374666Y-67427719D01*
X173383589Y-67429002D01*
X173418433Y-67434012D01*
X173483013Y-67463505D01*
X173521396Y-67523232D01*
X173526500Y-67558729D01*
X173526500Y-70981692D01*
X173506498Y-71049813D01*
X173458683Y-71093453D01*
X173433607Y-71106507D01*
X173429474Y-71109610D01*
X173429471Y-71109612D01*
X173405247Y-71127800D01*
X173254965Y-71240635D01*
X173100629Y-71402138D01*
X172974743Y-71586680D01*
X172880688Y-71789305D01*
X172820989Y-72004570D01*
X172797251Y-72226695D01*
X172797548Y-72231848D01*
X172797548Y-72231851D01*
X172803011Y-72326590D01*
X172810110Y-72449715D01*
X172811247Y-72454761D01*
X172811248Y-72454767D01*
X172831119Y-72542939D01*
X172859222Y-72667639D01*
X172943266Y-72874616D01*
X173059987Y-73065088D01*
X173206250Y-73233938D01*
X173378126Y-73376632D01*
X173382593Y-73379242D01*
X173464070Y-73426853D01*
X173512794Y-73478491D01*
X173526500Y-73535641D01*
X173526500Y-83352271D01*
X173506498Y-83420392D01*
X173452842Y-83466885D01*
X173400500Y-83478271D01*
X173367000Y-83478271D01*
X173335014Y-83480559D01*
X173300627Y-83483018D01*
X173300626Y-83483018D01*
X173293889Y-83483500D01*
X173214382Y-83506845D01*
X173162235Y-83522157D01*
X173162233Y-83522158D01*
X173153589Y-83524696D01*
X173146010Y-83529567D01*
X173038159Y-83598878D01*
X173038156Y-83598880D01*
X173030579Y-83603750D01*
X173024678Y-83610560D01*
X172940726Y-83707445D01*
X172940724Y-83707448D01*
X172934824Y-83714257D01*
X172874081Y-83847266D01*
X172853271Y-83992000D01*
X172853271Y-85142000D01*
X172859800Y-85223645D01*
X172861890Y-85230343D01*
X172861890Y-85230345D01*
X172868328Y-85250981D01*
X172872762Y-85306438D01*
X172869120Y-85331771D01*
X172853271Y-85442000D01*
X172853271Y-86442000D01*
X172858500Y-86515111D01*
X172879531Y-86586734D01*
X172884927Y-86605111D01*
X172899696Y-86655411D01*
X172904567Y-86662990D01*
X172973878Y-86770841D01*
X172973880Y-86770844D01*
X172978750Y-86778421D01*
X172985560Y-86784322D01*
X173082445Y-86868274D01*
X173082448Y-86868276D01*
X173089257Y-86874176D01*
X173222266Y-86934919D01*
X173367000Y-86955729D01*
X173400500Y-86955729D01*
X173468621Y-86975731D01*
X173515114Y-87029387D01*
X173526500Y-87081729D01*
X173526500Y-90071692D01*
X173506498Y-90139813D01*
X173458683Y-90183453D01*
X173433607Y-90196507D01*
X173429474Y-90199610D01*
X173429471Y-90199612D01*
X173405247Y-90217800D01*
X173254965Y-90330635D01*
X173100629Y-90492138D01*
X172974743Y-90676680D01*
X172880688Y-90879305D01*
X172820989Y-91094570D01*
X172797251Y-91316695D01*
X172797548Y-91321848D01*
X172797548Y-91321851D01*
X172803011Y-91416590D01*
X172810110Y-91539715D01*
X172811247Y-91544761D01*
X172811248Y-91544767D01*
X172831119Y-91632939D01*
X172859222Y-91757639D01*
X172943266Y-91964616D01*
X173059987Y-92155088D01*
X173206250Y-92323938D01*
X173378126Y-92466632D01*
X173382593Y-92469242D01*
X173464070Y-92516853D01*
X173512794Y-92568491D01*
X173526500Y-92625641D01*
X173526500Y-107863271D01*
X173506498Y-107931392D01*
X173452842Y-107977885D01*
X173400500Y-107989271D01*
X173240000Y-107989271D01*
X173208014Y-107991559D01*
X173173627Y-107994018D01*
X173173626Y-107994018D01*
X173166889Y-107994500D01*
X173101071Y-108013826D01*
X173035235Y-108033157D01*
X173035233Y-108033158D01*
X173026589Y-108035696D01*
X173019010Y-108040567D01*
X172911159Y-108109878D01*
X172911156Y-108109880D01*
X172903579Y-108114750D01*
X172897678Y-108121560D01*
X172813726Y-108218445D01*
X172813724Y-108218448D01*
X172807824Y-108225257D01*
X172747081Y-108358266D01*
X172726271Y-108503000D01*
X172726271Y-109653000D01*
X172726472Y-109655513D01*
X172726472Y-109655514D01*
X172728980Y-109686870D01*
X172732800Y-109734645D01*
X172734890Y-109741343D01*
X172734890Y-109741345D01*
X172741328Y-109761981D01*
X172745762Y-109817438D01*
X172726271Y-109953000D01*
X172726271Y-110953000D01*
X172731500Y-111026111D01*
X172772696Y-111166411D01*
X172777567Y-111173990D01*
X172846878Y-111281841D01*
X172846880Y-111281844D01*
X172851750Y-111289421D01*
X172858560Y-111295322D01*
X172955445Y-111379274D01*
X172955448Y-111379276D01*
X172962257Y-111385176D01*
X173095266Y-111445919D01*
X173240000Y-111466729D01*
X173400500Y-111466729D01*
X173468621Y-111486731D01*
X173515114Y-111540387D01*
X173526500Y-111592729D01*
X173526500Y-118591692D01*
X173506498Y-118659813D01*
X173458683Y-118703453D01*
X173433607Y-118716507D01*
X173429474Y-118719610D01*
X173429471Y-118719612D01*
X173405247Y-118737800D01*
X173254965Y-118850635D01*
X173100629Y-119012138D01*
X172974743Y-119196680D01*
X172880688Y-119399305D01*
X172820989Y-119614570D01*
X172797251Y-119836695D01*
X172797548Y-119841848D01*
X172797548Y-119841851D01*
X172803011Y-119936590D01*
X172810110Y-120059715D01*
X172811247Y-120064761D01*
X172811248Y-120064767D01*
X172830702Y-120151088D01*
X172859222Y-120277639D01*
X172943266Y-120484616D01*
X172945965Y-120489020D01*
X173052611Y-120663051D01*
X173059987Y-120675088D01*
X173206250Y-120843938D01*
X173378126Y-120986632D01*
X173571000Y-121099338D01*
X173779692Y-121179030D01*
X173784760Y-121180061D01*
X173784763Y-121180062D01*
X173892017Y-121201883D01*
X173998597Y-121223567D01*
X174003772Y-121223757D01*
X174003774Y-121223757D01*
X174216673Y-121231564D01*
X174216677Y-121231564D01*
X174221837Y-121231753D01*
X174226957Y-121231097D01*
X174226959Y-121231097D01*
X174438288Y-121204025D01*
X174438289Y-121204025D01*
X174443416Y-121203368D01*
X174473651Y-121194297D01*
X174652429Y-121140661D01*
X174652434Y-121140659D01*
X174657384Y-121139174D01*
X174857994Y-121040896D01*
X175039860Y-120911173D01*
X175198096Y-120753489D01*
X175239517Y-120695846D01*
X175325435Y-120576277D01*
X175328453Y-120572077D01*
X175351919Y-120524598D01*
X175425136Y-120376453D01*
X175425137Y-120376451D01*
X175427430Y-120371811D01*
X175492370Y-120158069D01*
X175521529Y-119936590D01*
X175521611Y-119933240D01*
X175523074Y-119873365D01*
X175523074Y-119873361D01*
X175523156Y-119870000D01*
X175504852Y-119647361D01*
X175450431Y-119430702D01*
X175361354Y-119225840D01*
X175240014Y-119038277D01*
X175089670Y-118873051D01*
X175085619Y-118869852D01*
X175085615Y-118869848D01*
X174918414Y-118737800D01*
X174918410Y-118737798D01*
X174914359Y-118734598D01*
X174909835Y-118732101D01*
X174909831Y-118732098D01*
X174858608Y-118703822D01*
X174808636Y-118653390D01*
X174793500Y-118593513D01*
X174793500Y-111561580D01*
X174813502Y-111493459D01*
X174867158Y-111446966D01*
X174883997Y-111440686D01*
X174919863Y-111430155D01*
X174944765Y-111422843D01*
X174944767Y-111422842D01*
X174953411Y-111420304D01*
X175020112Y-111377438D01*
X175068841Y-111346122D01*
X175068844Y-111346120D01*
X175076421Y-111341250D01*
X175121331Y-111289421D01*
X175166274Y-111237555D01*
X175166276Y-111237552D01*
X175172176Y-111230743D01*
X175232919Y-111097734D01*
X175234371Y-111087639D01*
X175253087Y-110957463D01*
X175253729Y-110953000D01*
X175253729Y-109953000D01*
X175253605Y-109951032D01*
X175250066Y-109894920D01*
X175250065Y-109894916D01*
X175249657Y-109888443D01*
X175237075Y-109842768D01*
X175233833Y-109791375D01*
X175253729Y-109653000D01*
X175253729Y-108503000D01*
X175248500Y-108429889D01*
X175207304Y-108289589D01*
X175165960Y-108225257D01*
X175133122Y-108174159D01*
X175133120Y-108174156D01*
X175128250Y-108166579D01*
X175121440Y-108160678D01*
X175024555Y-108076726D01*
X175024552Y-108076724D01*
X175017743Y-108070824D01*
X174884734Y-108010081D01*
X174881544Y-108009622D01*
X174824279Y-107972823D01*
X174794783Y-107908244D01*
X174793500Y-107890307D01*
X174793500Y-93026695D01*
X175647251Y-93026695D01*
X175647548Y-93031848D01*
X175647548Y-93031851D01*
X175653011Y-93126590D01*
X175660110Y-93249715D01*
X175661247Y-93254761D01*
X175661248Y-93254767D01*
X175681119Y-93342939D01*
X175709222Y-93467639D01*
X175793266Y-93674616D01*
X175909987Y-93865088D01*
X176056250Y-94033938D01*
X176228126Y-94176632D01*
X176421000Y-94289338D01*
X176629692Y-94369030D01*
X176634760Y-94370061D01*
X176634763Y-94370062D01*
X176742017Y-94391883D01*
X176848597Y-94413567D01*
X176853772Y-94413757D01*
X176853774Y-94413757D01*
X177066673Y-94421564D01*
X177066677Y-94421564D01*
X177071837Y-94421753D01*
X177076957Y-94421097D01*
X177076959Y-94421097D01*
X177288288Y-94394025D01*
X177288289Y-94394025D01*
X177293416Y-94393368D01*
X177298366Y-94391883D01*
X177502429Y-94330661D01*
X177502434Y-94330659D01*
X177507384Y-94329174D01*
X177707994Y-94230896D01*
X177889860Y-94101173D01*
X178048096Y-93943489D01*
X178107594Y-93860689D01*
X178175435Y-93766277D01*
X178178453Y-93762077D01*
X178277430Y-93561811D01*
X178342370Y-93348069D01*
X178371529Y-93126590D01*
X178373156Y-93060000D01*
X178354852Y-92837361D01*
X178300431Y-92620702D01*
X178211354Y-92415840D01*
X178090014Y-92228277D01*
X177939670Y-92063051D01*
X177935619Y-92059852D01*
X177935615Y-92059848D01*
X177768414Y-91927800D01*
X177768410Y-91927798D01*
X177764359Y-91924598D01*
X177568789Y-91816638D01*
X177563920Y-91814914D01*
X177563916Y-91814912D01*
X177363087Y-91743795D01*
X177363083Y-91743794D01*
X177358212Y-91742069D01*
X177353119Y-91741162D01*
X177353116Y-91741161D01*
X177143373Y-91703800D01*
X177143367Y-91703799D01*
X177138284Y-91702894D01*
X177064452Y-91701992D01*
X176920081Y-91700228D01*
X176920079Y-91700228D01*
X176914911Y-91700165D01*
X176694091Y-91733955D01*
X176481756Y-91803357D01*
X176283607Y-91906507D01*
X176279474Y-91909610D01*
X176279471Y-91909612D01*
X176200347Y-91969020D01*
X176104965Y-92040635D01*
X175950629Y-92202138D01*
X175824743Y-92386680D01*
X175730688Y-92589305D01*
X175670989Y-92804570D01*
X175647251Y-93026695D01*
X174793500Y-93026695D01*
X174793500Y-92630427D01*
X174813502Y-92562306D01*
X174854618Y-92522550D01*
X174857994Y-92520896D01*
X175039860Y-92391173D01*
X175198096Y-92233489D01*
X175217554Y-92206411D01*
X175325435Y-92056277D01*
X175328453Y-92052077D01*
X175401579Y-91904118D01*
X175425136Y-91856453D01*
X175425137Y-91856451D01*
X175427430Y-91851811D01*
X175492370Y-91638069D01*
X175521529Y-91416590D01*
X175523156Y-91350000D01*
X175504852Y-91127361D01*
X175450431Y-90910702D01*
X175361354Y-90705840D01*
X175240014Y-90518277D01*
X175089670Y-90353051D01*
X175085619Y-90349852D01*
X175085615Y-90349848D01*
X174918414Y-90217800D01*
X174918410Y-90217798D01*
X174914359Y-90214598D01*
X174909835Y-90212101D01*
X174909831Y-90212098D01*
X174858608Y-90183822D01*
X174808636Y-90133390D01*
X174793500Y-90073513D01*
X174793500Y-87078296D01*
X174813502Y-87010175D01*
X174867158Y-86963682D01*
X174910511Y-86952617D01*
X174933373Y-86950982D01*
X174933374Y-86950982D01*
X174940111Y-86950500D01*
X175043133Y-86920250D01*
X175071765Y-86911843D01*
X175071767Y-86911842D01*
X175080411Y-86909304D01*
X175155821Y-86860841D01*
X175195841Y-86835122D01*
X175195844Y-86835120D01*
X175203421Y-86830250D01*
X175215288Y-86816555D01*
X175293274Y-86726555D01*
X175293276Y-86726552D01*
X175299176Y-86719743D01*
X175318818Y-86676734D01*
X175348566Y-86611594D01*
X175359919Y-86586734D01*
X175380729Y-86442000D01*
X175380729Y-85442000D01*
X175380605Y-85440032D01*
X175377066Y-85383920D01*
X175377065Y-85383916D01*
X175376657Y-85377443D01*
X175364075Y-85331768D01*
X175360833Y-85280375D01*
X175380729Y-85142000D01*
X175380729Y-83992000D01*
X175375500Y-83918889D01*
X175334304Y-83778589D01*
X175292960Y-83714257D01*
X175260122Y-83663159D01*
X175260120Y-83663156D01*
X175255250Y-83655579D01*
X175208069Y-83614696D01*
X175151555Y-83565726D01*
X175151552Y-83565724D01*
X175144743Y-83559824D01*
X175011734Y-83499081D01*
X175002811Y-83497798D01*
X174901568Y-83483241D01*
X174836987Y-83453748D01*
X174798604Y-83394022D01*
X174793500Y-83358524D01*
X174793500Y-73540427D01*
X174806341Y-73496695D01*
X175647251Y-73496695D01*
X175647548Y-73501848D01*
X175647548Y-73501851D01*
X175653011Y-73596590D01*
X175660110Y-73719715D01*
X175661247Y-73724761D01*
X175661248Y-73724767D01*
X175681119Y-73812939D01*
X175709222Y-73937639D01*
X175793266Y-74144616D01*
X175909987Y-74335088D01*
X176056250Y-74503938D01*
X176228126Y-74646632D01*
X176421000Y-74759338D01*
X176629692Y-74839030D01*
X176634760Y-74840061D01*
X176634763Y-74840062D01*
X176742017Y-74861883D01*
X176848597Y-74883567D01*
X176853772Y-74883757D01*
X176853774Y-74883757D01*
X177066673Y-74891564D01*
X177066677Y-74891564D01*
X177071837Y-74891753D01*
X177076957Y-74891097D01*
X177076959Y-74891097D01*
X177288288Y-74864025D01*
X177288289Y-74864025D01*
X177293416Y-74863368D01*
X177298366Y-74861883D01*
X177502429Y-74800661D01*
X177502434Y-74800659D01*
X177507384Y-74799174D01*
X177707994Y-74700896D01*
X177889860Y-74571173D01*
X178048096Y-74413489D01*
X178107594Y-74330689D01*
X178175435Y-74236277D01*
X178178453Y-74232077D01*
X178277430Y-74031811D01*
X178342370Y-73818069D01*
X178371529Y-73596590D01*
X178373156Y-73530000D01*
X178354852Y-73307361D01*
X178300431Y-73090702D01*
X178211354Y-72885840D01*
X178090014Y-72698277D01*
X177939670Y-72533051D01*
X177935619Y-72529852D01*
X177935615Y-72529848D01*
X177768414Y-72397800D01*
X177768410Y-72397798D01*
X177764359Y-72394598D01*
X177568789Y-72286638D01*
X177563920Y-72284914D01*
X177563916Y-72284912D01*
X177363087Y-72213795D01*
X177363083Y-72213794D01*
X177358212Y-72212069D01*
X177353119Y-72211162D01*
X177353116Y-72211161D01*
X177143373Y-72173800D01*
X177143367Y-72173799D01*
X177138284Y-72172894D01*
X177064452Y-72171992D01*
X176920081Y-72170228D01*
X176920079Y-72170228D01*
X176914911Y-72170165D01*
X176694091Y-72203955D01*
X176481756Y-72273357D01*
X176451443Y-72289137D01*
X176379497Y-72326590D01*
X176283607Y-72376507D01*
X176279474Y-72379610D01*
X176279471Y-72379612D01*
X176179374Y-72454767D01*
X176104965Y-72510635D01*
X176101393Y-72514373D01*
X175959748Y-72662596D01*
X175950629Y-72672138D01*
X175824743Y-72856680D01*
X175730688Y-73059305D01*
X175670989Y-73274570D01*
X175647251Y-73496695D01*
X174806341Y-73496695D01*
X174813502Y-73472306D01*
X174854618Y-73432550D01*
X174857994Y-73430896D01*
X175039860Y-73301173D01*
X175198096Y-73143489D01*
X175257594Y-73060689D01*
X175325435Y-72966277D01*
X175328453Y-72962077D01*
X175366132Y-72885840D01*
X175425136Y-72766453D01*
X175425137Y-72766451D01*
X175427430Y-72761811D01*
X175492370Y-72548069D01*
X175521529Y-72326590D01*
X175522505Y-72286638D01*
X175523074Y-72263365D01*
X175523074Y-72263361D01*
X175523156Y-72260000D01*
X175504852Y-72037361D01*
X175450431Y-71820702D01*
X175361354Y-71615840D01*
X175240014Y-71428277D01*
X175089670Y-71263051D01*
X175085619Y-71259852D01*
X175085615Y-71259848D01*
X174918414Y-71127800D01*
X174918410Y-71127798D01*
X174914359Y-71124598D01*
X174909835Y-71122101D01*
X174909831Y-71122098D01*
X174858608Y-71093822D01*
X174808636Y-71043390D01*
X174793500Y-70983513D01*
X174793500Y-67574529D01*
X174813502Y-67506408D01*
X174867158Y-67459915D01*
X174919500Y-67448529D01*
X175019400Y-67448529D01*
X175051386Y-67446241D01*
X175085773Y-67443782D01*
X175085774Y-67443782D01*
X175092511Y-67443300D01*
X175172018Y-67419955D01*
X175224165Y-67404643D01*
X175224167Y-67404642D01*
X175232811Y-67402104D01*
X175307650Y-67354008D01*
X175348241Y-67327922D01*
X175348244Y-67327920D01*
X175355821Y-67323050D01*
X175383679Y-67290900D01*
X175445674Y-67219355D01*
X175445676Y-67219352D01*
X175451576Y-67212543D01*
X175475973Y-67159122D01*
X175508575Y-67087732D01*
X175512319Y-67079534D01*
X175533129Y-66934800D01*
X175533129Y-65934800D01*
X175533005Y-65932832D01*
X175529466Y-65876720D01*
X175529465Y-65876716D01*
X175529057Y-65870243D01*
X175516475Y-65824568D01*
X175513233Y-65773175D01*
X175533129Y-65634800D01*
X175533129Y-64484800D01*
X175527900Y-64411689D01*
X175501652Y-64322296D01*
X175489243Y-64280035D01*
X175489242Y-64280033D01*
X175486704Y-64271389D01*
X175442247Y-64202213D01*
X175412522Y-64155959D01*
X175412520Y-64155956D01*
X175407650Y-64148379D01*
X175391894Y-64134726D01*
X175303955Y-64058526D01*
X175303952Y-64058524D01*
X175297143Y-64052624D01*
X175286679Y-64047845D01*
X175220223Y-64017496D01*
X175164134Y-63991881D01*
X175019400Y-63971071D01*
X174919500Y-63971071D01*
X174851379Y-63951069D01*
X174804886Y-63897413D01*
X174793500Y-63845071D01*
X174793500Y-54906695D01*
X175647251Y-54906695D01*
X175647548Y-54911848D01*
X175647548Y-54911851D01*
X175654689Y-55035700D01*
X175660110Y-55129715D01*
X175661247Y-55134761D01*
X175661248Y-55134767D01*
X175682275Y-55228069D01*
X175709222Y-55347639D01*
X175793266Y-55554616D01*
X175909987Y-55745088D01*
X176056250Y-55913938D01*
X176228126Y-56056632D01*
X176421000Y-56169338D01*
X176629692Y-56249030D01*
X176634760Y-56250061D01*
X176634763Y-56250062D01*
X176742017Y-56271883D01*
X176848597Y-56293567D01*
X176853772Y-56293757D01*
X176853774Y-56293757D01*
X177066673Y-56301564D01*
X177066677Y-56301564D01*
X177071837Y-56301753D01*
X177076957Y-56301097D01*
X177076959Y-56301097D01*
X177288288Y-56274025D01*
X177288289Y-56274025D01*
X177293416Y-56273368D01*
X177298366Y-56271883D01*
X177502429Y-56210661D01*
X177502434Y-56210659D01*
X177507384Y-56209174D01*
X177707994Y-56110896D01*
X177889860Y-55981173D01*
X178048096Y-55823489D01*
X178107594Y-55740689D01*
X178175435Y-55646277D01*
X178178453Y-55642077D01*
X178277430Y-55441811D01*
X178342370Y-55228069D01*
X178371529Y-55006590D01*
X178373156Y-54940000D01*
X178354852Y-54717361D01*
X178300431Y-54500702D01*
X178211354Y-54295840D01*
X178106615Y-54133938D01*
X178092822Y-54112617D01*
X178092820Y-54112614D01*
X178090014Y-54108277D01*
X177939670Y-53943051D01*
X177935619Y-53939852D01*
X177935615Y-53939848D01*
X177768414Y-53807800D01*
X177768410Y-53807798D01*
X177764359Y-53804598D01*
X177736544Y-53789243D01*
X177676593Y-53756149D01*
X177568789Y-53696638D01*
X177563920Y-53694914D01*
X177563916Y-53694912D01*
X177363087Y-53623795D01*
X177363083Y-53623794D01*
X177358212Y-53622069D01*
X177353119Y-53621162D01*
X177353116Y-53621161D01*
X177143373Y-53583800D01*
X177143367Y-53583799D01*
X177138284Y-53582894D01*
X177064452Y-53581992D01*
X176920081Y-53580228D01*
X176920079Y-53580228D01*
X176914911Y-53580165D01*
X176694091Y-53613955D01*
X176481756Y-53683357D01*
X176451443Y-53699137D01*
X176288552Y-53783933D01*
X176283607Y-53786507D01*
X176279474Y-53789610D01*
X176279471Y-53789612D01*
X176182957Y-53862077D01*
X176104965Y-53920635D01*
X175950629Y-54082138D01*
X175824743Y-54266680D01*
X175809003Y-54300590D01*
X175744093Y-54440427D01*
X175730688Y-54469305D01*
X175670989Y-54684570D01*
X175647251Y-54906695D01*
X174793500Y-54906695D01*
X174793500Y-54440427D01*
X174813502Y-54372306D01*
X174854618Y-54332550D01*
X174857994Y-54330896D01*
X175039860Y-54201173D01*
X175052882Y-54188197D01*
X175194435Y-54047137D01*
X175198096Y-54043489D01*
X175235266Y-53991762D01*
X175325435Y-53866277D01*
X175328453Y-53862077D01*
X175361988Y-53794225D01*
X175425136Y-53666453D01*
X175425137Y-53666451D01*
X175427430Y-53661811D01*
X175492370Y-53448069D01*
X175521529Y-53226590D01*
X175523156Y-53160000D01*
X175504852Y-52937361D01*
X175450431Y-52720702D01*
X175361354Y-52515840D01*
X175299712Y-52420556D01*
X175242822Y-52332617D01*
X175242820Y-52332614D01*
X175240014Y-52328277D01*
X175089670Y-52163051D01*
X175085619Y-52159852D01*
X175085615Y-52159848D01*
X174918414Y-52027800D01*
X174918410Y-52027798D01*
X174914359Y-52024598D01*
X174718789Y-51916638D01*
X174713920Y-51914914D01*
X174713916Y-51914912D01*
X174513087Y-51843795D01*
X174513083Y-51843794D01*
X174508212Y-51842069D01*
X174503119Y-51841162D01*
X174503116Y-51841161D01*
X174293373Y-51803800D01*
X174293367Y-51803799D01*
X174288284Y-51802894D01*
X174214452Y-51801992D01*
X174070081Y-51800228D01*
X174070079Y-51800228D01*
X174064911Y-51800165D01*
X173900059Y-51825391D01*
X173829698Y-51815923D01*
X173791906Y-51789936D01*
X168581939Y-46579969D01*
X168576085Y-46573704D01*
X168563946Y-46559789D01*
X168538050Y-46530104D01*
X168485769Y-46493360D01*
X168480475Y-46489428D01*
X168436182Y-46454698D01*
X168430207Y-46450013D01*
X168423291Y-46446890D01*
X168421005Y-46445506D01*
X168406324Y-46437132D01*
X168403964Y-46435867D01*
X168397750Y-46431499D01*
X168390671Y-46428739D01*
X168390669Y-46428738D01*
X168338214Y-46408287D01*
X168332145Y-46405736D01*
X168273916Y-46379444D01*
X168266449Y-46378060D01*
X168263894Y-46377259D01*
X168247641Y-46372630D01*
X168245061Y-46371967D01*
X168237980Y-46369207D01*
X168230449Y-46368216D01*
X168230447Y-46368215D01*
X168200828Y-46364316D01*
X168174628Y-46360867D01*
X168168130Y-46359837D01*
X168105303Y-46348193D01*
X168097723Y-46348630D01*
X168097722Y-46348630D01*
X168043097Y-46351780D01*
X168035843Y-46351989D01*
X146126298Y-46351989D01*
X146058177Y-46331987D01*
X146011684Y-46278331D01*
X146001580Y-46208057D01*
X146010114Y-46179410D01*
X146009607Y-46179226D01*
X146015236Y-46163761D01*
X146071625Y-45953312D01*
X146073528Y-45942519D01*
X146092517Y-45725475D01*
X146092517Y-45714525D01*
X146073528Y-45497481D01*
X146071625Y-45486688D01*
X146015236Y-45276239D01*
X146011490Y-45265947D01*
X145919414Y-45068489D01*
X145913931Y-45058994D01*
X145877491Y-45006952D01*
X145867012Y-44998576D01*
X145853566Y-45005644D01*
X144869095Y-45990115D01*
X144806783Y-46024141D01*
X144735968Y-46019076D01*
X144690905Y-45990115D01*
X143705713Y-45004923D01*
X143693938Y-44998493D01*
X143681923Y-45007789D01*
X143646069Y-45058994D01*
X143640586Y-45068489D01*
X143548510Y-45265947D01*
X143544764Y-45276239D01*
X143488375Y-45486688D01*
X143486472Y-45497481D01*
X143467483Y-45714525D01*
X143467483Y-45725475D01*
X143486472Y-45942519D01*
X143488375Y-45953312D01*
X143544764Y-46163761D01*
X143550393Y-46179226D01*
X143548964Y-46179746D01*
X143558556Y-46242942D01*
X143529570Y-46307752D01*
X143470147Y-46346603D01*
X143433702Y-46351989D01*
X135848438Y-46351989D01*
X135839869Y-46351697D01*
X135789736Y-46348279D01*
X135789732Y-46348279D01*
X135782159Y-46347763D01*
X135719192Y-46358753D01*
X135712680Y-46359713D01*
X135649269Y-46367387D01*
X135642168Y-46370070D01*
X135639559Y-46370711D01*
X135623226Y-46375180D01*
X135620706Y-46375941D01*
X135613228Y-46377246D01*
X135606276Y-46380298D01*
X135606275Y-46380298D01*
X135554715Y-46402930D01*
X135548610Y-46405421D01*
X135495967Y-46425314D01*
X135495963Y-46425316D01*
X135488855Y-46428002D01*
X135482594Y-46432305D01*
X135480228Y-46433542D01*
X135465448Y-46441769D01*
X135463163Y-46443120D01*
X135456206Y-46446174D01*
X135450186Y-46450794D01*
X135450180Y-46450797D01*
X135419053Y-46474683D01*
X135405509Y-46485076D01*
X135400179Y-46488948D01*
X135353791Y-46520828D01*
X135353786Y-46520833D01*
X135347530Y-46525132D01*
X135342479Y-46530802D01*
X135342477Y-46530803D01*
X135306076Y-46571659D01*
X135301095Y-46576935D01*
X131062628Y-50815402D01*
X131000316Y-50849428D01*
X130929501Y-50844363D01*
X130872665Y-50801816D01*
X130848012Y-50737289D01*
X130834022Y-50577393D01*
X130833543Y-50571913D01*
X130786705Y-50397111D01*
X130775707Y-50356067D01*
X130775706Y-50356065D01*
X130774284Y-50350757D01*
X130721938Y-50238500D01*
X130679849Y-50148238D01*
X130679846Y-50148233D01*
X130677523Y-50143251D01*
X130546198Y-49955700D01*
X130384300Y-49793802D01*
X130379792Y-49790645D01*
X130379789Y-49790643D01*
X130301611Y-49735902D01*
X130196749Y-49662477D01*
X130191767Y-49660154D01*
X130191762Y-49660151D01*
X130157543Y-49644195D01*
X130104258Y-49597278D01*
X130084797Y-49529001D01*
X130105339Y-49461041D01*
X130157543Y-49415805D01*
X130191762Y-49399849D01*
X130191767Y-49399846D01*
X130196749Y-49397523D01*
X130301611Y-49324098D01*
X130379789Y-49269357D01*
X130379792Y-49269355D01*
X130384300Y-49266198D01*
X130546198Y-49104300D01*
X130584584Y-49049480D01*
X130674366Y-48921257D01*
X130677523Y-48916749D01*
X130679846Y-48911767D01*
X130679849Y-48911762D01*
X130771961Y-48714225D01*
X130771961Y-48714224D01*
X130774284Y-48709243D01*
X130782772Y-48677568D01*
X130832119Y-48493402D01*
X130832119Y-48493400D01*
X130833543Y-48488087D01*
X130853498Y-48260000D01*
X130833543Y-48031913D01*
X130832119Y-48026598D01*
X130775707Y-47816067D01*
X130775706Y-47816065D01*
X130774284Y-47810757D01*
X130768255Y-47797828D01*
X130679849Y-47608238D01*
X130679846Y-47608233D01*
X130677523Y-47603251D01*
X130546198Y-47415700D01*
X130384300Y-47253802D01*
X130379792Y-47250645D01*
X130379789Y-47250643D01*
X130301611Y-47195902D01*
X130196749Y-47122477D01*
X130191767Y-47120154D01*
X130191762Y-47120151D01*
X130157543Y-47104195D01*
X130104258Y-47057278D01*
X130084797Y-46989001D01*
X130105339Y-46921041D01*
X130157543Y-46875805D01*
X130191762Y-46859849D01*
X130191767Y-46859846D01*
X130196749Y-46857523D01*
X130301611Y-46784098D01*
X130379789Y-46729357D01*
X130379792Y-46729355D01*
X130384300Y-46726198D01*
X130546198Y-46564300D01*
X130570143Y-46530104D01*
X130631995Y-46441769D01*
X130677523Y-46376749D01*
X130679846Y-46371767D01*
X130679849Y-46371762D01*
X130771961Y-46174225D01*
X130771961Y-46174224D01*
X130774284Y-46169243D01*
X130814522Y-46019076D01*
X130832119Y-45953402D01*
X130832119Y-45953400D01*
X130833543Y-45948087D01*
X130853498Y-45720000D01*
X130833543Y-45491913D01*
X130796981Y-45355461D01*
X130775707Y-45276067D01*
X130775706Y-45276065D01*
X130774284Y-45270757D01*
X130679966Y-45068489D01*
X130679849Y-45068238D01*
X130679846Y-45068233D01*
X130677523Y-45063251D01*
X130546198Y-44875700D01*
X130384300Y-44713802D01*
X130379792Y-44710645D01*
X130379789Y-44710643D01*
X130253920Y-44622509D01*
X130196749Y-44582477D01*
X130191767Y-44580154D01*
X130191762Y-44580151D01*
X130157543Y-44564195D01*
X130104258Y-44517278D01*
X130084797Y-44449001D01*
X130105339Y-44381041D01*
X130157543Y-44335805D01*
X130191762Y-44319849D01*
X130191767Y-44319846D01*
X130196749Y-44317523D01*
X130270243Y-44266062D01*
X144058493Y-44266062D01*
X144067789Y-44278077D01*
X144118994Y-44313931D01*
X144128489Y-44319414D01*
X144163641Y-44335805D01*
X144216926Y-44382722D01*
X144236387Y-44450999D01*
X144215845Y-44518959D01*
X144163641Y-44564195D01*
X144128489Y-44580586D01*
X144118994Y-44586069D01*
X144066952Y-44622509D01*
X144058576Y-44632988D01*
X144065644Y-44646434D01*
X144767188Y-45347978D01*
X144781132Y-45355592D01*
X144782965Y-45355461D01*
X144789580Y-45351210D01*
X145495077Y-44645713D01*
X145501507Y-44633938D01*
X145492211Y-44621923D01*
X145441006Y-44586069D01*
X145431511Y-44580586D01*
X145396359Y-44564195D01*
X145343074Y-44517278D01*
X145323613Y-44449001D01*
X145344155Y-44381041D01*
X145396359Y-44335805D01*
X145431511Y-44319414D01*
X145441006Y-44313931D01*
X145493048Y-44277491D01*
X145501424Y-44267012D01*
X145494356Y-44253566D01*
X144792812Y-43552022D01*
X144778868Y-43544408D01*
X144777035Y-43544539D01*
X144770420Y-43548790D01*
X144064923Y-44254287D01*
X144058493Y-44266062D01*
X130270243Y-44266062D01*
X130301611Y-44244098D01*
X130379789Y-44189357D01*
X130379792Y-44189355D01*
X130384300Y-44186198D01*
X130546198Y-44024300D01*
X130677523Y-43836749D01*
X130679846Y-43831767D01*
X130679849Y-43831762D01*
X130771961Y-43634225D01*
X130771961Y-43634224D01*
X130774284Y-43629243D01*
X130794976Y-43552022D01*
X130832119Y-43413402D01*
X130832119Y-43413400D01*
X130833543Y-43408087D01*
X130853019Y-43185475D01*
X143467483Y-43185475D01*
X143486472Y-43402519D01*
X143488375Y-43413312D01*
X143544764Y-43623761D01*
X143548510Y-43634053D01*
X143640586Y-43831511D01*
X143646069Y-43841006D01*
X143682509Y-43893048D01*
X143692988Y-43901424D01*
X143706434Y-43894356D01*
X144407978Y-43192812D01*
X144414356Y-43181132D01*
X145144408Y-43181132D01*
X145144539Y-43182965D01*
X145148790Y-43189580D01*
X145854287Y-43895077D01*
X145866062Y-43901507D01*
X145878077Y-43892211D01*
X145913931Y-43841006D01*
X145919414Y-43831511D01*
X146011490Y-43634053D01*
X146015236Y-43623761D01*
X146071625Y-43413312D01*
X146073528Y-43402519D01*
X146092517Y-43185475D01*
X146092517Y-43174525D01*
X146073528Y-42957481D01*
X146071625Y-42946688D01*
X146015236Y-42736239D01*
X146011490Y-42725947D01*
X145919414Y-42528489D01*
X145913931Y-42518994D01*
X145877491Y-42466952D01*
X145867012Y-42458576D01*
X145853566Y-42465644D01*
X145152022Y-43167188D01*
X145144408Y-43181132D01*
X144414356Y-43181132D01*
X144415592Y-43178868D01*
X144415461Y-43177035D01*
X144411210Y-43170420D01*
X143705713Y-42464923D01*
X143693938Y-42458493D01*
X143681923Y-42467789D01*
X143646069Y-42518994D01*
X143640586Y-42528489D01*
X143548510Y-42725947D01*
X143544764Y-42736239D01*
X143488375Y-42946688D01*
X143486472Y-42957481D01*
X143467483Y-43174525D01*
X143467483Y-43185475D01*
X130853019Y-43185475D01*
X130853498Y-43180000D01*
X130833543Y-42951913D01*
X130796981Y-42815461D01*
X130775707Y-42736067D01*
X130775706Y-42736065D01*
X130774284Y-42730757D01*
X130745037Y-42668036D01*
X130679849Y-42528238D01*
X130679846Y-42528233D01*
X130677523Y-42523251D01*
X130546198Y-42335700D01*
X130384300Y-42173802D01*
X130379792Y-42170645D01*
X130379789Y-42170643D01*
X130268886Y-42092988D01*
X130196749Y-42042477D01*
X130191767Y-42040154D01*
X130191762Y-42040151D01*
X130156951Y-42023919D01*
X130103666Y-41977002D01*
X130084205Y-41908725D01*
X130104747Y-41840765D01*
X130156951Y-41795529D01*
X130191511Y-41779414D01*
X130201006Y-41773931D01*
X130253048Y-41737491D01*
X130261424Y-41727012D01*
X130254356Y-41713566D01*
X129552812Y-41012022D01*
X129538868Y-41004408D01*
X129537035Y-41004539D01*
X129530420Y-41008790D01*
X128824923Y-41714287D01*
X128818493Y-41726062D01*
X128827789Y-41738077D01*
X128878994Y-41773931D01*
X128888489Y-41779414D01*
X128923049Y-41795529D01*
X128976334Y-41842446D01*
X128995795Y-41910723D01*
X128975253Y-41978683D01*
X128923049Y-42023919D01*
X128888238Y-42040151D01*
X128888233Y-42040154D01*
X128883251Y-42042477D01*
X128811114Y-42092988D01*
X128700211Y-42170643D01*
X128700208Y-42170645D01*
X128695700Y-42173802D01*
X128533802Y-42335700D01*
X128402477Y-42523251D01*
X128400154Y-42528233D01*
X128400151Y-42528238D01*
X128334963Y-42668036D01*
X128305716Y-42730757D01*
X128304294Y-42736065D01*
X128304293Y-42736067D01*
X128283019Y-42815461D01*
X128246457Y-42951913D01*
X128226502Y-43180000D01*
X128246457Y-43408087D01*
X128247881Y-43413400D01*
X128247881Y-43413402D01*
X128285025Y-43552022D01*
X128305716Y-43629243D01*
X128308039Y-43634224D01*
X128308039Y-43634225D01*
X128400151Y-43831762D01*
X128400154Y-43831767D01*
X128402477Y-43836749D01*
X128533802Y-44024300D01*
X128695700Y-44186198D01*
X128700208Y-44189355D01*
X128700211Y-44189357D01*
X128778389Y-44244098D01*
X128883251Y-44317523D01*
X128888233Y-44319846D01*
X128888238Y-44319849D01*
X128922457Y-44335805D01*
X128975742Y-44382722D01*
X128995203Y-44450999D01*
X128974661Y-44518959D01*
X128922457Y-44564195D01*
X128888238Y-44580151D01*
X128888233Y-44580154D01*
X128883251Y-44582477D01*
X128826080Y-44622509D01*
X128700211Y-44710643D01*
X128700208Y-44710645D01*
X128695700Y-44713802D01*
X128533802Y-44875700D01*
X128402477Y-45063251D01*
X128400154Y-45068233D01*
X128400151Y-45068238D01*
X128400034Y-45068489D01*
X128305716Y-45270757D01*
X128304294Y-45276065D01*
X128304293Y-45276067D01*
X128283019Y-45355461D01*
X128246457Y-45491913D01*
X128226502Y-45720000D01*
X128246457Y-45948087D01*
X128247881Y-45953400D01*
X128247881Y-45953402D01*
X128265479Y-46019076D01*
X128305716Y-46169243D01*
X128308039Y-46174224D01*
X128308039Y-46174225D01*
X128400151Y-46371762D01*
X128400154Y-46371767D01*
X128402477Y-46376749D01*
X128448005Y-46441769D01*
X128509858Y-46530104D01*
X128533802Y-46564300D01*
X128695700Y-46726198D01*
X128700208Y-46729355D01*
X128700211Y-46729357D01*
X128778389Y-46784098D01*
X128883251Y-46857523D01*
X128888233Y-46859846D01*
X128888238Y-46859849D01*
X128922457Y-46875805D01*
X128975742Y-46922722D01*
X128995203Y-46990999D01*
X128974661Y-47058959D01*
X128922457Y-47104195D01*
X128888238Y-47120151D01*
X128888233Y-47120154D01*
X128883251Y-47122477D01*
X128778389Y-47195902D01*
X128700211Y-47250643D01*
X128700208Y-47250645D01*
X128695700Y-47253802D01*
X128533802Y-47415700D01*
X128402477Y-47603251D01*
X128400154Y-47608233D01*
X128400151Y-47608238D01*
X128311745Y-47797828D01*
X128305716Y-47810757D01*
X128304294Y-47816065D01*
X128304293Y-47816067D01*
X128247881Y-48026598D01*
X128246457Y-48031913D01*
X128226502Y-48260000D01*
X128246457Y-48488087D01*
X128247881Y-48493400D01*
X128247881Y-48493402D01*
X128297229Y-48677568D01*
X128305716Y-48709243D01*
X128308039Y-48714224D01*
X128308039Y-48714225D01*
X128400151Y-48911762D01*
X128400154Y-48911767D01*
X128402477Y-48916749D01*
X128405634Y-48921257D01*
X128495417Y-49049480D01*
X128533802Y-49104300D01*
X128695700Y-49266198D01*
X128700208Y-49269355D01*
X128700211Y-49269357D01*
X128778389Y-49324098D01*
X128883251Y-49397523D01*
X128888233Y-49399846D01*
X128888238Y-49399849D01*
X128922457Y-49415805D01*
X128975742Y-49462722D01*
X128995203Y-49530999D01*
X128974661Y-49598959D01*
X128922457Y-49644195D01*
X128888238Y-49660151D01*
X128888233Y-49660154D01*
X128883251Y-49662477D01*
X128778389Y-49735902D01*
X128700211Y-49790643D01*
X128700208Y-49790645D01*
X128695700Y-49793802D01*
X128533802Y-49955700D01*
X128402477Y-50143251D01*
X128400154Y-50148233D01*
X128400151Y-50148238D01*
X128358062Y-50238500D01*
X128305716Y-50350757D01*
X128304294Y-50356065D01*
X128304293Y-50356067D01*
X128293295Y-50397111D01*
X128246457Y-50571913D01*
X128226502Y-50800000D01*
X128246457Y-51028087D01*
X128305716Y-51249243D01*
X128308039Y-51254224D01*
X128308039Y-51254225D01*
X128400151Y-51451762D01*
X128400154Y-51451767D01*
X128402477Y-51456749D01*
X128405634Y-51461257D01*
X128474627Y-51559789D01*
X128497315Y-51627063D01*
X128480030Y-51695923D01*
X128460509Y-51721155D01*
X127859961Y-52321703D01*
X127853695Y-52327557D01*
X127815829Y-52360589D01*
X127815826Y-52360592D01*
X127810104Y-52365584D01*
X127805737Y-52371798D01*
X127773361Y-52417864D01*
X127769428Y-52423159D01*
X127730013Y-52473427D01*
X127726890Y-52480343D01*
X127725506Y-52482629D01*
X127717132Y-52497310D01*
X127715867Y-52499670D01*
X127711499Y-52505884D01*
X127708739Y-52512963D01*
X127708738Y-52512965D01*
X127688287Y-52565420D01*
X127685736Y-52571489D01*
X127659444Y-52629718D01*
X127658060Y-52637185D01*
X127657259Y-52639740D01*
X127652630Y-52655993D01*
X127651967Y-52658573D01*
X127649207Y-52665654D01*
X127648216Y-52673185D01*
X127648215Y-52673187D01*
X127640868Y-52728997D01*
X127639837Y-52735504D01*
X127628193Y-52798331D01*
X127628630Y-52805911D01*
X127628630Y-52805912D01*
X127631780Y-52860537D01*
X127631989Y-52867791D01*
X127631989Y-59731577D01*
X127631697Y-59740147D01*
X127630415Y-59758959D01*
X127627764Y-59797841D01*
X127629069Y-59805318D01*
X127629069Y-59805319D01*
X127638750Y-59860788D01*
X127639712Y-59867310D01*
X127647387Y-59930731D01*
X127650070Y-59937832D01*
X127650711Y-59940441D01*
X127655174Y-59956751D01*
X127655939Y-59959287D01*
X127657246Y-59966773D01*
X127660300Y-59973730D01*
X127682931Y-60025284D01*
X127685422Y-60031388D01*
X127708002Y-60091145D01*
X127712306Y-60097408D01*
X127713543Y-60099774D01*
X127721788Y-60114586D01*
X127723121Y-60116840D01*
X127726174Y-60123794D01*
X127730796Y-60129817D01*
X127765068Y-60174480D01*
X127768948Y-60179821D01*
X127800828Y-60226209D01*
X127800833Y-60226214D01*
X127805132Y-60232470D01*
X127810802Y-60237521D01*
X127810803Y-60237523D01*
X127851659Y-60273924D01*
X127856935Y-60278905D01*
X128210018Y-60631988D01*
X128244044Y-60694300D01*
X128246444Y-60732063D01*
X128226502Y-60960000D01*
X128246457Y-61188087D01*
X128247881Y-61193400D01*
X128247881Y-61193402D01*
X128270785Y-61278878D01*
X128305716Y-61409243D01*
X128308039Y-61414224D01*
X128308039Y-61414225D01*
X128400151Y-61611762D01*
X128400154Y-61611767D01*
X128402477Y-61616749D01*
X128533802Y-61804300D01*
X128695700Y-61966198D01*
X128700208Y-61969355D01*
X128700211Y-61969357D01*
X128778389Y-62024098D01*
X128883251Y-62097523D01*
X128888233Y-62099846D01*
X128888238Y-62099849D01*
X128922457Y-62115805D01*
X128975742Y-62162722D01*
X128995203Y-62230999D01*
X128974661Y-62298959D01*
X128922457Y-62344195D01*
X128888238Y-62360151D01*
X128888233Y-62360154D01*
X128883251Y-62362477D01*
X128778389Y-62435902D01*
X128700211Y-62490643D01*
X128700208Y-62490645D01*
X128695700Y-62493802D01*
X128533802Y-62655700D01*
X128402477Y-62843251D01*
X128400154Y-62848233D01*
X128400151Y-62848238D01*
X128308039Y-63045775D01*
X128305716Y-63050757D01*
X128304294Y-63056065D01*
X128304293Y-63056067D01*
X128247881Y-63266598D01*
X128246457Y-63271913D01*
X128226502Y-63500000D01*
X128246457Y-63728087D01*
X128247881Y-63733400D01*
X128247881Y-63733402D01*
X128299635Y-63926547D01*
X128305716Y-63949243D01*
X128308039Y-63954224D01*
X128308039Y-63954225D01*
X128400151Y-64151762D01*
X128400154Y-64151767D01*
X128402477Y-64156749D01*
X128445840Y-64218678D01*
X128528625Y-64336906D01*
X128533802Y-64344300D01*
X128695700Y-64506198D01*
X128700208Y-64509355D01*
X128700211Y-64509357D01*
X128767591Y-64556537D01*
X128883251Y-64637523D01*
X128888233Y-64639846D01*
X128888238Y-64639849D01*
X128922457Y-64655805D01*
X128975742Y-64702722D01*
X128995203Y-64770999D01*
X128974661Y-64838959D01*
X128922457Y-64884195D01*
X128888238Y-64900151D01*
X128888233Y-64900154D01*
X128883251Y-64902477D01*
X128778389Y-64975902D01*
X128700211Y-65030643D01*
X128700208Y-65030645D01*
X128695700Y-65033802D01*
X128533802Y-65195700D01*
X128402477Y-65383251D01*
X128400154Y-65388233D01*
X128400151Y-65388238D01*
X128357419Y-65479879D01*
X128305716Y-65590757D01*
X128304294Y-65596065D01*
X128304293Y-65596067D01*
X128247881Y-65806598D01*
X128246457Y-65811913D01*
X128226502Y-66040000D01*
X128246457Y-66268087D01*
X128305716Y-66489243D01*
X128308039Y-66494224D01*
X128308039Y-66494225D01*
X128400151Y-66691762D01*
X128400154Y-66691767D01*
X128402477Y-66696749D01*
X128405634Y-66701257D01*
X128513644Y-66855511D01*
X128533802Y-66884300D01*
X128695700Y-67046198D01*
X128700208Y-67049355D01*
X128700211Y-67049357D01*
X128777771Y-67103665D01*
X128822099Y-67159122D01*
X128831500Y-67206878D01*
X128831500Y-79795500D01*
X128811498Y-79863621D01*
X128757842Y-79910114D01*
X128705500Y-79921500D01*
X128641866Y-79921500D01*
X128579684Y-79928255D01*
X128443295Y-79979385D01*
X128326739Y-80066739D01*
X128239385Y-80183295D01*
X128236233Y-80191703D01*
X128236232Y-80191705D01*
X128194722Y-80302433D01*
X128152081Y-80359198D01*
X128085519Y-80383898D01*
X128016170Y-80368691D01*
X127983546Y-80343004D01*
X127932799Y-80287234D01*
X127925273Y-80280215D01*
X127758139Y-80148222D01*
X127749552Y-80142517D01*
X127563117Y-80039599D01*
X127553705Y-80035369D01*
X127352959Y-79964280D01*
X127342988Y-79961646D01*
X127271837Y-79948972D01*
X127258540Y-79950432D01*
X127254000Y-79964989D01*
X127254000Y-82598517D01*
X126746000Y-82598517D01*
X126746000Y-81552115D01*
X126741525Y-81536876D01*
X126740135Y-81535671D01*
X126732452Y-81534000D01*
X125683225Y-81534000D01*
X125669694Y-81537973D01*
X125668257Y-81547966D01*
X118459329Y-81547966D01*
X118459329Y-81014183D01*
X125664389Y-81014183D01*
X125665912Y-81022607D01*
X125678292Y-81026000D01*
X126727885Y-81026000D01*
X126743124Y-81021525D01*
X126744329Y-81020135D01*
X126746000Y-81012452D01*
X126746000Y-79963102D01*
X126742082Y-79949758D01*
X126727806Y-79947771D01*
X126689324Y-79953660D01*
X126679288Y-79956051D01*
X126476868Y-80022212D01*
X126467359Y-80026209D01*
X126278463Y-80124542D01*
X126269738Y-80130036D01*
X126099433Y-80257905D01*
X126091726Y-80264748D01*
X125944590Y-80418717D01*
X125938104Y-80426727D01*
X125818098Y-80602649D01*
X125813000Y-80611623D01*
X125723338Y-80804783D01*
X125719775Y-80814470D01*
X125664389Y-81014183D01*
X118459329Y-81014183D01*
X118459329Y-80971600D01*
X118459205Y-80969632D01*
X118455666Y-80913520D01*
X118455665Y-80913516D01*
X118455257Y-80907043D01*
X118442675Y-80861368D01*
X118439433Y-80809975D01*
X118440180Y-80804783D01*
X118459329Y-80671600D01*
X118459329Y-79521600D01*
X118454100Y-79448489D01*
X118412904Y-79308189D01*
X118371560Y-79243857D01*
X118338722Y-79192759D01*
X118338720Y-79192756D01*
X118333850Y-79185179D01*
X118327040Y-79179278D01*
X118230155Y-79095326D01*
X118230152Y-79095324D01*
X118223343Y-79089424D01*
X118090334Y-79028681D01*
X117961568Y-79010167D01*
X117896987Y-78980674D01*
X117858604Y-78920948D01*
X117853500Y-78885450D01*
X117853500Y-73540427D01*
X117866341Y-73496695D01*
X118837251Y-73496695D01*
X118837548Y-73501848D01*
X118837548Y-73501851D01*
X118843011Y-73596590D01*
X118850110Y-73719715D01*
X118851247Y-73724761D01*
X118851248Y-73724767D01*
X118871119Y-73812939D01*
X118899222Y-73937639D01*
X118983266Y-74144616D01*
X119099987Y-74335088D01*
X119246250Y-74503938D01*
X119418126Y-74646632D01*
X119611000Y-74759338D01*
X119819692Y-74839030D01*
X119824760Y-74840061D01*
X119824763Y-74840062D01*
X119932017Y-74861883D01*
X120038597Y-74883567D01*
X120043772Y-74883757D01*
X120043774Y-74883757D01*
X120256673Y-74891564D01*
X120256677Y-74891564D01*
X120261837Y-74891753D01*
X120266957Y-74891097D01*
X120266959Y-74891097D01*
X120478288Y-74864025D01*
X120478289Y-74864025D01*
X120483416Y-74863368D01*
X120488366Y-74861883D01*
X120692429Y-74800661D01*
X120692434Y-74800659D01*
X120697384Y-74799174D01*
X120897994Y-74700896D01*
X121079860Y-74571173D01*
X121238096Y-74413489D01*
X121297594Y-74330689D01*
X121365435Y-74236277D01*
X121368453Y-74232077D01*
X121467430Y-74031811D01*
X121532370Y-73818069D01*
X121561529Y-73596590D01*
X121563156Y-73530000D01*
X121544852Y-73307361D01*
X121490431Y-73090702D01*
X121401354Y-72885840D01*
X121280014Y-72698277D01*
X121129670Y-72533051D01*
X121125619Y-72529852D01*
X121125615Y-72529848D01*
X120958414Y-72397800D01*
X120958410Y-72397798D01*
X120954359Y-72394598D01*
X120758789Y-72286638D01*
X120753920Y-72284914D01*
X120753916Y-72284912D01*
X120553087Y-72213795D01*
X120553083Y-72213794D01*
X120548212Y-72212069D01*
X120543119Y-72211162D01*
X120543116Y-72211161D01*
X120333373Y-72173800D01*
X120333367Y-72173799D01*
X120328284Y-72172894D01*
X120254452Y-72171992D01*
X120110081Y-72170228D01*
X120110079Y-72170228D01*
X120104911Y-72170165D01*
X119884091Y-72203955D01*
X119671756Y-72273357D01*
X119641443Y-72289137D01*
X119569497Y-72326590D01*
X119473607Y-72376507D01*
X119469474Y-72379610D01*
X119469471Y-72379612D01*
X119369374Y-72454767D01*
X119294965Y-72510635D01*
X119291393Y-72514373D01*
X119149748Y-72662596D01*
X119140629Y-72672138D01*
X119014743Y-72856680D01*
X118920688Y-73059305D01*
X118860989Y-73274570D01*
X118837251Y-73496695D01*
X117866341Y-73496695D01*
X117873502Y-73472306D01*
X117914618Y-73432550D01*
X117917994Y-73430896D01*
X118099860Y-73301173D01*
X118258096Y-73143489D01*
X118317594Y-73060689D01*
X118385435Y-72966277D01*
X118388453Y-72962077D01*
X118426132Y-72885840D01*
X118485136Y-72766453D01*
X118485137Y-72766451D01*
X118487430Y-72761811D01*
X118552370Y-72548069D01*
X118581529Y-72326590D01*
X118582505Y-72286638D01*
X118583074Y-72263365D01*
X118583074Y-72263361D01*
X118583156Y-72260000D01*
X118564852Y-72037361D01*
X118510431Y-71820702D01*
X118421354Y-71615840D01*
X118300014Y-71428277D01*
X118149670Y-71263051D01*
X118145619Y-71259852D01*
X118145615Y-71259848D01*
X117978414Y-71127800D01*
X117978410Y-71127798D01*
X117974359Y-71124598D01*
X117969835Y-71122101D01*
X117969831Y-71122098D01*
X117918608Y-71093822D01*
X117868636Y-71043390D01*
X117853500Y-70983513D01*
X117853500Y-67879329D01*
X117873502Y-67811208D01*
X117927158Y-67764715D01*
X117979500Y-67753329D01*
X118072600Y-67753329D01*
X118104586Y-67751041D01*
X118138973Y-67748582D01*
X118138974Y-67748582D01*
X118145711Y-67748100D01*
X118225218Y-67724755D01*
X118277365Y-67709443D01*
X118277367Y-67709442D01*
X118286011Y-67706904D01*
X118349855Y-67665874D01*
X118401441Y-67632722D01*
X118401444Y-67632720D01*
X118409021Y-67627850D01*
X118455224Y-67574529D01*
X118498874Y-67524155D01*
X118498876Y-67524152D01*
X118504776Y-67517343D01*
X118522605Y-67478304D01*
X118561775Y-67392532D01*
X118565519Y-67384334D01*
X118586329Y-67239600D01*
X118586329Y-66239600D01*
X118586205Y-66237632D01*
X118582666Y-66181520D01*
X118582665Y-66181516D01*
X118582257Y-66175043D01*
X118569675Y-66129368D01*
X118566433Y-66077975D01*
X118586329Y-65939600D01*
X118586329Y-64789600D01*
X118581100Y-64716489D01*
X118539904Y-64576189D01*
X118496954Y-64509357D01*
X118465722Y-64460759D01*
X118465720Y-64460756D01*
X118460850Y-64453179D01*
X118420744Y-64418427D01*
X118357155Y-64363326D01*
X118357152Y-64363324D01*
X118350343Y-64357424D01*
X118321606Y-64344300D01*
X118225532Y-64300425D01*
X118225533Y-64300425D01*
X118217334Y-64296681D01*
X118072600Y-64275871D01*
X117979500Y-64275871D01*
X117911379Y-64255869D01*
X117864886Y-64202213D01*
X117853500Y-64149871D01*
X117853500Y-54906695D01*
X118837251Y-54906695D01*
X118837548Y-54911848D01*
X118837548Y-54911851D01*
X118844689Y-55035700D01*
X118850110Y-55129715D01*
X118851247Y-55134761D01*
X118851248Y-55134767D01*
X118872275Y-55228069D01*
X118899222Y-55347639D01*
X118983266Y-55554616D01*
X119099987Y-55745088D01*
X119246250Y-55913938D01*
X119418126Y-56056632D01*
X119611000Y-56169338D01*
X119819692Y-56249030D01*
X119824760Y-56250061D01*
X119824763Y-56250062D01*
X119932017Y-56271883D01*
X120038597Y-56293567D01*
X120043772Y-56293757D01*
X120043774Y-56293757D01*
X120256673Y-56301564D01*
X120256677Y-56301564D01*
X120261837Y-56301753D01*
X120266957Y-56301097D01*
X120266959Y-56301097D01*
X120478288Y-56274025D01*
X120478289Y-56274025D01*
X120483416Y-56273368D01*
X120488366Y-56271883D01*
X120692429Y-56210661D01*
X120692434Y-56210659D01*
X120697384Y-56209174D01*
X120897994Y-56110896D01*
X121079860Y-55981173D01*
X121238096Y-55823489D01*
X121297594Y-55740689D01*
X121365435Y-55646277D01*
X121368453Y-55642077D01*
X121467430Y-55441811D01*
X121532370Y-55228069D01*
X121561529Y-55006590D01*
X121563156Y-54940000D01*
X121544852Y-54717361D01*
X121490431Y-54500702D01*
X121401354Y-54295840D01*
X121296615Y-54133938D01*
X121282822Y-54112617D01*
X121282820Y-54112614D01*
X121280014Y-54108277D01*
X121129670Y-53943051D01*
X121125619Y-53939852D01*
X121125615Y-53939848D01*
X120958414Y-53807800D01*
X120958410Y-53807798D01*
X120954359Y-53804598D01*
X120926544Y-53789243D01*
X120866593Y-53756149D01*
X120758789Y-53696638D01*
X120753920Y-53694914D01*
X120753916Y-53694912D01*
X120553087Y-53623795D01*
X120553083Y-53623794D01*
X120548212Y-53622069D01*
X120543119Y-53621162D01*
X120543116Y-53621161D01*
X120333373Y-53583800D01*
X120333367Y-53583799D01*
X120328284Y-53582894D01*
X120254452Y-53581992D01*
X120110081Y-53580228D01*
X120110079Y-53580228D01*
X120104911Y-53580165D01*
X119884091Y-53613955D01*
X119671756Y-53683357D01*
X119641443Y-53699137D01*
X119478552Y-53783933D01*
X119473607Y-53786507D01*
X119469474Y-53789610D01*
X119469471Y-53789612D01*
X119372957Y-53862077D01*
X119294965Y-53920635D01*
X119140629Y-54082138D01*
X119014743Y-54266680D01*
X118999003Y-54300590D01*
X118934093Y-54440427D01*
X118920688Y-54469305D01*
X118860989Y-54684570D01*
X118837251Y-54906695D01*
X117853500Y-54906695D01*
X117853500Y-54440427D01*
X117873502Y-54372306D01*
X117914618Y-54332550D01*
X117917994Y-54330896D01*
X118099860Y-54201173D01*
X118112882Y-54188197D01*
X118254435Y-54047137D01*
X118258096Y-54043489D01*
X118295266Y-53991762D01*
X118385435Y-53866277D01*
X118388453Y-53862077D01*
X118421988Y-53794225D01*
X118485136Y-53666453D01*
X118485137Y-53666451D01*
X118487430Y-53661811D01*
X118552370Y-53448069D01*
X118581529Y-53226590D01*
X118583156Y-53160000D01*
X118564852Y-52937361D01*
X118510431Y-52720702D01*
X118421354Y-52515840D01*
X118359712Y-52420556D01*
X118302822Y-52332617D01*
X118302820Y-52332614D01*
X118300014Y-52328277D01*
X118149670Y-52163051D01*
X118145619Y-52159852D01*
X118145615Y-52159848D01*
X117978414Y-52027800D01*
X117978410Y-52027798D01*
X117974359Y-52024598D01*
X117778789Y-51916638D01*
X117773920Y-51914914D01*
X117773916Y-51914912D01*
X117573087Y-51843795D01*
X117573083Y-51843794D01*
X117568212Y-51842069D01*
X117563119Y-51841162D01*
X117563116Y-51841161D01*
X117353373Y-51803800D01*
X117353367Y-51803799D01*
X117348284Y-51802894D01*
X117274452Y-51801992D01*
X117130081Y-51800228D01*
X117130079Y-51800228D01*
X117124911Y-51800165D01*
X116904091Y-51833955D01*
X116691756Y-51903357D01*
X116493607Y-52006507D01*
X116489474Y-52009610D01*
X116489471Y-52009612D01*
X116319436Y-52137278D01*
X116314965Y-52140635D01*
X116160629Y-52302138D01*
X116034743Y-52486680D01*
X116019003Y-52520590D01*
X115945591Y-52678743D01*
X115940688Y-52689305D01*
X115880989Y-52904570D01*
X115857251Y-53126695D01*
X115857548Y-53131848D01*
X115857548Y-53131851D01*
X115863011Y-53226590D01*
X115870110Y-53349715D01*
X115871247Y-53354761D01*
X115871248Y-53354767D01*
X115891119Y-53442939D01*
X115919222Y-53567639D01*
X116003266Y-53774616D01*
X116020109Y-53802101D01*
X116090844Y-53917530D01*
X116119987Y-53965088D01*
X116266250Y-54133938D01*
X116438126Y-54276632D01*
X116518164Y-54323402D01*
X116524070Y-54326853D01*
X116572794Y-54378491D01*
X116586500Y-54435641D01*
X116586500Y-64161229D01*
X116566498Y-64229350D01*
X116512842Y-64275843D01*
X116496002Y-64282124D01*
X116359189Y-64322296D01*
X116324950Y-64344300D01*
X116243759Y-64396478D01*
X116243756Y-64396480D01*
X116236179Y-64401350D01*
X116230278Y-64408160D01*
X116146326Y-64505045D01*
X116146324Y-64505048D01*
X116140424Y-64511857D01*
X116079681Y-64644866D01*
X116058871Y-64789600D01*
X116058871Y-65939600D01*
X116059072Y-65942113D01*
X116059072Y-65942114D01*
X116064581Y-66011000D01*
X116065400Y-66021245D01*
X116067490Y-66027943D01*
X116067490Y-66027945D01*
X116073928Y-66048581D01*
X116078362Y-66104038D01*
X116058871Y-66239600D01*
X116058871Y-67239600D01*
X116059032Y-67241850D01*
X116062903Y-67295968D01*
X116064100Y-67312711D01*
X116083563Y-67378996D01*
X116102445Y-67443300D01*
X116105296Y-67453011D01*
X116110167Y-67460590D01*
X116179478Y-67568441D01*
X116179480Y-67568444D01*
X116184350Y-67576021D01*
X116191160Y-67581922D01*
X116288045Y-67665874D01*
X116288048Y-67665876D01*
X116294857Y-67671776D01*
X116427866Y-67732519D01*
X116478435Y-67739790D01*
X116543012Y-67769281D01*
X116581396Y-67829007D01*
X116586500Y-67864506D01*
X116586500Y-70981692D01*
X116566498Y-71049813D01*
X116518683Y-71093453D01*
X116493607Y-71106507D01*
X116489474Y-71109610D01*
X116489471Y-71109612D01*
X116465247Y-71127800D01*
X116314965Y-71240635D01*
X116160629Y-71402138D01*
X116034743Y-71586680D01*
X115940688Y-71789305D01*
X115880989Y-72004570D01*
X115857251Y-72226695D01*
X115857548Y-72231848D01*
X115857548Y-72231851D01*
X115863011Y-72326590D01*
X115870110Y-72449715D01*
X115871247Y-72454761D01*
X115871248Y-72454767D01*
X115891119Y-72542939D01*
X115919222Y-72667639D01*
X116003266Y-72874616D01*
X116119987Y-73065088D01*
X116266250Y-73233938D01*
X116438126Y-73376632D01*
X116442593Y-73379242D01*
X116524070Y-73426853D01*
X116572794Y-73478491D01*
X116586500Y-73535641D01*
X116586500Y-78881871D01*
X116566498Y-78949992D01*
X116512842Y-78996485D01*
X116460500Y-79007871D01*
X116445600Y-79007871D01*
X116413614Y-79010159D01*
X116379227Y-79012618D01*
X116379226Y-79012618D01*
X116372489Y-79013100D01*
X116292982Y-79036445D01*
X116240835Y-79051757D01*
X116240833Y-79051758D01*
X116232189Y-79054296D01*
X116224610Y-79059167D01*
X116116759Y-79128478D01*
X116116756Y-79128480D01*
X116109179Y-79133350D01*
X116103278Y-79140160D01*
X116019326Y-79237045D01*
X116019324Y-79237048D01*
X116013424Y-79243857D01*
X115952681Y-79376866D01*
X115931871Y-79521600D01*
X115931871Y-80671600D01*
X115938400Y-80753245D01*
X115940490Y-80759943D01*
X115940490Y-80759945D01*
X115946928Y-80780581D01*
X115951362Y-80836038D01*
X115931871Y-80971600D01*
X115931871Y-81971600D01*
X115937100Y-82044711D01*
X115978296Y-82185011D01*
X115983167Y-82192590D01*
X116052478Y-82300441D01*
X116052480Y-82300444D01*
X116057350Y-82308021D01*
X116064160Y-82313922D01*
X116161045Y-82397874D01*
X116161048Y-82397876D01*
X116167857Y-82403776D01*
X116300866Y-82464519D01*
X116445600Y-82485329D01*
X116460500Y-82485329D01*
X116528621Y-82505331D01*
X116575114Y-82558987D01*
X116586500Y-82611329D01*
X116586500Y-90071692D01*
X116566498Y-90139813D01*
X116518683Y-90183453D01*
X116493607Y-90196507D01*
X116489474Y-90199610D01*
X116489471Y-90199612D01*
X116465247Y-90217800D01*
X116314965Y-90330635D01*
X116160629Y-90492138D01*
X116034743Y-90676680D01*
X115940688Y-90879305D01*
X115880989Y-91094570D01*
X115857251Y-91316695D01*
X115857548Y-91321848D01*
X115857548Y-91321851D01*
X115863011Y-91416590D01*
X115870110Y-91539715D01*
X115871247Y-91544761D01*
X115871248Y-91544767D01*
X115891119Y-91632939D01*
X115919222Y-91757639D01*
X116003266Y-91964616D01*
X116119987Y-92155088D01*
X116266250Y-92323938D01*
X116438126Y-92466632D01*
X116442593Y-92469242D01*
X116524070Y-92516853D01*
X116572794Y-92568491D01*
X116586500Y-92625641D01*
X116586500Y-98008071D01*
X116566498Y-98076192D01*
X116512842Y-98122685D01*
X116460500Y-98134071D01*
X115988400Y-98134071D01*
X115956414Y-98136359D01*
X115922027Y-98138818D01*
X115922026Y-98138818D01*
X115915289Y-98139300D01*
X115835782Y-98162645D01*
X115783635Y-98177957D01*
X115783633Y-98177958D01*
X115774989Y-98180496D01*
X115767410Y-98185367D01*
X115659559Y-98254678D01*
X115659556Y-98254680D01*
X115651979Y-98259550D01*
X115646078Y-98266360D01*
X115562126Y-98363245D01*
X115562124Y-98363248D01*
X115556224Y-98370057D01*
X115495481Y-98503066D01*
X115474671Y-98647800D01*
X115474671Y-99797800D01*
X115474872Y-99800313D01*
X115474872Y-99800314D01*
X115480152Y-99866334D01*
X115481200Y-99879445D01*
X115483290Y-99886143D01*
X115483290Y-99886145D01*
X115489728Y-99906781D01*
X115494162Y-99962238D01*
X115474671Y-100097800D01*
X115474671Y-101097800D01*
X109728000Y-101097800D01*
X109728000Y-40772703D01*
X110920743Y-40772703D01*
X110921302Y-40776947D01*
X110921302Y-40776951D01*
X110933988Y-40873312D01*
X110958268Y-41057734D01*
X111034129Y-41335036D01*
X111146923Y-41599476D01*
X111215636Y-41714287D01*
X111292338Y-41842446D01*
X111294561Y-41846161D01*
X111474313Y-42070528D01*
X111682851Y-42268423D01*
X111916317Y-42436186D01*
X111920112Y-42438195D01*
X111920113Y-42438196D01*
X111941869Y-42449715D01*
X112170392Y-42570712D01*
X112440373Y-42669511D01*
X112721264Y-42730755D01*
X112749841Y-42733004D01*
X112944282Y-42748307D01*
X112944291Y-42748307D01*
X112946739Y-42748500D01*
X113102271Y-42748500D01*
X113104407Y-42748354D01*
X113104418Y-42748354D01*
X113312548Y-42734165D01*
X113312554Y-42734164D01*
X113316825Y-42733873D01*
X113321020Y-42733004D01*
X113321022Y-42733004D01*
X113457584Y-42704723D01*
X113598342Y-42675574D01*
X113869343Y-42579607D01*
X114124812Y-42447750D01*
X114128313Y-42445289D01*
X114128317Y-42445287D01*
X114242417Y-42365096D01*
X114360023Y-42282441D01*
X114562876Y-42093938D01*
X114567479Y-42089661D01*
X114567481Y-42089658D01*
X114570622Y-42086740D01*
X114752713Y-41864268D01*
X114902927Y-41619142D01*
X114962119Y-41484300D01*
X115016757Y-41359830D01*
X115018483Y-41355898D01*
X115097244Y-41079406D01*
X115137751Y-40794784D01*
X115137845Y-40776951D01*
X115138534Y-40645475D01*
X128227483Y-40645475D01*
X128246472Y-40862519D01*
X128248375Y-40873312D01*
X128304764Y-41083761D01*
X128308510Y-41094053D01*
X128400586Y-41291511D01*
X128406069Y-41301006D01*
X128442509Y-41353048D01*
X128452988Y-41361424D01*
X128466434Y-41354356D01*
X129167978Y-40652812D01*
X129174356Y-40641132D01*
X129904408Y-40641132D01*
X129904539Y-40642965D01*
X129908790Y-40649580D01*
X130614287Y-41355077D01*
X130626062Y-41361507D01*
X130638077Y-41352211D01*
X130673931Y-41301006D01*
X130679414Y-41291511D01*
X130771490Y-41094053D01*
X130775236Y-41083761D01*
X130831625Y-40873312D01*
X130833528Y-40862519D01*
X130852517Y-40645475D01*
X130852517Y-40634525D01*
X130833528Y-40417481D01*
X130831625Y-40406688D01*
X130775236Y-40196239D01*
X130771490Y-40185947D01*
X130679414Y-39988489D01*
X130673931Y-39978994D01*
X130637491Y-39926952D01*
X130627012Y-39918576D01*
X130613566Y-39925644D01*
X129912022Y-40627188D01*
X129904408Y-40641132D01*
X129174356Y-40641132D01*
X129175592Y-40638868D01*
X129175461Y-40637035D01*
X129171210Y-40630420D01*
X128465713Y-39924923D01*
X128453938Y-39918493D01*
X128441923Y-39927789D01*
X128406069Y-39978994D01*
X128400586Y-39988489D01*
X128308510Y-40185947D01*
X128304764Y-40196239D01*
X128248375Y-40406688D01*
X128246472Y-40417481D01*
X128227483Y-40634525D01*
X128227483Y-40645475D01*
X115138534Y-40645475D01*
X115139235Y-40511583D01*
X115139235Y-40511576D01*
X115139257Y-40507297D01*
X115126700Y-40411913D01*
X115108735Y-40275461D01*
X115101732Y-40222266D01*
X115025871Y-39944964D01*
X115014580Y-39918493D01*
X114914763Y-39684476D01*
X114914761Y-39684472D01*
X114913077Y-39680524D01*
X114770294Y-39441951D01*
X114767643Y-39437521D01*
X114767640Y-39437517D01*
X114765439Y-39433839D01*
X114585687Y-39209472D01*
X114377149Y-39011577D01*
X114143683Y-38843814D01*
X114121843Y-38832250D01*
X113987760Y-38761257D01*
X113889608Y-38709288D01*
X113619627Y-38610489D01*
X113338736Y-38549245D01*
X113307685Y-38546801D01*
X113115718Y-38531693D01*
X113115709Y-38531693D01*
X113113261Y-38531500D01*
X112957729Y-38531500D01*
X112955593Y-38531646D01*
X112955582Y-38531646D01*
X112747452Y-38545835D01*
X112747446Y-38545836D01*
X112743175Y-38546127D01*
X112738980Y-38546996D01*
X112738978Y-38546996D01*
X112602417Y-38575276D01*
X112461658Y-38604426D01*
X112190657Y-38700393D01*
X111935188Y-38832250D01*
X111931687Y-38834711D01*
X111931683Y-38834713D01*
X111921594Y-38841804D01*
X111699977Y-38997559D01*
X111489378Y-39193260D01*
X111307287Y-39415732D01*
X111157073Y-39660858D01*
X111155347Y-39664791D01*
X111155346Y-39664792D01*
X111095901Y-39800211D01*
X111041517Y-39924102D01*
X110962756Y-40200594D01*
X110922249Y-40485216D01*
X110922227Y-40489505D01*
X110922226Y-40489512D01*
X110920765Y-40768417D01*
X110920743Y-40772703D01*
X109728000Y-40772703D01*
X109728000Y-40689328D01*
X109729500Y-40669943D01*
X109731805Y-40655142D01*
X109731805Y-40655139D01*
X109733186Y-40646270D01*
X109730743Y-40627589D01*
X109729852Y-40604657D01*
X109739954Y-40411913D01*
X109745743Y-40301443D01*
X109747121Y-40288329D01*
X109749139Y-40275592D01*
X109785072Y-40048715D01*
X109799123Y-39959998D01*
X109801865Y-39947098D01*
X109884768Y-39637699D01*
X109887903Y-39625999D01*
X109891979Y-39613456D01*
X109906385Y-39575929D01*
X110011105Y-39303124D01*
X110016469Y-39291076D01*
X110167388Y-38994880D01*
X110173982Y-38983459D01*
X110355033Y-38704666D01*
X110362779Y-38694004D01*
X110429214Y-38611964D01*
X110571985Y-38435655D01*
X110580810Y-38425855D01*
X110815855Y-38190810D01*
X110825656Y-38181984D01*
X110920137Y-38105475D01*
X111084008Y-37972776D01*
X111094666Y-37965033D01*
X111373464Y-37783979D01*
X111384880Y-37777388D01*
X111681076Y-37626469D01*
X111693124Y-37621105D01*
X111730642Y-37606703D01*
X112003464Y-37501977D01*
X112016000Y-37497903D01*
X112337098Y-37411865D01*
X112349998Y-37409123D01*
X112519701Y-37382245D01*
X112678335Y-37357120D01*
X112691443Y-37355743D01*
X112987334Y-37340236D01*
X113013312Y-37341564D01*
X113014856Y-37341805D01*
X113014860Y-37341805D01*
X113023730Y-37343186D01*
X113032632Y-37342022D01*
X113032635Y-37342022D01*
X113055251Y-37339064D01*
X113071589Y-37338000D01*
X128253776Y-37338000D01*
X128321897Y-37358002D01*
G37*
%TD.AperFunction*%
%TD*%
M02*
