%TF.GenerationSoftware,KiCad,Pcbnew,(6.0.0)*%
%TF.CreationDate,2022-03-13T19:29:42-04:00*%
%TF.ProjectId,numpad_pcb,6e756d70-6164-45f7-9063-622e6b696361,rev?*%
%TF.SameCoordinates,Original*%
%TF.FileFunction,Soldermask,Bot*%
%TF.FilePolarity,Negative*%
%FSLAX46Y46*%
G04 Gerber Fmt 4.6, Leading zero omitted, Abs format (unit mm)*
G04 Created by KiCad (PCBNEW (6.0.0)) date 2022-03-13 19:29:42*
%MOMM*%
%LPD*%
G01*
G04 APERTURE LIST*
%ADD10C,1.700000*%
%ADD11C,3.200000*%
%ADD12R,1.100000X1.100000*%
%ADD13R,1.700000X1.700000*%
%ADD14O,1.700000X1.700000*%
%ADD15R,1.600000X1.600000*%
%ADD16C,1.600000*%
G04 APERTURE END LIST*
D10*
%TO.C,J1*%
X117220000Y-53160000D03*
X120200000Y-54940000D03*
X136320000Y-53160000D03*
X139210000Y-54940000D03*
X155120000Y-53160000D03*
X158110000Y-54940000D03*
X174160000Y-53160000D03*
X177010000Y-54940000D03*
X117220000Y-72260000D03*
X120200000Y-73530000D03*
X136320000Y-72260000D03*
X139210000Y-73530000D03*
X155120000Y-72260000D03*
X158110000Y-73530000D03*
X174160000Y-72260000D03*
X177010000Y-73530000D03*
X117220000Y-91350000D03*
X120200000Y-93060000D03*
X136320000Y-91350000D03*
X139210000Y-93060000D03*
X155120000Y-91350000D03*
X158110000Y-93060000D03*
X174160000Y-91350000D03*
X177010000Y-93060000D03*
X117220000Y-110680000D03*
X120200000Y-112090000D03*
X136320000Y-110680000D03*
X139210000Y-112090000D03*
X155120000Y-110680000D03*
X158110000Y-112090000D03*
X174160000Y-119870000D03*
X177010000Y-121660000D03*
X126580000Y-129540000D03*
X129590000Y-131180000D03*
X155120000Y-129540000D03*
X158110000Y-131180000D03*
%TD*%
D11*
%TO.C,REF\u002A\u002A*%
X113030000Y-40640000D03*
%TD*%
%TO.C,REF\u002A\u002A*%
X181610000Y-40640000D03*
%TD*%
D12*
%TO.C,D3*%
X123190000Y-96650000D03*
X123190000Y-93850000D03*
%TD*%
%TO.C,D11*%
X161290000Y-77600000D03*
X161290000Y-74800000D03*
%TD*%
%TO.C,D16*%
X180340000Y-77600000D03*
X180340000Y-74800000D03*
%TD*%
%TO.C,D1*%
X121920000Y-59820000D03*
X121920000Y-57020000D03*
%TD*%
%TO.C,D18*%
X180340000Y-125860000D03*
X180340000Y-123060000D03*
%TD*%
%TO.C,D13*%
X160020000Y-116970000D03*
X160020000Y-114170000D03*
%TD*%
%TO.C,D4*%
X123190000Y-116970000D03*
X123190000Y-114170000D03*
%TD*%
%TO.C,D14*%
X161290000Y-134750000D03*
X161290000Y-131950000D03*
%TD*%
%TO.C,D10*%
X160020000Y-59820000D03*
X160020000Y-57020000D03*
%TD*%
%TO.C,D5*%
X133350000Y-134750000D03*
X133350000Y-131950000D03*
%TD*%
D13*
%TO.C,B1*%
X129540000Y-81280000D03*
D14*
X127000000Y-81280000D03*
%TD*%
D12*
%TO.C,D6*%
X139700000Y-61090000D03*
X139700000Y-58290000D03*
%TD*%
%TO.C,D15*%
X179070000Y-59820000D03*
X179070000Y-57020000D03*
%TD*%
%TO.C,D12*%
X161290000Y-96650000D03*
X161290000Y-93850000D03*
%TD*%
%TO.C,D2*%
X123190000Y-77600000D03*
X123190000Y-74800000D03*
%TD*%
%TO.C,D8*%
X142240000Y-96650000D03*
X142240000Y-93850000D03*
%TD*%
%TO.C,D7*%
X140970000Y-78870000D03*
X140970000Y-76070000D03*
%TD*%
%TO.C,D9*%
X142240000Y-116970000D03*
X142240000Y-114170000D03*
%TD*%
%TO.C,D17*%
X180340000Y-96520000D03*
X180340000Y-93720000D03*
%TD*%
D15*
%TO.C,U1*%
X144780000Y-38100000D03*
D16*
X144780000Y-40640000D03*
X144780000Y-43180000D03*
X144780000Y-45720000D03*
X144780000Y-48260000D03*
X144780000Y-50800000D03*
X144780000Y-53340000D03*
X144780000Y-55880000D03*
X144780000Y-58420000D03*
X144780000Y-60960000D03*
X144780000Y-63500000D03*
X144780000Y-66040000D03*
X129540000Y-66040000D03*
X129540000Y-63500000D03*
X129540000Y-60960000D03*
X129540000Y-58420000D03*
X129540000Y-55880000D03*
X129540000Y-53340000D03*
X129540000Y-50800000D03*
X129540000Y-48260000D03*
X129540000Y-45720000D03*
X129540000Y-43180000D03*
X129540000Y-40640000D03*
X129540000Y-38100000D03*
%TD*%
M02*
