%TF.GenerationSoftware,KiCad,Pcbnew,(6.0.0)*%
%TF.CreationDate,2022-03-13T19:29:42-04:00*%
%TF.ProjectId,numpad_pcb,6e756d70-6164-45f7-9063-622e6b696361,rev?*%
%TF.SameCoordinates,Original*%
%TF.FileFunction,Legend,Bot*%
%TF.FilePolarity,Positive*%
%FSLAX46Y46*%
G04 Gerber Fmt 4.6, Leading zero omitted, Abs format (unit mm)*
G04 Created by KiCad (PCBNEW (6.0.0)) date 2022-03-13 19:29:42*
%MOMM*%
%LPD*%
G01*
G04 APERTURE LIST*
%ADD10C,0.150000*%
%ADD11C,0.120000*%
%ADD12R,1.600000X1.600000*%
%ADD13C,1.600000*%
%ADD14C,1.700000*%
%ADD15C,3.200000*%
%ADD16R,1.100000X1.100000*%
%ADD17R,1.700000X1.700000*%
%ADD18O,1.700000X1.700000*%
G04 APERTURE END LIST*
D10*
X130055714Y-84272380D02*
X130055714Y-83272380D01*
X129674761Y-83272380D01*
X129579523Y-83320000D01*
X129531904Y-83367619D01*
X129484285Y-83462857D01*
X129484285Y-83605714D01*
X129531904Y-83700952D01*
X129579523Y-83748571D01*
X129674761Y-83796190D01*
X130055714Y-83796190D01*
X129055714Y-84272380D02*
X129055714Y-83605714D01*
X129055714Y-83272380D02*
X129103333Y-83320000D01*
X129055714Y-83367619D01*
X129008095Y-83320000D01*
X129055714Y-83272380D01*
X129055714Y-83367619D01*
X128198571Y-84224761D02*
X128293809Y-84272380D01*
X128484285Y-84272380D01*
X128579523Y-84224761D01*
X128627142Y-84129523D01*
X128627142Y-83748571D01*
X128579523Y-83653333D01*
X128484285Y-83605714D01*
X128293809Y-83605714D01*
X128198571Y-83653333D01*
X128150952Y-83748571D01*
X128150952Y-83843809D01*
X128627142Y-83939047D01*
X127817619Y-83605714D02*
X127293809Y-83605714D01*
X127817619Y-84272380D01*
X127293809Y-84272380D01*
X126770000Y-84272380D02*
X126865238Y-84224761D01*
X126912857Y-84177142D01*
X126960476Y-84081904D01*
X126960476Y-83796190D01*
X126912857Y-83700952D01*
X126865238Y-83653333D01*
X126770000Y-83605714D01*
X126627142Y-83605714D01*
X126531904Y-83653333D01*
X126484285Y-83700952D01*
X126436666Y-83796190D01*
X126436666Y-84081904D01*
X126484285Y-84177142D01*
X126531904Y-84224761D01*
X126627142Y-84272380D01*
X126770000Y-84272380D01*
X166430952Y-102147619D02*
X166526190Y-102100000D01*
X166621428Y-102004761D01*
X166764285Y-101861904D01*
X166859523Y-101814285D01*
X166954761Y-101814285D01*
X166907142Y-102052380D02*
X167002380Y-102004761D01*
X167097619Y-101909523D01*
X167145238Y-101719047D01*
X167145238Y-101385714D01*
X167097619Y-101195238D01*
X167002380Y-101100000D01*
X166907142Y-101052380D01*
X166716666Y-101052380D01*
X166621428Y-101100000D01*
X166526190Y-101195238D01*
X166478571Y-101385714D01*
X166478571Y-101719047D01*
X166526190Y-101909523D01*
X166621428Y-102004761D01*
X166716666Y-102052380D01*
X166907142Y-102052380D01*
X166050000Y-102052380D02*
X166050000Y-101052380D01*
X165716666Y-101766666D01*
X165383333Y-101052380D01*
X165383333Y-102052380D01*
X164907142Y-102052380D02*
X164907142Y-101052380D01*
X164335714Y-102052380D02*
X164764285Y-101480952D01*
X164335714Y-101052380D02*
X164907142Y-101623809D01*
X162716666Y-102004761D02*
X162811904Y-102052380D01*
X163002380Y-102052380D01*
X163097619Y-102004761D01*
X163145238Y-101957142D01*
X163192857Y-101861904D01*
X163192857Y-101576190D01*
X163145238Y-101480952D01*
X163097619Y-101433333D01*
X163002380Y-101385714D01*
X162811904Y-101385714D01*
X162716666Y-101433333D01*
X161859523Y-102052380D02*
X161859523Y-101528571D01*
X161907142Y-101433333D01*
X162002380Y-101385714D01*
X162192857Y-101385714D01*
X162288095Y-101433333D01*
X161859523Y-102004761D02*
X161954761Y-102052380D01*
X162192857Y-102052380D01*
X162288095Y-102004761D01*
X162335714Y-101909523D01*
X162335714Y-101814285D01*
X162288095Y-101719047D01*
X162192857Y-101671428D01*
X161954761Y-101671428D01*
X161859523Y-101623809D01*
X161383333Y-101385714D02*
X161383333Y-102385714D01*
X161383333Y-101433333D02*
X161288095Y-101385714D01*
X161097619Y-101385714D01*
X161002380Y-101433333D01*
X160954761Y-101480952D01*
X160907142Y-101576190D01*
X160907142Y-101861904D01*
X160954761Y-101957142D01*
X161002380Y-102004761D01*
X161097619Y-102052380D01*
X161288095Y-102052380D01*
X161383333Y-102004761D01*
X160050000Y-102052380D02*
X160050000Y-101528571D01*
X160097619Y-101433333D01*
X160192857Y-101385714D01*
X160383333Y-101385714D01*
X160478571Y-101433333D01*
X160050000Y-102004761D02*
X160145238Y-102052380D01*
X160383333Y-102052380D01*
X160478571Y-102004761D01*
X160526190Y-101909523D01*
X160526190Y-101814285D01*
X160478571Y-101719047D01*
X160383333Y-101671428D01*
X160145238Y-101671428D01*
X160050000Y-101623809D01*
X159573809Y-102052380D02*
X159573809Y-101052380D01*
X159573809Y-101433333D02*
X159478571Y-101385714D01*
X159288095Y-101385714D01*
X159192857Y-101433333D01*
X159145238Y-101480952D01*
X159097619Y-101576190D01*
X159097619Y-101861904D01*
X159145238Y-101957142D01*
X159192857Y-102004761D01*
X159288095Y-102052380D01*
X159478571Y-102052380D01*
X159573809Y-102004761D01*
X158526190Y-102052380D02*
X158621428Y-102004761D01*
X158669047Y-101909523D01*
X158669047Y-101052380D01*
X157764285Y-102004761D02*
X157859523Y-102052380D01*
X158050000Y-102052380D01*
X158145238Y-102004761D01*
X158192857Y-101909523D01*
X158192857Y-101528571D01*
X158145238Y-101433333D01*
X158050000Y-101385714D01*
X157859523Y-101385714D01*
X157764285Y-101433333D01*
X157716666Y-101528571D01*
X157716666Y-101623809D01*
X158192857Y-101719047D01*
X156526190Y-101385714D02*
X156526190Y-102385714D01*
X156526190Y-101433333D02*
X156430952Y-101385714D01*
X156240476Y-101385714D01*
X156145238Y-101433333D01*
X156097619Y-101480952D01*
X156050000Y-101576190D01*
X156050000Y-101861904D01*
X156097619Y-101957142D01*
X156145238Y-102004761D01*
X156240476Y-102052380D01*
X156430952Y-102052380D01*
X156526190Y-102004761D01*
X155192857Y-102004761D02*
X155288095Y-102052380D01*
X155478571Y-102052380D01*
X155573809Y-102004761D01*
X155621428Y-101957142D01*
X155669047Y-101861904D01*
X155669047Y-101576190D01*
X155621428Y-101480952D01*
X155573809Y-101433333D01*
X155478571Y-101385714D01*
X155288095Y-101385714D01*
X155192857Y-101433333D01*
X154859523Y-101385714D02*
X154621428Y-102052380D01*
X154383333Y-101385714D01*
X153383333Y-101385714D02*
X153002380Y-101385714D01*
X153240476Y-102052380D02*
X153240476Y-101195238D01*
X153192857Y-101100000D01*
X153097619Y-101052380D01*
X153002380Y-101052380D01*
X152526190Y-102052380D02*
X152621428Y-102004761D01*
X152669047Y-101957142D01*
X152716666Y-101861904D01*
X152716666Y-101576190D01*
X152669047Y-101480952D01*
X152621428Y-101433333D01*
X152526190Y-101385714D01*
X152383333Y-101385714D01*
X152288095Y-101433333D01*
X152240476Y-101480952D01*
X152192857Y-101576190D01*
X152192857Y-101861904D01*
X152240476Y-101957142D01*
X152288095Y-102004761D01*
X152383333Y-102052380D01*
X152526190Y-102052380D01*
X151764285Y-102052380D02*
X151764285Y-101385714D01*
X151764285Y-101576190D02*
X151716666Y-101480952D01*
X151669047Y-101433333D01*
X151573809Y-101385714D01*
X151478571Y-101385714D01*
X150002380Y-102004761D02*
X150097619Y-102052380D01*
X150288095Y-102052380D01*
X150383333Y-102004761D01*
X150430952Y-101909523D01*
X150430952Y-101528571D01*
X150383333Y-101433333D01*
X150288095Y-101385714D01*
X150097619Y-101385714D01*
X150002380Y-101433333D01*
X149954761Y-101528571D01*
X149954761Y-101623809D01*
X150430952Y-101719047D01*
X149383333Y-102052380D02*
X149478571Y-102004761D01*
X149526190Y-101909523D01*
X149526190Y-101052380D01*
X148621428Y-102004761D02*
X148716666Y-102052380D01*
X148907142Y-102052380D01*
X149002380Y-102004761D01*
X149050000Y-101909523D01*
X149050000Y-101528571D01*
X149002380Y-101433333D01*
X148907142Y-101385714D01*
X148716666Y-101385714D01*
X148621428Y-101433333D01*
X148573809Y-101528571D01*
X148573809Y-101623809D01*
X149050000Y-101719047D01*
X147716666Y-102004761D02*
X147811904Y-102052380D01*
X148002380Y-102052380D01*
X148097619Y-102004761D01*
X148145238Y-101957142D01*
X148192857Y-101861904D01*
X148192857Y-101576190D01*
X148145238Y-101480952D01*
X148097619Y-101433333D01*
X148002380Y-101385714D01*
X147811904Y-101385714D01*
X147716666Y-101433333D01*
X147430952Y-101385714D02*
X147050000Y-101385714D01*
X147288095Y-101052380D02*
X147288095Y-101909523D01*
X147240476Y-102004761D01*
X147145238Y-102052380D01*
X147050000Y-102052380D01*
X146716666Y-102052380D02*
X146716666Y-101385714D01*
X146716666Y-101576190D02*
X146669047Y-101480952D01*
X146621428Y-101433333D01*
X146526190Y-101385714D01*
X146430952Y-101385714D01*
X145954761Y-102052380D02*
X146050000Y-102004761D01*
X146097619Y-101957142D01*
X146145238Y-101861904D01*
X146145238Y-101576190D01*
X146097619Y-101480952D01*
X146050000Y-101433333D01*
X145954761Y-101385714D01*
X145811904Y-101385714D01*
X145716666Y-101433333D01*
X145669047Y-101480952D01*
X145621428Y-101576190D01*
X145621428Y-101861904D01*
X145669047Y-101957142D01*
X145716666Y-102004761D01*
X145811904Y-102052380D01*
X145954761Y-102052380D01*
X145192857Y-101385714D02*
X145192857Y-102052380D01*
X145192857Y-101480952D02*
X145145238Y-101433333D01*
X145050000Y-101385714D01*
X144907142Y-101385714D01*
X144811904Y-101433333D01*
X144764285Y-101528571D01*
X144764285Y-102052380D01*
X144288095Y-102052380D02*
X144288095Y-101385714D01*
X144288095Y-101052380D02*
X144335714Y-101100000D01*
X144288095Y-101147619D01*
X144240476Y-101100000D01*
X144288095Y-101052380D01*
X144288095Y-101147619D01*
X143383333Y-102004761D02*
X143478571Y-102052380D01*
X143669047Y-102052380D01*
X143764285Y-102004761D01*
X143811904Y-101957142D01*
X143859523Y-101861904D01*
X143859523Y-101576190D01*
X143811904Y-101480952D01*
X143764285Y-101433333D01*
X143669047Y-101385714D01*
X143478571Y-101385714D01*
X143383333Y-101433333D01*
X143002380Y-102004761D02*
X142907142Y-102052380D01*
X142716666Y-102052380D01*
X142621428Y-102004761D01*
X142573809Y-101909523D01*
X142573809Y-101861904D01*
X142621428Y-101766666D01*
X142716666Y-101719047D01*
X142859523Y-101719047D01*
X142954761Y-101671428D01*
X143002380Y-101576190D01*
X143002380Y-101528571D01*
X142954761Y-101433333D01*
X142859523Y-101385714D01*
X142716666Y-101385714D01*
X142621428Y-101433333D01*
X140954761Y-101385714D02*
X140954761Y-102195238D01*
X141002380Y-102290476D01*
X141050000Y-102338095D01*
X141145238Y-102385714D01*
X141288095Y-102385714D01*
X141383333Y-102338095D01*
X140954761Y-102004761D02*
X141050000Y-102052380D01*
X141240476Y-102052380D01*
X141335714Y-102004761D01*
X141383333Y-101957142D01*
X141430952Y-101861904D01*
X141430952Y-101576190D01*
X141383333Y-101480952D01*
X141335714Y-101433333D01*
X141240476Y-101385714D01*
X141050000Y-101385714D01*
X140954761Y-101433333D01*
X140335714Y-102052380D02*
X140430952Y-102004761D01*
X140478571Y-101957142D01*
X140526190Y-101861904D01*
X140526190Y-101576190D01*
X140478571Y-101480952D01*
X140430952Y-101433333D01*
X140335714Y-101385714D01*
X140192857Y-101385714D01*
X140097619Y-101433333D01*
X140050000Y-101480952D01*
X140002380Y-101576190D01*
X140002380Y-101861904D01*
X140050000Y-101957142D01*
X140097619Y-102004761D01*
X140192857Y-102052380D01*
X140335714Y-102052380D01*
X139430952Y-102052380D02*
X139526190Y-102004761D01*
X139573809Y-101909523D01*
X139573809Y-101052380D01*
X138621428Y-102052380D02*
X138621428Y-101052380D01*
X138621428Y-102004761D02*
X138716666Y-102052380D01*
X138907142Y-102052380D01*
X139002380Y-102004761D01*
X139050000Y-101957142D01*
X139097619Y-101861904D01*
X139097619Y-101576190D01*
X139050000Y-101480952D01*
X139002380Y-101433333D01*
X138907142Y-101385714D01*
X138716666Y-101385714D01*
X138621428Y-101433333D01*
X138145238Y-102052380D02*
X138145238Y-101385714D01*
X138145238Y-101480952D02*
X138097619Y-101433333D01*
X138002380Y-101385714D01*
X137859523Y-101385714D01*
X137764285Y-101433333D01*
X137716666Y-101528571D01*
X137716666Y-102052380D01*
X137716666Y-101528571D02*
X137669047Y-101433333D01*
X137573809Y-101385714D01*
X137430952Y-101385714D01*
X137335714Y-101433333D01*
X137288095Y-101528571D01*
X137288095Y-102052380D01*
X136811904Y-102052380D02*
X136811904Y-101385714D01*
X136811904Y-101052380D02*
X136859523Y-101100000D01*
X136811904Y-101147619D01*
X136764285Y-101100000D01*
X136811904Y-101052380D01*
X136811904Y-101147619D01*
X136335714Y-101385714D02*
X136335714Y-102052380D01*
X136335714Y-101480952D02*
X136288095Y-101433333D01*
X136192857Y-101385714D01*
X136050000Y-101385714D01*
X135954761Y-101433333D01*
X135907142Y-101528571D01*
X135907142Y-102052380D01*
X135050000Y-102004761D02*
X135145238Y-102052380D01*
X135335714Y-102052380D01*
X135430952Y-102004761D01*
X135478571Y-101909523D01*
X135478571Y-101528571D01*
X135430952Y-101433333D01*
X135335714Y-101385714D01*
X135145238Y-101385714D01*
X135050000Y-101433333D01*
X135002380Y-101528571D01*
X135002380Y-101623809D01*
X135478571Y-101719047D01*
X133811904Y-101385714D02*
X133811904Y-102052380D01*
X133811904Y-101480952D02*
X133764285Y-101433333D01*
X133669047Y-101385714D01*
X133526190Y-101385714D01*
X133430952Y-101433333D01*
X133383333Y-101528571D01*
X133383333Y-102052380D01*
X132478571Y-101385714D02*
X132478571Y-102052380D01*
X132907142Y-101385714D02*
X132907142Y-101909523D01*
X132859523Y-102004761D01*
X132764285Y-102052380D01*
X132621428Y-102052380D01*
X132526190Y-102004761D01*
X132478571Y-101957142D01*
X132002380Y-102052380D02*
X132002380Y-101385714D01*
X132002380Y-101480952D02*
X131954761Y-101433333D01*
X131859523Y-101385714D01*
X131716666Y-101385714D01*
X131621428Y-101433333D01*
X131573809Y-101528571D01*
X131573809Y-102052380D01*
X131573809Y-101528571D02*
X131526190Y-101433333D01*
X131430952Y-101385714D01*
X131288095Y-101385714D01*
X131192857Y-101433333D01*
X131145238Y-101528571D01*
X131145238Y-102052380D01*
X130669047Y-101385714D02*
X130669047Y-102385714D01*
X130669047Y-101433333D02*
X130573809Y-101385714D01*
X130383333Y-101385714D01*
X130288095Y-101433333D01*
X130240476Y-101480952D01*
X130192857Y-101576190D01*
X130192857Y-101861904D01*
X130240476Y-101957142D01*
X130288095Y-102004761D01*
X130383333Y-102052380D01*
X130573809Y-102052380D01*
X130669047Y-102004761D01*
X129335714Y-102052380D02*
X129335714Y-101528571D01*
X129383333Y-101433333D01*
X129478571Y-101385714D01*
X129669047Y-101385714D01*
X129764285Y-101433333D01*
X129335714Y-102004761D02*
X129430952Y-102052380D01*
X129669047Y-102052380D01*
X129764285Y-102004761D01*
X129811904Y-101909523D01*
X129811904Y-101814285D01*
X129764285Y-101719047D01*
X129669047Y-101671428D01*
X129430952Y-101671428D01*
X129335714Y-101623809D01*
X128430952Y-102052380D02*
X128430952Y-101052380D01*
X128430952Y-102004761D02*
X128526190Y-102052380D01*
X128716666Y-102052380D01*
X128811904Y-102004761D01*
X128859523Y-101957142D01*
X128907142Y-101861904D01*
X128907142Y-101576190D01*
X128859523Y-101480952D01*
X128811904Y-101433333D01*
X128716666Y-101385714D01*
X128526190Y-101385714D01*
X128430952Y-101433333D01*
X127192857Y-101385714D02*
X127192857Y-102385714D01*
X127192857Y-101433333D02*
X127097619Y-101385714D01*
X126907142Y-101385714D01*
X126811904Y-101433333D01*
X126764285Y-101480952D01*
X126716666Y-101576190D01*
X126716666Y-101861904D01*
X126764285Y-101957142D01*
X126811904Y-102004761D01*
X126907142Y-102052380D01*
X127097619Y-102052380D01*
X127192857Y-102004761D01*
X125859523Y-102004761D02*
X125954761Y-102052380D01*
X126145238Y-102052380D01*
X126240476Y-102004761D01*
X126288095Y-101957142D01*
X126335714Y-101861904D01*
X126335714Y-101576190D01*
X126288095Y-101480952D01*
X126240476Y-101433333D01*
X126145238Y-101385714D01*
X125954761Y-101385714D01*
X125859523Y-101433333D01*
X125430952Y-102052380D02*
X125430952Y-101052380D01*
X125430952Y-101433333D02*
X125335714Y-101385714D01*
X125145238Y-101385714D01*
X125050000Y-101433333D01*
X125002380Y-101480952D01*
X124954761Y-101576190D01*
X124954761Y-101861904D01*
X125002380Y-101957142D01*
X125050000Y-102004761D01*
X125145238Y-102052380D01*
X125335714Y-102052380D01*
X125430952Y-102004761D01*
X159987142Y-85542380D02*
X159987142Y-85018571D01*
X160034761Y-84923333D01*
X160130000Y-84875714D01*
X160320476Y-84875714D01*
X160415714Y-84923333D01*
X159987142Y-85494761D02*
X160082380Y-85542380D01*
X160320476Y-85542380D01*
X160415714Y-85494761D01*
X160463333Y-85399523D01*
X160463333Y-85304285D01*
X160415714Y-85209047D01*
X160320476Y-85161428D01*
X160082380Y-85161428D01*
X159987142Y-85113809D01*
X159510952Y-85542380D02*
X159510952Y-84542380D01*
X159510952Y-84923333D02*
X159415714Y-84875714D01*
X159225238Y-84875714D01*
X159130000Y-84923333D01*
X159082380Y-84970952D01*
X159034761Y-85066190D01*
X159034761Y-85351904D01*
X159082380Y-85447142D01*
X159130000Y-85494761D01*
X159225238Y-85542380D01*
X159415714Y-85542380D01*
X159510952Y-85494761D01*
X158701428Y-84875714D02*
X158177619Y-84875714D01*
X158701428Y-85542380D01*
X158177619Y-85542380D01*
X157796666Y-85542380D02*
X157796666Y-84875714D01*
X157796666Y-84970952D02*
X157749047Y-84923333D01*
X157653809Y-84875714D01*
X157510952Y-84875714D01*
X157415714Y-84923333D01*
X157368095Y-85018571D01*
X157368095Y-85542380D01*
X157368095Y-85018571D02*
X157320476Y-84923333D01*
X157225238Y-84875714D01*
X157082380Y-84875714D01*
X156987142Y-84923333D01*
X156939523Y-85018571D01*
X156939523Y-85542380D01*
X156034761Y-85542380D02*
X156034761Y-85018571D01*
X156082380Y-84923333D01*
X156177619Y-84875714D01*
X156368095Y-84875714D01*
X156463333Y-84923333D01*
X156034761Y-85494761D02*
X156130000Y-85542380D01*
X156368095Y-85542380D01*
X156463333Y-85494761D01*
X156510952Y-85399523D01*
X156510952Y-85304285D01*
X156463333Y-85209047D01*
X156368095Y-85161428D01*
X156130000Y-85161428D01*
X156034761Y-85113809D01*
X155558571Y-84875714D02*
X155558571Y-85542380D01*
X155558571Y-84970952D02*
X155510952Y-84923333D01*
X155415714Y-84875714D01*
X155272857Y-84875714D01*
X155177619Y-84923333D01*
X155130000Y-85018571D01*
X155130000Y-85542380D01*
X154701428Y-84637619D02*
X154653809Y-84590000D01*
X154558571Y-84542380D01*
X154320476Y-84542380D01*
X154225238Y-84590000D01*
X154177619Y-84637619D01*
X154130000Y-84732857D01*
X154130000Y-84828095D01*
X154177619Y-84970952D01*
X154749047Y-85542380D01*
X154130000Y-85542380D01*
X153701428Y-85542380D02*
X153701428Y-84542380D01*
X153606190Y-85161428D02*
X153320476Y-85542380D01*
X153320476Y-84875714D02*
X153701428Y-85256666D01*
X152891904Y-85447142D02*
X152844285Y-85494761D01*
X152891904Y-85542380D01*
X152939523Y-85494761D01*
X152891904Y-85447142D01*
X152891904Y-85542380D01*
X152510952Y-84875714D02*
X152320476Y-85542380D01*
X152130000Y-85066190D01*
X151939523Y-85542380D01*
X151749047Y-84875714D01*
X151225238Y-85542380D02*
X151320476Y-85494761D01*
X151368095Y-85447142D01*
X151415714Y-85351904D01*
X151415714Y-85066190D01*
X151368095Y-84970952D01*
X151320476Y-84923333D01*
X151225238Y-84875714D01*
X151082380Y-84875714D01*
X150987142Y-84923333D01*
X150939523Y-84970952D01*
X150891904Y-85066190D01*
X150891904Y-85351904D01*
X150939523Y-85447142D01*
X150987142Y-85494761D01*
X151082380Y-85542380D01*
X151225238Y-85542380D01*
X150463333Y-85542380D02*
X150463333Y-84875714D01*
X150463333Y-85066190D02*
X150415714Y-84970952D01*
X150368095Y-84923333D01*
X150272857Y-84875714D01*
X150177619Y-84875714D01*
X149415714Y-85542380D02*
X149415714Y-84542380D01*
X149415714Y-85494761D02*
X149510952Y-85542380D01*
X149701428Y-85542380D01*
X149796666Y-85494761D01*
X149844285Y-85447142D01*
X149891904Y-85351904D01*
X149891904Y-85066190D01*
X149844285Y-84970952D01*
X149796666Y-84923333D01*
X149701428Y-84875714D01*
X149510952Y-84875714D01*
X149415714Y-84923333D01*
X148939523Y-84875714D02*
X148939523Y-85875714D01*
X148939523Y-84923333D02*
X148844285Y-84875714D01*
X148653809Y-84875714D01*
X148558571Y-84923333D01*
X148510952Y-84970952D01*
X148463333Y-85066190D01*
X148463333Y-85351904D01*
X148510952Y-85447142D01*
X148558571Y-85494761D01*
X148653809Y-85542380D01*
X148844285Y-85542380D01*
X148939523Y-85494761D01*
X148034761Y-85542380D02*
X148034761Y-84875714D01*
X148034761Y-85066190D02*
X147987142Y-84970952D01*
X147939523Y-84923333D01*
X147844285Y-84875714D01*
X147749047Y-84875714D01*
X147034761Y-85494761D02*
X147130000Y-85542380D01*
X147320476Y-85542380D01*
X147415714Y-85494761D01*
X147463333Y-85399523D01*
X147463333Y-85018571D01*
X147415714Y-84923333D01*
X147320476Y-84875714D01*
X147130000Y-84875714D01*
X147034761Y-84923333D01*
X146987142Y-85018571D01*
X146987142Y-85113809D01*
X147463333Y-85209047D01*
X146606190Y-85494761D02*
X146510952Y-85542380D01*
X146320476Y-85542380D01*
X146225238Y-85494761D01*
X146177619Y-85399523D01*
X146177619Y-85351904D01*
X146225238Y-85256666D01*
X146320476Y-85209047D01*
X146463333Y-85209047D01*
X146558571Y-85161428D01*
X146606190Y-85066190D01*
X146606190Y-85018571D01*
X146558571Y-84923333D01*
X146463333Y-84875714D01*
X146320476Y-84875714D01*
X146225238Y-84923333D01*
X145796666Y-85494761D02*
X145701428Y-85542380D01*
X145510952Y-85542380D01*
X145415714Y-85494761D01*
X145368095Y-85399523D01*
X145368095Y-85351904D01*
X145415714Y-85256666D01*
X145510952Y-85209047D01*
X145653809Y-85209047D01*
X145749047Y-85161428D01*
X145796666Y-85066190D01*
X145796666Y-85018571D01*
X145749047Y-84923333D01*
X145653809Y-84875714D01*
X145510952Y-84875714D01*
X145415714Y-84923333D01*
X144939523Y-85447142D02*
X144891904Y-85494761D01*
X144939523Y-85542380D01*
X144987142Y-85494761D01*
X144939523Y-85447142D01*
X144939523Y-85542380D01*
X144034761Y-85494761D02*
X144130000Y-85542380D01*
X144320476Y-85542380D01*
X144415714Y-85494761D01*
X144463333Y-85447142D01*
X144510952Y-85351904D01*
X144510952Y-85066190D01*
X144463333Y-84970952D01*
X144415714Y-84923333D01*
X144320476Y-84875714D01*
X144130000Y-84875714D01*
X144034761Y-84923333D01*
X143463333Y-85542380D02*
X143558571Y-85494761D01*
X143606190Y-85447142D01*
X143653809Y-85351904D01*
X143653809Y-85066190D01*
X143606190Y-84970952D01*
X143558571Y-84923333D01*
X143463333Y-84875714D01*
X143320476Y-84875714D01*
X143225238Y-84923333D01*
X143177619Y-84970952D01*
X143130000Y-85066190D01*
X143130000Y-85351904D01*
X143177619Y-85447142D01*
X143225238Y-85494761D01*
X143320476Y-85542380D01*
X143463333Y-85542380D01*
X142701428Y-85542380D02*
X142701428Y-84875714D01*
X142701428Y-84970952D02*
X142653809Y-84923333D01*
X142558571Y-84875714D01*
X142415714Y-84875714D01*
X142320476Y-84923333D01*
X142272857Y-85018571D01*
X142272857Y-85542380D01*
X142272857Y-85018571D02*
X142225238Y-84923333D01*
X142130000Y-84875714D01*
X141987142Y-84875714D01*
X141891904Y-84923333D01*
X141844285Y-85018571D01*
X141844285Y-85542380D01*
X123832857Y-80780000D02*
X123928095Y-80732380D01*
X124070952Y-80732380D01*
X124213809Y-80780000D01*
X124309047Y-80875238D01*
X124356666Y-80970476D01*
X124404285Y-81160952D01*
X124404285Y-81303809D01*
X124356666Y-81494285D01*
X124309047Y-81589523D01*
X124213809Y-81684761D01*
X124070952Y-81732380D01*
X123975714Y-81732380D01*
X123832857Y-81684761D01*
X123785238Y-81637142D01*
X123785238Y-81303809D01*
X123975714Y-81303809D01*
X123356666Y-81065714D02*
X123356666Y-81732380D01*
X123356666Y-81160952D02*
X123309047Y-81113333D01*
X123213809Y-81065714D01*
X123070952Y-81065714D01*
X122975714Y-81113333D01*
X122928095Y-81208571D01*
X122928095Y-81732380D01*
X122023333Y-81732380D02*
X122023333Y-80732380D01*
X122023333Y-81684761D02*
X122118571Y-81732380D01*
X122309047Y-81732380D01*
X122404285Y-81684761D01*
X122451904Y-81637142D01*
X122499523Y-81541904D01*
X122499523Y-81256190D01*
X122451904Y-81160952D01*
X122404285Y-81113333D01*
X122309047Y-81065714D01*
X122118571Y-81065714D01*
X122023333Y-81113333D01*
X162375238Y-104592380D02*
X162375238Y-103592380D01*
X162375238Y-104544761D02*
X162470476Y-104592380D01*
X162660952Y-104592380D01*
X162756190Y-104544761D01*
X162803809Y-104497142D01*
X162851428Y-104401904D01*
X162851428Y-104116190D01*
X162803809Y-104020952D01*
X162756190Y-103973333D01*
X162660952Y-103925714D01*
X162470476Y-103925714D01*
X162375238Y-103973333D01*
X161518095Y-104544761D02*
X161613333Y-104592380D01*
X161803809Y-104592380D01*
X161899047Y-104544761D01*
X161946666Y-104449523D01*
X161946666Y-104068571D01*
X161899047Y-103973333D01*
X161803809Y-103925714D01*
X161613333Y-103925714D01*
X161518095Y-103973333D01*
X161470476Y-104068571D01*
X161470476Y-104163809D01*
X161946666Y-104259047D01*
X161089523Y-104544761D02*
X160994285Y-104592380D01*
X160803809Y-104592380D01*
X160708571Y-104544761D01*
X160660952Y-104449523D01*
X160660952Y-104401904D01*
X160708571Y-104306666D01*
X160803809Y-104259047D01*
X160946666Y-104259047D01*
X161041904Y-104211428D01*
X161089523Y-104116190D01*
X161089523Y-104068571D01*
X161041904Y-103973333D01*
X160946666Y-103925714D01*
X160803809Y-103925714D01*
X160708571Y-103973333D01*
X160232380Y-104592380D02*
X160232380Y-103925714D01*
X160232380Y-103592380D02*
X160280000Y-103640000D01*
X160232380Y-103687619D01*
X160184761Y-103640000D01*
X160232380Y-103592380D01*
X160232380Y-103687619D01*
X159327619Y-103925714D02*
X159327619Y-104735238D01*
X159375238Y-104830476D01*
X159422857Y-104878095D01*
X159518095Y-104925714D01*
X159660952Y-104925714D01*
X159756190Y-104878095D01*
X159327619Y-104544761D02*
X159422857Y-104592380D01*
X159613333Y-104592380D01*
X159708571Y-104544761D01*
X159756190Y-104497142D01*
X159803809Y-104401904D01*
X159803809Y-104116190D01*
X159756190Y-104020952D01*
X159708571Y-103973333D01*
X159613333Y-103925714D01*
X159422857Y-103925714D01*
X159327619Y-103973333D01*
X158851428Y-103925714D02*
X158851428Y-104592380D01*
X158851428Y-104020952D02*
X158803809Y-103973333D01*
X158708571Y-103925714D01*
X158565714Y-103925714D01*
X158470476Y-103973333D01*
X158422857Y-104068571D01*
X158422857Y-104592380D01*
X157565714Y-104544761D02*
X157660952Y-104592380D01*
X157851428Y-104592380D01*
X157946666Y-104544761D01*
X157994285Y-104449523D01*
X157994285Y-104068571D01*
X157946666Y-103973333D01*
X157851428Y-103925714D01*
X157660952Y-103925714D01*
X157565714Y-103973333D01*
X157518095Y-104068571D01*
X157518095Y-104163809D01*
X157994285Y-104259047D01*
X156660952Y-104592380D02*
X156660952Y-103592380D01*
X156660952Y-104544761D02*
X156756190Y-104592380D01*
X156946666Y-104592380D01*
X157041904Y-104544761D01*
X157089523Y-104497142D01*
X157137142Y-104401904D01*
X157137142Y-104116190D01*
X157089523Y-104020952D01*
X157041904Y-103973333D01*
X156946666Y-103925714D01*
X156756190Y-103925714D01*
X156660952Y-103973333D01*
X155565714Y-103925714D02*
X155184761Y-103925714D01*
X155422857Y-104592380D02*
X155422857Y-103735238D01*
X155375238Y-103640000D01*
X155280000Y-103592380D01*
X155184761Y-103592380D01*
X154708571Y-104592380D02*
X154803809Y-104544761D01*
X154851428Y-104497142D01*
X154899047Y-104401904D01*
X154899047Y-104116190D01*
X154851428Y-104020952D01*
X154803809Y-103973333D01*
X154708571Y-103925714D01*
X154565714Y-103925714D01*
X154470476Y-103973333D01*
X154422857Y-104020952D01*
X154375238Y-104116190D01*
X154375238Y-104401904D01*
X154422857Y-104497142D01*
X154470476Y-104544761D01*
X154565714Y-104592380D01*
X154708571Y-104592380D01*
X153946666Y-104592380D02*
X153946666Y-103925714D01*
X153946666Y-104116190D02*
X153899047Y-104020952D01*
X153851428Y-103973333D01*
X153756190Y-103925714D01*
X153660952Y-103925714D01*
X152137142Y-104592380D02*
X152137142Y-104068571D01*
X152184761Y-103973333D01*
X152280000Y-103925714D01*
X152470476Y-103925714D01*
X152565714Y-103973333D01*
X152137142Y-104544761D02*
X152232380Y-104592380D01*
X152470476Y-104592380D01*
X152565714Y-104544761D01*
X152613333Y-104449523D01*
X152613333Y-104354285D01*
X152565714Y-104259047D01*
X152470476Y-104211428D01*
X152232380Y-104211428D01*
X152137142Y-104163809D01*
X151660952Y-104592380D02*
X151660952Y-103925714D01*
X151660952Y-104116190D02*
X151613333Y-104020952D01*
X151565714Y-103973333D01*
X151470476Y-103925714D01*
X151375238Y-103925714D01*
X150613333Y-104592380D02*
X150613333Y-103592380D01*
X150613333Y-104544761D02*
X150708571Y-104592380D01*
X150899047Y-104592380D01*
X150994285Y-104544761D01*
X151041904Y-104497142D01*
X151089523Y-104401904D01*
X151089523Y-104116190D01*
X151041904Y-104020952D01*
X150994285Y-103973333D01*
X150899047Y-103925714D01*
X150708571Y-103925714D01*
X150613333Y-103973333D01*
X149708571Y-103925714D02*
X149708571Y-104592380D01*
X150137142Y-103925714D02*
X150137142Y-104449523D01*
X150089523Y-104544761D01*
X149994285Y-104592380D01*
X149851428Y-104592380D01*
X149756190Y-104544761D01*
X149708571Y-104497142D01*
X149232380Y-104592380D02*
X149232380Y-103925714D01*
X149232380Y-103592380D02*
X149280000Y-103640000D01*
X149232380Y-103687619D01*
X149184761Y-103640000D01*
X149232380Y-103592380D01*
X149232380Y-103687619D01*
X148756190Y-103925714D02*
X148756190Y-104592380D01*
X148756190Y-104020952D02*
X148708571Y-103973333D01*
X148613333Y-103925714D01*
X148470476Y-103925714D01*
X148375238Y-103973333D01*
X148327619Y-104068571D01*
X148327619Y-104592380D01*
X147708571Y-104592380D02*
X147803809Y-104544761D01*
X147851428Y-104497142D01*
X147899047Y-104401904D01*
X147899047Y-104116190D01*
X147851428Y-104020952D01*
X147803809Y-103973333D01*
X147708571Y-103925714D01*
X147565714Y-103925714D01*
X147470476Y-103973333D01*
X147422857Y-104020952D01*
X147375238Y-104116190D01*
X147375238Y-104401904D01*
X147422857Y-104497142D01*
X147470476Y-104544761D01*
X147565714Y-104592380D01*
X147708571Y-104592380D01*
X146184761Y-103925714D02*
X146184761Y-104925714D01*
X146184761Y-103973333D02*
X146089523Y-103925714D01*
X145899047Y-103925714D01*
X145803809Y-103973333D01*
X145756190Y-104020952D01*
X145708571Y-104116190D01*
X145708571Y-104401904D01*
X145756190Y-104497142D01*
X145803809Y-104544761D01*
X145899047Y-104592380D01*
X146089523Y-104592380D01*
X146184761Y-104544761D01*
X145280000Y-104592380D02*
X145280000Y-103925714D01*
X145280000Y-104116190D02*
X145232380Y-104020952D01*
X145184761Y-103973333D01*
X145089523Y-103925714D01*
X144994285Y-103925714D01*
X144518095Y-104592380D02*
X144613333Y-104544761D01*
X144660952Y-104497142D01*
X144708571Y-104401904D01*
X144708571Y-104116190D01*
X144660952Y-104020952D01*
X144613333Y-103973333D01*
X144518095Y-103925714D01*
X144375238Y-103925714D01*
X144280000Y-103973333D01*
X144232380Y-104020952D01*
X144184761Y-104116190D01*
X144184761Y-104401904D01*
X144232380Y-104497142D01*
X144280000Y-104544761D01*
X144375238Y-104592380D01*
X144518095Y-104592380D01*
X142994285Y-104592380D02*
X142994285Y-103925714D01*
X142994285Y-104020952D02*
X142946666Y-103973333D01*
X142851428Y-103925714D01*
X142708571Y-103925714D01*
X142613333Y-103973333D01*
X142565714Y-104068571D01*
X142565714Y-104592380D01*
X142565714Y-104068571D02*
X142518095Y-103973333D01*
X142422857Y-103925714D01*
X142280000Y-103925714D01*
X142184761Y-103973333D01*
X142137142Y-104068571D01*
X142137142Y-104592380D01*
X141660952Y-104592380D02*
X141660952Y-103925714D01*
X141660952Y-103592380D02*
X141708571Y-103640000D01*
X141660952Y-103687619D01*
X141613333Y-103640000D01*
X141660952Y-103592380D01*
X141660952Y-103687619D01*
X140756190Y-104544761D02*
X140851428Y-104592380D01*
X141041904Y-104592380D01*
X141137142Y-104544761D01*
X141184761Y-104497142D01*
X141232380Y-104401904D01*
X141232380Y-104116190D01*
X141184761Y-104020952D01*
X141137142Y-103973333D01*
X141041904Y-103925714D01*
X140851428Y-103925714D01*
X140756190Y-103973333D01*
X140327619Y-104592380D02*
X140327619Y-103925714D01*
X140327619Y-104116190D02*
X140280000Y-104020952D01*
X140232380Y-103973333D01*
X140137142Y-103925714D01*
X140041904Y-103925714D01*
X139565714Y-104592380D02*
X139660952Y-104544761D01*
X139708571Y-104497142D01*
X139756190Y-104401904D01*
X139756190Y-104116190D01*
X139708571Y-104020952D01*
X139660952Y-103973333D01*
X139565714Y-103925714D01*
X139422857Y-103925714D01*
X139327619Y-103973333D01*
X139280000Y-104020952D01*
X139232380Y-104116190D01*
X139232380Y-104401904D01*
X139280000Y-104497142D01*
X139327619Y-104544761D01*
X139422857Y-104592380D01*
X139565714Y-104592380D01*
X138137142Y-103925714D02*
X137946666Y-104592380D01*
X137756190Y-104116190D01*
X137565714Y-104592380D01*
X137375238Y-103925714D01*
X136994285Y-104592380D02*
X136994285Y-103925714D01*
X136994285Y-103592380D02*
X137041904Y-103640000D01*
X136994285Y-103687619D01*
X136946666Y-103640000D01*
X136994285Y-103592380D01*
X136994285Y-103687619D01*
X136660952Y-103925714D02*
X136280000Y-103925714D01*
X136518095Y-103592380D02*
X136518095Y-104449523D01*
X136470476Y-104544761D01*
X136375238Y-104592380D01*
X136280000Y-104592380D01*
X135946666Y-104592380D02*
X135946666Y-103592380D01*
X135518095Y-104592380D02*
X135518095Y-104068571D01*
X135565714Y-103973333D01*
X135660952Y-103925714D01*
X135803809Y-103925714D01*
X135899047Y-103973333D01*
X135946666Y-104020952D01*
X133851428Y-103925714D02*
X133851428Y-104592380D01*
X134280000Y-103925714D02*
X134280000Y-104449523D01*
X134232380Y-104544761D01*
X134137142Y-104592380D01*
X133994285Y-104592380D01*
X133899047Y-104544761D01*
X133851428Y-104497142D01*
X133422857Y-104544761D02*
X133327619Y-104592380D01*
X133137142Y-104592380D01*
X133041904Y-104544761D01*
X132994285Y-104449523D01*
X132994285Y-104401904D01*
X133041904Y-104306666D01*
X133137142Y-104259047D01*
X133280000Y-104259047D01*
X133375238Y-104211428D01*
X133422857Y-104116190D01*
X133422857Y-104068571D01*
X133375238Y-103973333D01*
X133280000Y-103925714D01*
X133137142Y-103925714D01*
X133041904Y-103973333D01*
X132565714Y-104592380D02*
X132565714Y-103592380D01*
X132565714Y-103973333D02*
X132470476Y-103925714D01*
X132280000Y-103925714D01*
X132184761Y-103973333D01*
X132137142Y-104020952D01*
X132089523Y-104116190D01*
X132089523Y-104401904D01*
X132137142Y-104497142D01*
X132184761Y-104544761D01*
X132280000Y-104592380D01*
X132470476Y-104592380D01*
X132565714Y-104544761D01*
X130470476Y-104544761D02*
X130565714Y-104592380D01*
X130756190Y-104592380D01*
X130851428Y-104544761D01*
X130899047Y-104497142D01*
X130946666Y-104401904D01*
X130946666Y-104116190D01*
X130899047Y-104020952D01*
X130851428Y-103973333D01*
X130756190Y-103925714D01*
X130565714Y-103925714D01*
X130470476Y-103973333D01*
X129280000Y-103925714D02*
X129280000Y-104925714D01*
X129280000Y-103973333D02*
X129184761Y-103925714D01*
X128994285Y-103925714D01*
X128899047Y-103973333D01*
X128851428Y-104020952D01*
X128803809Y-104116190D01*
X128803809Y-104401904D01*
X128851428Y-104497142D01*
X128899047Y-104544761D01*
X128994285Y-104592380D01*
X129184761Y-104592380D01*
X129280000Y-104544761D01*
X128232380Y-104592380D02*
X128327619Y-104544761D01*
X128375238Y-104497142D01*
X128422857Y-104401904D01*
X128422857Y-104116190D01*
X128375238Y-104020952D01*
X128327619Y-103973333D01*
X128232380Y-103925714D01*
X128089523Y-103925714D01*
X127994285Y-103973333D01*
X127946666Y-104020952D01*
X127899047Y-104116190D01*
X127899047Y-104401904D01*
X127946666Y-104497142D01*
X127994285Y-104544761D01*
X128089523Y-104592380D01*
X128232380Y-104592380D01*
X127470476Y-104592380D02*
X127470476Y-103925714D01*
X127470476Y-104116190D02*
X127422857Y-104020952D01*
X127375238Y-103973333D01*
X127280000Y-103925714D01*
X127184761Y-103925714D01*
X126994285Y-103925714D02*
X126613333Y-103925714D01*
X126851428Y-103592380D02*
X126851428Y-104449523D01*
X126803809Y-104544761D01*
X126708571Y-104592380D01*
X126613333Y-104592380D01*
X132460952Y-81351428D02*
X131699047Y-81351428D01*
X132080000Y-81732380D02*
X132080000Y-80970476D01*
%TO.C,D3*%
X125547380Y-94638904D02*
X124547380Y-94638904D01*
X124547380Y-94877000D01*
X124595000Y-95019857D01*
X124690238Y-95115095D01*
X124785476Y-95162714D01*
X124975952Y-95210333D01*
X125118809Y-95210333D01*
X125309285Y-95162714D01*
X125404523Y-95115095D01*
X125499761Y-95019857D01*
X125547380Y-94877000D01*
X125547380Y-94638904D01*
X124547380Y-95543666D02*
X124547380Y-96162714D01*
X124928333Y-95829380D01*
X124928333Y-95972238D01*
X124975952Y-96067476D01*
X125023571Y-96115095D01*
X125118809Y-96162714D01*
X125356904Y-96162714D01*
X125452142Y-96115095D01*
X125499761Y-96067476D01*
X125547380Y-95972238D01*
X125547380Y-95686523D01*
X125499761Y-95591285D01*
X125452142Y-95543666D01*
%TO.C,D11*%
X163647380Y-75112714D02*
X162647380Y-75112714D01*
X162647380Y-75350809D01*
X162695000Y-75493666D01*
X162790238Y-75588904D01*
X162885476Y-75636523D01*
X163075952Y-75684142D01*
X163218809Y-75684142D01*
X163409285Y-75636523D01*
X163504523Y-75588904D01*
X163599761Y-75493666D01*
X163647380Y-75350809D01*
X163647380Y-75112714D01*
X163647380Y-76636523D02*
X163647380Y-76065095D01*
X163647380Y-76350809D02*
X162647380Y-76350809D01*
X162790238Y-76255571D01*
X162885476Y-76160333D01*
X162933095Y-76065095D01*
X163647380Y-77588904D02*
X163647380Y-77017476D01*
X163647380Y-77303190D02*
X162647380Y-77303190D01*
X162790238Y-77207952D01*
X162885476Y-77112714D01*
X162933095Y-77017476D01*
%TO.C,D16*%
X182697380Y-75112714D02*
X181697380Y-75112714D01*
X181697380Y-75350809D01*
X181745000Y-75493666D01*
X181840238Y-75588904D01*
X181935476Y-75636523D01*
X182125952Y-75684142D01*
X182268809Y-75684142D01*
X182459285Y-75636523D01*
X182554523Y-75588904D01*
X182649761Y-75493666D01*
X182697380Y-75350809D01*
X182697380Y-75112714D01*
X182697380Y-76636523D02*
X182697380Y-76065095D01*
X182697380Y-76350809D02*
X181697380Y-76350809D01*
X181840238Y-76255571D01*
X181935476Y-76160333D01*
X181983095Y-76065095D01*
X181697380Y-77493666D02*
X181697380Y-77303190D01*
X181745000Y-77207952D01*
X181792619Y-77160333D01*
X181935476Y-77065095D01*
X182125952Y-77017476D01*
X182506904Y-77017476D01*
X182602142Y-77065095D01*
X182649761Y-77112714D01*
X182697380Y-77207952D01*
X182697380Y-77398428D01*
X182649761Y-77493666D01*
X182602142Y-77541285D01*
X182506904Y-77588904D01*
X182268809Y-77588904D01*
X182173571Y-77541285D01*
X182125952Y-77493666D01*
X182078333Y-77398428D01*
X182078333Y-77207952D01*
X182125952Y-77112714D01*
X182173571Y-77065095D01*
X182268809Y-77017476D01*
%TO.C,D1*%
X124277380Y-57808904D02*
X123277380Y-57808904D01*
X123277380Y-58047000D01*
X123325000Y-58189857D01*
X123420238Y-58285095D01*
X123515476Y-58332714D01*
X123705952Y-58380333D01*
X123848809Y-58380333D01*
X124039285Y-58332714D01*
X124134523Y-58285095D01*
X124229761Y-58189857D01*
X124277380Y-58047000D01*
X124277380Y-57808904D01*
X124277380Y-59332714D02*
X124277380Y-58761285D01*
X124277380Y-59047000D02*
X123277380Y-59047000D01*
X123420238Y-58951761D01*
X123515476Y-58856523D01*
X123563095Y-58761285D01*
%TO.C,D18*%
X182697380Y-123372714D02*
X181697380Y-123372714D01*
X181697380Y-123610809D01*
X181745000Y-123753666D01*
X181840238Y-123848904D01*
X181935476Y-123896523D01*
X182125952Y-123944142D01*
X182268809Y-123944142D01*
X182459285Y-123896523D01*
X182554523Y-123848904D01*
X182649761Y-123753666D01*
X182697380Y-123610809D01*
X182697380Y-123372714D01*
X182697380Y-124896523D02*
X182697380Y-124325095D01*
X182697380Y-124610809D02*
X181697380Y-124610809D01*
X181840238Y-124515571D01*
X181935476Y-124420333D01*
X181983095Y-124325095D01*
X182125952Y-125467952D02*
X182078333Y-125372714D01*
X182030714Y-125325095D01*
X181935476Y-125277476D01*
X181887857Y-125277476D01*
X181792619Y-125325095D01*
X181745000Y-125372714D01*
X181697380Y-125467952D01*
X181697380Y-125658428D01*
X181745000Y-125753666D01*
X181792619Y-125801285D01*
X181887857Y-125848904D01*
X181935476Y-125848904D01*
X182030714Y-125801285D01*
X182078333Y-125753666D01*
X182125952Y-125658428D01*
X182125952Y-125467952D01*
X182173571Y-125372714D01*
X182221190Y-125325095D01*
X182316428Y-125277476D01*
X182506904Y-125277476D01*
X182602142Y-125325095D01*
X182649761Y-125372714D01*
X182697380Y-125467952D01*
X182697380Y-125658428D01*
X182649761Y-125753666D01*
X182602142Y-125801285D01*
X182506904Y-125848904D01*
X182316428Y-125848904D01*
X182221190Y-125801285D01*
X182173571Y-125753666D01*
X182125952Y-125658428D01*
%TO.C,D13*%
X162377380Y-114482714D02*
X161377380Y-114482714D01*
X161377380Y-114720809D01*
X161425000Y-114863666D01*
X161520238Y-114958904D01*
X161615476Y-115006523D01*
X161805952Y-115054142D01*
X161948809Y-115054142D01*
X162139285Y-115006523D01*
X162234523Y-114958904D01*
X162329761Y-114863666D01*
X162377380Y-114720809D01*
X162377380Y-114482714D01*
X162377380Y-116006523D02*
X162377380Y-115435095D01*
X162377380Y-115720809D02*
X161377380Y-115720809D01*
X161520238Y-115625571D01*
X161615476Y-115530333D01*
X161663095Y-115435095D01*
X161377380Y-116339857D02*
X161377380Y-116958904D01*
X161758333Y-116625571D01*
X161758333Y-116768428D01*
X161805952Y-116863666D01*
X161853571Y-116911285D01*
X161948809Y-116958904D01*
X162186904Y-116958904D01*
X162282142Y-116911285D01*
X162329761Y-116863666D01*
X162377380Y-116768428D01*
X162377380Y-116482714D01*
X162329761Y-116387476D01*
X162282142Y-116339857D01*
%TO.C,D4*%
X125547380Y-114958904D02*
X124547380Y-114958904D01*
X124547380Y-115197000D01*
X124595000Y-115339857D01*
X124690238Y-115435095D01*
X124785476Y-115482714D01*
X124975952Y-115530333D01*
X125118809Y-115530333D01*
X125309285Y-115482714D01*
X125404523Y-115435095D01*
X125499761Y-115339857D01*
X125547380Y-115197000D01*
X125547380Y-114958904D01*
X124880714Y-116387476D02*
X125547380Y-116387476D01*
X124499761Y-116149380D02*
X125214047Y-115911285D01*
X125214047Y-116530333D01*
%TO.C,D14*%
X163647380Y-132262714D02*
X162647380Y-132262714D01*
X162647380Y-132500809D01*
X162695000Y-132643666D01*
X162790238Y-132738904D01*
X162885476Y-132786523D01*
X163075952Y-132834142D01*
X163218809Y-132834142D01*
X163409285Y-132786523D01*
X163504523Y-132738904D01*
X163599761Y-132643666D01*
X163647380Y-132500809D01*
X163647380Y-132262714D01*
X163647380Y-133786523D02*
X163647380Y-133215095D01*
X163647380Y-133500809D02*
X162647380Y-133500809D01*
X162790238Y-133405571D01*
X162885476Y-133310333D01*
X162933095Y-133215095D01*
X162980714Y-134643666D02*
X163647380Y-134643666D01*
X162599761Y-134405571D02*
X163314047Y-134167476D01*
X163314047Y-134786523D01*
%TO.C,D10*%
X162377380Y-57332714D02*
X161377380Y-57332714D01*
X161377380Y-57570809D01*
X161425000Y-57713666D01*
X161520238Y-57808904D01*
X161615476Y-57856523D01*
X161805952Y-57904142D01*
X161948809Y-57904142D01*
X162139285Y-57856523D01*
X162234523Y-57808904D01*
X162329761Y-57713666D01*
X162377380Y-57570809D01*
X162377380Y-57332714D01*
X162377380Y-58856523D02*
X162377380Y-58285095D01*
X162377380Y-58570809D02*
X161377380Y-58570809D01*
X161520238Y-58475571D01*
X161615476Y-58380333D01*
X161663095Y-58285095D01*
X161377380Y-59475571D02*
X161377380Y-59570809D01*
X161425000Y-59666047D01*
X161472619Y-59713666D01*
X161567857Y-59761285D01*
X161758333Y-59808904D01*
X161996428Y-59808904D01*
X162186904Y-59761285D01*
X162282142Y-59713666D01*
X162329761Y-59666047D01*
X162377380Y-59570809D01*
X162377380Y-59475571D01*
X162329761Y-59380333D01*
X162282142Y-59332714D01*
X162186904Y-59285095D01*
X161996428Y-59237476D01*
X161758333Y-59237476D01*
X161567857Y-59285095D01*
X161472619Y-59332714D01*
X161425000Y-59380333D01*
X161377380Y-59475571D01*
%TO.C,D5*%
X135707380Y-132738904D02*
X134707380Y-132738904D01*
X134707380Y-132977000D01*
X134755000Y-133119857D01*
X134850238Y-133215095D01*
X134945476Y-133262714D01*
X135135952Y-133310333D01*
X135278809Y-133310333D01*
X135469285Y-133262714D01*
X135564523Y-133215095D01*
X135659761Y-133119857D01*
X135707380Y-132977000D01*
X135707380Y-132738904D01*
X134707380Y-134215095D02*
X134707380Y-133738904D01*
X135183571Y-133691285D01*
X135135952Y-133738904D01*
X135088333Y-133834142D01*
X135088333Y-134072238D01*
X135135952Y-134167476D01*
X135183571Y-134215095D01*
X135278809Y-134262714D01*
X135516904Y-134262714D01*
X135612142Y-134215095D01*
X135659761Y-134167476D01*
X135707380Y-134072238D01*
X135707380Y-133834142D01*
X135659761Y-133738904D01*
X135612142Y-133691285D01*
%TO.C,D6*%
X142057380Y-59078904D02*
X141057380Y-59078904D01*
X141057380Y-59317000D01*
X141105000Y-59459857D01*
X141200238Y-59555095D01*
X141295476Y-59602714D01*
X141485952Y-59650333D01*
X141628809Y-59650333D01*
X141819285Y-59602714D01*
X141914523Y-59555095D01*
X142009761Y-59459857D01*
X142057380Y-59317000D01*
X142057380Y-59078904D01*
X141057380Y-60507476D02*
X141057380Y-60317000D01*
X141105000Y-60221761D01*
X141152619Y-60174142D01*
X141295476Y-60078904D01*
X141485952Y-60031285D01*
X141866904Y-60031285D01*
X141962142Y-60078904D01*
X142009761Y-60126523D01*
X142057380Y-60221761D01*
X142057380Y-60412238D01*
X142009761Y-60507476D01*
X141962142Y-60555095D01*
X141866904Y-60602714D01*
X141628809Y-60602714D01*
X141533571Y-60555095D01*
X141485952Y-60507476D01*
X141438333Y-60412238D01*
X141438333Y-60221761D01*
X141485952Y-60126523D01*
X141533571Y-60078904D01*
X141628809Y-60031285D01*
%TO.C,D15*%
X181427380Y-57332714D02*
X180427380Y-57332714D01*
X180427380Y-57570809D01*
X180475000Y-57713666D01*
X180570238Y-57808904D01*
X180665476Y-57856523D01*
X180855952Y-57904142D01*
X180998809Y-57904142D01*
X181189285Y-57856523D01*
X181284523Y-57808904D01*
X181379761Y-57713666D01*
X181427380Y-57570809D01*
X181427380Y-57332714D01*
X181427380Y-58856523D02*
X181427380Y-58285095D01*
X181427380Y-58570809D02*
X180427380Y-58570809D01*
X180570238Y-58475571D01*
X180665476Y-58380333D01*
X180713095Y-58285095D01*
X180427380Y-59761285D02*
X180427380Y-59285095D01*
X180903571Y-59237476D01*
X180855952Y-59285095D01*
X180808333Y-59380333D01*
X180808333Y-59618428D01*
X180855952Y-59713666D01*
X180903571Y-59761285D01*
X180998809Y-59808904D01*
X181236904Y-59808904D01*
X181332142Y-59761285D01*
X181379761Y-59713666D01*
X181427380Y-59618428D01*
X181427380Y-59380333D01*
X181379761Y-59285095D01*
X181332142Y-59237476D01*
%TO.C,D12*%
X163647380Y-94162714D02*
X162647380Y-94162714D01*
X162647380Y-94400809D01*
X162695000Y-94543666D01*
X162790238Y-94638904D01*
X162885476Y-94686523D01*
X163075952Y-94734142D01*
X163218809Y-94734142D01*
X163409285Y-94686523D01*
X163504523Y-94638904D01*
X163599761Y-94543666D01*
X163647380Y-94400809D01*
X163647380Y-94162714D01*
X163647380Y-95686523D02*
X163647380Y-95115095D01*
X163647380Y-95400809D02*
X162647380Y-95400809D01*
X162790238Y-95305571D01*
X162885476Y-95210333D01*
X162933095Y-95115095D01*
X162742619Y-96067476D02*
X162695000Y-96115095D01*
X162647380Y-96210333D01*
X162647380Y-96448428D01*
X162695000Y-96543666D01*
X162742619Y-96591285D01*
X162837857Y-96638904D01*
X162933095Y-96638904D01*
X163075952Y-96591285D01*
X163647380Y-96019857D01*
X163647380Y-96638904D01*
%TO.C,D2*%
X125547380Y-75588904D02*
X124547380Y-75588904D01*
X124547380Y-75827000D01*
X124595000Y-75969857D01*
X124690238Y-76065095D01*
X124785476Y-76112714D01*
X124975952Y-76160333D01*
X125118809Y-76160333D01*
X125309285Y-76112714D01*
X125404523Y-76065095D01*
X125499761Y-75969857D01*
X125547380Y-75827000D01*
X125547380Y-75588904D01*
X124642619Y-76541285D02*
X124595000Y-76588904D01*
X124547380Y-76684142D01*
X124547380Y-76922238D01*
X124595000Y-77017476D01*
X124642619Y-77065095D01*
X124737857Y-77112714D01*
X124833095Y-77112714D01*
X124975952Y-77065095D01*
X125547380Y-76493666D01*
X125547380Y-77112714D01*
%TO.C,D8*%
X144597380Y-94638904D02*
X143597380Y-94638904D01*
X143597380Y-94877000D01*
X143645000Y-95019857D01*
X143740238Y-95115095D01*
X143835476Y-95162714D01*
X144025952Y-95210333D01*
X144168809Y-95210333D01*
X144359285Y-95162714D01*
X144454523Y-95115095D01*
X144549761Y-95019857D01*
X144597380Y-94877000D01*
X144597380Y-94638904D01*
X144025952Y-95781761D02*
X143978333Y-95686523D01*
X143930714Y-95638904D01*
X143835476Y-95591285D01*
X143787857Y-95591285D01*
X143692619Y-95638904D01*
X143645000Y-95686523D01*
X143597380Y-95781761D01*
X143597380Y-95972238D01*
X143645000Y-96067476D01*
X143692619Y-96115095D01*
X143787857Y-96162714D01*
X143835476Y-96162714D01*
X143930714Y-96115095D01*
X143978333Y-96067476D01*
X144025952Y-95972238D01*
X144025952Y-95781761D01*
X144073571Y-95686523D01*
X144121190Y-95638904D01*
X144216428Y-95591285D01*
X144406904Y-95591285D01*
X144502142Y-95638904D01*
X144549761Y-95686523D01*
X144597380Y-95781761D01*
X144597380Y-95972238D01*
X144549761Y-96067476D01*
X144502142Y-96115095D01*
X144406904Y-96162714D01*
X144216428Y-96162714D01*
X144121190Y-96115095D01*
X144073571Y-96067476D01*
X144025952Y-95972238D01*
%TO.C,D7*%
X143327380Y-76858904D02*
X142327380Y-76858904D01*
X142327380Y-77097000D01*
X142375000Y-77239857D01*
X142470238Y-77335095D01*
X142565476Y-77382714D01*
X142755952Y-77430333D01*
X142898809Y-77430333D01*
X143089285Y-77382714D01*
X143184523Y-77335095D01*
X143279761Y-77239857D01*
X143327380Y-77097000D01*
X143327380Y-76858904D01*
X142327380Y-77763666D02*
X142327380Y-78430333D01*
X143327380Y-78001761D01*
%TO.C,D9*%
X144597380Y-114958904D02*
X143597380Y-114958904D01*
X143597380Y-115197000D01*
X143645000Y-115339857D01*
X143740238Y-115435095D01*
X143835476Y-115482714D01*
X144025952Y-115530333D01*
X144168809Y-115530333D01*
X144359285Y-115482714D01*
X144454523Y-115435095D01*
X144549761Y-115339857D01*
X144597380Y-115197000D01*
X144597380Y-114958904D01*
X144597380Y-116006523D02*
X144597380Y-116197000D01*
X144549761Y-116292238D01*
X144502142Y-116339857D01*
X144359285Y-116435095D01*
X144168809Y-116482714D01*
X143787857Y-116482714D01*
X143692619Y-116435095D01*
X143645000Y-116387476D01*
X143597380Y-116292238D01*
X143597380Y-116101761D01*
X143645000Y-116006523D01*
X143692619Y-115958904D01*
X143787857Y-115911285D01*
X144025952Y-115911285D01*
X144121190Y-115958904D01*
X144168809Y-116006523D01*
X144216428Y-116101761D01*
X144216428Y-116292238D01*
X144168809Y-116387476D01*
X144121190Y-116435095D01*
X144025952Y-116482714D01*
%TO.C,D17*%
X182697380Y-94032714D02*
X181697380Y-94032714D01*
X181697380Y-94270809D01*
X181745000Y-94413666D01*
X181840238Y-94508904D01*
X181935476Y-94556523D01*
X182125952Y-94604142D01*
X182268809Y-94604142D01*
X182459285Y-94556523D01*
X182554523Y-94508904D01*
X182649761Y-94413666D01*
X182697380Y-94270809D01*
X182697380Y-94032714D01*
X182697380Y-95556523D02*
X182697380Y-94985095D01*
X182697380Y-95270809D02*
X181697380Y-95270809D01*
X181840238Y-95175571D01*
X181935476Y-95080333D01*
X181983095Y-94985095D01*
X181697380Y-95889857D02*
X181697380Y-96556523D01*
X182697380Y-96127952D01*
D11*
%TO.C,D3*%
X124190000Y-97450000D02*
X122190000Y-97450000D01*
X122190000Y-97450000D02*
X122190000Y-93600000D01*
X124190000Y-97450000D02*
X124190000Y-93600000D01*
%TO.C,D11*%
X160290000Y-78400000D02*
X160290000Y-74550000D01*
X162290000Y-78400000D02*
X160290000Y-78400000D01*
X162290000Y-78400000D02*
X162290000Y-74550000D01*
%TO.C,D16*%
X181340000Y-78400000D02*
X179340000Y-78400000D01*
X179340000Y-78400000D02*
X179340000Y-74550000D01*
X181340000Y-78400000D02*
X181340000Y-74550000D01*
%TO.C,D1*%
X122920000Y-60620000D02*
X122920000Y-56770000D01*
X120920000Y-60620000D02*
X120920000Y-56770000D01*
X122920000Y-60620000D02*
X120920000Y-60620000D01*
%TO.C,D18*%
X181340000Y-126660000D02*
X179340000Y-126660000D01*
X179340000Y-126660000D02*
X179340000Y-122810000D01*
X181340000Y-126660000D02*
X181340000Y-122810000D01*
%TO.C,G\u002A\u002A\u002A*%
G36*
X164541454Y-86007310D02*
G01*
X164543890Y-86013565D01*
X164545877Y-86028265D01*
X164547452Y-86052686D01*
X164548654Y-86088100D01*
X164549522Y-86135781D01*
X164550094Y-86197002D01*
X164550409Y-86273036D01*
X164550505Y-86365158D01*
X164550505Y-86729858D01*
X164513612Y-86746151D01*
X164503363Y-86750367D01*
X164475058Y-86761008D01*
X164437716Y-86774363D01*
X164396113Y-86788787D01*
X164355026Y-86802632D01*
X164319232Y-86814254D01*
X164293507Y-86822004D01*
X164291736Y-86823545D01*
X164286583Y-86838247D01*
X164281756Y-86865393D01*
X164277966Y-86901362D01*
X164275940Y-86925404D01*
X164271246Y-86974369D01*
X164265592Y-87027843D01*
X164259793Y-87077902D01*
X164256687Y-87103753D01*
X164250023Y-87161664D01*
X164243468Y-87221312D01*
X164238075Y-87273220D01*
X164234973Y-87303727D01*
X164230585Y-87344768D01*
X164226682Y-87379030D01*
X164223848Y-87401261D01*
X164219109Y-87433814D01*
X163432209Y-87433814D01*
X163427471Y-87401261D01*
X163425583Y-87386867D01*
X163421922Y-87355518D01*
X163417606Y-87315885D01*
X163413218Y-87273220D01*
X163410244Y-87243977D01*
X163404236Y-87187060D01*
X163397715Y-87127271D01*
X163391646Y-87073562D01*
X163387228Y-87035338D01*
X163381982Y-86989812D01*
X163377435Y-86950214D01*
X163374239Y-86922204D01*
X163368892Y-86875016D01*
X163688380Y-86555441D01*
X163711120Y-86532728D01*
X163771745Y-86472520D01*
X163828523Y-86416618D01*
X163880260Y-86366168D01*
X163925760Y-86322318D01*
X163963826Y-86286216D01*
X163993264Y-86259008D01*
X164012876Y-86241842D01*
X164021468Y-86235865D01*
X164022689Y-86235837D01*
X164042927Y-86232782D01*
X164074881Y-86225502D01*
X164114241Y-86215177D01*
X164156697Y-86202990D01*
X164197939Y-86190119D01*
X164233657Y-86177745D01*
X164252564Y-86170426D01*
X164329561Y-86135821D01*
X164407057Y-86094323D01*
X164476204Y-86050574D01*
X164478689Y-86048838D01*
X164505679Y-86030119D01*
X164527508Y-86015189D01*
X164539654Y-86007143D01*
X164541454Y-86007310D01*
G37*
G36*
X163204115Y-86069601D02*
G01*
X163248967Y-86096905D01*
X163372822Y-86159530D01*
X163500007Y-86205751D01*
X163629321Y-86235102D01*
X163656489Y-86239860D01*
X163678713Y-86244624D01*
X163688731Y-86247957D01*
X163687598Y-86249976D01*
X163676703Y-86262503D01*
X163655370Y-86285304D01*
X163624854Y-86317090D01*
X163586405Y-86356568D01*
X163541278Y-86402451D01*
X163490723Y-86453448D01*
X163435993Y-86508269D01*
X163179249Y-86764575D01*
X163129180Y-86742591D01*
X163119399Y-86738220D01*
X163084420Y-86721928D01*
X163043486Y-86702184D01*
X163003556Y-86682326D01*
X162928000Y-86644045D01*
X162860353Y-86698208D01*
X162842752Y-86712318D01*
X162813288Y-86736016D01*
X162789492Y-86755249D01*
X162775314Y-86766832D01*
X162771769Y-86769745D01*
X162754906Y-86783456D01*
X162727694Y-86805486D01*
X162692347Y-86834046D01*
X162651078Y-86867347D01*
X162606102Y-86903599D01*
X162454283Y-87025908D01*
X162174614Y-86746337D01*
X162152947Y-86724643D01*
X162089303Y-86660463D01*
X162033680Y-86603655D01*
X161986821Y-86555004D01*
X161949466Y-86515294D01*
X161922357Y-86485309D01*
X161906236Y-86465835D01*
X161901843Y-86457656D01*
X161907254Y-86450794D01*
X161922117Y-86432160D01*
X161944304Y-86404434D01*
X161971879Y-86370025D01*
X162002907Y-86331344D01*
X162035453Y-86290801D01*
X162067582Y-86250806D01*
X162097360Y-86213769D01*
X162122852Y-86182100D01*
X162142123Y-86158210D01*
X162153237Y-86144508D01*
X162165833Y-86128910D01*
X162185039Y-86104886D01*
X162206691Y-86077643D01*
X162245755Y-86028347D01*
X162691949Y-86027937D01*
X163138142Y-86027526D01*
X163204115Y-86069601D01*
G37*
G36*
X162606102Y-83285230D02*
G01*
X162623267Y-83299073D01*
X162668919Y-83335870D01*
X162711166Y-83369896D01*
X162747483Y-83399119D01*
X162775342Y-83421504D01*
X162792217Y-83435018D01*
X162801154Y-83442197D01*
X162829888Y-83465779D01*
X162855153Y-83487123D01*
X162883793Y-83511895D01*
X162883793Y-84421038D01*
X162846012Y-84479904D01*
X162806476Y-84545571D01*
X162772901Y-84612207D01*
X162742471Y-84686343D01*
X162731580Y-84717113D01*
X162717619Y-84761092D01*
X162704725Y-84806170D01*
X162694066Y-84847975D01*
X162686813Y-84882138D01*
X162684135Y-84904288D01*
X162683242Y-84917365D01*
X162678866Y-84937376D01*
X162675482Y-84944224D01*
X162667959Y-84951108D01*
X162666326Y-84950003D01*
X162654348Y-84939202D01*
X162632007Y-84917931D01*
X162600619Y-84887478D01*
X162561504Y-84849133D01*
X162515977Y-84804185D01*
X162465357Y-84753923D01*
X162410962Y-84699637D01*
X162159603Y-84448166D01*
X162171190Y-84415341D01*
X162178259Y-84397804D01*
X162191983Y-84367103D01*
X162209689Y-84329476D01*
X162229272Y-84289481D01*
X162275766Y-84196447D01*
X162221697Y-84128917D01*
X162207678Y-84111426D01*
X162184004Y-84081974D01*
X162164795Y-84058179D01*
X162153237Y-84043995D01*
X162144944Y-84033821D01*
X162127405Y-84012128D01*
X162103143Y-83982029D01*
X162074115Y-83945962D01*
X162042277Y-83906363D01*
X162009587Y-83865668D01*
X161978001Y-83826313D01*
X161949477Y-83790735D01*
X161925971Y-83761371D01*
X161909441Y-83740655D01*
X161901843Y-83731026D01*
X161901919Y-83729709D01*
X161910099Y-83717875D01*
X161929774Y-83694993D01*
X161960202Y-83661850D01*
X162000641Y-83619228D01*
X162050350Y-83567914D01*
X162108588Y-83508691D01*
X162174614Y-83442344D01*
X162454283Y-83162774D01*
X162606102Y-83285230D01*
G37*
G36*
X164984776Y-85230216D02*
G01*
X164997313Y-85241474D01*
X165020164Y-85263163D01*
X165052015Y-85293999D01*
X165091555Y-85332702D01*
X165137469Y-85377987D01*
X165188446Y-85428573D01*
X165243171Y-85483178D01*
X165497347Y-85737463D01*
X165474636Y-85789176D01*
X165470254Y-85798989D01*
X165453644Y-85834696D01*
X165433639Y-85876217D01*
X165413645Y-85916444D01*
X165375363Y-85992000D01*
X165429527Y-86059647D01*
X165443637Y-86077248D01*
X165467334Y-86106712D01*
X165486567Y-86130508D01*
X165498150Y-86144686D01*
X165501064Y-86148231D01*
X165514774Y-86165094D01*
X165536804Y-86192306D01*
X165565364Y-86227653D01*
X165598665Y-86268922D01*
X165634918Y-86313898D01*
X165757226Y-86465717D01*
X165477656Y-86745386D01*
X165455962Y-86767053D01*
X165391782Y-86830697D01*
X165334974Y-86886320D01*
X165286322Y-86933179D01*
X165246612Y-86970534D01*
X165216628Y-86997643D01*
X165197153Y-87013764D01*
X165188974Y-87018157D01*
X165187461Y-87016981D01*
X165174471Y-87006657D01*
X165150755Y-86987690D01*
X165118452Y-86961793D01*
X165079697Y-86930679D01*
X165036630Y-86896060D01*
X165027407Y-86888643D01*
X164982576Y-86852607D01*
X164940683Y-86818961D01*
X164904375Y-86789827D01*
X164876299Y-86767331D01*
X164859102Y-86753595D01*
X164850196Y-86746459D01*
X164821448Y-86722902D01*
X164796166Y-86701558D01*
X164767525Y-86676787D01*
X164767525Y-85767644D01*
X164805810Y-85708462D01*
X164847745Y-85637138D01*
X164901769Y-85519660D01*
X164943410Y-85393415D01*
X164971542Y-85261446D01*
X164972586Y-85255466D01*
X164977665Y-85236527D01*
X164982823Y-85228893D01*
X164984776Y-85230216D01*
G37*
G36*
X165477469Y-84406388D02*
G01*
X165481685Y-84416637D01*
X165492326Y-84444942D01*
X165505682Y-84482284D01*
X165520105Y-84523887D01*
X165533951Y-84564974D01*
X165545572Y-84600768D01*
X165553323Y-84626493D01*
X165554864Y-84628264D01*
X165569565Y-84633417D01*
X165596711Y-84638244D01*
X165632680Y-84642034D01*
X165656723Y-84644060D01*
X165705688Y-84648754D01*
X165759162Y-84654408D01*
X165809220Y-84660207D01*
X165835071Y-84663313D01*
X165892982Y-84669977D01*
X165952631Y-84676532D01*
X166004538Y-84681925D01*
X166035046Y-84685027D01*
X166076086Y-84689415D01*
X166110349Y-84693318D01*
X166132580Y-84696152D01*
X166165133Y-84700891D01*
X166165133Y-85487791D01*
X166132580Y-85492529D01*
X166118184Y-85494419D01*
X166086835Y-85498088D01*
X166047203Y-85502417D01*
X166004538Y-85506820D01*
X165976284Y-85509678D01*
X165941136Y-85513340D01*
X165903221Y-85517427D01*
X165859643Y-85522261D01*
X165807508Y-85528164D01*
X165743921Y-85535458D01*
X165665987Y-85544464D01*
X165644226Y-85546805D01*
X165622627Y-85548782D01*
X165619841Y-85547666D01*
X165605515Y-85536807D01*
X165581126Y-85515534D01*
X165548086Y-85485246D01*
X165507804Y-85447343D01*
X165461693Y-85403225D01*
X165411162Y-85354292D01*
X165357623Y-85301943D01*
X165302487Y-85247578D01*
X165247164Y-85192597D01*
X165193066Y-85138400D01*
X165141604Y-85086385D01*
X165094187Y-85037954D01*
X165052228Y-84994505D01*
X165017138Y-84957439D01*
X164990326Y-84928154D01*
X164973204Y-84908052D01*
X164967184Y-84898532D01*
X164967156Y-84897311D01*
X164964100Y-84877073D01*
X164956820Y-84845119D01*
X164946496Y-84805759D01*
X164934308Y-84763303D01*
X164921437Y-84722061D01*
X164909064Y-84686343D01*
X164901745Y-84667436D01*
X164867139Y-84590439D01*
X164825642Y-84512943D01*
X164781892Y-84443796D01*
X164780157Y-84441311D01*
X164761437Y-84414321D01*
X164746507Y-84392492D01*
X164738462Y-84380346D01*
X164738629Y-84378546D01*
X164744883Y-84376110D01*
X164759584Y-84374123D01*
X164784004Y-84372548D01*
X164819418Y-84371346D01*
X164867099Y-84370478D01*
X164928320Y-84369906D01*
X165004355Y-84369591D01*
X165096477Y-84369495D01*
X165461176Y-84369495D01*
X165477469Y-84406388D01*
G37*
G36*
X162368621Y-84952442D02*
G01*
X162380959Y-84964783D01*
X162461702Y-85045950D01*
X162529882Y-85115258D01*
X162585550Y-85172761D01*
X162628758Y-85218513D01*
X162659557Y-85252569D01*
X162677999Y-85274983D01*
X162684135Y-85285809D01*
X162686097Y-85303149D01*
X162692663Y-85334955D01*
X162702726Y-85375114D01*
X162715121Y-85419289D01*
X162728686Y-85463143D01*
X162742255Y-85502338D01*
X162746980Y-85514711D01*
X162782134Y-85594100D01*
X162825095Y-85674605D01*
X162871258Y-85747471D01*
X162875526Y-85753602D01*
X162892968Y-85779212D01*
X162905214Y-85798113D01*
X162909836Y-85806582D01*
X162907613Y-85807016D01*
X162891060Y-85807825D01*
X162859863Y-85808563D01*
X162815817Y-85809211D01*
X162760722Y-85809748D01*
X162696375Y-85810156D01*
X162624573Y-85810415D01*
X162547116Y-85810506D01*
X162184397Y-85810506D01*
X162161844Y-85751911D01*
X162152083Y-85725666D01*
X162136946Y-85682770D01*
X162121457Y-85636966D01*
X162107764Y-85594643D01*
X162098017Y-85562188D01*
X162096464Y-85560413D01*
X162081741Y-85555262D01*
X162054589Y-85550436D01*
X162018638Y-85546648D01*
X161994596Y-85544622D01*
X161945631Y-85539928D01*
X161892157Y-85534273D01*
X161842098Y-85528475D01*
X161816247Y-85525369D01*
X161758336Y-85518705D01*
X161698688Y-85512149D01*
X161646780Y-85506757D01*
X161616273Y-85503654D01*
X161575232Y-85499266D01*
X161540970Y-85495364D01*
X161518739Y-85492529D01*
X161486186Y-85487791D01*
X161486186Y-84700891D01*
X161518739Y-84696152D01*
X161533133Y-84694265D01*
X161564482Y-84690603D01*
X161604115Y-84686287D01*
X161646780Y-84681900D01*
X161676031Y-84678922D01*
X161732945Y-84672902D01*
X161792732Y-84666358D01*
X161846438Y-84660261D01*
X161884230Y-84655885D01*
X161930859Y-84650542D01*
X161972032Y-84645882D01*
X162001857Y-84642576D01*
X162053106Y-84637016D01*
X162368621Y-84952442D01*
G37*
G36*
X164410080Y-85044859D02*
G01*
X164410399Y-85153477D01*
X164397785Y-85257408D01*
X164372796Y-85355020D01*
X164335991Y-85444683D01*
X164287929Y-85524762D01*
X164229169Y-85593628D01*
X164160268Y-85649647D01*
X164153495Y-85654074D01*
X164084598Y-85692187D01*
X164011017Y-85722088D01*
X163940052Y-85740755D01*
X163918559Y-85743331D01*
X163881299Y-85745520D01*
X163836899Y-85746519D01*
X163790936Y-85746126D01*
X163771075Y-85745533D01*
X163724504Y-85742992D01*
X163687324Y-85738480D01*
X163653664Y-85731109D01*
X163617651Y-85719994D01*
X163613035Y-85718405D01*
X163525265Y-85678702D01*
X163445979Y-85624289D01*
X163376504Y-85556246D01*
X163318164Y-85475656D01*
X163288112Y-85425979D01*
X163325791Y-85392542D01*
X163350981Y-85372277D01*
X163373626Y-85361219D01*
X163392147Y-85363128D01*
X163409806Y-85377417D01*
X163428582Y-85396027D01*
X163464548Y-85426290D01*
X163506253Y-85457265D01*
X163547971Y-85484771D01*
X163583977Y-85504626D01*
X163592758Y-85508676D01*
X163614668Y-85517626D01*
X163635726Y-85523375D01*
X163660486Y-85526620D01*
X163693498Y-85528056D01*
X163739315Y-85528380D01*
X163781034Y-85528233D01*
X163813698Y-85527181D01*
X163838174Y-85524312D01*
X163859222Y-85518715D01*
X163881604Y-85509478D01*
X163910080Y-85495690D01*
X163946383Y-85475049D01*
X164006803Y-85426123D01*
X164056083Y-85365660D01*
X164092999Y-85295712D01*
X164116327Y-85218333D01*
X164124842Y-85135575D01*
X164125147Y-85098681D01*
X163326914Y-85098681D01*
X163312645Y-85076905D01*
X163307364Y-85065497D01*
X163300124Y-85034590D01*
X163295367Y-84993038D01*
X163293225Y-84944999D01*
X163293834Y-84894630D01*
X163297327Y-84846089D01*
X163300518Y-84825236D01*
X163557443Y-84825236D01*
X163558771Y-84854768D01*
X163568602Y-84892702D01*
X163588810Y-84918391D01*
X163620383Y-84933536D01*
X163634613Y-84935656D01*
X163665057Y-84937846D01*
X163708191Y-84939695D01*
X163761517Y-84941122D01*
X163822539Y-84942044D01*
X163888760Y-84942378D01*
X164125477Y-84942427D01*
X164121038Y-84922895D01*
X164119227Y-84914802D01*
X164113720Y-84889636D01*
X164107389Y-84860233D01*
X164099859Y-84830827D01*
X164071522Y-84760999D01*
X164031287Y-84698330D01*
X163981433Y-84645970D01*
X163924236Y-84607067D01*
X163906922Y-84599245D01*
X163855614Y-84585451D01*
X163800236Y-84581305D01*
X163746870Y-84586932D01*
X163701598Y-84602458D01*
X163681218Y-84614184D01*
X163629868Y-84655575D01*
X163591079Y-84706158D01*
X163566417Y-84763517D01*
X163557443Y-84825236D01*
X163300518Y-84825236D01*
X163303838Y-84803534D01*
X163313140Y-84766304D01*
X163345034Y-84683253D01*
X163389696Y-84608467D01*
X163445535Y-84544327D01*
X163510964Y-84493214D01*
X163513833Y-84491419D01*
X163573995Y-84458449D01*
X163633820Y-84435862D01*
X163698920Y-84422002D01*
X163774906Y-84415209D01*
X163814920Y-84413736D01*
X163851102Y-84413961D01*
X163881721Y-84416919D01*
X163913112Y-84423276D01*
X163951607Y-84433691D01*
X163981918Y-84443108D01*
X164069009Y-84479972D01*
X164147373Y-84529793D01*
X164220635Y-84594742D01*
X164239297Y-84614349D01*
X164299085Y-84688627D01*
X164344521Y-84767170D01*
X164377370Y-84853491D01*
X164397436Y-84942427D01*
X164399395Y-84951108D01*
X164410080Y-85044859D01*
G37*
G36*
X164223848Y-82787420D02*
G01*
X164225735Y-82801815D01*
X164229397Y-82833163D01*
X164233713Y-82872796D01*
X164238100Y-82915462D01*
X164241075Y-82944705D01*
X164247082Y-83001621D01*
X164253604Y-83061411D01*
X164259673Y-83115120D01*
X164264132Y-83153732D01*
X164269246Y-83198232D01*
X164273603Y-83236377D01*
X164276581Y-83262722D01*
X164281431Y-83306154D01*
X163958056Y-83628359D01*
X163634682Y-83950563D01*
X163569576Y-83965648D01*
X163549007Y-83970608D01*
X163416294Y-84012275D01*
X163290690Y-84068675D01*
X163174600Y-84138755D01*
X163155730Y-84151776D01*
X163129208Y-84169881D01*
X163110565Y-84182347D01*
X163102983Y-84187030D01*
X163102736Y-84184690D01*
X163102290Y-84167930D01*
X163101883Y-84136546D01*
X163101527Y-84092329D01*
X163101230Y-84037074D01*
X163101006Y-83972574D01*
X163100863Y-83900622D01*
X163100813Y-83823011D01*
X163100813Y-83458824D01*
X163137706Y-83442531D01*
X163147956Y-83438315D01*
X163176261Y-83427674D01*
X163213603Y-83414318D01*
X163255206Y-83399895D01*
X163296292Y-83386049D01*
X163332087Y-83374428D01*
X163357812Y-83366677D01*
X163359582Y-83365136D01*
X163364736Y-83350435D01*
X163369562Y-83323289D01*
X163373352Y-83287320D01*
X163375378Y-83263277D01*
X163380072Y-83214312D01*
X163385727Y-83160838D01*
X163391525Y-83110780D01*
X163394631Y-83084929D01*
X163401295Y-83027018D01*
X163407851Y-82967369D01*
X163413243Y-82915462D01*
X163416346Y-82884954D01*
X163420734Y-82843914D01*
X163424636Y-82809651D01*
X163427471Y-82787420D01*
X163432209Y-82754867D01*
X164219109Y-82754867D01*
X164223848Y-82787420D01*
G37*
G36*
X165756063Y-83721602D02*
G01*
X165737626Y-83747494D01*
X165736815Y-83748627D01*
X165721473Y-83769078D01*
X165699856Y-83796827D01*
X165676373Y-83826208D01*
X165671147Y-83832662D01*
X165647298Y-83862214D01*
X165616936Y-83899937D01*
X165583419Y-83941657D01*
X165550105Y-83983199D01*
X165535172Y-84001803D01*
X165506617Y-84037155D01*
X165482276Y-84067006D01*
X165464351Y-84088665D01*
X165455043Y-84099438D01*
X165444403Y-84112040D01*
X165430010Y-84131991D01*
X165416588Y-84152475D01*
X164495877Y-84152475D01*
X164451575Y-84123083D01*
X164406961Y-84095761D01*
X164350849Y-84065198D01*
X164293103Y-84036823D01*
X164241360Y-84014578D01*
X164221235Y-84007316D01*
X164177298Y-83993387D01*
X164126721Y-83979030D01*
X164075266Y-83965772D01*
X164028693Y-83955141D01*
X163992765Y-83948664D01*
X163979017Y-83946453D01*
X163959284Y-83941601D01*
X163951531Y-83937038D01*
X163952975Y-83934953D01*
X163964467Y-83922216D01*
X163986368Y-83899185D01*
X164017397Y-83867168D01*
X164056277Y-83827474D01*
X164101729Y-83781411D01*
X164152475Y-83730287D01*
X164207235Y-83675411D01*
X164462938Y-83419817D01*
X164530594Y-83448898D01*
X164531006Y-83449075D01*
X164573376Y-83468224D01*
X164619437Y-83490444D01*
X164659290Y-83510960D01*
X164720330Y-83543942D01*
X164759119Y-83513454D01*
X164774750Y-83501099D01*
X164798623Y-83481992D01*
X164815340Y-83468318D01*
X164818391Y-83465766D01*
X164841611Y-83446657D01*
X164874926Y-83419561D01*
X164915397Y-83386837D01*
X164960085Y-83350845D01*
X165006053Y-83313943D01*
X165050363Y-83278493D01*
X165090076Y-83246852D01*
X165122255Y-83221380D01*
X165143961Y-83204436D01*
X165197225Y-83163540D01*
X165756063Y-83721602D01*
G37*
%TO.C,D13*%
X161020000Y-117770000D02*
X159020000Y-117770000D01*
X159020000Y-117770000D02*
X159020000Y-113920000D01*
X161020000Y-117770000D02*
X161020000Y-113920000D01*
%TO.C,D4*%
X124190000Y-117770000D02*
X124190000Y-113920000D01*
X122190000Y-117770000D02*
X122190000Y-113920000D01*
X124190000Y-117770000D02*
X122190000Y-117770000D01*
%TO.C,D14*%
X160290000Y-135550000D02*
X160290000Y-131700000D01*
X162290000Y-135550000D02*
X162290000Y-131700000D01*
X162290000Y-135550000D02*
X160290000Y-135550000D01*
%TO.C,D10*%
X161020000Y-60620000D02*
X161020000Y-56770000D01*
X159020000Y-60620000D02*
X159020000Y-56770000D01*
X161020000Y-60620000D02*
X159020000Y-60620000D01*
%TO.C,D5*%
X134350000Y-135550000D02*
X132350000Y-135550000D01*
X132350000Y-135550000D02*
X132350000Y-131700000D01*
X134350000Y-135550000D02*
X134350000Y-131700000D01*
%TO.C,B1*%
X125670000Y-82610000D02*
X125670000Y-79950000D01*
X128270000Y-82610000D02*
X128270000Y-79950000D01*
X128270000Y-82610000D02*
X125670000Y-82610000D01*
X130870000Y-82610000D02*
X130870000Y-81280000D01*
X129540000Y-82610000D02*
X130870000Y-82610000D01*
X128270000Y-79950000D02*
X125670000Y-79950000D01*
%TO.C,D6*%
X140700000Y-61890000D02*
X140700000Y-58040000D01*
X140700000Y-61890000D02*
X138700000Y-61890000D01*
X138700000Y-61890000D02*
X138700000Y-58040000D01*
%TO.C,D15*%
X180070000Y-60620000D02*
X180070000Y-56770000D01*
X178070000Y-60620000D02*
X178070000Y-56770000D01*
X180070000Y-60620000D02*
X178070000Y-60620000D01*
%TO.C,D12*%
X160290000Y-97450000D02*
X160290000Y-93600000D01*
X162290000Y-97450000D02*
X160290000Y-97450000D01*
X162290000Y-97450000D02*
X162290000Y-93600000D01*
%TO.C,D2*%
X124190000Y-78400000D02*
X124190000Y-74550000D01*
X124190000Y-78400000D02*
X122190000Y-78400000D01*
X122190000Y-78400000D02*
X122190000Y-74550000D01*
%TO.C,D8*%
X143240000Y-97450000D02*
X143240000Y-93600000D01*
X143240000Y-97450000D02*
X141240000Y-97450000D01*
X141240000Y-97450000D02*
X141240000Y-93600000D01*
%TO.C,G\u002A\u002A\u002A*%
G36*
X135662346Y-45986582D02*
G01*
X135656019Y-46024055D01*
X135646937Y-46052669D01*
X135623952Y-46090762D01*
X135590511Y-46124331D01*
X135549831Y-46148832D01*
X135503744Y-46162858D01*
X135493955Y-46164265D01*
X135454030Y-46165441D01*
X135413786Y-46160546D01*
X135379142Y-46150182D01*
X135353385Y-46135797D01*
X135321608Y-46109539D01*
X135294630Y-46078013D01*
X135276189Y-46045035D01*
X135272326Y-46034799D01*
X135267857Y-46019735D01*
X135264882Y-46003039D01*
X135263102Y-45981993D01*
X135262216Y-45953881D01*
X135261924Y-45915986D01*
X135261927Y-45912860D01*
X135361745Y-45912860D01*
X135361952Y-45935778D01*
X135363744Y-45970510D01*
X135367992Y-45996462D01*
X135375436Y-46016017D01*
X135386813Y-46031558D01*
X135402864Y-46045466D01*
X135421824Y-46056316D01*
X135454867Y-46063735D01*
X135491407Y-46059881D01*
X135491645Y-46059820D01*
X135517325Y-46050895D01*
X135536516Y-46037919D01*
X135550038Y-46019248D01*
X135558710Y-45993237D01*
X135563352Y-45958243D01*
X135564783Y-45912622D01*
X135564607Y-45883170D01*
X135563570Y-45858809D01*
X135561222Y-45841081D01*
X135557129Y-45826870D01*
X135550854Y-45813059D01*
X135546791Y-45805788D01*
X135525656Y-45781670D01*
X135497357Y-45767473D01*
X135461229Y-45762823D01*
X135460513Y-45762825D01*
X135425830Y-45768568D01*
X135397112Y-45785289D01*
X135374586Y-45812856D01*
X135373985Y-45813891D01*
X135368655Y-45824874D01*
X135365112Y-45837566D01*
X135363011Y-45854662D01*
X135362004Y-45878861D01*
X135361745Y-45912860D01*
X135261927Y-45912860D01*
X135261939Y-45902509D01*
X135263012Y-45857476D01*
X135266176Y-45821867D01*
X135272068Y-45793289D01*
X135281324Y-45769350D01*
X135294579Y-45747655D01*
X135312471Y-45725813D01*
X135344808Y-45696796D01*
X135385034Y-45674438D01*
X135428285Y-45661922D01*
X135472743Y-45658968D01*
X135516586Y-45665294D01*
X135557998Y-45680621D01*
X135595157Y-45704667D01*
X135626246Y-45737152D01*
X135649445Y-45777796D01*
X135651595Y-45783404D01*
X135659498Y-45815000D01*
X135664494Y-45854460D01*
X135666614Y-45898440D01*
X135666386Y-45912622D01*
X135665888Y-45943596D01*
X135662346Y-45986582D01*
G37*
G36*
X137672434Y-46944364D02*
G01*
X137670498Y-46777135D01*
X137670145Y-46747512D01*
X137669519Y-46703597D01*
X137668783Y-46669697D01*
X137667805Y-46644222D01*
X137666451Y-46625577D01*
X137664587Y-46612172D01*
X137662080Y-46602412D01*
X137658797Y-46594706D01*
X137654603Y-46587461D01*
X137653992Y-46586494D01*
X137633149Y-46564799D01*
X137605512Y-46550771D01*
X137574521Y-46545062D01*
X137543620Y-46548325D01*
X137516249Y-46561214D01*
X137505982Y-46569294D01*
X137497244Y-46578344D01*
X137490528Y-46589322D01*
X137485571Y-46603738D01*
X137482107Y-46623103D01*
X137479873Y-46648927D01*
X137478603Y-46682721D01*
X137478034Y-46725995D01*
X137477900Y-46780261D01*
X137477891Y-46944364D01*
X137377354Y-46944364D01*
X137379173Y-46752129D01*
X137379271Y-46741827D01*
X137379871Y-46686085D01*
X137380686Y-46641100D01*
X137381998Y-46605373D01*
X137384088Y-46577404D01*
X137387240Y-46555694D01*
X137391735Y-46538744D01*
X137397855Y-46525054D01*
X137405884Y-46513126D01*
X137416103Y-46501460D01*
X137428794Y-46488557D01*
X137443956Y-46475508D01*
X137479671Y-46455927D01*
X137519792Y-46445566D01*
X137561391Y-46444657D01*
X137601538Y-46453430D01*
X137637305Y-46472116D01*
X137639334Y-46473586D01*
X137653775Y-46483746D01*
X137663874Y-46490376D01*
X137664701Y-46490602D01*
X137666820Y-46487698D01*
X137668492Y-46478631D01*
X137669761Y-46462346D01*
X137670671Y-46437785D01*
X137671266Y-46403893D01*
X137671590Y-46359612D01*
X137671688Y-46303886D01*
X137671688Y-46112781D01*
X137638868Y-46134443D01*
X137623662Y-46143433D01*
X137598440Y-46155327D01*
X137576229Y-46162693D01*
X137545194Y-46166451D01*
X137503136Y-46161887D01*
X137464242Y-46146972D01*
X137430504Y-46122870D01*
X137403914Y-46090746D01*
X137386464Y-46051763D01*
X137385652Y-46048742D01*
X137381495Y-46024146D01*
X137378559Y-45990661D01*
X137376844Y-45951333D01*
X137376429Y-45915986D01*
X137481016Y-45915986D01*
X137481498Y-45954380D01*
X137483482Y-45986556D01*
X137487532Y-46010193D01*
X137494210Y-46027347D01*
X137504076Y-46040073D01*
X137517691Y-46050429D01*
X137534756Y-46058480D01*
X137564223Y-46064127D01*
X137594651Y-46062293D01*
X137622119Y-46053372D01*
X137642704Y-46037764D01*
X137648699Y-46029379D01*
X137660967Y-46001046D01*
X137668757Y-45965414D01*
X137672088Y-45925623D01*
X137670979Y-45884815D01*
X137665449Y-45846130D01*
X137655516Y-45812709D01*
X137641200Y-45787694D01*
X137632345Y-45777959D01*
X137621478Y-45770372D01*
X137606875Y-45766336D01*
X137584153Y-45764032D01*
X137561858Y-45763596D01*
X137531395Y-45769064D01*
X137508702Y-45782914D01*
X137492286Y-45805828D01*
X137487575Y-45817489D01*
X137484331Y-45831916D01*
X137482323Y-45851514D01*
X137481301Y-45878724D01*
X137481016Y-45915986D01*
X137376429Y-45915986D01*
X137376349Y-45909209D01*
X137377072Y-45867334D01*
X137379014Y-45828754D01*
X137382173Y-45796517D01*
X137386548Y-45773668D01*
X137393244Y-45754939D01*
X137414648Y-45719125D01*
X137443730Y-45691222D01*
X137478672Y-45671821D01*
X137517654Y-45661514D01*
X137558855Y-45660892D01*
X137600457Y-45670547D01*
X137640638Y-45691070D01*
X137671688Y-45711965D01*
X137671688Y-45662798D01*
X137771713Y-45662798D01*
X137771713Y-46944364D01*
X137672434Y-46944364D01*
G37*
G36*
X135961034Y-45659672D02*
G01*
X135988052Y-45664969D01*
X136033806Y-45680908D01*
X136069404Y-45704083D01*
X136094811Y-45734461D01*
X136109994Y-45772007D01*
X136114918Y-45816686D01*
X136114589Y-45824215D01*
X136110491Y-45849819D01*
X136103240Y-45872225D01*
X136097293Y-45883849D01*
X136079563Y-45907793D01*
X136055917Y-45926253D01*
X136024764Y-45940022D01*
X135984509Y-45949892D01*
X135933561Y-45956656D01*
X135915634Y-45958527D01*
X135881289Y-45963525D01*
X135857082Y-45969940D01*
X135841351Y-45978542D01*
X135832435Y-45990105D01*
X135828673Y-46005399D01*
X135828821Y-46021094D01*
X135837321Y-46042300D01*
X135856313Y-46057297D01*
X135885985Y-46066206D01*
X135926522Y-46069148D01*
X135928223Y-46069144D01*
X135972636Y-46065304D01*
X136011468Y-46053264D01*
X136049541Y-46031552D01*
X136077662Y-46012204D01*
X136111908Y-46042239D01*
X136113980Y-46044063D01*
X136130281Y-46058995D01*
X136141828Y-46070578D01*
X136146234Y-46076437D01*
X136145980Y-46077685D01*
X136138841Y-46086242D01*
X136123832Y-46098355D01*
X136103578Y-46112200D01*
X136080705Y-46125956D01*
X136057836Y-46137800D01*
X136036866Y-46146572D01*
X136008345Y-46156252D01*
X135983773Y-46162356D01*
X135971179Y-46164276D01*
X135920867Y-46166589D01*
X135872437Y-46160800D01*
X135827848Y-46147634D01*
X135789057Y-46127812D01*
X135758021Y-46102060D01*
X135736698Y-46071098D01*
X135728237Y-46043604D01*
X135725599Y-46007819D01*
X135729934Y-45971406D01*
X135741076Y-45939383D01*
X135742275Y-45937092D01*
X135757337Y-45914241D01*
X135776404Y-45896351D01*
X135801162Y-45882699D01*
X135833295Y-45872565D01*
X135874489Y-45865225D01*
X135926428Y-45859958D01*
X135926530Y-45859950D01*
X135952059Y-45856876D01*
X135975007Y-45852231D01*
X135990415Y-45847017D01*
X136003646Y-45837077D01*
X136013031Y-45819409D01*
X136012530Y-45799678D01*
X136002407Y-45780755D01*
X135982926Y-45765511D01*
X135963901Y-45759058D01*
X135932701Y-45756109D01*
X135897712Y-45758912D01*
X135862846Y-45767083D01*
X135832016Y-45780241D01*
X135797313Y-45799826D01*
X135768638Y-45766261D01*
X135767762Y-45765233D01*
X135753730Y-45748032D01*
X135743776Y-45734483D01*
X135740006Y-45727442D01*
X135740502Y-45725712D01*
X135748643Y-45717151D01*
X135764678Y-45705807D01*
X135785883Y-45693462D01*
X135809536Y-45681902D01*
X135832332Y-45673958D01*
X135865363Y-45666275D01*
X135901007Y-45660866D01*
X135934489Y-45658432D01*
X135961034Y-45659672D01*
G37*
G36*
X136596188Y-46445965D02*
G01*
X136636323Y-46457909D01*
X136671490Y-46480115D01*
X136696448Y-46501479D01*
X136696448Y-46450492D01*
X136796473Y-46450492D01*
X136796473Y-46944364D01*
X136696448Y-46944364D01*
X136696448Y-46783148D01*
X136696443Y-46761833D01*
X136696343Y-46717135D01*
X136696020Y-46682579D01*
X136695349Y-46656483D01*
X136694203Y-46637165D01*
X136692459Y-46622943D01*
X136689991Y-46612136D01*
X136686674Y-46603062D01*
X136682382Y-46594039D01*
X136668404Y-46573807D01*
X136643789Y-46554808D01*
X136614661Y-46545030D01*
X136583927Y-46545323D01*
X136554490Y-46556539D01*
X136534436Y-46568766D01*
X136499789Y-46527025D01*
X136493301Y-46519116D01*
X136478896Y-46500800D01*
X136468890Y-46486956D01*
X136465141Y-46480103D01*
X136468363Y-46476371D01*
X136480279Y-46468697D01*
X136497962Y-46459643D01*
X136511396Y-46454084D01*
X136553680Y-46444588D01*
X136596188Y-46445965D01*
G37*
G36*
X134453331Y-46662044D02*
G01*
X134454412Y-46717588D01*
X134448479Y-46770463D01*
X134436012Y-46817828D01*
X134417494Y-46856842D01*
X134402636Y-46878242D01*
X134376727Y-46905475D01*
X134345432Y-46925912D01*
X134305235Y-46942229D01*
X134283192Y-46947181D01*
X134247098Y-46949604D01*
X134207906Y-46947480D01*
X134170380Y-46941135D01*
X134139284Y-46930895D01*
X134133193Y-46927955D01*
X134112075Y-46915974D01*
X134091587Y-46902124D01*
X134074302Y-46888394D01*
X134062791Y-46876774D01*
X134059626Y-46869256D01*
X134059699Y-46869097D01*
X134065529Y-46862625D01*
X134078223Y-46850762D01*
X134095172Y-46835952D01*
X134128920Y-46807278D01*
X134147163Y-46822629D01*
X134168700Y-46836108D01*
X134198946Y-46847553D01*
X134230689Y-46853929D01*
X134258433Y-46853702D01*
X134291551Y-46842814D01*
X134319754Y-46822784D01*
X134340044Y-46795845D01*
X134350277Y-46764091D01*
X134353768Y-46738063D01*
X134044223Y-46738063D01*
X134046949Y-46666836D01*
X134047147Y-46661763D01*
X134047719Y-46650541D01*
X134146133Y-46650541D01*
X134353768Y-46650541D01*
X134350277Y-46624513D01*
X134341081Y-46593679D01*
X134321720Y-46567012D01*
X134294121Y-46548467D01*
X134259917Y-46539577D01*
X134241192Y-46539240D01*
X134208592Y-46547018D01*
X134181900Y-46565292D01*
X134162057Y-46593287D01*
X134150005Y-46630224D01*
X134146133Y-46650541D01*
X134047719Y-46650541D01*
X134048720Y-46630901D01*
X134051051Y-46608369D01*
X134054895Y-46590495D01*
X134061006Y-46573609D01*
X134070140Y-46554040D01*
X134092066Y-46518225D01*
X134125135Y-46484336D01*
X134165076Y-46460766D01*
X134211448Y-46447762D01*
X134263808Y-46445572D01*
X134270076Y-46446027D01*
X134318579Y-46455742D01*
X134360299Y-46475773D01*
X134394883Y-46505736D01*
X134421977Y-46545243D01*
X134441229Y-46593909D01*
X134452129Y-46650541D01*
X134452285Y-46651349D01*
X134453331Y-46662044D01*
G37*
G36*
X136631162Y-45665800D02*
G01*
X136664466Y-45678183D01*
X136690345Y-45697339D01*
X136699651Y-45706500D01*
X136709149Y-45711696D01*
X136713904Y-45705629D01*
X136715203Y-45687804D01*
X136715203Y-45662798D01*
X136815228Y-45662798D01*
X136815228Y-46162921D01*
X136716110Y-46162921D01*
X136714094Y-45995693D01*
X136713639Y-45959193D01*
X136713001Y-45916886D01*
X136712245Y-45884355D01*
X136711232Y-45860000D01*
X136709821Y-45842222D01*
X136707873Y-45829420D01*
X136705248Y-45819994D01*
X136701807Y-45812343D01*
X136697408Y-45804869D01*
X136694596Y-45800537D01*
X136674343Y-45778786D01*
X136648559Y-45766614D01*
X136614891Y-45762823D01*
X136582499Y-45766765D01*
X136556129Y-45779841D01*
X136536319Y-45802742D01*
X136532962Y-45809182D01*
X136530067Y-45817755D01*
X136527791Y-45829551D01*
X136526011Y-45846116D01*
X136524606Y-45868997D01*
X136523451Y-45899741D01*
X136522425Y-45939895D01*
X136521405Y-45991004D01*
X136518280Y-46159796D01*
X136466213Y-46161619D01*
X136414147Y-46163443D01*
X136416201Y-45977199D01*
X136416230Y-45974587D01*
X136416854Y-45921735D01*
X136417503Y-45879759D01*
X136418296Y-45847104D01*
X136419349Y-45822211D01*
X136420782Y-45803524D01*
X136422711Y-45789486D01*
X136425255Y-45778541D01*
X136428530Y-45769130D01*
X136432656Y-45759697D01*
X136451194Y-45727025D01*
X136477145Y-45699184D01*
X136512028Y-45676819D01*
X136519898Y-45673112D01*
X136555558Y-45662882D01*
X136593753Y-45660572D01*
X136631162Y-45665800D01*
G37*
G36*
X134153871Y-45662238D02*
G01*
X134191992Y-45671047D01*
X134238834Y-45691097D01*
X134277027Y-45720091D01*
X134306702Y-45758168D01*
X134327990Y-45805468D01*
X134341022Y-45862132D01*
X134344813Y-45916952D01*
X134340257Y-45971558D01*
X134327680Y-46022106D01*
X134307645Y-46066354D01*
X134280717Y-46102062D01*
X134274313Y-46108200D01*
X134241202Y-46132577D01*
X134202916Y-46151771D01*
X134165003Y-46162867D01*
X134141022Y-46166394D01*
X134113330Y-46167908D01*
X134088099Y-46165074D01*
X134059799Y-46157619D01*
X134047987Y-46153538D01*
X134012908Y-46137273D01*
X133980545Y-46116747D01*
X133955743Y-46094882D01*
X133948316Y-46085808D01*
X133947768Y-46078513D01*
X133955743Y-46068459D01*
X133959378Y-46064658D01*
X133973995Y-46051044D01*
X133990962Y-46036782D01*
X134014272Y-46018296D01*
X134036727Y-46035423D01*
X134041668Y-46039027D01*
X134075678Y-46056417D01*
X134111569Y-46063831D01*
X134147033Y-46061672D01*
X134179765Y-46050349D01*
X134207459Y-46030264D01*
X134227808Y-46001825D01*
X134228576Y-46000244D01*
X134235531Y-45983391D01*
X134239699Y-45965822D01*
X134241716Y-45943618D01*
X134242216Y-45912860D01*
X134242177Y-45903915D01*
X134241349Y-45876334D01*
X134238925Y-45856228D01*
X134234215Y-45839631D01*
X134226532Y-45822574D01*
X134209896Y-45797155D01*
X134185032Y-45776800D01*
X134153211Y-45765986D01*
X134113239Y-45764096D01*
X134101983Y-45764829D01*
X134079422Y-45768086D01*
X134061471Y-45774754D01*
X134042473Y-45786636D01*
X134013664Y-45806942D01*
X133990658Y-45788697D01*
X133984917Y-45784039D01*
X133968153Y-45769426D01*
X133955684Y-45757195D01*
X133953840Y-45755144D01*
X133947560Y-45746479D01*
X133948929Y-45739261D01*
X133958449Y-45728254D01*
X133961187Y-45725425D01*
X133991986Y-45700751D01*
X134030070Y-45679886D01*
X134070764Y-45665443D01*
X134080832Y-45662973D01*
X134104491Y-45658847D01*
X134126570Y-45658690D01*
X134153871Y-45662238D01*
G37*
G36*
X135122908Y-45664113D02*
G01*
X135174199Y-45665924D01*
X135174167Y-45850344D01*
X135174165Y-45856771D01*
X135174114Y-45908487D01*
X135173920Y-45949436D01*
X135173477Y-45981183D01*
X135172682Y-46005292D01*
X135171431Y-46023328D01*
X135169617Y-46036855D01*
X135167138Y-46047436D01*
X135163889Y-46056638D01*
X135159765Y-46066022D01*
X135150605Y-46083573D01*
X135122353Y-46119845D01*
X135086198Y-46146638D01*
X135042917Y-46163307D01*
X135033313Y-46165289D01*
X134991678Y-46166291D01*
X134949252Y-46155917D01*
X134908301Y-46134650D01*
X134877251Y-46113754D01*
X134877251Y-46162921D01*
X134777226Y-46162921D01*
X134777226Y-45662798D01*
X134877251Y-45662798D01*
X134877251Y-45824014D01*
X134877256Y-45845468D01*
X134877356Y-45890131D01*
X134877679Y-45924655D01*
X134878351Y-45950721D01*
X134879496Y-45970008D01*
X134881241Y-45984197D01*
X134883709Y-45994969D01*
X134887026Y-46004003D01*
X134891317Y-46012980D01*
X134895968Y-46021387D01*
X134916686Y-46045627D01*
X134943805Y-46059554D01*
X134978485Y-46063845D01*
X134983369Y-46063738D01*
X135011247Y-46059097D01*
X135033879Y-46046186D01*
X135055033Y-46022994D01*
X135057169Y-46019993D01*
X135060555Y-46013882D01*
X135063186Y-46005918D01*
X135065181Y-45994580D01*
X135066658Y-45978346D01*
X135067737Y-45955694D01*
X135068537Y-45925104D01*
X135069174Y-45885054D01*
X135069770Y-45834023D01*
X135071616Y-45662302D01*
X135122908Y-45664113D01*
G37*
G36*
X133915054Y-45905519D02*
G01*
X133914451Y-45943025D01*
X133911988Y-45977379D01*
X133907700Y-46003969D01*
X133895097Y-46042741D01*
X133870702Y-46086724D01*
X133837952Y-46121624D01*
X133797212Y-46147074D01*
X133748848Y-46162708D01*
X133745870Y-46163295D01*
X133691895Y-46167426D01*
X133638548Y-46159787D01*
X133588082Y-46140941D01*
X133542750Y-46111447D01*
X133536269Y-46105882D01*
X133525090Y-46094868D01*
X133520667Y-46088207D01*
X133520698Y-46087966D01*
X133525789Y-46081179D01*
X133537907Y-46069098D01*
X133554612Y-46054170D01*
X133588557Y-46025169D01*
X133611184Y-46040524D01*
X133614735Y-46042850D01*
X133635897Y-46054624D01*
X133656045Y-46063217D01*
X133665905Y-46065786D01*
X133693319Y-46068513D01*
X133722851Y-46066956D01*
X133749746Y-46061555D01*
X133769250Y-46052748D01*
X133784816Y-46036790D01*
X133799510Y-46013823D01*
X133810297Y-45989144D01*
X133814489Y-45967799D01*
X133814489Y-45950369D01*
X133506814Y-45950369D01*
X133509378Y-45880039D01*
X133510152Y-45869099D01*
X133606797Y-45869099D01*
X133814489Y-45869099D01*
X133814489Y-45851328D01*
X133811450Y-45832786D01*
X133800235Y-45807124D01*
X133783563Y-45783933D01*
X133764419Y-45768170D01*
X133763520Y-45767698D01*
X133739303Y-45759620D01*
X133710798Y-45756571D01*
X133703949Y-45756768D01*
X133670333Y-45764359D01*
X133642972Y-45782311D01*
X133622886Y-45809713D01*
X133611091Y-45845656D01*
X133606797Y-45869099D01*
X133510152Y-45869099D01*
X133512583Y-45834718D01*
X133519361Y-45797731D01*
X133530730Y-45767451D01*
X133547751Y-45741071D01*
X133571484Y-45715789D01*
X133609084Y-45687394D01*
X133653904Y-45667477D01*
X133701608Y-45659200D01*
X133750733Y-45662995D01*
X133793329Y-45676291D01*
X133833831Y-45700633D01*
X133866761Y-45734780D01*
X133891894Y-45778495D01*
X133909006Y-45831537D01*
X133910540Y-45839494D01*
X133913722Y-45869099D01*
X133913762Y-45869472D01*
X133915054Y-45905519D01*
G37*
G36*
X138263389Y-45970644D02*
G01*
X138256887Y-46014692D01*
X138245432Y-46051065D01*
X138228383Y-46081840D01*
X138205101Y-46109091D01*
X138189543Y-46123032D01*
X138148530Y-46148863D01*
X138103542Y-46163036D01*
X138068314Y-46165788D01*
X138027745Y-46163121D01*
X137990517Y-46155277D01*
X137964930Y-46144783D01*
X137927903Y-46119732D01*
X137896822Y-46086289D01*
X137874305Y-46046896D01*
X137869959Y-46033802D01*
X137863969Y-46002798D01*
X137860166Y-45964595D01*
X137858555Y-45922443D01*
X137858688Y-45912622D01*
X137959396Y-45912622D01*
X137960009Y-45941827D01*
X137963610Y-45981015D01*
X137970818Y-46010494D01*
X137982071Y-46031791D01*
X137997807Y-46046431D01*
X137997842Y-46046454D01*
X138027699Y-46059496D01*
X138060910Y-46063697D01*
X138093383Y-46059083D01*
X138121031Y-46045678D01*
X138130491Y-46038094D01*
X138143977Y-46023574D01*
X138153170Y-46006180D01*
X138158813Y-45983524D01*
X138161653Y-45953214D01*
X138162434Y-45912860D01*
X138162432Y-45909198D01*
X138162118Y-45876228D01*
X138161024Y-45852807D01*
X138158802Y-45836236D01*
X138155107Y-45823818D01*
X138149593Y-45812856D01*
X138134118Y-45792609D01*
X138108291Y-45773528D01*
X138078772Y-45763446D01*
X138048039Y-45762361D01*
X138018569Y-45770271D01*
X137992838Y-45787171D01*
X137973325Y-45813059D01*
X137967672Y-45825271D01*
X137963343Y-45839273D01*
X137960811Y-45856421D01*
X137959641Y-45879832D01*
X137959396Y-45912622D01*
X137858688Y-45912622D01*
X137859137Y-45879595D01*
X137861916Y-45839300D01*
X137866894Y-45804811D01*
X137874074Y-45779377D01*
X137883503Y-45759878D01*
X137910757Y-45722228D01*
X137945129Y-45692967D01*
X137984824Y-45672456D01*
X138028045Y-45661056D01*
X138072997Y-45659129D01*
X138117884Y-45667034D01*
X138160911Y-45685134D01*
X138200281Y-45713789D01*
X138209752Y-45722975D01*
X138231751Y-45749849D01*
X138247622Y-45780103D01*
X138258076Y-45815908D01*
X138263826Y-45859437D01*
X138265584Y-45912860D01*
X138265576Y-45916846D01*
X138263389Y-45970644D01*
G37*
G36*
X134495005Y-45668593D02*
G01*
X134527825Y-45683131D01*
X134553031Y-45704542D01*
X134553815Y-45705481D01*
X134559088Y-45709819D01*
X134562196Y-45705413D01*
X134564674Y-45690400D01*
X134567800Y-45665924D01*
X134619375Y-45664108D01*
X134670950Y-45662293D01*
X134670950Y-46163427D01*
X134619375Y-46161611D01*
X134567800Y-46159796D01*
X134564674Y-45987878D01*
X134564187Y-45961424D01*
X134563170Y-45913364D01*
X134561942Y-45875612D01*
X134560209Y-45846674D01*
X134557680Y-45825055D01*
X134554060Y-45809263D01*
X134549057Y-45797801D01*
X134542378Y-45789178D01*
X134533730Y-45781898D01*
X134522820Y-45774468D01*
X134506225Y-45767232D01*
X134479115Y-45763181D01*
X134450425Y-45765096D01*
X134425488Y-45773054D01*
X134405703Y-45783286D01*
X134381691Y-45755863D01*
X134371917Y-45744505D01*
X134356626Y-45726055D01*
X134345480Y-45711784D01*
X134333280Y-45695129D01*
X134353842Y-45682421D01*
X134381317Y-45669594D01*
X134418705Y-45661486D01*
X134457616Y-45661265D01*
X134495005Y-45668593D01*
G37*
G36*
X135660161Y-46451764D02*
G01*
X135698541Y-46453618D01*
X135752073Y-46620724D01*
X135754243Y-46627491D01*
X135768064Y-46670207D01*
X135780670Y-46708542D01*
X135791551Y-46740989D01*
X135800195Y-46766040D01*
X135806092Y-46782185D01*
X135808730Y-46787917D01*
X135810299Y-46784573D01*
X135814835Y-46770741D01*
X135821742Y-46747694D01*
X135830544Y-46717062D01*
X135840767Y-46680475D01*
X135851935Y-46639565D01*
X135859697Y-46610819D01*
X135870638Y-46570316D01*
X135880418Y-46534124D01*
X135888514Y-46504182D01*
X135894400Y-46482430D01*
X135897552Y-46470810D01*
X135903091Y-46450492D01*
X135955935Y-46450492D01*
X135965474Y-46450550D01*
X135987613Y-46451203D01*
X136003008Y-46452426D01*
X136008779Y-46454029D01*
X136008748Y-46454205D01*
X136006472Y-46461929D01*
X136000944Y-46479824D01*
X135992652Y-46506349D01*
X135982086Y-46539962D01*
X135969735Y-46579123D01*
X135956087Y-46622290D01*
X135941631Y-46667923D01*
X135926857Y-46714480D01*
X135912253Y-46760421D01*
X135898308Y-46804204D01*
X135885512Y-46844289D01*
X135874352Y-46879135D01*
X135865319Y-46907200D01*
X135858901Y-46926944D01*
X135855587Y-46936825D01*
X135855417Y-46937237D01*
X135848905Y-46941492D01*
X135833421Y-46943366D01*
X135807274Y-46943076D01*
X135761877Y-46941238D01*
X135712357Y-46774291D01*
X135710537Y-46768166D01*
X135697663Y-46725454D01*
X135685845Y-46687276D01*
X135675569Y-46655128D01*
X135667321Y-46630504D01*
X135661588Y-46614899D01*
X135658855Y-46609806D01*
X135658726Y-46609938D01*
X135655634Y-46617492D01*
X135649564Y-46635325D01*
X135641008Y-46661880D01*
X135630463Y-46695601D01*
X135618420Y-46734932D01*
X135605375Y-46778315D01*
X135555876Y-46944364D01*
X135465728Y-46944364D01*
X135425176Y-46817770D01*
X135413145Y-46780180D01*
X135396415Y-46727832D01*
X135379160Y-46673767D01*
X135362827Y-46622526D01*
X135348867Y-46578649D01*
X135348752Y-46578288D01*
X135337362Y-46542513D01*
X135327164Y-46510618D01*
X135318806Y-46484612D01*
X135312932Y-46466505D01*
X135310190Y-46458306D01*
X135310443Y-46455595D01*
X135317278Y-46452595D01*
X135333403Y-46450977D01*
X135360407Y-46450492D01*
X135362737Y-46450495D01*
X135391858Y-46451390D01*
X135409500Y-46453953D01*
X135416537Y-46458306D01*
X135418478Y-46464707D01*
X135423336Y-46481867D01*
X135430566Y-46507913D01*
X135439700Y-46541149D01*
X135450270Y-46579880D01*
X135461808Y-46622409D01*
X135472133Y-46660260D01*
X135482930Y-46699124D01*
X135492419Y-46732524D01*
X135500121Y-46758806D01*
X135505559Y-46776314D01*
X135508256Y-46783395D01*
X135508566Y-46783400D01*
X135512187Y-46776638D01*
X135518952Y-46759696D01*
X135528342Y-46734018D01*
X135539842Y-46701047D01*
X135552934Y-46662228D01*
X135567103Y-46619002D01*
X135621781Y-46449911D01*
X135660161Y-46451764D01*
G37*
G36*
X135919369Y-41949388D02*
G01*
X135975570Y-41949442D01*
X136021038Y-41949603D01*
X136056952Y-41949928D01*
X136084490Y-41950476D01*
X136104834Y-41951302D01*
X136119163Y-41952464D01*
X136128655Y-41954019D01*
X136134491Y-41956024D01*
X136137851Y-41958535D01*
X136139913Y-41961610D01*
X136140182Y-41962217D01*
X136143094Y-41972783D01*
X136147909Y-41994002D01*
X136154341Y-42024450D01*
X136162099Y-42062706D01*
X136170894Y-42107349D01*
X136180438Y-42156957D01*
X136190441Y-42210108D01*
X136192182Y-42219436D01*
X136202164Y-42271856D01*
X136211712Y-42320320D01*
X136220530Y-42363436D01*
X136228320Y-42399812D01*
X136234787Y-42428058D01*
X136239633Y-42446782D01*
X136242563Y-42454591D01*
X136244658Y-42456118D01*
X136257227Y-42462716D01*
X136278847Y-42472748D01*
X136307660Y-42485451D01*
X136341810Y-42500066D01*
X136379439Y-42515832D01*
X136418689Y-42531987D01*
X136457702Y-42547772D01*
X136494621Y-42562425D01*
X136527588Y-42575186D01*
X136554746Y-42585293D01*
X136574236Y-42591986D01*
X136584203Y-42594505D01*
X136587560Y-42593922D01*
X136600228Y-42588311D01*
X136620948Y-42576554D01*
X136650122Y-42558396D01*
X136688152Y-42533582D01*
X136735442Y-42501858D01*
X136792394Y-42462970D01*
X136809748Y-42451042D01*
X136859170Y-42417091D01*
X136899576Y-42389409D01*
X136931953Y-42367381D01*
X136957288Y-42350393D01*
X136976566Y-42337831D01*
X136990776Y-42329079D01*
X137000904Y-42323523D01*
X137007935Y-42320549D01*
X137012857Y-42319541D01*
X137016656Y-42319885D01*
X137020318Y-42320967D01*
X137025804Y-42324512D01*
X137039480Y-42336125D01*
X137059484Y-42354557D01*
X137084641Y-42378611D01*
X137113776Y-42407093D01*
X137145713Y-42438804D01*
X137179278Y-42472550D01*
X137213294Y-42507134D01*
X137246588Y-42541359D01*
X137277984Y-42574030D01*
X137306307Y-42603950D01*
X137330381Y-42629924D01*
X137349032Y-42650754D01*
X137361084Y-42665244D01*
X137365363Y-42672199D01*
X137365303Y-42672667D01*
X137360995Y-42681787D01*
X137350427Y-42699805D01*
X137334378Y-42725510D01*
X137313628Y-42757693D01*
X137288955Y-42795143D01*
X137261137Y-42836652D01*
X137230955Y-42881009D01*
X137228078Y-42885208D01*
X137188190Y-42943896D01*
X137155392Y-42993116D01*
X137129756Y-43032756D01*
X137111355Y-43062699D01*
X137100261Y-43082831D01*
X137096547Y-43093039D01*
X137097603Y-43099070D01*
X137103022Y-43116357D01*
X137112352Y-43141753D01*
X137124817Y-43173465D01*
X137139640Y-43209699D01*
X137156045Y-43248663D01*
X137173256Y-43288564D01*
X137190496Y-43327609D01*
X137206988Y-43364004D01*
X137221956Y-43395958D01*
X137234623Y-43421676D01*
X137244213Y-43439366D01*
X137249949Y-43447235D01*
X137257881Y-43450017D01*
X137276930Y-43454846D01*
X137305433Y-43461271D01*
X137341910Y-43468982D01*
X137384880Y-43477665D01*
X137432864Y-43487008D01*
X137484382Y-43496699D01*
X137532241Y-43505626D01*
X137580653Y-43514820D01*
X137624213Y-43523264D01*
X137661432Y-43530660D01*
X137690819Y-43536713D01*
X137710884Y-43541125D01*
X137720138Y-43543600D01*
X137734204Y-43549510D01*
X137734204Y-43799037D01*
X137734203Y-43807380D01*
X137734163Y-43868530D01*
X137734021Y-43918474D01*
X137733728Y-43958368D01*
X137733234Y-43989366D01*
X137732489Y-44012623D01*
X137731444Y-44029295D01*
X137730048Y-44040537D01*
X137728253Y-44047504D01*
X137726008Y-44051351D01*
X137723264Y-44053233D01*
X137714961Y-44055385D01*
X137695765Y-44059547D01*
X137667157Y-44065416D01*
X137630589Y-44072702D01*
X137587512Y-44081116D01*
X137539377Y-44090369D01*
X137487634Y-44100173D01*
X137458245Y-44105726D01*
X137400864Y-44116767D01*
X137354477Y-44126034D01*
X137318161Y-44133736D01*
X137290993Y-44140085D01*
X137272050Y-44145289D01*
X137260409Y-44149560D01*
X137255147Y-44153108D01*
X137254256Y-44154600D01*
X137248683Y-44166358D01*
X137239362Y-44187708D01*
X137226938Y-44217110D01*
X137212058Y-44253027D01*
X137195365Y-44293920D01*
X137177505Y-44338250D01*
X137161714Y-44378008D01*
X137142031Y-44428836D01*
X137127214Y-44468990D01*
X137117111Y-44498911D01*
X137111565Y-44519039D01*
X137110424Y-44529813D01*
X137113652Y-44537173D01*
X137123347Y-44554078D01*
X137138649Y-44578802D01*
X137158726Y-44610050D01*
X137182744Y-44646529D01*
X137209871Y-44686944D01*
X137239274Y-44730001D01*
X137265617Y-44768495D01*
X137292734Y-44808662D01*
X137316729Y-44844781D01*
X137336796Y-44875609D01*
X137352129Y-44899907D01*
X137361920Y-44916434D01*
X137365363Y-44923948D01*
X137365066Y-44924879D01*
X137358614Y-44933668D01*
X137344451Y-44949950D01*
X137323532Y-44972715D01*
X137296814Y-45000948D01*
X137265250Y-45033639D01*
X137229795Y-45069775D01*
X137191405Y-45108343D01*
X137163224Y-45136412D01*
X137122831Y-45176395D01*
X137089910Y-45208566D01*
X137063679Y-45233638D01*
X137043353Y-45252324D01*
X137028148Y-45265336D01*
X137017280Y-45273387D01*
X137009966Y-45277190D01*
X137005422Y-45277458D01*
X136999536Y-45274169D01*
X136984082Y-45264400D01*
X136960667Y-45249073D01*
X136930557Y-45229033D01*
X136895020Y-45205125D01*
X136855323Y-45178193D01*
X136812733Y-45149082D01*
X136776698Y-45124526D01*
X136736497Y-45097542D01*
X136700239Y-45073644D01*
X136669187Y-45053642D01*
X136644604Y-45038350D01*
X136627754Y-45028579D01*
X136619900Y-45025141D01*
X136616969Y-45025687D01*
X136603341Y-45030812D01*
X136582033Y-45040468D01*
X136555324Y-45053594D01*
X136525496Y-45069128D01*
X136512227Y-45076123D01*
X136483606Y-45090502D01*
X136459150Y-45101838D01*
X136441112Y-45109117D01*
X136431744Y-45111325D01*
X136429848Y-45110138D01*
X136425288Y-45103986D01*
X136418617Y-45092039D01*
X136409550Y-45073651D01*
X136397803Y-45048179D01*
X136383093Y-45014977D01*
X136365134Y-44973400D01*
X136343643Y-44922804D01*
X136318336Y-44862543D01*
X136288929Y-44791973D01*
X136255138Y-44710449D01*
X136237557Y-44667880D01*
X136210740Y-44602673D01*
X136185624Y-44541273D01*
X136162597Y-44484647D01*
X136142047Y-44433760D01*
X136124363Y-44389580D01*
X136109933Y-44353075D01*
X136099145Y-44325210D01*
X136092388Y-44306954D01*
X136090049Y-44299273D01*
X136090602Y-44296090D01*
X136099234Y-44283750D01*
X136116618Y-44270067D01*
X136120212Y-44267721D01*
X136139778Y-44254425D01*
X136163886Y-44237478D01*
X136188140Y-44219960D01*
X136225171Y-44190131D01*
X136280147Y-44133696D01*
X136325472Y-44070520D01*
X136360672Y-44001825D01*
X136385274Y-43928831D01*
X136398806Y-43852763D01*
X136400795Y-43774841D01*
X136390767Y-43696288D01*
X136386093Y-43675870D01*
X136361475Y-43602745D01*
X136326150Y-43534523D01*
X136281131Y-43472286D01*
X136227433Y-43417119D01*
X136166070Y-43370104D01*
X136098057Y-43332327D01*
X136024408Y-43304870D01*
X136004525Y-43299961D01*
X135955764Y-43292619D01*
X135901556Y-43289439D01*
X135846210Y-43290421D01*
X135794035Y-43295565D01*
X135749340Y-43304870D01*
X135703361Y-43320173D01*
X135640513Y-43349533D01*
X135582811Y-43387993D01*
X135527411Y-43437248D01*
X135519356Y-43445386D01*
X135482607Y-43485485D01*
X135453888Y-43523186D01*
X135430897Y-43561811D01*
X135411331Y-43604684D01*
X135389609Y-43670314D01*
X135375542Y-43747516D01*
X135373158Y-43824636D01*
X135382126Y-43900501D01*
X135402114Y-43973939D01*
X135432787Y-44043777D01*
X135473816Y-44108842D01*
X135524867Y-44167961D01*
X135585608Y-44219960D01*
X135591316Y-44224131D01*
X135615940Y-44241793D01*
X135639344Y-44258132D01*
X135657130Y-44270067D01*
X135663343Y-44274321D01*
X135678241Y-44287847D01*
X135683699Y-44299273D01*
X135682763Y-44302824D01*
X135677597Y-44317276D01*
X135668257Y-44341694D01*
X135655131Y-44375111D01*
X135638607Y-44416561D01*
X135619073Y-44465076D01*
X135596919Y-44519689D01*
X135572531Y-44579434D01*
X135546299Y-44643343D01*
X135518610Y-44710449D01*
X135497065Y-44762472D01*
X135466033Y-44837107D01*
X135439210Y-44901190D01*
X135416309Y-44955365D01*
X135397049Y-45000276D01*
X135381143Y-45036569D01*
X135368309Y-45064888D01*
X135358262Y-45085879D01*
X135350719Y-45100185D01*
X135345394Y-45108452D01*
X135342004Y-45111325D01*
X135339113Y-45111047D01*
X135325671Y-45106494D01*
X135304546Y-45097313D01*
X135277989Y-45084520D01*
X135248253Y-45069128D01*
X135235186Y-45062219D01*
X135206421Y-45047591D01*
X135181755Y-45035827D01*
X135163471Y-45027990D01*
X135153848Y-45025141D01*
X135147851Y-45027601D01*
X135132327Y-45036434D01*
X135108872Y-45050915D01*
X135078750Y-45070232D01*
X135043224Y-45093574D01*
X135003558Y-45120128D01*
X134961015Y-45149082D01*
X134925292Y-45173514D01*
X134885030Y-45200865D01*
X134848719Y-45225330D01*
X134817625Y-45246066D01*
X134793017Y-45262229D01*
X134776162Y-45272975D01*
X134768327Y-45277458D01*
X134765885Y-45277681D01*
X134759771Y-45275376D01*
X134750417Y-45269106D01*
X134737038Y-45258161D01*
X134718851Y-45241827D01*
X134695072Y-45219390D01*
X134664917Y-45190140D01*
X134627602Y-45153362D01*
X134582344Y-45108343D01*
X134572160Y-45098165D01*
X134534439Y-45060130D01*
X134499902Y-45024790D01*
X134469502Y-44993158D01*
X134444196Y-44966246D01*
X134424938Y-44945065D01*
X134412683Y-44930628D01*
X134408385Y-44923948D01*
X134411172Y-44917635D01*
X134420352Y-44901972D01*
X134435156Y-44878411D01*
X134454777Y-44848192D01*
X134478408Y-44812557D01*
X134505243Y-44772746D01*
X134534474Y-44730001D01*
X134560296Y-44692226D01*
X134587755Y-44651409D01*
X134612209Y-44614366D01*
X134632825Y-44582391D01*
X134648772Y-44556777D01*
X134659216Y-44538820D01*
X134663325Y-44529813D01*
X134663053Y-44523701D01*
X134659012Y-44506780D01*
X134650465Y-44480215D01*
X134637257Y-44443565D01*
X134619234Y-44396390D01*
X134596243Y-44338250D01*
X134590400Y-44323684D01*
X134572846Y-44280294D01*
X134556667Y-44240836D01*
X134542507Y-44206850D01*
X134531013Y-44179875D01*
X134522829Y-44161448D01*
X134518601Y-44153108D01*
X134516983Y-44151601D01*
X134508989Y-44147757D01*
X134494204Y-44143095D01*
X134471706Y-44137406D01*
X134440571Y-44130480D01*
X134399876Y-44122106D01*
X134348698Y-44112073D01*
X134286114Y-44100173D01*
X134235036Y-44090496D01*
X134186844Y-44081233D01*
X134143690Y-44072806D01*
X134107027Y-44065504D01*
X134078304Y-44059615D01*
X134058973Y-44055428D01*
X134050485Y-44053233D01*
X134050119Y-44053069D01*
X134047439Y-44051007D01*
X134045252Y-44046839D01*
X134043508Y-44039409D01*
X134042158Y-44027563D01*
X134041152Y-44010144D01*
X134040441Y-43985997D01*
X134039974Y-43953969D01*
X134039702Y-43912903D01*
X134039576Y-43861644D01*
X134039545Y-43799037D01*
X134039545Y-43549510D01*
X134053611Y-43543600D01*
X134061791Y-43541378D01*
X134081108Y-43537099D01*
X134109856Y-43531158D01*
X134146547Y-43523851D01*
X134189689Y-43515474D01*
X134237792Y-43506325D01*
X134289367Y-43496699D01*
X134337324Y-43487689D01*
X134385608Y-43478311D01*
X134428983Y-43469570D01*
X134465969Y-43461780D01*
X134495088Y-43455253D01*
X134514858Y-43450301D01*
X134523800Y-43447235D01*
X134527040Y-43443343D01*
X134535364Y-43428900D01*
X134547038Y-43405799D01*
X134561286Y-43375833D01*
X134577331Y-43340794D01*
X134594396Y-43302476D01*
X134611706Y-43262672D01*
X134628483Y-43223174D01*
X134643951Y-43185776D01*
X134657333Y-43152271D01*
X134667853Y-43124451D01*
X134674735Y-43104109D01*
X134677202Y-43093039D01*
X134677185Y-43092674D01*
X134672982Y-43081809D01*
X134661405Y-43061026D01*
X134642524Y-43030440D01*
X134616414Y-42990165D01*
X134583146Y-42940317D01*
X134542793Y-42881009D01*
X134538773Y-42875138D01*
X134508853Y-42831082D01*
X134481400Y-42790031D01*
X134457191Y-42753195D01*
X134437007Y-42721784D01*
X134421625Y-42697008D01*
X134411825Y-42680076D01*
X134408385Y-42672199D01*
X134410960Y-42667539D01*
X134421341Y-42654664D01*
X134438589Y-42635176D01*
X134461528Y-42610271D01*
X134488985Y-42581147D01*
X134519782Y-42548999D01*
X134552746Y-42515023D01*
X134586702Y-42480415D01*
X134620473Y-42446373D01*
X134652885Y-42414092D01*
X134682763Y-42384767D01*
X134708932Y-42359596D01*
X134730216Y-42339775D01*
X134745440Y-42326500D01*
X134753430Y-42320967D01*
X134754880Y-42320499D01*
X134758361Y-42319597D01*
X134762291Y-42319616D01*
X134767658Y-42321169D01*
X134775448Y-42324870D01*
X134786647Y-42331336D01*
X134802241Y-42341181D01*
X134823218Y-42355019D01*
X134850563Y-42373465D01*
X134885262Y-42397134D01*
X134928303Y-42426641D01*
X134980671Y-42462601D01*
X135010897Y-42483294D01*
X135062936Y-42518517D01*
X135105523Y-42546719D01*
X135139069Y-42568158D01*
X135163982Y-42583093D01*
X135180673Y-42591783D01*
X135189551Y-42594485D01*
X135192454Y-42593981D01*
X135206626Y-42589611D01*
X135229537Y-42581387D01*
X135259331Y-42570071D01*
X135294154Y-42556422D01*
X135332152Y-42541200D01*
X135371470Y-42525166D01*
X135410254Y-42509079D01*
X135446648Y-42493700D01*
X135478798Y-42479788D01*
X135504851Y-42468103D01*
X135522950Y-42459406D01*
X135531241Y-42454457D01*
X135531593Y-42453946D01*
X135534835Y-42444161D01*
X135539950Y-42423705D01*
X135546645Y-42393968D01*
X135554621Y-42356339D01*
X135563584Y-42312209D01*
X135573237Y-42262967D01*
X135583285Y-42210004D01*
X135584932Y-42201196D01*
X135594905Y-42148520D01*
X135604367Y-42099621D01*
X135613029Y-42055921D01*
X135620602Y-42018839D01*
X135626796Y-41989795D01*
X135631322Y-41970210D01*
X135633892Y-41961505D01*
X135634765Y-41960010D01*
X135637314Y-41957228D01*
X135641754Y-41954980D01*
X135649266Y-41953207D01*
X135661028Y-41951854D01*
X135678219Y-41950864D01*
X135702018Y-41950181D01*
X135733604Y-41949748D01*
X135774156Y-41949508D01*
X135824853Y-41949406D01*
X135886874Y-41949385D01*
X135919369Y-41949388D01*
G37*
G36*
X137299277Y-46845740D02*
G01*
X137290922Y-46865757D01*
X137267580Y-46897802D01*
X137234911Y-46923586D01*
X137194545Y-46941616D01*
X137169158Y-46947020D01*
X137134418Y-46949812D01*
X137099401Y-46948875D01*
X137070172Y-46944088D01*
X137068691Y-46943657D01*
X137047317Y-46934380D01*
X137027974Y-46921687D01*
X137009025Y-46905743D01*
X137009025Y-46944364D01*
X136901651Y-46944364D01*
X136903978Y-46772272D01*
X137009025Y-46772272D01*
X137009604Y-46786452D01*
X137014725Y-46814494D01*
X137024335Y-46835439D01*
X137037451Y-46846712D01*
X137040155Y-46847600D01*
X137058169Y-46850827D01*
X137083171Y-46852946D01*
X137110707Y-46853796D01*
X137136328Y-46853214D01*
X137155582Y-46851036D01*
X137163641Y-46848911D01*
X137186465Y-46836711D01*
X137201844Y-46818733D01*
X137208743Y-46797599D01*
X137206127Y-46775929D01*
X137192961Y-46756344D01*
X137186341Y-46750676D01*
X137178387Y-46746213D01*
X137167449Y-46743238D01*
X137151148Y-46741340D01*
X137127103Y-46740111D01*
X137092937Y-46739141D01*
X137009025Y-46737094D01*
X137009025Y-46772272D01*
X136903978Y-46772272D01*
X136904208Y-46755255D01*
X136904247Y-46752355D01*
X136905275Y-46691620D01*
X136906548Y-46642473D01*
X136908113Y-46604040D01*
X136910012Y-46575444D01*
X136912292Y-46555811D01*
X136914998Y-46544265D01*
X136928443Y-46516681D01*
X136953282Y-46487763D01*
X136987901Y-46465477D01*
X136997053Y-46461171D01*
X137014787Y-46454373D01*
X137033670Y-46449986D01*
X137057486Y-46447268D01*
X137090020Y-46445479D01*
X137116432Y-46444870D01*
X137160015Y-46447008D01*
X137195425Y-46454034D01*
X137225091Y-46466543D01*
X137251440Y-46485132D01*
X137262170Y-46494729D01*
X137273461Y-46506123D01*
X137277841Y-46512491D01*
X137277693Y-46513031D01*
X137271611Y-46519955D01*
X137258396Y-46531767D01*
X137240504Y-46546248D01*
X137203166Y-46575244D01*
X137187277Y-46560518D01*
X137178270Y-46553351D01*
X137159153Y-46544342D01*
X137133587Y-46539474D01*
X137098690Y-46538014D01*
X137083294Y-46538657D01*
X137053148Y-46544125D01*
X137029732Y-46554349D01*
X137015780Y-46568331D01*
X137013340Y-46575205D01*
X137010238Y-46593354D01*
X137009025Y-46615065D01*
X137009025Y-46649179D01*
X137101235Y-46651805D01*
X137144004Y-46653565D01*
X137178830Y-46656623D01*
X137205680Y-46661508D01*
X137226863Y-46668814D01*
X137244688Y-46679137D01*
X137261462Y-46693071D01*
X137272949Y-46705966D01*
X137290503Y-46737197D01*
X137301417Y-46773625D01*
X137303499Y-46797599D01*
X137304678Y-46811167D01*
X137299277Y-46845740D01*
G37*
G36*
X136455114Y-46787442D02*
G01*
X136454103Y-46809143D01*
X136452385Y-46825095D01*
X136449777Y-46837291D01*
X136446093Y-46847724D01*
X136441149Y-46858388D01*
X136437195Y-46865791D01*
X136413698Y-46897005D01*
X136383343Y-46923135D01*
X136350205Y-46940505D01*
X136344798Y-46942243D01*
X136319846Y-46947683D01*
X136295022Y-46950122D01*
X136283513Y-46949651D01*
X136255922Y-46944859D01*
X136227695Y-46936148D01*
X136203205Y-46925019D01*
X136186829Y-46912975D01*
X136182352Y-46908290D01*
X136172225Y-46901470D01*
X136166726Y-46906086D01*
X136165068Y-46922483D01*
X136165068Y-46944364D01*
X136065043Y-46944364D01*
X136065043Y-46697428D01*
X136168195Y-46697428D01*
X136168196Y-46699233D01*
X136169024Y-46741573D01*
X136171879Y-46773550D01*
X136177463Y-46797164D01*
X136186481Y-46814413D01*
X136199637Y-46827296D01*
X136217635Y-46837811D01*
X136237996Y-46845832D01*
X136268773Y-46849449D01*
X136301549Y-46842097D01*
X136307719Y-46839566D01*
X136328569Y-46824740D01*
X136343700Y-46801685D01*
X136353397Y-46769552D01*
X136357944Y-46727486D01*
X136357628Y-46674638D01*
X136355138Y-46639000D01*
X136350555Y-46608902D01*
X136343972Y-46589312D01*
X136333224Y-46573578D01*
X136310335Y-46555411D01*
X136282788Y-46545724D01*
X136253338Y-46544486D01*
X136224741Y-46551665D01*
X136199751Y-46567231D01*
X136181125Y-46591152D01*
X136180206Y-46592958D01*
X136174997Y-46605206D01*
X136171524Y-46619052D01*
X136169453Y-46637222D01*
X136168454Y-46662439D01*
X136168195Y-46697428D01*
X136065043Y-46697428D01*
X136065043Y-46243665D01*
X136113492Y-46245491D01*
X136161942Y-46247317D01*
X136163637Y-46370785D01*
X136163732Y-46377201D01*
X136164580Y-46414317D01*
X136165807Y-46446464D01*
X136167305Y-46471758D01*
X136168967Y-46488315D01*
X136170686Y-46494253D01*
X136175460Y-46492273D01*
X136184620Y-46483881D01*
X136187474Y-46480796D01*
X136206595Y-46467342D01*
X136232867Y-46455674D01*
X136261917Y-46447443D01*
X136289373Y-46444302D01*
X136298717Y-46444433D01*
X136337895Y-46449481D01*
X136371270Y-46462925D01*
X136402812Y-46486230D01*
X136418726Y-46501443D01*
X136431296Y-46516465D01*
X136440678Y-46532877D01*
X136447329Y-46552528D01*
X136451705Y-46577270D01*
X136454265Y-46608955D01*
X136455466Y-46649432D01*
X136455764Y-46700554D01*
X136455756Y-46718820D01*
X136455722Y-46727486D01*
X136455604Y-46757999D01*
X136455114Y-46787442D01*
G37*
G36*
X134587677Y-46445800D02*
G01*
X134629860Y-46456756D01*
X134667837Y-46478210D01*
X134689705Y-46494889D01*
X134689705Y-46450492D01*
X134789729Y-46450492D01*
X134789729Y-46944364D01*
X134689705Y-46944364D01*
X134689695Y-46780261D01*
X134689662Y-46747446D01*
X134689441Y-46703757D01*
X134688930Y-46670000D01*
X134688036Y-46644591D01*
X134686665Y-46625944D01*
X134684723Y-46612474D01*
X134682118Y-46602595D01*
X134678755Y-46594722D01*
X134668847Y-46579290D01*
X134645113Y-46558292D01*
X134616121Y-46546753D01*
X134584599Y-46545525D01*
X134553272Y-46555462D01*
X134528794Y-46568221D01*
X134492699Y-46524346D01*
X134491920Y-46523397D01*
X134474951Y-46501992D01*
X134465510Y-46487879D01*
X134462623Y-46479283D01*
X134465315Y-46474426D01*
X134501343Y-46455579D01*
X134543950Y-46445391D01*
X134587677Y-46445800D01*
G37*
G36*
X137307203Y-45929975D02*
G01*
X137301932Y-45981625D01*
X137289793Y-46030000D01*
X137270756Y-46072730D01*
X137244791Y-46107443D01*
X137221627Y-46126949D01*
X137182548Y-46148874D01*
X137139484Y-46162715D01*
X137111693Y-46165811D01*
X137073059Y-46164766D01*
X137033420Y-46159114D01*
X136998299Y-46149376D01*
X136984327Y-46143062D01*
X136959128Y-46128007D01*
X136937143Y-46110966D01*
X136908651Y-46084777D01*
X136944512Y-46055185D01*
X136952670Y-46048494D01*
X136968416Y-46036362D01*
X136978562Y-46030842D01*
X136985879Y-46030788D01*
X136993136Y-46035052D01*
X136996204Y-46037275D01*
X137033821Y-46057592D01*
X137073693Y-46067834D01*
X137113191Y-46067639D01*
X137149686Y-46056645D01*
X137174884Y-46038031D01*
X137194138Y-46009670D01*
X137205468Y-45973812D01*
X137209641Y-45950369D01*
X136896498Y-45950369D01*
X136896545Y-45911297D01*
X136897040Y-45886930D01*
X136898854Y-45869099D01*
X137002774Y-45869099D01*
X137208762Y-45869099D01*
X137205094Y-45848781D01*
X137198204Y-45823361D01*
X137181984Y-45792597D01*
X137159701Y-45770720D01*
X137143629Y-45762794D01*
X137113501Y-45756741D01*
X137081586Y-45758494D01*
X137052844Y-45768170D01*
X137037805Y-45779653D01*
X137020333Y-45801635D01*
X137007661Y-45827179D01*
X137002774Y-45851328D01*
X137002774Y-45869099D01*
X136898854Y-45869099D01*
X136902486Y-45833407D01*
X136914400Y-45788594D01*
X136933352Y-45750759D01*
X136959910Y-45718165D01*
X136987283Y-45695489D01*
X137028213Y-45674044D01*
X137072552Y-45662312D01*
X137118093Y-45660332D01*
X137162628Y-45668143D01*
X137203948Y-45685782D01*
X137239848Y-45713288D01*
X137260202Y-45738073D01*
X137282106Y-45779101D01*
X137297260Y-45826342D01*
X137304271Y-45869099D01*
X137305636Y-45877424D01*
X137307203Y-45929975D01*
G37*
G36*
X135289104Y-46857519D02*
G01*
X135268170Y-46891522D01*
X135237454Y-46919309D01*
X135197723Y-46939415D01*
X135197225Y-46939592D01*
X135166950Y-46946670D01*
X135130665Y-46949914D01*
X135094211Y-46949122D01*
X135063428Y-46944088D01*
X135061948Y-46943657D01*
X135040574Y-46934380D01*
X135021230Y-46921687D01*
X135002282Y-46905743D01*
X135002282Y-46944364D01*
X134902257Y-46944364D01*
X134902290Y-46768914D01*
X135002282Y-46768914D01*
X135002292Y-46771370D01*
X135005254Y-46803220D01*
X135013993Y-46825765D01*
X135029273Y-46841041D01*
X135030103Y-46841552D01*
X135045408Y-46847004D01*
X135068263Y-46851400D01*
X135094125Y-46854227D01*
X135118449Y-46854973D01*
X135136690Y-46853129D01*
X135145981Y-46850948D01*
X135163418Y-46847062D01*
X135182570Y-46838436D01*
X135197057Y-46820406D01*
X135202132Y-46795890D01*
X135202006Y-46790813D01*
X135199113Y-46771719D01*
X135191296Y-46757699D01*
X135177058Y-46748037D01*
X135154900Y-46742020D01*
X135123326Y-46738933D01*
X135080837Y-46738063D01*
X135002282Y-46738063D01*
X135002282Y-46768914D01*
X134902290Y-46768914D01*
X134902292Y-46758380D01*
X134902382Y-46723627D01*
X134902913Y-46669609D01*
X134903890Y-46623939D01*
X134905281Y-46587654D01*
X134907052Y-46561792D01*
X134909168Y-46547391D01*
X134910314Y-46543610D01*
X134925105Y-46515853D01*
X134949012Y-46490037D01*
X134979090Y-46468802D01*
X135012397Y-46454788D01*
X135032901Y-46450206D01*
X135072569Y-46445574D01*
X135115106Y-46444642D01*
X135155581Y-46447434D01*
X135189066Y-46453971D01*
X135193677Y-46455500D01*
X135213408Y-46464593D01*
X135234069Y-46477137D01*
X135252605Y-46490921D01*
X135265966Y-46503735D01*
X135271098Y-46513369D01*
X135270993Y-46513840D01*
X135265122Y-46520775D01*
X135252043Y-46532545D01*
X135234241Y-46546889D01*
X135228737Y-46551106D01*
X135211575Y-46563615D01*
X135200906Y-46569431D01*
X135194197Y-46569568D01*
X135188917Y-46565041D01*
X135178209Y-46555698D01*
X135153983Y-46544890D01*
X135123858Y-46538970D01*
X135091278Y-46537950D01*
X135059683Y-46541843D01*
X135032517Y-46550661D01*
X135013222Y-46564416D01*
X135009920Y-46568986D01*
X135004094Y-46586354D01*
X135002282Y-46613151D01*
X135002282Y-46649395D01*
X135094492Y-46651639D01*
X135104728Y-46651901D01*
X135140375Y-46653178D01*
X135166670Y-46654992D01*
X135186151Y-46657665D01*
X135201359Y-46661518D01*
X135214834Y-46666873D01*
X135249530Y-46688461D01*
X135276796Y-46718661D01*
X135293840Y-46755731D01*
X135298558Y-46776733D01*
X135298982Y-46795890D01*
X135299489Y-46818767D01*
X135289104Y-46857519D01*
G37*
%TO.C,D7*%
X141970000Y-79670000D02*
X139970000Y-79670000D01*
X141970000Y-79670000D02*
X141970000Y-75820000D01*
X139970000Y-79670000D02*
X139970000Y-75820000D01*
%TO.C,D9*%
X143240000Y-117770000D02*
X141240000Y-117770000D01*
X141240000Y-117770000D02*
X141240000Y-113920000D01*
X143240000Y-117770000D02*
X143240000Y-113920000D01*
%TO.C,D17*%
X181340000Y-97320000D02*
X181340000Y-93470000D01*
X179340000Y-97320000D02*
X179340000Y-93470000D01*
X181340000Y-97320000D02*
X179340000Y-97320000D01*
D10*
%TO.C,U1*%
X128270000Y-67310000D02*
X146050000Y-67310000D01*
X133350000Y-34290000D02*
X133350000Y-36830000D01*
X133350000Y-36830000D02*
X128270000Y-36830000D01*
X146050000Y-36830000D02*
X140970000Y-36830000D01*
X140970000Y-34290000D02*
X133350000Y-34290000D01*
X140970000Y-36830000D02*
X140970000Y-34290000D01*
X128270000Y-36830000D02*
X128270000Y-67310000D01*
X146050000Y-36830000D02*
X146050000Y-67310000D01*
%TD*%
D12*
%TO.C,U1*%
X144780000Y-38100000D03*
D13*
X144780000Y-40640000D03*
X144780000Y-43180000D03*
X144780000Y-45720000D03*
X144780000Y-48260000D03*
X144780000Y-50800000D03*
X144780000Y-53340000D03*
X144780000Y-55880000D03*
X144780000Y-58420000D03*
X144780000Y-60960000D03*
X144780000Y-63500000D03*
X144780000Y-66040000D03*
X129540000Y-66040000D03*
X129540000Y-63500000D03*
X129540000Y-60960000D03*
X129540000Y-58420000D03*
X129540000Y-55880000D03*
X129540000Y-53340000D03*
X129540000Y-50800000D03*
X129540000Y-48260000D03*
X129540000Y-45720000D03*
X129540000Y-43180000D03*
X129540000Y-40640000D03*
X129540000Y-38100000D03*
%TD*%
%LPC*%
D14*
%TO.C,J1*%
X117220000Y-53160000D03*
X120200000Y-54940000D03*
X136320000Y-53160000D03*
X139210000Y-54940000D03*
X155120000Y-53160000D03*
X158110000Y-54940000D03*
X174160000Y-53160000D03*
X177010000Y-54940000D03*
X117220000Y-72260000D03*
X120200000Y-73530000D03*
X136320000Y-72260000D03*
X139210000Y-73530000D03*
X155120000Y-72260000D03*
X158110000Y-73530000D03*
X174160000Y-72260000D03*
X177010000Y-73530000D03*
X117220000Y-91350000D03*
X120200000Y-93060000D03*
X136320000Y-91350000D03*
X139210000Y-93060000D03*
X155120000Y-91350000D03*
X158110000Y-93060000D03*
X174160000Y-91350000D03*
X177010000Y-93060000D03*
X117220000Y-110680000D03*
X120200000Y-112090000D03*
X136320000Y-110680000D03*
X139210000Y-112090000D03*
X155120000Y-110680000D03*
X158110000Y-112090000D03*
X174160000Y-119870000D03*
X177010000Y-121660000D03*
X126580000Y-129540000D03*
X129590000Y-131180000D03*
X155120000Y-129540000D03*
X158110000Y-131180000D03*
%TD*%
D15*
%TO.C,REF\u002A\u002A*%
X113030000Y-40640000D03*
%TD*%
%TO.C,REF\u002A\u002A*%
X181610000Y-40640000D03*
%TD*%
D16*
%TO.C,D3*%
X123190000Y-96650000D03*
X123190000Y-93850000D03*
%TD*%
%TO.C,D11*%
X161290000Y-77600000D03*
X161290000Y-74800000D03*
%TD*%
%TO.C,D16*%
X180340000Y-77600000D03*
X180340000Y-74800000D03*
%TD*%
%TO.C,D1*%
X121920000Y-59820000D03*
X121920000Y-57020000D03*
%TD*%
%TO.C,D18*%
X180340000Y-125860000D03*
X180340000Y-123060000D03*
%TD*%
%TO.C,D13*%
X160020000Y-116970000D03*
X160020000Y-114170000D03*
%TD*%
%TO.C,D4*%
X123190000Y-116970000D03*
X123190000Y-114170000D03*
%TD*%
%TO.C,D14*%
X161290000Y-134750000D03*
X161290000Y-131950000D03*
%TD*%
%TO.C,D10*%
X160020000Y-59820000D03*
X160020000Y-57020000D03*
%TD*%
%TO.C,D5*%
X133350000Y-134750000D03*
X133350000Y-131950000D03*
%TD*%
D17*
%TO.C,B1*%
X129540000Y-81280000D03*
D18*
X127000000Y-81280000D03*
%TD*%
D16*
%TO.C,D6*%
X139700000Y-61090000D03*
X139700000Y-58290000D03*
%TD*%
%TO.C,D15*%
X179070000Y-59820000D03*
X179070000Y-57020000D03*
%TD*%
%TO.C,D12*%
X161290000Y-96650000D03*
X161290000Y-93850000D03*
%TD*%
%TO.C,D2*%
X123190000Y-77600000D03*
X123190000Y-74800000D03*
%TD*%
%TO.C,D8*%
X142240000Y-96650000D03*
X142240000Y-93850000D03*
%TD*%
%TO.C,D7*%
X140970000Y-78870000D03*
X140970000Y-76070000D03*
%TD*%
%TO.C,D9*%
X142240000Y-116970000D03*
X142240000Y-114170000D03*
%TD*%
%TO.C,D17*%
X180340000Y-96520000D03*
X180340000Y-93720000D03*
%TD*%
D12*
%TO.C,U1*%
X144780000Y-38100000D03*
D13*
X144780000Y-40640000D03*
X144780000Y-43180000D03*
X144780000Y-45720000D03*
X144780000Y-48260000D03*
X144780000Y-50800000D03*
X144780000Y-53340000D03*
X144780000Y-55880000D03*
X144780000Y-58420000D03*
X144780000Y-60960000D03*
X144780000Y-63500000D03*
X144780000Y-66040000D03*
X129540000Y-66040000D03*
X129540000Y-63500000D03*
X129540000Y-60960000D03*
X129540000Y-58420000D03*
X129540000Y-55880000D03*
X129540000Y-53340000D03*
X129540000Y-50800000D03*
X129540000Y-48260000D03*
X129540000Y-45720000D03*
X129540000Y-43180000D03*
X129540000Y-40640000D03*
X129540000Y-38100000D03*
%TD*%
M02*
