%FSLAX45Y45*%
G04 Gerber Fmt 4.5, Leading zero omitted, Abs format (unit mm)*
G04 Created by KiCad (PCBNEW (6.0.0)) date 2022-03-13 19:29:44*
%MOMM*%
%LPD*%
G01*
G04 APERTURE LIST*
%TA.AperFunction,Profile*%
%ADD10C,0.100000*%
%TD*%
%ADD11C,0.200000*%
%ADD12C,0.040000*%
%ADD13C,0.100000*%
%ADD14C,0.110000*%
G04 APERTURE END LIST*
D10*
X10922000Y-4064000D02*
X10922000Y-13981000D01*
X18542000Y-4064000D02*
G75*
G03*
X18161000Y-3683000I-381000J0D01*
G01*
X11303000Y-3683000D02*
G75*
G03*
X10922000Y-4064000I0J-381000D01*
G01*
X18542000Y-4064000D02*
X18542000Y-13981000D01*
X10922000Y-13981000D02*
X18542000Y-13981000D01*
X11303000Y-3683000D02*
X18161000Y-3683000D01*
D11*
D12*
X14839000Y-13442000D02*
X14879000Y-13482000D01*
X14879000Y-13442000D02*
X14839000Y-13482000D01*
X14966000Y-11664000D02*
X15006000Y-11704000D01*
X15006000Y-11664000D02*
X14966000Y-11704000D01*
X15093000Y-9632000D02*
X15133000Y-9672000D01*
X15133000Y-9632000D02*
X15093000Y-9672000D01*
X15220000Y-7854000D02*
X15260000Y-7894000D01*
X15260000Y-7854000D02*
X15220000Y-7894000D01*
D13*
X11772000Y-5316000D02*
G75*
G03*
X11772000Y-5316000I-50000J0D01*
G01*
X11772000Y-7226000D02*
G75*
G03*
X11772000Y-7226000I-50000J0D01*
G01*
X11772000Y-9135000D02*
G75*
G03*
X11772000Y-9135000I-50000J0D01*
G01*
X11772000Y-11068000D02*
G75*
G03*
X11772000Y-11068000I-50000J0D01*
G01*
X12070000Y-5494000D02*
G75*
G03*
X12070000Y-5494000I-50000J0D01*
G01*
X12070000Y-7353000D02*
G75*
G03*
X12070000Y-7353000I-50000J0D01*
G01*
X12070000Y-9306000D02*
G75*
G03*
X12070000Y-9306000I-50000J0D01*
G01*
X12070000Y-11209000D02*
G75*
G03*
X12070000Y-11209000I-50000J0D01*
G01*
X12708000Y-12954000D02*
G75*
G03*
X12708000Y-12954000I-50000J0D01*
G01*
X12750000Y-8128000D02*
G75*
G03*
X12750000Y-8128000I-50000J0D01*
G01*
X13004000Y-8128000D02*
G75*
G03*
X13004000Y-8128000I-50000J0D01*
G01*
X13009000Y-13118000D02*
G75*
G03*
X13009000Y-13118000I-50000J0D01*
G01*
X13682000Y-5316000D02*
G75*
G03*
X13682000Y-5316000I-50000J0D01*
G01*
X13682000Y-7226000D02*
G75*
G03*
X13682000Y-7226000I-50000J0D01*
G01*
X13682000Y-9135000D02*
G75*
G03*
X13682000Y-9135000I-50000J0D01*
G01*
X13682000Y-11068000D02*
G75*
G03*
X13682000Y-11068000I-50000J0D01*
G01*
X13971000Y-5494000D02*
G75*
G03*
X13971000Y-5494000I-50000J0D01*
G01*
X13971000Y-7353000D02*
G75*
G03*
X13971000Y-7353000I-50000J0D01*
G01*
X13971000Y-9306000D02*
G75*
G03*
X13971000Y-9306000I-50000J0D01*
G01*
X13971000Y-11209000D02*
G75*
G03*
X13971000Y-11209000I-50000J0D01*
G01*
X15562000Y-5316000D02*
G75*
G03*
X15562000Y-5316000I-50000J0D01*
G01*
X15562000Y-7226000D02*
G75*
G03*
X15562000Y-7226000I-50000J0D01*
G01*
X15562000Y-9135000D02*
G75*
G03*
X15562000Y-9135000I-50000J0D01*
G01*
X15562000Y-11068000D02*
G75*
G03*
X15562000Y-11068000I-50000J0D01*
G01*
X15562000Y-12954000D02*
G75*
G03*
X15562000Y-12954000I-50000J0D01*
G01*
X15861000Y-5494000D02*
G75*
G03*
X15861000Y-5494000I-50000J0D01*
G01*
X15861000Y-7353000D02*
G75*
G03*
X15861000Y-7353000I-50000J0D01*
G01*
X15861000Y-9306000D02*
G75*
G03*
X15861000Y-9306000I-50000J0D01*
G01*
X15861000Y-11209000D02*
G75*
G03*
X15861000Y-11209000I-50000J0D01*
G01*
X15861000Y-13118000D02*
G75*
G03*
X15861000Y-13118000I-50000J0D01*
G01*
X17466000Y-5316000D02*
G75*
G03*
X17466000Y-5316000I-50000J0D01*
G01*
X17466000Y-7226000D02*
G75*
G03*
X17466000Y-7226000I-50000J0D01*
G01*
X17466000Y-9135000D02*
G75*
G03*
X17466000Y-9135000I-50000J0D01*
G01*
X17466000Y-11987000D02*
G75*
G03*
X17466000Y-11987000I-50000J0D01*
G01*
X17751000Y-5494000D02*
G75*
G03*
X17751000Y-5494000I-50000J0D01*
G01*
X17751000Y-7353000D02*
G75*
G03*
X17751000Y-7353000I-50000J0D01*
G01*
X17751000Y-9306000D02*
G75*
G03*
X17751000Y-9306000I-50000J0D01*
G01*
X17751000Y-12166000D02*
G75*
G03*
X17751000Y-12166000I-50000J0D01*
G01*
D14*
X12954000Y-3755000D02*
X12954000Y-3865000D01*
X12899000Y-3810000D02*
X13009000Y-3810000D01*
X12954000Y-4009000D02*
X12954000Y-4119000D01*
X12899000Y-4064000D02*
X13009000Y-4064000D01*
X12954000Y-4263000D02*
X12954000Y-4373000D01*
X12899000Y-4318000D02*
X13009000Y-4318000D01*
X12954000Y-4517000D02*
X12954000Y-4627000D01*
X12899000Y-4572000D02*
X13009000Y-4572000D01*
X12954000Y-4771000D02*
X12954000Y-4881000D01*
X12899000Y-4826000D02*
X13009000Y-4826000D01*
X12954000Y-5025000D02*
X12954000Y-5135000D01*
X12899000Y-5080000D02*
X13009000Y-5080000D01*
X12954000Y-5279000D02*
X12954000Y-5389000D01*
X12899000Y-5334000D02*
X13009000Y-5334000D01*
X12954000Y-5533000D02*
X12954000Y-5643000D01*
X12899000Y-5588000D02*
X13009000Y-5588000D01*
X12954000Y-5787000D02*
X12954000Y-5897000D01*
X12899000Y-5842000D02*
X13009000Y-5842000D01*
X12954000Y-6041000D02*
X12954000Y-6151000D01*
X12899000Y-6096000D02*
X13009000Y-6096000D01*
X12954000Y-6295000D02*
X12954000Y-6405000D01*
X12899000Y-6350000D02*
X13009000Y-6350000D01*
X12954000Y-6549000D02*
X12954000Y-6659000D01*
X12899000Y-6604000D02*
X13009000Y-6604000D01*
X14478000Y-3755000D02*
X14478000Y-3865000D01*
X14423000Y-3810000D02*
X14533000Y-3810000D01*
X14478000Y-4009000D02*
X14478000Y-4119000D01*
X14423000Y-4064000D02*
X14533000Y-4064000D01*
X14478000Y-4263000D02*
X14478000Y-4373000D01*
X14423000Y-4318000D02*
X14533000Y-4318000D01*
X14478000Y-4517000D02*
X14478000Y-4627000D01*
X14423000Y-4572000D02*
X14533000Y-4572000D01*
X14478000Y-4771000D02*
X14478000Y-4881000D01*
X14423000Y-4826000D02*
X14533000Y-4826000D01*
X14478000Y-5025000D02*
X14478000Y-5135000D01*
X14423000Y-5080000D02*
X14533000Y-5080000D01*
X14478000Y-5279000D02*
X14478000Y-5389000D01*
X14423000Y-5334000D02*
X14533000Y-5334000D01*
X14478000Y-5533000D02*
X14478000Y-5643000D01*
X14423000Y-5588000D02*
X14533000Y-5588000D01*
X14478000Y-5787000D02*
X14478000Y-5897000D01*
X14423000Y-5842000D02*
X14533000Y-5842000D01*
X14478000Y-6041000D02*
X14478000Y-6151000D01*
X14423000Y-6096000D02*
X14533000Y-6096000D01*
X14478000Y-6295000D02*
X14478000Y-6405000D01*
X14423000Y-6350000D02*
X14533000Y-6350000D01*
X14478000Y-6549000D02*
X14478000Y-6659000D01*
X14423000Y-6604000D02*
X14533000Y-6604000D01*
D11*
X11174619Y-14296476D02*
X11174619Y-14096476D01*
X11222238Y-14096476D01*
X11250809Y-14106000D01*
X11269857Y-14125048D01*
X11279381Y-14144095D01*
X11288905Y-14182190D01*
X11288905Y-14210762D01*
X11279381Y-14248857D01*
X11269857Y-14267905D01*
X11250809Y-14286952D01*
X11222238Y-14296476D01*
X11174619Y-14296476D01*
X11374619Y-14296476D02*
X11374619Y-14163143D01*
X11374619Y-14201238D02*
X11384143Y-14182190D01*
X11393667Y-14172667D01*
X11412714Y-14163143D01*
X11431762Y-14163143D01*
X11498428Y-14296476D02*
X11498428Y-14163143D01*
X11498428Y-14096476D02*
X11488905Y-14106000D01*
X11498428Y-14115524D01*
X11507952Y-14106000D01*
X11498428Y-14096476D01*
X11498428Y-14115524D01*
X11622238Y-14296476D02*
X11603190Y-14286952D01*
X11593667Y-14267905D01*
X11593667Y-14096476D01*
X11727000Y-14296476D02*
X11707952Y-14286952D01*
X11698428Y-14267905D01*
X11698428Y-14096476D01*
X11955571Y-14296476D02*
X11955571Y-14096476D01*
X12022238Y-14239333D01*
X12088905Y-14096476D01*
X12088905Y-14296476D01*
X12269857Y-14296476D02*
X12269857Y-14191714D01*
X12260333Y-14172667D01*
X12241286Y-14163143D01*
X12203190Y-14163143D01*
X12184143Y-14172667D01*
X12269857Y-14286952D02*
X12250809Y-14296476D01*
X12203190Y-14296476D01*
X12184143Y-14286952D01*
X12174619Y-14267905D01*
X12174619Y-14248857D01*
X12184143Y-14229809D01*
X12203190Y-14220286D01*
X12250809Y-14220286D01*
X12269857Y-14210762D01*
X12365095Y-14163143D02*
X12365095Y-14363143D01*
X12365095Y-14172667D02*
X12384143Y-14163143D01*
X12422238Y-14163143D01*
X12441286Y-14172667D01*
X12450809Y-14182190D01*
X12460333Y-14201238D01*
X12460333Y-14258381D01*
X12450809Y-14277428D01*
X12441286Y-14286952D01*
X12422238Y-14296476D01*
X12384143Y-14296476D01*
X12365095Y-14286952D01*
X12546048Y-14277428D02*
X12555571Y-14286952D01*
X12546048Y-14296476D01*
X12536524Y-14286952D01*
X12546048Y-14277428D01*
X12546048Y-14296476D01*
X12546048Y-14172667D02*
X12555571Y-14182190D01*
X12546048Y-14191714D01*
X12536524Y-14182190D01*
X12546048Y-14172667D01*
X12546048Y-14191714D01*
D12*
X10877000Y-14606000D02*
X10917000Y-14646000D01*
X10917000Y-14606000D02*
X10877000Y-14646000D01*
D11*
X11212714Y-14516476D02*
X11231762Y-14516476D01*
X11250809Y-14526000D01*
X11260333Y-14535524D01*
X11269857Y-14554571D01*
X11279381Y-14592667D01*
X11279381Y-14640286D01*
X11269857Y-14678381D01*
X11260333Y-14697428D01*
X11250809Y-14706952D01*
X11231762Y-14716476D01*
X11212714Y-14716476D01*
X11193667Y-14706952D01*
X11184143Y-14697428D01*
X11174619Y-14678381D01*
X11165095Y-14640286D01*
X11165095Y-14592667D01*
X11174619Y-14554571D01*
X11184143Y-14535524D01*
X11193667Y-14526000D01*
X11212714Y-14516476D01*
X11365095Y-14697428D02*
X11374619Y-14706952D01*
X11365095Y-14716476D01*
X11355571Y-14706952D01*
X11365095Y-14697428D01*
X11365095Y-14716476D01*
X11546048Y-14583143D02*
X11546048Y-14716476D01*
X11498428Y-14506952D02*
X11450809Y-14649809D01*
X11574619Y-14649809D01*
X11688905Y-14516476D02*
X11707952Y-14516476D01*
X11727000Y-14526000D01*
X11736524Y-14535524D01*
X11746048Y-14554571D01*
X11755571Y-14592667D01*
X11755571Y-14640286D01*
X11746048Y-14678381D01*
X11736524Y-14697428D01*
X11727000Y-14706952D01*
X11707952Y-14716476D01*
X11688905Y-14716476D01*
X11669857Y-14706952D01*
X11660333Y-14697428D01*
X11650809Y-14678381D01*
X11641286Y-14640286D01*
X11641286Y-14592667D01*
X11650809Y-14554571D01*
X11660333Y-14535524D01*
X11669857Y-14526000D01*
X11688905Y-14516476D01*
X11879381Y-14516476D02*
X11898428Y-14516476D01*
X11917476Y-14526000D01*
X11927000Y-14535524D01*
X11936524Y-14554571D01*
X11946048Y-14592667D01*
X11946048Y-14640286D01*
X11936524Y-14678381D01*
X11927000Y-14697428D01*
X11917476Y-14706952D01*
X11898428Y-14716476D01*
X11879381Y-14716476D01*
X11860333Y-14706952D01*
X11850809Y-14697428D01*
X11841286Y-14678381D01*
X11831762Y-14640286D01*
X11831762Y-14592667D01*
X11841286Y-14554571D01*
X11850809Y-14535524D01*
X11860333Y-14526000D01*
X11879381Y-14516476D01*
X12031762Y-14716476D02*
X12031762Y-14583143D01*
X12031762Y-14602190D02*
X12041286Y-14592667D01*
X12060333Y-14583143D01*
X12088905Y-14583143D01*
X12107952Y-14592667D01*
X12117476Y-14611714D01*
X12117476Y-14716476D01*
X12117476Y-14611714D02*
X12127000Y-14592667D01*
X12146048Y-14583143D01*
X12174619Y-14583143D01*
X12193667Y-14592667D01*
X12203190Y-14611714D01*
X12203190Y-14716476D01*
X12298428Y-14716476D02*
X12298428Y-14583143D01*
X12298428Y-14602190D02*
X12307952Y-14592667D01*
X12327000Y-14583143D01*
X12355571Y-14583143D01*
X12374619Y-14592667D01*
X12384143Y-14611714D01*
X12384143Y-14716476D01*
X12384143Y-14611714D02*
X12393667Y-14592667D01*
X12412714Y-14583143D01*
X12441286Y-14583143D01*
X12460333Y-14592667D01*
X12469857Y-14611714D01*
X12469857Y-14716476D01*
X12860333Y-14506952D02*
X12688905Y-14764095D01*
X13117476Y-14516476D02*
X13136524Y-14516476D01*
X13155571Y-14526000D01*
X13165095Y-14535524D01*
X13174619Y-14554571D01*
X13184143Y-14592667D01*
X13184143Y-14640286D01*
X13174619Y-14678381D01*
X13165095Y-14697428D01*
X13155571Y-14706952D01*
X13136524Y-14716476D01*
X13117476Y-14716476D01*
X13098428Y-14706952D01*
X13088905Y-14697428D01*
X13079381Y-14678381D01*
X13069857Y-14640286D01*
X13069857Y-14592667D01*
X13079381Y-14554571D01*
X13088905Y-14535524D01*
X13098428Y-14526000D01*
X13117476Y-14516476D01*
X13269857Y-14697428D02*
X13279381Y-14706952D01*
X13269857Y-14716476D01*
X13260333Y-14706952D01*
X13269857Y-14697428D01*
X13269857Y-14716476D01*
X13403190Y-14516476D02*
X13422238Y-14516476D01*
X13441286Y-14526000D01*
X13450809Y-14535524D01*
X13460333Y-14554571D01*
X13469857Y-14592667D01*
X13469857Y-14640286D01*
X13460333Y-14678381D01*
X13450809Y-14697428D01*
X13441286Y-14706952D01*
X13422238Y-14716476D01*
X13403190Y-14716476D01*
X13384143Y-14706952D01*
X13374619Y-14697428D01*
X13365095Y-14678381D01*
X13355571Y-14640286D01*
X13355571Y-14592667D01*
X13365095Y-14554571D01*
X13374619Y-14535524D01*
X13384143Y-14526000D01*
X13403190Y-14516476D01*
X13660333Y-14716476D02*
X13546048Y-14716476D01*
X13603190Y-14716476D02*
X13603190Y-14516476D01*
X13584143Y-14545048D01*
X13565095Y-14564095D01*
X13546048Y-14573619D01*
X13841286Y-14516476D02*
X13746048Y-14516476D01*
X13736524Y-14611714D01*
X13746048Y-14602190D01*
X13765095Y-14592667D01*
X13812714Y-14592667D01*
X13831762Y-14602190D01*
X13841286Y-14611714D01*
X13850809Y-14630762D01*
X13850809Y-14678381D01*
X13841286Y-14697428D01*
X13831762Y-14706952D01*
X13812714Y-14716476D01*
X13765095Y-14716476D01*
X13746048Y-14706952D01*
X13736524Y-14697428D01*
X13917476Y-14516476D02*
X14050809Y-14516476D01*
X13965095Y-14716476D01*
X14117476Y-14516476D02*
X14117476Y-14554571D01*
X14193667Y-14516476D02*
X14193667Y-14554571D01*
X14488905Y-14792667D02*
X14479381Y-14783143D01*
X14460333Y-14754571D01*
X14450809Y-14735524D01*
X14441286Y-14706952D01*
X14431762Y-14659333D01*
X14431762Y-14621238D01*
X14441286Y-14573619D01*
X14450809Y-14545048D01*
X14460333Y-14526000D01*
X14479381Y-14497428D01*
X14488905Y-14487905D01*
X14650809Y-14583143D02*
X14650809Y-14716476D01*
X14603190Y-14506952D02*
X14555571Y-14649809D01*
X14679381Y-14649809D01*
X14907952Y-14716476D02*
X14907952Y-14516476D01*
X14993667Y-14716476D02*
X14993667Y-14611714D01*
X14984143Y-14592667D01*
X14965095Y-14583143D01*
X14936524Y-14583143D01*
X14917476Y-14592667D01*
X14907952Y-14602190D01*
X15117476Y-14716476D02*
X15098428Y-14706952D01*
X15088905Y-14697428D01*
X15079381Y-14678381D01*
X15079381Y-14621238D01*
X15088905Y-14602190D01*
X15098428Y-14592667D01*
X15117476Y-14583143D01*
X15146048Y-14583143D01*
X15165095Y-14592667D01*
X15174619Y-14602190D01*
X15184143Y-14621238D01*
X15184143Y-14678381D01*
X15174619Y-14697428D01*
X15165095Y-14706952D01*
X15146048Y-14716476D01*
X15117476Y-14716476D01*
X15298428Y-14716476D02*
X15279381Y-14706952D01*
X15269857Y-14687905D01*
X15269857Y-14516476D01*
X15450809Y-14706952D02*
X15431762Y-14716476D01*
X15393667Y-14716476D01*
X15374619Y-14706952D01*
X15365095Y-14687905D01*
X15365095Y-14611714D01*
X15374619Y-14592667D01*
X15393667Y-14583143D01*
X15431762Y-14583143D01*
X15450809Y-14592667D01*
X15460333Y-14611714D01*
X15460333Y-14630762D01*
X15365095Y-14649809D01*
X15536524Y-14706952D02*
X15555571Y-14716476D01*
X15593667Y-14716476D01*
X15612714Y-14706952D01*
X15622238Y-14687905D01*
X15622238Y-14678381D01*
X15612714Y-14659333D01*
X15593667Y-14649809D01*
X15565095Y-14649809D01*
X15546048Y-14640286D01*
X15536524Y-14621238D01*
X15536524Y-14611714D01*
X15546048Y-14592667D01*
X15565095Y-14583143D01*
X15593667Y-14583143D01*
X15612714Y-14592667D01*
X15688905Y-14792667D02*
X15698428Y-14783143D01*
X15717476Y-14754571D01*
X15727000Y-14735524D01*
X15736524Y-14706952D01*
X15746048Y-14659333D01*
X15746048Y-14621238D01*
X15736524Y-14573619D01*
X15727000Y-14545048D01*
X15717476Y-14526000D01*
X15698428Y-14497428D01*
X15688905Y-14487905D01*
D13*
X10917000Y-14890000D02*
G75*
G03*
X10917000Y-14890000I-50000J0D01*
G01*
D11*
X11279381Y-14980476D02*
X11165095Y-14980476D01*
X11222238Y-14980476D02*
X11222238Y-14780476D01*
X11203190Y-14809048D01*
X11184143Y-14828095D01*
X11165095Y-14837619D01*
X11365095Y-14961428D02*
X11374619Y-14970952D01*
X11365095Y-14980476D01*
X11355571Y-14970952D01*
X11365095Y-14961428D01*
X11365095Y-14980476D01*
X11498428Y-14780476D02*
X11517476Y-14780476D01*
X11536524Y-14790000D01*
X11546048Y-14799524D01*
X11555571Y-14818571D01*
X11565095Y-14856667D01*
X11565095Y-14904286D01*
X11555571Y-14942381D01*
X11546048Y-14961428D01*
X11536524Y-14970952D01*
X11517476Y-14980476D01*
X11498428Y-14980476D01*
X11479381Y-14970952D01*
X11469857Y-14961428D01*
X11460333Y-14942381D01*
X11450809Y-14904286D01*
X11450809Y-14856667D01*
X11460333Y-14818571D01*
X11469857Y-14799524D01*
X11479381Y-14790000D01*
X11498428Y-14780476D01*
X11688905Y-14780476D02*
X11707952Y-14780476D01*
X11727000Y-14790000D01*
X11736524Y-14799524D01*
X11746048Y-14818571D01*
X11755571Y-14856667D01*
X11755571Y-14904286D01*
X11746048Y-14942381D01*
X11736524Y-14961428D01*
X11727000Y-14970952D01*
X11707952Y-14980476D01*
X11688905Y-14980476D01*
X11669857Y-14970952D01*
X11660333Y-14961428D01*
X11650809Y-14942381D01*
X11641286Y-14904286D01*
X11641286Y-14856667D01*
X11650809Y-14818571D01*
X11660333Y-14799524D01*
X11669857Y-14790000D01*
X11688905Y-14780476D01*
X11879381Y-14780476D02*
X11898428Y-14780476D01*
X11917476Y-14790000D01*
X11927000Y-14799524D01*
X11936524Y-14818571D01*
X11946048Y-14856667D01*
X11946048Y-14904286D01*
X11936524Y-14942381D01*
X11927000Y-14961428D01*
X11917476Y-14970952D01*
X11898428Y-14980476D01*
X11879381Y-14980476D01*
X11860333Y-14970952D01*
X11850809Y-14961428D01*
X11841286Y-14942381D01*
X11831762Y-14904286D01*
X11831762Y-14856667D01*
X11841286Y-14818571D01*
X11850809Y-14799524D01*
X11860333Y-14790000D01*
X11879381Y-14780476D01*
X12031762Y-14980476D02*
X12031762Y-14847143D01*
X12031762Y-14866190D02*
X12041286Y-14856667D01*
X12060333Y-14847143D01*
X12088905Y-14847143D01*
X12107952Y-14856667D01*
X12117476Y-14875714D01*
X12117476Y-14980476D01*
X12117476Y-14875714D02*
X12127000Y-14856667D01*
X12146048Y-14847143D01*
X12174619Y-14847143D01*
X12193667Y-14856667D01*
X12203190Y-14875714D01*
X12203190Y-14980476D01*
X12298428Y-14980476D02*
X12298428Y-14847143D01*
X12298428Y-14866190D02*
X12307952Y-14856667D01*
X12327000Y-14847143D01*
X12355571Y-14847143D01*
X12374619Y-14856667D01*
X12384143Y-14875714D01*
X12384143Y-14980476D01*
X12384143Y-14875714D02*
X12393667Y-14856667D01*
X12412714Y-14847143D01*
X12441286Y-14847143D01*
X12460333Y-14856667D01*
X12469857Y-14875714D01*
X12469857Y-14980476D01*
X12860333Y-14770952D02*
X12688905Y-15028095D01*
X13117476Y-14780476D02*
X13136524Y-14780476D01*
X13155571Y-14790000D01*
X13165095Y-14799524D01*
X13174619Y-14818571D01*
X13184143Y-14856667D01*
X13184143Y-14904286D01*
X13174619Y-14942381D01*
X13165095Y-14961428D01*
X13155571Y-14970952D01*
X13136524Y-14980476D01*
X13117476Y-14980476D01*
X13098428Y-14970952D01*
X13088905Y-14961428D01*
X13079381Y-14942381D01*
X13069857Y-14904286D01*
X13069857Y-14856667D01*
X13079381Y-14818571D01*
X13088905Y-14799524D01*
X13098428Y-14790000D01*
X13117476Y-14780476D01*
X13269857Y-14961428D02*
X13279381Y-14970952D01*
X13269857Y-14980476D01*
X13260333Y-14970952D01*
X13269857Y-14961428D01*
X13269857Y-14980476D01*
X13403190Y-14780476D02*
X13422238Y-14780476D01*
X13441286Y-14790000D01*
X13450809Y-14799524D01*
X13460333Y-14818571D01*
X13469857Y-14856667D01*
X13469857Y-14904286D01*
X13460333Y-14942381D01*
X13450809Y-14961428D01*
X13441286Y-14970952D01*
X13422238Y-14980476D01*
X13403190Y-14980476D01*
X13384143Y-14970952D01*
X13374619Y-14961428D01*
X13365095Y-14942381D01*
X13355571Y-14904286D01*
X13355571Y-14856667D01*
X13365095Y-14818571D01*
X13374619Y-14799524D01*
X13384143Y-14790000D01*
X13403190Y-14780476D01*
X13536524Y-14780476D02*
X13660333Y-14780476D01*
X13593667Y-14856667D01*
X13622238Y-14856667D01*
X13641286Y-14866190D01*
X13650809Y-14875714D01*
X13660333Y-14894762D01*
X13660333Y-14942381D01*
X13650809Y-14961428D01*
X13641286Y-14970952D01*
X13622238Y-14980476D01*
X13565095Y-14980476D01*
X13546048Y-14970952D01*
X13536524Y-14961428D01*
X13755571Y-14980476D02*
X13793667Y-14980476D01*
X13812714Y-14970952D01*
X13822238Y-14961428D01*
X13841286Y-14932857D01*
X13850809Y-14894762D01*
X13850809Y-14818571D01*
X13841286Y-14799524D01*
X13831762Y-14790000D01*
X13812714Y-14780476D01*
X13774619Y-14780476D01*
X13755571Y-14790000D01*
X13746048Y-14799524D01*
X13736524Y-14818571D01*
X13736524Y-14866190D01*
X13746048Y-14885238D01*
X13755571Y-14894762D01*
X13774619Y-14904286D01*
X13812714Y-14904286D01*
X13831762Y-14894762D01*
X13841286Y-14885238D01*
X13850809Y-14866190D01*
X14022238Y-14847143D02*
X14022238Y-14980476D01*
X13974619Y-14770952D02*
X13927000Y-14913809D01*
X14050809Y-14913809D01*
X14117476Y-14780476D02*
X14117476Y-14818571D01*
X14193667Y-14780476D02*
X14193667Y-14818571D01*
X14488905Y-15056667D02*
X14479381Y-15047143D01*
X14460333Y-15018571D01*
X14450809Y-14999524D01*
X14441286Y-14970952D01*
X14431762Y-14923333D01*
X14431762Y-14885238D01*
X14441286Y-14837619D01*
X14450809Y-14809048D01*
X14460333Y-14790000D01*
X14479381Y-14761428D01*
X14488905Y-14751905D01*
X14546048Y-14780476D02*
X14669857Y-14780476D01*
X14603190Y-14856667D01*
X14631762Y-14856667D01*
X14650809Y-14866190D01*
X14660333Y-14875714D01*
X14669857Y-14894762D01*
X14669857Y-14942381D01*
X14660333Y-14961428D01*
X14650809Y-14970952D01*
X14631762Y-14980476D01*
X14574619Y-14980476D01*
X14555571Y-14970952D01*
X14546048Y-14961428D01*
X14784143Y-14866190D02*
X14765095Y-14856667D01*
X14755571Y-14847143D01*
X14746048Y-14828095D01*
X14746048Y-14818571D01*
X14755571Y-14799524D01*
X14765095Y-14790000D01*
X14784143Y-14780476D01*
X14822238Y-14780476D01*
X14841286Y-14790000D01*
X14850809Y-14799524D01*
X14860333Y-14818571D01*
X14860333Y-14828095D01*
X14850809Y-14847143D01*
X14841286Y-14856667D01*
X14822238Y-14866190D01*
X14784143Y-14866190D01*
X14765095Y-14875714D01*
X14755571Y-14885238D01*
X14746048Y-14904286D01*
X14746048Y-14942381D01*
X14755571Y-14961428D01*
X14765095Y-14970952D01*
X14784143Y-14980476D01*
X14822238Y-14980476D01*
X14841286Y-14970952D01*
X14850809Y-14961428D01*
X14860333Y-14942381D01*
X14860333Y-14904286D01*
X14850809Y-14885238D01*
X14841286Y-14875714D01*
X14822238Y-14866190D01*
X15098428Y-14980476D02*
X15098428Y-14780476D01*
X15184143Y-14980476D02*
X15184143Y-14875714D01*
X15174619Y-14856667D01*
X15155571Y-14847143D01*
X15127000Y-14847143D01*
X15107952Y-14856667D01*
X15098428Y-14866190D01*
X15307952Y-14980476D02*
X15288905Y-14970952D01*
X15279381Y-14961428D01*
X15269857Y-14942381D01*
X15269857Y-14885238D01*
X15279381Y-14866190D01*
X15288905Y-14856667D01*
X15307952Y-14847143D01*
X15336524Y-14847143D01*
X15355571Y-14856667D01*
X15365095Y-14866190D01*
X15374619Y-14885238D01*
X15374619Y-14942381D01*
X15365095Y-14961428D01*
X15355571Y-14970952D01*
X15336524Y-14980476D01*
X15307952Y-14980476D01*
X15488905Y-14980476D02*
X15469857Y-14970952D01*
X15460333Y-14951905D01*
X15460333Y-14780476D01*
X15641286Y-14970952D02*
X15622238Y-14980476D01*
X15584143Y-14980476D01*
X15565095Y-14970952D01*
X15555571Y-14951905D01*
X15555571Y-14875714D01*
X15565095Y-14856667D01*
X15584143Y-14847143D01*
X15622238Y-14847143D01*
X15641286Y-14856667D01*
X15650809Y-14875714D01*
X15650809Y-14894762D01*
X15555571Y-14913809D01*
X15727000Y-14970952D02*
X15746048Y-14980476D01*
X15784143Y-14980476D01*
X15803190Y-14970952D01*
X15812714Y-14951905D01*
X15812714Y-14942381D01*
X15803190Y-14923333D01*
X15784143Y-14913809D01*
X15755571Y-14913809D01*
X15736524Y-14904286D01*
X15727000Y-14885238D01*
X15727000Y-14875714D01*
X15736524Y-14856667D01*
X15755571Y-14847143D01*
X15784143Y-14847143D01*
X15803190Y-14856667D01*
X15879381Y-15056667D02*
X15888905Y-15047143D01*
X15907952Y-15018571D01*
X15917476Y-14999524D01*
X15927000Y-14970952D01*
X15936524Y-14923333D01*
X15936524Y-14885238D01*
X15927000Y-14837619D01*
X15917476Y-14809048D01*
X15907952Y-14790000D01*
X15888905Y-14761428D01*
X15879381Y-14751905D01*
D14*
X10862000Y-15099000D02*
X10862000Y-15209000D01*
X10807000Y-15154000D02*
X10917000Y-15154000D01*
D11*
X11279381Y-15244476D02*
X11165095Y-15244476D01*
X11222238Y-15244476D02*
X11222238Y-15044476D01*
X11203190Y-15073048D01*
X11184143Y-15092095D01*
X11165095Y-15101619D01*
X11365095Y-15225428D02*
X11374619Y-15234952D01*
X11365095Y-15244476D01*
X11355571Y-15234952D01*
X11365095Y-15225428D01*
X11365095Y-15244476D01*
X11565095Y-15244476D02*
X11450809Y-15244476D01*
X11507952Y-15244476D02*
X11507952Y-15044476D01*
X11488905Y-15073048D01*
X11469857Y-15092095D01*
X11450809Y-15101619D01*
X11688905Y-15044476D02*
X11707952Y-15044476D01*
X11727000Y-15054000D01*
X11736524Y-15063524D01*
X11746048Y-15082571D01*
X11755571Y-15120667D01*
X11755571Y-15168286D01*
X11746048Y-15206381D01*
X11736524Y-15225428D01*
X11727000Y-15234952D01*
X11707952Y-15244476D01*
X11688905Y-15244476D01*
X11669857Y-15234952D01*
X11660333Y-15225428D01*
X11650809Y-15206381D01*
X11641286Y-15168286D01*
X11641286Y-15120667D01*
X11650809Y-15082571D01*
X11660333Y-15063524D01*
X11669857Y-15054000D01*
X11688905Y-15044476D01*
X11879381Y-15044476D02*
X11898428Y-15044476D01*
X11917476Y-15054000D01*
X11927000Y-15063524D01*
X11936524Y-15082571D01*
X11946048Y-15120667D01*
X11946048Y-15168286D01*
X11936524Y-15206381D01*
X11927000Y-15225428D01*
X11917476Y-15234952D01*
X11898428Y-15244476D01*
X11879381Y-15244476D01*
X11860333Y-15234952D01*
X11850809Y-15225428D01*
X11841286Y-15206381D01*
X11831762Y-15168286D01*
X11831762Y-15120667D01*
X11841286Y-15082571D01*
X11850809Y-15063524D01*
X11860333Y-15054000D01*
X11879381Y-15044476D01*
X12031762Y-15244476D02*
X12031762Y-15111143D01*
X12031762Y-15130190D02*
X12041286Y-15120667D01*
X12060333Y-15111143D01*
X12088905Y-15111143D01*
X12107952Y-15120667D01*
X12117476Y-15139714D01*
X12117476Y-15244476D01*
X12117476Y-15139714D02*
X12127000Y-15120667D01*
X12146048Y-15111143D01*
X12174619Y-15111143D01*
X12193667Y-15120667D01*
X12203190Y-15139714D01*
X12203190Y-15244476D01*
X12298428Y-15244476D02*
X12298428Y-15111143D01*
X12298428Y-15130190D02*
X12307952Y-15120667D01*
X12327000Y-15111143D01*
X12355571Y-15111143D01*
X12374619Y-15120667D01*
X12384143Y-15139714D01*
X12384143Y-15244476D01*
X12384143Y-15139714D02*
X12393667Y-15120667D01*
X12412714Y-15111143D01*
X12441286Y-15111143D01*
X12460333Y-15120667D01*
X12469857Y-15139714D01*
X12469857Y-15244476D01*
X12860333Y-15034952D02*
X12688905Y-15292095D01*
X13117476Y-15044476D02*
X13136524Y-15044476D01*
X13155571Y-15054000D01*
X13165095Y-15063524D01*
X13174619Y-15082571D01*
X13184143Y-15120667D01*
X13184143Y-15168286D01*
X13174619Y-15206381D01*
X13165095Y-15225428D01*
X13155571Y-15234952D01*
X13136524Y-15244476D01*
X13117476Y-15244476D01*
X13098428Y-15234952D01*
X13088905Y-15225428D01*
X13079381Y-15206381D01*
X13069857Y-15168286D01*
X13069857Y-15120667D01*
X13079381Y-15082571D01*
X13088905Y-15063524D01*
X13098428Y-15054000D01*
X13117476Y-15044476D01*
X13269857Y-15225428D02*
X13279381Y-15234952D01*
X13269857Y-15244476D01*
X13260333Y-15234952D01*
X13269857Y-15225428D01*
X13269857Y-15244476D01*
X13403190Y-15044476D02*
X13422238Y-15044476D01*
X13441286Y-15054000D01*
X13450809Y-15063524D01*
X13460333Y-15082571D01*
X13469857Y-15120667D01*
X13469857Y-15168286D01*
X13460333Y-15206381D01*
X13450809Y-15225428D01*
X13441286Y-15234952D01*
X13422238Y-15244476D01*
X13403190Y-15244476D01*
X13384143Y-15234952D01*
X13374619Y-15225428D01*
X13365095Y-15206381D01*
X13355571Y-15168286D01*
X13355571Y-15120667D01*
X13365095Y-15082571D01*
X13374619Y-15063524D01*
X13384143Y-15054000D01*
X13403190Y-15044476D01*
X13641286Y-15111143D02*
X13641286Y-15244476D01*
X13593667Y-15034952D02*
X13546048Y-15177809D01*
X13669857Y-15177809D01*
X13727000Y-15044476D02*
X13850809Y-15044476D01*
X13784143Y-15120667D01*
X13812714Y-15120667D01*
X13831762Y-15130190D01*
X13841286Y-15139714D01*
X13850809Y-15158762D01*
X13850809Y-15206381D01*
X13841286Y-15225428D01*
X13831762Y-15234952D01*
X13812714Y-15244476D01*
X13755571Y-15244476D01*
X13736524Y-15234952D01*
X13727000Y-15225428D01*
X13917476Y-15044476D02*
X14041286Y-15044476D01*
X13974619Y-15120667D01*
X14003190Y-15120667D01*
X14022238Y-15130190D01*
X14031762Y-15139714D01*
X14041286Y-15158762D01*
X14041286Y-15206381D01*
X14031762Y-15225428D01*
X14022238Y-15234952D01*
X14003190Y-15244476D01*
X13946048Y-15244476D01*
X13927000Y-15234952D01*
X13917476Y-15225428D01*
X14117476Y-15044476D02*
X14117476Y-15082571D01*
X14193667Y-15044476D02*
X14193667Y-15082571D01*
X14488905Y-15320667D02*
X14479381Y-15311143D01*
X14460333Y-15282571D01*
X14450809Y-15263524D01*
X14441286Y-15234952D01*
X14431762Y-15187333D01*
X14431762Y-15149238D01*
X14441286Y-15101619D01*
X14450809Y-15073048D01*
X14460333Y-15054000D01*
X14479381Y-15025428D01*
X14488905Y-15015905D01*
X14555571Y-15063524D02*
X14565095Y-15054000D01*
X14584143Y-15044476D01*
X14631762Y-15044476D01*
X14650809Y-15054000D01*
X14660333Y-15063524D01*
X14669857Y-15082571D01*
X14669857Y-15101619D01*
X14660333Y-15130190D01*
X14546048Y-15244476D01*
X14669857Y-15244476D01*
X14841286Y-15111143D02*
X14841286Y-15244476D01*
X14793667Y-15034952D02*
X14746048Y-15177809D01*
X14869857Y-15177809D01*
X15098428Y-15244476D02*
X15098428Y-15044476D01*
X15184143Y-15244476D02*
X15184143Y-15139714D01*
X15174619Y-15120667D01*
X15155571Y-15111143D01*
X15127000Y-15111143D01*
X15107952Y-15120667D01*
X15098428Y-15130190D01*
X15307952Y-15244476D02*
X15288905Y-15234952D01*
X15279381Y-15225428D01*
X15269857Y-15206381D01*
X15269857Y-15149238D01*
X15279381Y-15130190D01*
X15288905Y-15120667D01*
X15307952Y-15111143D01*
X15336524Y-15111143D01*
X15355571Y-15120667D01*
X15365095Y-15130190D01*
X15374619Y-15149238D01*
X15374619Y-15206381D01*
X15365095Y-15225428D01*
X15355571Y-15234952D01*
X15336524Y-15244476D01*
X15307952Y-15244476D01*
X15488905Y-15244476D02*
X15469857Y-15234952D01*
X15460333Y-15215905D01*
X15460333Y-15044476D01*
X15641286Y-15234952D02*
X15622238Y-15244476D01*
X15584143Y-15244476D01*
X15565095Y-15234952D01*
X15555571Y-15215905D01*
X15555571Y-15139714D01*
X15565095Y-15120667D01*
X15584143Y-15111143D01*
X15622238Y-15111143D01*
X15641286Y-15120667D01*
X15650809Y-15139714D01*
X15650809Y-15158762D01*
X15555571Y-15177809D01*
X15727000Y-15234952D02*
X15746048Y-15244476D01*
X15784143Y-15244476D01*
X15803190Y-15234952D01*
X15812714Y-15215905D01*
X15812714Y-15206381D01*
X15803190Y-15187333D01*
X15784143Y-15177809D01*
X15755571Y-15177809D01*
X15736524Y-15168286D01*
X15727000Y-15149238D01*
X15727000Y-15139714D01*
X15736524Y-15120667D01*
X15755571Y-15111143D01*
X15784143Y-15111143D01*
X15803190Y-15120667D01*
X15879381Y-15320667D02*
X15888905Y-15311143D01*
X15907952Y-15282571D01*
X15917476Y-15263524D01*
X15927000Y-15234952D01*
X15936524Y-15187333D01*
X15936524Y-15149238D01*
X15927000Y-15101619D01*
X15917476Y-15073048D01*
X15907952Y-15054000D01*
X15888905Y-15025428D01*
X15879381Y-15015905D01*
M02*
