M48
; DRILL file {KiCad (6.0.0)} date Sun Mar 13 19:29:44 2022
; FORMAT={-:-/ absolute / metric / decimal}
; #@! TF.CreationDate,2022-03-13T19:29:44-04:00
; #@! TF.GenerationSoftware,Kicad,Pcbnew,(6.0.0)
; #@! TF.FileFunction,Plated,1,2,PTH
FMAT,2
METRIC
; #@! TA.AperFunction,Plated,PTH,ViaDrill
T1C0.400
; #@! TA.AperFunction,Plated,PTH,ComponentDrill
T2C1.000
; #@! TA.AperFunction,Plated,PTH,ComponentDrill
T3C1.100
%
G90
G05
T1
X148.59Y-134.62
X149.86Y-116.84
X151.13Y-96.52
X152.4Y-78.74
T2
X117.22Y-53.16
X117.22Y-72.26
X117.22Y-91.35
X117.22Y-110.68
X120.2Y-54.94
X120.2Y-73.53
X120.2Y-93.06
X120.2Y-112.09
X126.58Y-129.54
X127.0Y-81.28
X129.54Y-81.28
X129.59Y-131.18
X136.32Y-53.16
X136.32Y-72.26
X136.32Y-91.35
X136.32Y-110.68
X139.21Y-54.94
X139.21Y-73.53
X139.21Y-93.06
X139.21Y-112.09
X155.12Y-53.16
X155.12Y-72.26
X155.12Y-91.35
X155.12Y-110.68
X155.12Y-129.54
X158.11Y-54.94
X158.11Y-73.53
X158.11Y-93.06
X158.11Y-112.09
X158.11Y-131.18
X174.16Y-53.16
X174.16Y-72.26
X174.16Y-91.35
X174.16Y-119.87
X177.01Y-54.94
X177.01Y-73.53
X177.01Y-93.06
X177.01Y-121.66
T3
X129.54Y-38.1
X129.54Y-40.64
X129.54Y-43.18
X129.54Y-45.72
X129.54Y-48.26
X129.54Y-50.8
X129.54Y-53.34
X129.54Y-55.88
X129.54Y-58.42
X129.54Y-60.96
X129.54Y-63.5
X129.54Y-66.04
X144.78Y-38.1
X144.78Y-40.64
X144.78Y-43.18
X144.78Y-45.72
X144.78Y-48.26
X144.78Y-50.8
X144.78Y-53.34
X144.78Y-55.88
X144.78Y-58.42
X144.78Y-60.96
X144.78Y-63.5
X144.78Y-66.04
T0
M30
