%TF.GenerationSoftware,KiCad,Pcbnew,(6.0.0)*%
%TF.CreationDate,2022-03-13T19:29:42-04:00*%
%TF.ProjectId,numpad_pcb,6e756d70-6164-45f7-9063-622e6b696361,rev?*%
%TF.SameCoordinates,Original*%
%TF.FileFunction,Copper,L2,Bot*%
%TF.FilePolarity,Positive*%
%FSLAX46Y46*%
G04 Gerber Fmt 4.6, Leading zero omitted, Abs format (unit mm)*
G04 Created by KiCad (PCBNEW (6.0.0)) date 2022-03-13 19:29:42*
%MOMM*%
%LPD*%
G01*
G04 APERTURE LIST*
%TA.AperFunction,ComponentPad*%
%ADD10C,1.700000*%
%TD*%
%TA.AperFunction,SMDPad,CuDef*%
%ADD11R,1.100000X1.100000*%
%TD*%
%TA.AperFunction,ComponentPad*%
%ADD12R,1.700000X1.700000*%
%TD*%
%TA.AperFunction,ComponentPad*%
%ADD13O,1.700000X1.700000*%
%TD*%
%TA.AperFunction,ComponentPad*%
%ADD14R,1.600000X1.600000*%
%TD*%
%TA.AperFunction,ComponentPad*%
%ADD15C,1.600000*%
%TD*%
%TA.AperFunction,ViaPad*%
%ADD16C,0.800000*%
%TD*%
%TA.AperFunction,Conductor*%
%ADD17C,0.400000*%
%TD*%
G04 APERTURE END LIST*
D10*
%TO.P,J1,1,A*%
%TO.N,/col1*%
X117220000Y-53160000D03*
%TO.P,J1,2,B*%
%TO.N,Net-(D1-Pad2)*%
X120200000Y-54940000D03*
%TO.P,J1,3,A*%
%TO.N,/col2*%
X136320000Y-53160000D03*
%TO.P,J1,4,B*%
%TO.N,Net-(D6-Pad2)*%
X139210000Y-54940000D03*
%TO.P,J1,5,A*%
%TO.N,/col3*%
X155120000Y-53160000D03*
%TO.P,J1,6,B*%
%TO.N,Net-(D10-Pad2)*%
X158110000Y-54940000D03*
%TO.P,J1,7,A*%
%TO.N,/col4*%
X174160000Y-53160000D03*
%TO.P,J1,8,B*%
%TO.N,Net-(D15-Pad2)*%
X177010000Y-54940000D03*
%TO.P,J1,9,A*%
%TO.N,Net-(J1-Pad9)*%
X117220000Y-72260000D03*
%TO.P,J1,10,B*%
%TO.N,Net-(D2-Pad2)*%
X120200000Y-73530000D03*
%TO.P,J1,11,A*%
%TO.N,Net-(J1-Pad11)*%
X136320000Y-72260000D03*
%TO.P,J1,12,B*%
%TO.N,Net-(D7-Pad2)*%
X139210000Y-73530000D03*
%TO.P,J1,13,A*%
%TO.N,Net-(J1-Pad13)*%
X155120000Y-72260000D03*
%TO.P,J1,14,B*%
%TO.N,Net-(D11-Pad2)*%
X158110000Y-73530000D03*
%TO.P,J1,15,A*%
%TO.N,Net-(J1-Pad15)*%
X174160000Y-72260000D03*
%TO.P,J1,16,B*%
%TO.N,Net-(D16-Pad2)*%
X177010000Y-73530000D03*
%TO.P,J1,17,A*%
%TO.N,Net-(J1-Pad17)*%
X117220000Y-91350000D03*
%TO.P,J1,18,B*%
%TO.N,Net-(D3-Pad2)*%
X120200000Y-93060000D03*
%TO.P,J1,19,A*%
%TO.N,Net-(J1-Pad19)*%
X136320000Y-91350000D03*
%TO.P,J1,20,B*%
%TO.N,Net-(D8-Pad2)*%
X139210000Y-93060000D03*
%TO.P,J1,21,A*%
%TO.N,Net-(J1-Pad21)*%
X155120000Y-91350000D03*
%TO.P,J1,22,B*%
%TO.N,Net-(D12-Pad2)*%
X158110000Y-93060000D03*
%TO.P,J1,23,A*%
%TO.N,Net-(J17-Pad2)*%
X174160000Y-91350000D03*
%TO.P,J1,24,B*%
%TO.N,Net-(D17-Pad2)*%
X177010000Y-93060000D03*
%TO.P,J1,25,A*%
%TO.N,Net-(J1-Pad25)*%
X117220000Y-110680000D03*
%TO.P,J1,26,B*%
%TO.N,Net-(D4-Pad2)*%
X120200000Y-112090000D03*
%TO.P,J1,27,A*%
%TO.N,Net-(J1-Pad27)*%
X136320000Y-110680000D03*
%TO.P,J1,28,B*%
%TO.N,Net-(D9-Pad2)*%
X139210000Y-112090000D03*
%TO.P,J1,29,A*%
%TO.N,Net-(J1-Pad29)*%
X155120000Y-110680000D03*
%TO.P,J1,30,B*%
%TO.N,Net-(D13-Pad2)*%
X158110000Y-112090000D03*
%TO.P,J1,31,A*%
%TO.N,Net-(J1-Pad31)*%
X174160000Y-119870000D03*
%TO.P,J1,32,B*%
%TO.N,Net-(D18-Pad2)*%
X177010000Y-121660000D03*
%TO.P,J1,33,A*%
%TO.N,Net-(J1-Pad33)*%
X126580000Y-129540000D03*
%TO.P,J1,34,B*%
%TO.N,Net-(D5-Pad2)*%
X129590000Y-131180000D03*
%TO.P,J1,35,A*%
%TO.N,Net-(J1-Pad35)*%
X155120000Y-129540000D03*
%TO.P,J1,36,B*%
%TO.N,Net-(D14-Pad2)*%
X158110000Y-131180000D03*
%TD*%
D11*
%TO.P,D3,1,K*%
%TO.N,/row3*%
X123190000Y-96650000D03*
%TO.P,D3,2,A*%
%TO.N,Net-(D3-Pad2)*%
X123190000Y-93850000D03*
%TD*%
%TO.P,D11,1,K*%
%TO.N,/row2*%
X161290000Y-77600000D03*
%TO.P,D11,2,A*%
%TO.N,Net-(D11-Pad2)*%
X161290000Y-74800000D03*
%TD*%
%TO.P,D16,1,K*%
%TO.N,/row2*%
X180340000Y-77600000D03*
%TO.P,D16,2,A*%
%TO.N,Net-(D16-Pad2)*%
X180340000Y-74800000D03*
%TD*%
%TO.P,D1,1,K*%
%TO.N,/row1*%
X121920000Y-59820000D03*
%TO.P,D1,2,A*%
%TO.N,Net-(D1-Pad2)*%
X121920000Y-57020000D03*
%TD*%
%TO.P,D18,1,K*%
%TO.N,/row4*%
X180340000Y-125860000D03*
%TO.P,D18,2,A*%
%TO.N,Net-(D18-Pad2)*%
X180340000Y-123060000D03*
%TD*%
%TO.P,D13,1,K*%
%TO.N,/row4*%
X160020000Y-116970000D03*
%TO.P,D13,2,A*%
%TO.N,Net-(D13-Pad2)*%
X160020000Y-114170000D03*
%TD*%
%TO.P,D4,1,K*%
%TO.N,/row4*%
X123190000Y-116970000D03*
%TO.P,D4,2,A*%
%TO.N,Net-(D4-Pad2)*%
X123190000Y-114170000D03*
%TD*%
%TO.P,D14,1,K*%
%TO.N,/row5*%
X161290000Y-134750000D03*
%TO.P,D14,2,A*%
%TO.N,Net-(D14-Pad2)*%
X161290000Y-131950000D03*
%TD*%
%TO.P,D10,1,K*%
%TO.N,/row1*%
X160020000Y-59820000D03*
%TO.P,D10,2,A*%
%TO.N,Net-(D10-Pad2)*%
X160020000Y-57020000D03*
%TD*%
%TO.P,D5,1,K*%
%TO.N,/row5*%
X133350000Y-134750000D03*
%TO.P,D5,2,A*%
%TO.N,Net-(D5-Pad2)*%
X133350000Y-131950000D03*
%TD*%
D12*
%TO.P,B1,1,Pin_1*%
%TO.N,Net-(B1-Pad1)*%
X129540000Y-81280000D03*
D13*
%TO.P,B1,2,Pin_2*%
%TO.N,GND*%
X127000000Y-81280000D03*
%TD*%
D11*
%TO.P,D6,1,K*%
%TO.N,/row1*%
X139700000Y-61090000D03*
%TO.P,D6,2,A*%
%TO.N,Net-(D6-Pad2)*%
X139700000Y-58290000D03*
%TD*%
%TO.P,D15,1,K*%
%TO.N,/row1*%
X179070000Y-59820000D03*
%TO.P,D15,2,A*%
%TO.N,Net-(D15-Pad2)*%
X179070000Y-57020000D03*
%TD*%
%TO.P,D12,1,K*%
%TO.N,/row3*%
X161290000Y-96650000D03*
%TO.P,D12,2,A*%
%TO.N,Net-(D12-Pad2)*%
X161290000Y-93850000D03*
%TD*%
%TO.P,D2,1,K*%
%TO.N,/row2*%
X123190000Y-77600000D03*
%TO.P,D2,2,A*%
%TO.N,Net-(D2-Pad2)*%
X123190000Y-74800000D03*
%TD*%
%TO.P,D8,1,K*%
%TO.N,/row3*%
X142240000Y-96650000D03*
%TO.P,D8,2,A*%
%TO.N,Net-(D8-Pad2)*%
X142240000Y-93850000D03*
%TD*%
%TO.P,D7,1,K*%
%TO.N,/row2*%
X140970000Y-78870000D03*
%TO.P,D7,2,A*%
%TO.N,Net-(D7-Pad2)*%
X140970000Y-76070000D03*
%TD*%
%TO.P,D9,1,K*%
%TO.N,/row4*%
X142240000Y-116970000D03*
%TO.P,D9,2,A*%
%TO.N,Net-(D9-Pad2)*%
X142240000Y-114170000D03*
%TD*%
%TO.P,D17,1,K*%
%TO.N,/row3*%
X180340000Y-96520000D03*
%TO.P,D17,2,A*%
%TO.N,Net-(D17-Pad2)*%
X180340000Y-93720000D03*
%TD*%
D14*
%TO.P,U1,1,TX*%
%TO.N,unconnected-(U1-Pad1)*%
X144780000Y-38100000D03*
D15*
%TO.P,U1,2,RX*%
%TO.N,unconnected-(U1-Pad2)*%
X144780000Y-40640000D03*
%TO.P,U1,3,GND*%
%TO.N,GND*%
X144780000Y-43180000D03*
%TO.P,U1,4,GND*%
X144780000Y-45720000D03*
%TO.P,U1,5,SDA*%
%TO.N,unconnected-(U1-Pad5)*%
X144780000Y-48260000D03*
%TO.P,U1,6,SCL*%
%TO.N,unconnected-(U1-Pad6)*%
X144780000Y-50800000D03*
%TO.P,U1,7,D4*%
%TO.N,/row1*%
X144780000Y-53340000D03*
%TO.P,U1,8,C6*%
%TO.N,unconnected-(U1-Pad8)*%
X144780000Y-55880000D03*
%TO.P,U1,9,D7*%
%TO.N,/row2*%
X144780000Y-58420000D03*
%TO.P,U1,10,E6*%
%TO.N,/row3*%
X144780000Y-60960000D03*
%TO.P,U1,11,B4*%
%TO.N,/row4*%
X144780000Y-63500000D03*
%TO.P,U1,12,B5*%
%TO.N,/row5*%
X144780000Y-66040000D03*
%TO.P,U1,13,B6*%
%TO.N,Net-(B1-Pad1)*%
X129540000Y-66040000D03*
%TO.P,U1,14,B2*%
%TO.N,unconnected-(U1-Pad14)*%
X129540000Y-63500000D03*
%TO.P,U1,15,B3*%
%TO.N,/col4*%
X129540000Y-60960000D03*
%TO.P,U1,16,B1*%
%TO.N,/col3*%
X129540000Y-58420000D03*
%TO.P,U1,17,F7*%
%TO.N,/col2*%
X129540000Y-55880000D03*
%TO.P,U1,18,F6*%
%TO.N,/col1*%
X129540000Y-53340000D03*
%TO.P,U1,19,F5*%
%TO.N,unconnected-(U1-Pad19)*%
X129540000Y-50800000D03*
%TO.P,U1,20,F4*%
%TO.N,unconnected-(U1-Pad20)*%
X129540000Y-48260000D03*
%TO.P,U1,21,VCC*%
%TO.N,unconnected-(U1-Pad21)*%
X129540000Y-45720000D03*
%TO.P,U1,22,RST*%
%TO.N,unconnected-(U1-Pad22)*%
X129540000Y-43180000D03*
%TO.P,U1,23,GND*%
%TO.N,GND*%
X129540000Y-40640000D03*
%TO.P,U1,24,RAW*%
%TO.N,unconnected-(U1-Pad24)*%
X129540000Y-38100000D03*
%TD*%
D16*
%TO.N,/row2*%
X152400000Y-78740000D03*
%TO.N,/row3*%
X151130000Y-96520000D03*
%TO.N,/row4*%
X149860000Y-116840000D03*
%TO.N,/row5*%
X148590000Y-134620000D03*
%TD*%
D17*
%TO.N,/row1*%
X138630489Y-62159511D02*
X139700000Y-61090000D01*
X141100000Y-59690000D02*
X147320000Y-59690000D01*
X159890000Y-59690000D02*
X160020000Y-59820000D01*
X179070000Y-59820000D02*
X160020000Y-59820000D01*
X144780000Y-53340000D02*
X147320000Y-55880000D01*
X124259511Y-62159511D02*
X138630489Y-62159511D01*
X121920000Y-59820000D02*
X124259511Y-62159511D01*
X147320000Y-59690000D02*
X159890000Y-59690000D01*
X139700000Y-61090000D02*
X141100000Y-59690000D01*
X147320000Y-55880000D02*
X147320000Y-59690000D01*
%TO.N,Net-(D1-Pad2)*%
X120200000Y-55300000D02*
X121920000Y-57020000D01*
X120200000Y-54940000D02*
X120200000Y-55300000D01*
%TO.N,/row2*%
X138300000Y-78870000D02*
X137030000Y-77600000D01*
X123190000Y-77600000D02*
X137030000Y-77600000D01*
X140970000Y-78870000D02*
X138300000Y-78870000D01*
X160020000Y-78870000D02*
X161290000Y-77600000D01*
X161290000Y-77600000D02*
X180340000Y-77600000D01*
X140970000Y-78870000D02*
X160020000Y-78870000D01*
%TO.N,Net-(D2-Pad2)*%
X121920000Y-73530000D02*
X123190000Y-74800000D01*
X120200000Y-73530000D02*
X121920000Y-73530000D01*
%TO.N,/row3*%
X180210000Y-96650000D02*
X180340000Y-96520000D01*
X123190000Y-96650000D02*
X142240000Y-96650000D01*
X142240000Y-96650000D02*
X161290000Y-96650000D01*
X161290000Y-96650000D02*
X180210000Y-96650000D01*
%TO.N,Net-(D3-Pad2)*%
X120200000Y-93060000D02*
X122400000Y-93060000D01*
X122400000Y-93060000D02*
X123190000Y-93850000D01*
%TO.N,/row4*%
X162690000Y-116970000D02*
X160020000Y-116970000D01*
X142240000Y-116970000D02*
X123190000Y-116970000D01*
X180340000Y-125860000D02*
X171580000Y-125860000D01*
X171580000Y-125860000D02*
X162690000Y-116970000D01*
X160020000Y-116970000D02*
X142240000Y-116970000D01*
%TO.N,Net-(D4-Pad2)*%
X121110000Y-112090000D02*
X123190000Y-114170000D01*
X120200000Y-112090000D02*
X121110000Y-112090000D01*
%TO.N,/row5*%
X133350000Y-134750000D02*
X161290000Y-134750000D01*
%TO.N,Net-(D5-Pad2)*%
X129590000Y-131180000D02*
X132580000Y-131180000D01*
X132580000Y-131180000D02*
X133350000Y-131950000D01*
%TO.N,Net-(D6-Pad2)*%
X139210000Y-54940000D02*
X139210000Y-57800000D01*
X139210000Y-57800000D02*
X139700000Y-58290000D01*
%TO.N,Net-(D7-Pad2)*%
X139210000Y-73530000D02*
X139210000Y-74310000D01*
X139210000Y-74310000D02*
X140970000Y-76070000D01*
%TO.N,Net-(D8-Pad2)*%
X139210000Y-93060000D02*
X141450000Y-93060000D01*
X141450000Y-93060000D02*
X142240000Y-93850000D01*
%TO.N,Net-(D9-Pad2)*%
X140160000Y-112090000D02*
X142240000Y-114170000D01*
X139210000Y-112090000D02*
X140160000Y-112090000D01*
%TO.N,Net-(D10-Pad2)*%
X158110000Y-54940000D02*
X158110000Y-55110000D01*
X158110000Y-55110000D02*
X160020000Y-57020000D01*
%TO.N,Net-(D11-Pad2)*%
X158110000Y-73530000D02*
X160020000Y-73530000D01*
X160020000Y-73530000D02*
X161290000Y-74800000D01*
%TO.N,Net-(D12-Pad2)*%
X158110000Y-93060000D02*
X160500000Y-93060000D01*
X160500000Y-93060000D02*
X161290000Y-93850000D01*
%TO.N,Net-(D13-Pad2)*%
X158110000Y-112260000D02*
X160020000Y-114170000D01*
X158110000Y-112090000D02*
X158110000Y-112260000D01*
%TO.N,Net-(D14-Pad2)*%
X160520000Y-131180000D02*
X161290000Y-131950000D01*
X158110000Y-131180000D02*
X160520000Y-131180000D01*
%TO.N,Net-(D15-Pad2)*%
X177010000Y-54960000D02*
X179070000Y-57020000D01*
X177010000Y-54940000D02*
X177010000Y-54960000D01*
%TO.N,Net-(D16-Pad2)*%
X177010000Y-73530000D02*
X179070000Y-73530000D01*
X179070000Y-73530000D02*
X180340000Y-74800000D01*
%TO.N,Net-(D17-Pad2)*%
X177010000Y-93060000D02*
X179680000Y-93060000D01*
X179680000Y-93060000D02*
X180340000Y-93720000D01*
%TO.N,Net-(D18-Pad2)*%
X178940000Y-121660000D02*
X180340000Y-123060000D01*
X177010000Y-121660000D02*
X178940000Y-121660000D01*
%TO.N,/col1*%
X129540000Y-53340000D02*
X117400000Y-53340000D01*
X117400000Y-53340000D02*
X117220000Y-53160000D01*
%TO.N,/col2*%
X129540000Y-55880000D02*
X133600000Y-55880000D01*
X133600000Y-55880000D02*
X136320000Y-53160000D01*
%TD*%
%TA.AperFunction,Conductor*%
%TO.N,GND*%
G36*
X128321897Y-37358002D02*
G01*
X128368390Y-37411658D01*
X128378494Y-37481932D01*
X128367971Y-37517250D01*
X128305716Y-37650757D01*
X128246457Y-37871913D01*
X128226502Y-38100000D01*
X128246457Y-38328087D01*
X128305716Y-38549243D01*
X128308039Y-38554224D01*
X128308039Y-38554225D01*
X128400151Y-38751762D01*
X128400154Y-38751767D01*
X128402477Y-38756749D01*
X128533802Y-38944300D01*
X128695700Y-39106198D01*
X128700208Y-39109355D01*
X128700211Y-39109357D01*
X128741542Y-39138297D01*
X128883251Y-39237523D01*
X128888233Y-39239846D01*
X128888238Y-39239849D01*
X128923049Y-39256081D01*
X128976334Y-39302998D01*
X128995795Y-39371275D01*
X128975253Y-39439235D01*
X128923049Y-39484471D01*
X128888489Y-39500586D01*
X128878994Y-39506069D01*
X128826952Y-39542509D01*
X128818576Y-39552988D01*
X128825644Y-39566434D01*
X129527188Y-40267978D01*
X129541132Y-40275592D01*
X129542965Y-40275461D01*
X129549580Y-40271210D01*
X130255077Y-39565713D01*
X130261507Y-39553938D01*
X130252211Y-39541923D01*
X130201006Y-39506069D01*
X130191511Y-39500586D01*
X130156951Y-39484471D01*
X130103666Y-39437554D01*
X130084205Y-39369277D01*
X130104747Y-39301317D01*
X130156951Y-39256081D01*
X130191762Y-39239849D01*
X130191767Y-39239846D01*
X130196749Y-39237523D01*
X130338458Y-39138297D01*
X130379789Y-39109357D01*
X130379792Y-39109355D01*
X130384300Y-39106198D01*
X130546198Y-38944300D01*
X130677523Y-38756749D01*
X130679846Y-38751767D01*
X130679849Y-38751762D01*
X130771961Y-38554225D01*
X130771961Y-38554224D01*
X130774284Y-38549243D01*
X130833543Y-38328087D01*
X130853498Y-38100000D01*
X130833543Y-37871913D01*
X130774284Y-37650757D01*
X130712029Y-37517250D01*
X130701368Y-37447058D01*
X130730348Y-37382245D01*
X130789768Y-37343389D01*
X130826224Y-37338000D01*
X143345500Y-37338000D01*
X143413621Y-37358002D01*
X143460114Y-37411658D01*
X143471500Y-37464000D01*
X143471500Y-38948134D01*
X143478255Y-39010316D01*
X143529385Y-39146705D01*
X143616739Y-39263261D01*
X143733295Y-39350615D01*
X143869684Y-39401745D01*
X143880474Y-39402917D01*
X143882606Y-39403803D01*
X143885222Y-39404425D01*
X143885121Y-39404848D01*
X143946035Y-39430155D01*
X143986463Y-39488517D01*
X143988922Y-39559471D01*
X143952629Y-39620490D01*
X143943969Y-39627489D01*
X143940207Y-39630646D01*
X143935700Y-39633802D01*
X143773802Y-39795700D01*
X143642477Y-39983251D01*
X143640154Y-39988233D01*
X143640151Y-39988238D01*
X143640034Y-39988489D01*
X143545716Y-40190757D01*
X143544294Y-40196065D01*
X143544293Y-40196067D01*
X143523019Y-40275461D01*
X143486457Y-40411913D01*
X143466502Y-40640000D01*
X143486457Y-40868087D01*
X143487881Y-40873400D01*
X143487881Y-40873402D01*
X143525025Y-41012022D01*
X143545716Y-41089243D01*
X143548039Y-41094224D01*
X143548039Y-41094225D01*
X143640151Y-41291762D01*
X143640154Y-41291767D01*
X143642477Y-41296749D01*
X143773802Y-41484300D01*
X143935700Y-41646198D01*
X143940208Y-41649355D01*
X143940211Y-41649357D01*
X144018389Y-41704098D01*
X144123251Y-41777523D01*
X144128233Y-41779846D01*
X144128238Y-41779849D01*
X144163049Y-41796081D01*
X144216334Y-41842998D01*
X144235795Y-41911275D01*
X144215253Y-41979235D01*
X144163049Y-42024471D01*
X144128489Y-42040586D01*
X144118994Y-42046069D01*
X144066952Y-42082509D01*
X144058576Y-42092988D01*
X144065644Y-42106434D01*
X144767188Y-42807978D01*
X144781132Y-42815592D01*
X144782965Y-42815461D01*
X144789580Y-42811210D01*
X145495077Y-42105713D01*
X145501507Y-42093938D01*
X145492211Y-42081923D01*
X145441006Y-42046069D01*
X145431511Y-42040586D01*
X145396951Y-42024471D01*
X145343666Y-41977554D01*
X145324205Y-41909277D01*
X145344747Y-41841317D01*
X145396951Y-41796081D01*
X145431762Y-41779849D01*
X145431767Y-41779846D01*
X145436749Y-41777523D01*
X145541611Y-41704098D01*
X145619789Y-41649357D01*
X145619792Y-41649355D01*
X145624300Y-41646198D01*
X145786198Y-41484300D01*
X145917523Y-41296749D01*
X145919846Y-41291767D01*
X145919849Y-41291762D01*
X146011961Y-41094225D01*
X146011961Y-41094224D01*
X146014284Y-41089243D01*
X146034976Y-41012022D01*
X146072119Y-40873402D01*
X146072119Y-40873400D01*
X146073543Y-40868087D01*
X146081888Y-40772703D01*
X179500743Y-40772703D01*
X179501302Y-40776947D01*
X179501302Y-40776951D01*
X179513988Y-40873312D01*
X179538268Y-41057734D01*
X179614129Y-41335036D01*
X179726923Y-41599476D01*
X179795636Y-41714287D01*
X179872338Y-41842446D01*
X179874561Y-41846161D01*
X180054313Y-42070528D01*
X180262851Y-42268423D01*
X180496317Y-42436186D01*
X180500112Y-42438195D01*
X180500113Y-42438196D01*
X180521869Y-42449715D01*
X180750392Y-42570712D01*
X181020373Y-42669511D01*
X181301264Y-42730755D01*
X181329841Y-42733004D01*
X181524282Y-42748307D01*
X181524291Y-42748307D01*
X181526739Y-42748500D01*
X181682271Y-42748500D01*
X181684407Y-42748354D01*
X181684418Y-42748354D01*
X181892548Y-42734165D01*
X181892554Y-42734164D01*
X181896825Y-42733873D01*
X181901020Y-42733004D01*
X181901022Y-42733004D01*
X182037584Y-42704723D01*
X182178342Y-42675574D01*
X182449343Y-42579607D01*
X182704812Y-42447750D01*
X182708313Y-42445289D01*
X182708317Y-42445287D01*
X182822417Y-42365096D01*
X182940023Y-42282441D01*
X183142876Y-42093938D01*
X183147479Y-42089661D01*
X183147481Y-42089658D01*
X183150622Y-42086740D01*
X183332713Y-41864268D01*
X183482927Y-41619142D01*
X183542119Y-41484300D01*
X183596757Y-41359830D01*
X183598483Y-41355898D01*
X183677244Y-41079406D01*
X183717751Y-40794784D01*
X183717845Y-40776951D01*
X183719235Y-40511583D01*
X183719235Y-40511576D01*
X183719257Y-40507297D01*
X183706700Y-40411913D01*
X183688735Y-40275461D01*
X183681732Y-40222266D01*
X183605871Y-39944964D01*
X183594580Y-39918493D01*
X183494763Y-39684476D01*
X183494761Y-39684472D01*
X183493077Y-39680524D01*
X183350294Y-39441951D01*
X183347643Y-39437521D01*
X183347640Y-39437517D01*
X183345439Y-39433839D01*
X183165687Y-39209472D01*
X182957149Y-39011577D01*
X182723683Y-38843814D01*
X182701843Y-38832250D01*
X182567760Y-38761257D01*
X182469608Y-38709288D01*
X182199627Y-38610489D01*
X181918736Y-38549245D01*
X181887685Y-38546801D01*
X181695718Y-38531693D01*
X181695709Y-38531693D01*
X181693261Y-38531500D01*
X181537729Y-38531500D01*
X181535593Y-38531646D01*
X181535582Y-38531646D01*
X181327452Y-38545835D01*
X181327446Y-38545836D01*
X181323175Y-38546127D01*
X181318980Y-38546996D01*
X181318978Y-38546996D01*
X181182417Y-38575276D01*
X181041658Y-38604426D01*
X180770657Y-38700393D01*
X180515188Y-38832250D01*
X180511687Y-38834711D01*
X180511683Y-38834713D01*
X180501594Y-38841804D01*
X180279977Y-38997559D01*
X180069378Y-39193260D01*
X179887287Y-39415732D01*
X179737073Y-39660858D01*
X179735347Y-39664791D01*
X179735346Y-39664792D01*
X179675901Y-39800211D01*
X179621517Y-39924102D01*
X179542756Y-40200594D01*
X179502249Y-40485216D01*
X179502227Y-40489505D01*
X179502226Y-40489512D01*
X179500765Y-40768417D01*
X179500743Y-40772703D01*
X146081888Y-40772703D01*
X146093498Y-40640000D01*
X146073543Y-40411913D01*
X146036981Y-40275461D01*
X146015707Y-40196067D01*
X146015706Y-40196065D01*
X146014284Y-40190757D01*
X145919966Y-39988489D01*
X145919849Y-39988238D01*
X145919846Y-39988233D01*
X145917523Y-39983251D01*
X145786198Y-39795700D01*
X145624300Y-39633802D01*
X145619789Y-39630643D01*
X145615576Y-39627108D01*
X145616527Y-39625974D01*
X145576529Y-39575929D01*
X145569224Y-39505310D01*
X145601258Y-39441951D01*
X145662462Y-39405970D01*
X145679517Y-39402918D01*
X145690316Y-39401745D01*
X145826705Y-39350615D01*
X145943261Y-39263261D01*
X146030615Y-39146705D01*
X146081745Y-39010316D01*
X146088500Y-38948134D01*
X146088500Y-37464000D01*
X146108502Y-37395879D01*
X146162158Y-37349386D01*
X146214500Y-37338000D01*
X181560672Y-37338000D01*
X181580057Y-37339500D01*
X181594858Y-37341805D01*
X181594861Y-37341805D01*
X181603730Y-37343186D01*
X181622411Y-37340743D01*
X181645342Y-37339852D01*
X181948557Y-37355743D01*
X181961665Y-37357120D01*
X182120299Y-37382245D01*
X182290002Y-37409123D01*
X182302902Y-37411865D01*
X182624000Y-37497903D01*
X182636536Y-37501977D01*
X182909358Y-37606703D01*
X182946876Y-37621105D01*
X182958924Y-37626469D01*
X183255120Y-37777388D01*
X183266536Y-37783979D01*
X183545334Y-37965033D01*
X183555992Y-37972776D01*
X183719863Y-38105475D01*
X183814344Y-38181984D01*
X183824145Y-38190810D01*
X184059190Y-38425855D01*
X184068015Y-38435655D01*
X184210787Y-38611964D01*
X184277221Y-38694004D01*
X184284967Y-38704666D01*
X184466018Y-38983459D01*
X184472612Y-38994880D01*
X184623531Y-39291076D01*
X184628895Y-39303124D01*
X184733616Y-39575929D01*
X184748021Y-39613456D01*
X184752097Y-39625999D01*
X184755232Y-39637699D01*
X184838135Y-39947098D01*
X184840877Y-39959998D01*
X184854928Y-40048715D01*
X184890862Y-40275592D01*
X184892879Y-40288329D01*
X184894257Y-40301443D01*
X184904823Y-40503049D01*
X184909764Y-40597330D01*
X184908436Y-40623312D01*
X184908195Y-40624856D01*
X184908195Y-40624860D01*
X184906814Y-40633730D01*
X184907978Y-40642632D01*
X184907978Y-40642635D01*
X184910936Y-40665251D01*
X184912000Y-40681589D01*
X184912000Y-139176000D01*
X184891998Y-139244121D01*
X184838342Y-139290614D01*
X184786000Y-139302000D01*
X109854000Y-139302000D01*
X109785879Y-139281998D01*
X109739386Y-139228342D01*
X109728000Y-139176000D01*
X109728000Y-135348134D01*
X132291500Y-135348134D01*
X132298255Y-135410316D01*
X132349385Y-135546705D01*
X132436739Y-135663261D01*
X132553295Y-135750615D01*
X132689684Y-135801745D01*
X132751866Y-135808500D01*
X133948134Y-135808500D01*
X134010316Y-135801745D01*
X134146705Y-135750615D01*
X134263261Y-135663261D01*
X134350615Y-135546705D01*
X134353767Y-135538296D01*
X134358077Y-135530425D01*
X134359741Y-135531336D01*
X134395663Y-135483510D01*
X134462224Y-135458807D01*
X134471009Y-135458500D01*
X148212888Y-135458500D01*
X148264136Y-135469393D01*
X148301676Y-135486107D01*
X148301679Y-135486108D01*
X148307712Y-135488794D01*
X148349340Y-135497642D01*
X148488056Y-135527128D01*
X148488061Y-135527128D01*
X148494513Y-135528500D01*
X148685487Y-135528500D01*
X148691939Y-135527128D01*
X148691944Y-135527128D01*
X148830660Y-135497642D01*
X148872288Y-135488794D01*
X148878321Y-135486108D01*
X148878324Y-135486107D01*
X148915864Y-135469393D01*
X148967112Y-135458500D01*
X160168991Y-135458500D01*
X160237112Y-135478502D01*
X160283605Y-135532158D01*
X160285903Y-135537694D01*
X160286232Y-135538296D01*
X160289385Y-135546705D01*
X160376739Y-135663261D01*
X160493295Y-135750615D01*
X160629684Y-135801745D01*
X160691866Y-135808500D01*
X161888134Y-135808500D01*
X161950316Y-135801745D01*
X162086705Y-135750615D01*
X162203261Y-135663261D01*
X162290615Y-135546705D01*
X162341745Y-135410316D01*
X162348500Y-135348134D01*
X162348500Y-134151866D01*
X162341745Y-134089684D01*
X162290615Y-133953295D01*
X162203261Y-133836739D01*
X162086705Y-133749385D01*
X161950316Y-133698255D01*
X161888134Y-133691500D01*
X160691866Y-133691500D01*
X160629684Y-133698255D01*
X160493295Y-133749385D01*
X160376739Y-133836739D01*
X160289385Y-133953295D01*
X160286233Y-133961703D01*
X160281923Y-133969575D01*
X160280259Y-133968664D01*
X160244337Y-134016490D01*
X160177776Y-134041193D01*
X160168991Y-134041500D01*
X149347721Y-134041500D01*
X149279600Y-134021498D01*
X149254085Y-133999810D01*
X149205675Y-133946045D01*
X149205674Y-133946044D01*
X149201253Y-133941134D01*
X149046752Y-133828882D01*
X149040724Y-133826198D01*
X149040722Y-133826197D01*
X148878319Y-133753891D01*
X148878318Y-133753891D01*
X148872288Y-133751206D01*
X148778888Y-133731353D01*
X148691944Y-133712872D01*
X148691939Y-133712872D01*
X148685487Y-133711500D01*
X148494513Y-133711500D01*
X148488061Y-133712872D01*
X148488056Y-133712872D01*
X148401112Y-133731353D01*
X148307712Y-133751206D01*
X148301682Y-133753891D01*
X148301681Y-133753891D01*
X148139278Y-133826197D01*
X148139276Y-133826198D01*
X148133248Y-133828882D01*
X147978747Y-133941134D01*
X147974326Y-133946044D01*
X147974325Y-133946045D01*
X147925915Y-133999810D01*
X147865469Y-134037050D01*
X147832279Y-134041500D01*
X134471009Y-134041500D01*
X134402888Y-134021498D01*
X134356395Y-133967842D01*
X134354097Y-133962306D01*
X134353767Y-133961703D01*
X134350615Y-133953295D01*
X134263261Y-133836739D01*
X134146705Y-133749385D01*
X134010316Y-133698255D01*
X133948134Y-133691500D01*
X132751866Y-133691500D01*
X132689684Y-133698255D01*
X132553295Y-133749385D01*
X132436739Y-133836739D01*
X132349385Y-133953295D01*
X132298255Y-134089684D01*
X132291500Y-134151866D01*
X132291500Y-135348134D01*
X109728000Y-135348134D01*
X109728000Y-131146695D01*
X128227251Y-131146695D01*
X128227548Y-131151848D01*
X128227548Y-131151851D01*
X128235948Y-131297540D01*
X128240110Y-131369715D01*
X128241247Y-131374761D01*
X128241248Y-131374767D01*
X128265304Y-131481508D01*
X128289222Y-131587639D01*
X128373266Y-131794616D01*
X128375965Y-131799020D01*
X128475936Y-131962158D01*
X128489987Y-131985088D01*
X128636250Y-132153938D01*
X128808126Y-132296632D01*
X129001000Y-132409338D01*
X129209692Y-132489030D01*
X129214760Y-132490061D01*
X129214763Y-132490062D01*
X129322017Y-132511883D01*
X129428597Y-132533567D01*
X129433772Y-132533757D01*
X129433774Y-132533757D01*
X129646673Y-132541564D01*
X129646677Y-132541564D01*
X129651837Y-132541753D01*
X129656957Y-132541097D01*
X129656959Y-132541097D01*
X129868288Y-132514025D01*
X129868289Y-132514025D01*
X129873416Y-132513368D01*
X129878366Y-132511883D01*
X130082429Y-132450661D01*
X130082434Y-132450659D01*
X130087384Y-132449174D01*
X130287994Y-132350896D01*
X130469860Y-132221173D01*
X130628096Y-132063489D01*
X130716132Y-131940974D01*
X130772127Y-131897326D01*
X130818455Y-131888500D01*
X132165500Y-131888500D01*
X132233621Y-131908502D01*
X132280114Y-131962158D01*
X132291500Y-132014500D01*
X132291500Y-132548134D01*
X132298255Y-132610316D01*
X132349385Y-132746705D01*
X132436739Y-132863261D01*
X132553295Y-132950615D01*
X132689684Y-133001745D01*
X132751866Y-133008500D01*
X133948134Y-133008500D01*
X134010316Y-133001745D01*
X134146705Y-132950615D01*
X134263261Y-132863261D01*
X134350615Y-132746705D01*
X134401745Y-132610316D01*
X134408500Y-132548134D01*
X134408500Y-131351866D01*
X134401745Y-131289684D01*
X134350615Y-131153295D01*
X134345669Y-131146695D01*
X156747251Y-131146695D01*
X156747548Y-131151848D01*
X156747548Y-131151851D01*
X156755948Y-131297540D01*
X156760110Y-131369715D01*
X156761247Y-131374761D01*
X156761248Y-131374767D01*
X156785304Y-131481508D01*
X156809222Y-131587639D01*
X156893266Y-131794616D01*
X156895965Y-131799020D01*
X156995936Y-131962158D01*
X157009987Y-131985088D01*
X157156250Y-132153938D01*
X157328126Y-132296632D01*
X157521000Y-132409338D01*
X157729692Y-132489030D01*
X157734760Y-132490061D01*
X157734763Y-132490062D01*
X157842017Y-132511883D01*
X157948597Y-132533567D01*
X157953772Y-132533757D01*
X157953774Y-132533757D01*
X158166673Y-132541564D01*
X158166677Y-132541564D01*
X158171837Y-132541753D01*
X158176957Y-132541097D01*
X158176959Y-132541097D01*
X158388288Y-132514025D01*
X158388289Y-132514025D01*
X158393416Y-132513368D01*
X158398366Y-132511883D01*
X158602429Y-132450661D01*
X158602434Y-132450659D01*
X158607384Y-132449174D01*
X158807994Y-132350896D01*
X158989860Y-132221173D01*
X159148096Y-132063489D01*
X159236132Y-131940974D01*
X159292127Y-131897326D01*
X159338455Y-131888500D01*
X160105500Y-131888500D01*
X160173621Y-131908502D01*
X160220114Y-131962158D01*
X160231500Y-132014500D01*
X160231500Y-132548134D01*
X160238255Y-132610316D01*
X160289385Y-132746705D01*
X160376739Y-132863261D01*
X160493295Y-132950615D01*
X160629684Y-133001745D01*
X160691866Y-133008500D01*
X161888134Y-133008500D01*
X161950316Y-133001745D01*
X162086705Y-132950615D01*
X162203261Y-132863261D01*
X162290615Y-132746705D01*
X162341745Y-132610316D01*
X162348500Y-132548134D01*
X162348500Y-131351866D01*
X162341745Y-131289684D01*
X162290615Y-131153295D01*
X162203261Y-131036739D01*
X162086705Y-130949385D01*
X161950316Y-130898255D01*
X161888134Y-130891500D01*
X161285660Y-130891500D01*
X161217539Y-130871498D01*
X161196565Y-130854595D01*
X161041450Y-130699480D01*
X161035596Y-130693215D01*
X161003682Y-130656632D01*
X160997561Y-130649615D01*
X160945280Y-130612871D01*
X160939986Y-130608939D01*
X160895693Y-130574209D01*
X160889718Y-130569524D01*
X160882802Y-130566401D01*
X160880516Y-130565017D01*
X160865835Y-130556643D01*
X160863475Y-130555378D01*
X160857261Y-130551010D01*
X160850182Y-130548250D01*
X160850180Y-130548249D01*
X160797725Y-130527798D01*
X160791656Y-130525247D01*
X160733427Y-130498955D01*
X160725960Y-130497571D01*
X160723405Y-130496770D01*
X160707152Y-130492141D01*
X160704572Y-130491478D01*
X160697491Y-130488718D01*
X160689960Y-130487727D01*
X160689958Y-130487726D01*
X160660339Y-130483827D01*
X160634139Y-130480378D01*
X160627641Y-130479348D01*
X160564814Y-130467704D01*
X160557234Y-130468141D01*
X160557233Y-130468141D01*
X160502608Y-130471291D01*
X160495354Y-130471500D01*
X159338286Y-130471500D01*
X159270165Y-130451498D01*
X159232494Y-130413941D01*
X159192818Y-130352612D01*
X159190014Y-130348277D01*
X159039670Y-130183051D01*
X159035619Y-130179852D01*
X159035615Y-130179848D01*
X158868414Y-130047800D01*
X158868410Y-130047798D01*
X158864359Y-130044598D01*
X158859311Y-130041811D01*
X158812136Y-130015769D01*
X158668789Y-129936638D01*
X158663920Y-129934914D01*
X158663916Y-129934912D01*
X158463087Y-129863795D01*
X158463083Y-129863794D01*
X158458212Y-129862069D01*
X158453119Y-129861162D01*
X158453116Y-129861161D01*
X158243373Y-129823800D01*
X158243367Y-129823799D01*
X158238284Y-129822894D01*
X158164452Y-129821992D01*
X158020081Y-129820228D01*
X158020079Y-129820228D01*
X158014911Y-129820165D01*
X157794091Y-129853955D01*
X157581756Y-129923357D01*
X157383607Y-130026507D01*
X157379474Y-130029610D01*
X157379471Y-130029612D01*
X157209100Y-130157530D01*
X157204965Y-130160635D01*
X157201393Y-130164373D01*
X157123124Y-130246277D01*
X157050629Y-130322138D01*
X157047715Y-130326410D01*
X157047714Y-130326411D01*
X157032798Y-130348277D01*
X156924743Y-130506680D01*
X156904166Y-130551010D01*
X156835249Y-130699480D01*
X156830688Y-130709305D01*
X156770989Y-130924570D01*
X156747251Y-131146695D01*
X134345669Y-131146695D01*
X134263261Y-131036739D01*
X134146705Y-130949385D01*
X134010316Y-130898255D01*
X133948134Y-130891500D01*
X133345660Y-130891500D01*
X133277539Y-130871498D01*
X133256565Y-130854595D01*
X133101450Y-130699480D01*
X133095596Y-130693215D01*
X133063682Y-130656632D01*
X133057561Y-130649615D01*
X133005280Y-130612871D01*
X132999986Y-130608939D01*
X132955693Y-130574209D01*
X132949718Y-130569524D01*
X132942802Y-130566401D01*
X132940516Y-130565017D01*
X132925835Y-130556643D01*
X132923475Y-130555378D01*
X132917261Y-130551010D01*
X132910182Y-130548250D01*
X132910180Y-130548249D01*
X132857725Y-130527798D01*
X132851656Y-130525247D01*
X132793427Y-130498955D01*
X132785960Y-130497571D01*
X132783405Y-130496770D01*
X132767152Y-130492141D01*
X132764572Y-130491478D01*
X132757491Y-130488718D01*
X132749960Y-130487727D01*
X132749958Y-130487726D01*
X132720339Y-130483827D01*
X132694139Y-130480378D01*
X132687641Y-130479348D01*
X132624814Y-130467704D01*
X132617234Y-130468141D01*
X132617233Y-130468141D01*
X132562608Y-130471291D01*
X132555354Y-130471500D01*
X130818286Y-130471500D01*
X130750165Y-130451498D01*
X130712494Y-130413941D01*
X130672818Y-130352612D01*
X130670014Y-130348277D01*
X130519670Y-130183051D01*
X130515619Y-130179852D01*
X130515615Y-130179848D01*
X130348414Y-130047800D01*
X130348410Y-130047798D01*
X130344359Y-130044598D01*
X130339311Y-130041811D01*
X130292136Y-130015769D01*
X130148789Y-129936638D01*
X130143920Y-129934914D01*
X130143916Y-129934912D01*
X129943087Y-129863795D01*
X129943083Y-129863794D01*
X129938212Y-129862069D01*
X129933119Y-129861162D01*
X129933116Y-129861161D01*
X129723373Y-129823800D01*
X129723367Y-129823799D01*
X129718284Y-129822894D01*
X129644452Y-129821992D01*
X129500081Y-129820228D01*
X129500079Y-129820228D01*
X129494911Y-129820165D01*
X129274091Y-129853955D01*
X129061756Y-129923357D01*
X128863607Y-130026507D01*
X128859474Y-130029610D01*
X128859471Y-130029612D01*
X128689100Y-130157530D01*
X128684965Y-130160635D01*
X128681393Y-130164373D01*
X128603124Y-130246277D01*
X128530629Y-130322138D01*
X128527715Y-130326410D01*
X128527714Y-130326411D01*
X128512798Y-130348277D01*
X128404743Y-130506680D01*
X128384166Y-130551010D01*
X128315249Y-130699480D01*
X128310688Y-130709305D01*
X128250989Y-130924570D01*
X128227251Y-131146695D01*
X109728000Y-131146695D01*
X109728000Y-129506695D01*
X125217251Y-129506695D01*
X125217548Y-129511848D01*
X125217548Y-129511851D01*
X125223011Y-129606590D01*
X125230110Y-129729715D01*
X125231247Y-129734761D01*
X125231248Y-129734767D01*
X125251095Y-129822831D01*
X125279222Y-129947639D01*
X125363266Y-130154616D01*
X125479987Y-130345088D01*
X125483367Y-130348990D01*
X125494352Y-130361671D01*
X125626250Y-130513938D01*
X125798126Y-130656632D01*
X125991000Y-130769338D01*
X126199692Y-130849030D01*
X126204760Y-130850061D01*
X126204763Y-130850062D01*
X126310125Y-130871498D01*
X126418597Y-130893567D01*
X126423772Y-130893757D01*
X126423774Y-130893757D01*
X126636673Y-130901564D01*
X126636677Y-130901564D01*
X126641837Y-130901753D01*
X126646957Y-130901097D01*
X126646959Y-130901097D01*
X126858288Y-130874025D01*
X126858289Y-130874025D01*
X126863416Y-130873368D01*
X126869649Y-130871498D01*
X127072429Y-130810661D01*
X127072434Y-130810659D01*
X127077384Y-130809174D01*
X127277994Y-130710896D01*
X127459860Y-130581173D01*
X127466849Y-130574209D01*
X127614435Y-130427137D01*
X127618096Y-130423489D01*
X127677594Y-130340689D01*
X127745435Y-130246277D01*
X127748453Y-130242077D01*
X127777626Y-130183051D01*
X127845136Y-130046453D01*
X127845137Y-130046451D01*
X127847430Y-130041811D01*
X127912370Y-129828069D01*
X127941529Y-129606590D01*
X127943156Y-129540000D01*
X127940418Y-129506695D01*
X153757251Y-129506695D01*
X153757548Y-129511848D01*
X153757548Y-129511851D01*
X153763011Y-129606590D01*
X153770110Y-129729715D01*
X153771247Y-129734761D01*
X153771248Y-129734767D01*
X153791095Y-129822831D01*
X153819222Y-129947639D01*
X153903266Y-130154616D01*
X154019987Y-130345088D01*
X154023367Y-130348990D01*
X154034352Y-130361671D01*
X154166250Y-130513938D01*
X154338126Y-130656632D01*
X154531000Y-130769338D01*
X154739692Y-130849030D01*
X154744760Y-130850061D01*
X154744763Y-130850062D01*
X154850125Y-130871498D01*
X154958597Y-130893567D01*
X154963772Y-130893757D01*
X154963774Y-130893757D01*
X155176673Y-130901564D01*
X155176677Y-130901564D01*
X155181837Y-130901753D01*
X155186957Y-130901097D01*
X155186959Y-130901097D01*
X155398288Y-130874025D01*
X155398289Y-130874025D01*
X155403416Y-130873368D01*
X155409649Y-130871498D01*
X155612429Y-130810661D01*
X155612434Y-130810659D01*
X155617384Y-130809174D01*
X155817994Y-130710896D01*
X155999860Y-130581173D01*
X156006849Y-130574209D01*
X156154435Y-130427137D01*
X156158096Y-130423489D01*
X156217594Y-130340689D01*
X156285435Y-130246277D01*
X156288453Y-130242077D01*
X156317626Y-130183051D01*
X156385136Y-130046453D01*
X156385137Y-130046451D01*
X156387430Y-130041811D01*
X156452370Y-129828069D01*
X156481529Y-129606590D01*
X156483156Y-129540000D01*
X156464852Y-129317361D01*
X156410431Y-129100702D01*
X156321354Y-128895840D01*
X156200014Y-128708277D01*
X156049670Y-128543051D01*
X156045619Y-128539852D01*
X156045615Y-128539848D01*
X155878414Y-128407800D01*
X155878410Y-128407798D01*
X155874359Y-128404598D01*
X155678789Y-128296638D01*
X155673920Y-128294914D01*
X155673916Y-128294912D01*
X155473087Y-128223795D01*
X155473083Y-128223794D01*
X155468212Y-128222069D01*
X155463119Y-128221162D01*
X155463116Y-128221161D01*
X155253373Y-128183800D01*
X155253367Y-128183799D01*
X155248284Y-128182894D01*
X155174452Y-128181992D01*
X155030081Y-128180228D01*
X155030079Y-128180228D01*
X155024911Y-128180165D01*
X154804091Y-128213955D01*
X154591756Y-128283357D01*
X154393607Y-128386507D01*
X154389474Y-128389610D01*
X154389471Y-128389612D01*
X154365247Y-128407800D01*
X154214965Y-128520635D01*
X154060629Y-128682138D01*
X153934743Y-128866680D01*
X153840688Y-129069305D01*
X153780989Y-129284570D01*
X153757251Y-129506695D01*
X127940418Y-129506695D01*
X127924852Y-129317361D01*
X127870431Y-129100702D01*
X127781354Y-128895840D01*
X127660014Y-128708277D01*
X127509670Y-128543051D01*
X127505619Y-128539852D01*
X127505615Y-128539848D01*
X127338414Y-128407800D01*
X127338410Y-128407798D01*
X127334359Y-128404598D01*
X127138789Y-128296638D01*
X127133920Y-128294914D01*
X127133916Y-128294912D01*
X126933087Y-128223795D01*
X126933083Y-128223794D01*
X126928212Y-128222069D01*
X126923119Y-128221162D01*
X126923116Y-128221161D01*
X126713373Y-128183800D01*
X126713367Y-128183799D01*
X126708284Y-128182894D01*
X126634452Y-128181992D01*
X126490081Y-128180228D01*
X126490079Y-128180228D01*
X126484911Y-128180165D01*
X126264091Y-128213955D01*
X126051756Y-128283357D01*
X125853607Y-128386507D01*
X125849474Y-128389610D01*
X125849471Y-128389612D01*
X125825247Y-128407800D01*
X125674965Y-128520635D01*
X125520629Y-128682138D01*
X125394743Y-128866680D01*
X125300688Y-129069305D01*
X125240989Y-129284570D01*
X125217251Y-129506695D01*
X109728000Y-129506695D01*
X109728000Y-117568134D01*
X122131500Y-117568134D01*
X122138255Y-117630316D01*
X122189385Y-117766705D01*
X122276739Y-117883261D01*
X122393295Y-117970615D01*
X122529684Y-118021745D01*
X122591866Y-118028500D01*
X123788134Y-118028500D01*
X123850316Y-118021745D01*
X123986705Y-117970615D01*
X124103261Y-117883261D01*
X124190615Y-117766705D01*
X124193767Y-117758296D01*
X124198077Y-117750425D01*
X124199741Y-117751336D01*
X124235663Y-117703510D01*
X124302224Y-117678807D01*
X124311009Y-117678500D01*
X141118991Y-117678500D01*
X141187112Y-117698502D01*
X141233605Y-117752158D01*
X141235903Y-117757694D01*
X141236232Y-117758296D01*
X141239385Y-117766705D01*
X141326739Y-117883261D01*
X141443295Y-117970615D01*
X141579684Y-118021745D01*
X141641866Y-118028500D01*
X142838134Y-118028500D01*
X142900316Y-118021745D01*
X143036705Y-117970615D01*
X143153261Y-117883261D01*
X143240615Y-117766705D01*
X143243767Y-117758296D01*
X143248077Y-117750425D01*
X143249741Y-117751336D01*
X143285663Y-117703510D01*
X143352224Y-117678807D01*
X143361009Y-117678500D01*
X149482888Y-117678500D01*
X149534136Y-117689393D01*
X149571676Y-117706107D01*
X149571679Y-117706108D01*
X149577712Y-117708794D01*
X149608814Y-117715405D01*
X149758056Y-117747128D01*
X149758061Y-117747128D01*
X149764513Y-117748500D01*
X149955487Y-117748500D01*
X149961939Y-117747128D01*
X149961944Y-117747128D01*
X150111186Y-117715405D01*
X150142288Y-117708794D01*
X150148321Y-117706108D01*
X150148324Y-117706107D01*
X150185864Y-117689393D01*
X150237112Y-117678500D01*
X158898991Y-117678500D01*
X158967112Y-117698502D01*
X159013605Y-117752158D01*
X159015903Y-117757694D01*
X159016232Y-117758296D01*
X159019385Y-117766705D01*
X159106739Y-117883261D01*
X159223295Y-117970615D01*
X159359684Y-118021745D01*
X159421866Y-118028500D01*
X160618134Y-118028500D01*
X160680316Y-118021745D01*
X160816705Y-117970615D01*
X160933261Y-117883261D01*
X161020615Y-117766705D01*
X161023767Y-117758296D01*
X161028077Y-117750425D01*
X161029741Y-117751336D01*
X161065663Y-117703510D01*
X161132224Y-117678807D01*
X161141009Y-117678500D01*
X162344340Y-117678500D01*
X162412461Y-117698502D01*
X162433435Y-117715405D01*
X171058550Y-126340520D01*
X171064404Y-126346785D01*
X171102439Y-126390385D01*
X171108657Y-126394755D01*
X171154697Y-126427112D01*
X171159993Y-126431045D01*
X171210282Y-126470477D01*
X171217204Y-126473602D01*
X171219452Y-126474964D01*
X171234185Y-126483368D01*
X171236524Y-126484622D01*
X171242739Y-126488990D01*
X171249815Y-126491749D01*
X171249819Y-126491751D01*
X171302274Y-126512202D01*
X171308352Y-126514757D01*
X171366574Y-126541045D01*
X171374045Y-126542429D01*
X171376599Y-126543230D01*
X171392878Y-126547867D01*
X171395433Y-126548523D01*
X171402509Y-126551282D01*
X171430962Y-126555028D01*
X171465851Y-126559621D01*
X171472367Y-126560653D01*
X171514706Y-126568500D01*
X171535187Y-126572296D01*
X171542767Y-126571859D01*
X171542768Y-126571859D01*
X171597398Y-126568709D01*
X171604651Y-126568500D01*
X179218991Y-126568500D01*
X179287112Y-126588502D01*
X179333605Y-126642158D01*
X179335903Y-126647694D01*
X179336232Y-126648296D01*
X179339385Y-126656705D01*
X179426739Y-126773261D01*
X179543295Y-126860615D01*
X179679684Y-126911745D01*
X179741866Y-126918500D01*
X180938134Y-126918500D01*
X181000316Y-126911745D01*
X181136705Y-126860615D01*
X181253261Y-126773261D01*
X181340615Y-126656705D01*
X181391745Y-126520316D01*
X181398500Y-126458134D01*
X181398500Y-125261866D01*
X181391745Y-125199684D01*
X181340615Y-125063295D01*
X181253261Y-124946739D01*
X181136705Y-124859385D01*
X181000316Y-124808255D01*
X180938134Y-124801500D01*
X179741866Y-124801500D01*
X179679684Y-124808255D01*
X179543295Y-124859385D01*
X179426739Y-124946739D01*
X179339385Y-125063295D01*
X179336233Y-125071703D01*
X179331923Y-125079575D01*
X179330259Y-125078664D01*
X179294337Y-125126490D01*
X179227776Y-125151193D01*
X179218991Y-125151500D01*
X171925661Y-125151500D01*
X171857540Y-125131498D01*
X171836566Y-125114595D01*
X168348665Y-121626695D01*
X175647251Y-121626695D01*
X175660110Y-121849715D01*
X175661247Y-121854761D01*
X175661248Y-121854767D01*
X175685304Y-121961508D01*
X175709222Y-122067639D01*
X175793266Y-122274616D01*
X175795965Y-122279020D01*
X175869908Y-122399684D01*
X175909987Y-122465088D01*
X176056250Y-122633938D01*
X176228126Y-122776632D01*
X176421000Y-122889338D01*
X176629692Y-122969030D01*
X176634760Y-122970061D01*
X176634763Y-122970062D01*
X176742017Y-122991883D01*
X176848597Y-123013567D01*
X176853772Y-123013757D01*
X176853774Y-123013757D01*
X177066673Y-123021564D01*
X177066677Y-123021564D01*
X177071837Y-123021753D01*
X177076957Y-123021097D01*
X177076959Y-123021097D01*
X177288288Y-122994025D01*
X177288289Y-122994025D01*
X177293416Y-122993368D01*
X177298366Y-122991883D01*
X177502429Y-122930661D01*
X177502434Y-122930659D01*
X177507384Y-122929174D01*
X177707994Y-122830896D01*
X177889860Y-122701173D01*
X178048096Y-122543489D01*
X178136132Y-122420974D01*
X178192127Y-122377326D01*
X178238455Y-122368500D01*
X178594340Y-122368500D01*
X178662461Y-122388502D01*
X178683435Y-122405405D01*
X179244595Y-122966565D01*
X179278621Y-123028877D01*
X179281500Y-123055660D01*
X179281500Y-123658134D01*
X179288255Y-123720316D01*
X179339385Y-123856705D01*
X179426739Y-123973261D01*
X179543295Y-124060615D01*
X179679684Y-124111745D01*
X179741866Y-124118500D01*
X180938134Y-124118500D01*
X181000316Y-124111745D01*
X181136705Y-124060615D01*
X181253261Y-123973261D01*
X181340615Y-123856705D01*
X181391745Y-123720316D01*
X181398500Y-123658134D01*
X181398500Y-122461866D01*
X181391745Y-122399684D01*
X181340615Y-122263295D01*
X181253261Y-122146739D01*
X181136705Y-122059385D01*
X181000316Y-122008255D01*
X180938134Y-122001500D01*
X180335660Y-122001500D01*
X180267539Y-121981498D01*
X180246565Y-121964595D01*
X179461450Y-121179480D01*
X179455596Y-121173215D01*
X179427197Y-121140661D01*
X179417561Y-121129615D01*
X179365280Y-121092871D01*
X179359986Y-121088939D01*
X179315693Y-121054209D01*
X179309718Y-121049524D01*
X179302802Y-121046401D01*
X179300516Y-121045017D01*
X179285835Y-121036643D01*
X179283475Y-121035378D01*
X179277261Y-121031010D01*
X179270182Y-121028250D01*
X179270180Y-121028249D01*
X179217725Y-121007798D01*
X179211656Y-121005247D01*
X179153427Y-120978955D01*
X179145960Y-120977571D01*
X179143405Y-120976770D01*
X179127152Y-120972141D01*
X179124572Y-120971478D01*
X179117491Y-120968718D01*
X179109960Y-120967727D01*
X179109958Y-120967726D01*
X179080339Y-120963827D01*
X179054139Y-120960378D01*
X179047641Y-120959348D01*
X178984814Y-120947704D01*
X178977234Y-120948141D01*
X178977233Y-120948141D01*
X178922608Y-120951291D01*
X178915354Y-120951500D01*
X178238286Y-120951500D01*
X178170165Y-120931498D01*
X178132494Y-120893941D01*
X178090014Y-120828277D01*
X177939670Y-120663051D01*
X177935619Y-120659852D01*
X177935615Y-120659848D01*
X177768414Y-120527800D01*
X177768410Y-120527798D01*
X177764359Y-120524598D01*
X177568789Y-120416638D01*
X177563920Y-120414914D01*
X177563916Y-120414912D01*
X177363087Y-120343795D01*
X177363083Y-120343794D01*
X177358212Y-120342069D01*
X177353119Y-120341162D01*
X177353116Y-120341161D01*
X177143373Y-120303800D01*
X177143367Y-120303799D01*
X177138284Y-120302894D01*
X177064452Y-120301992D01*
X176920081Y-120300228D01*
X176920079Y-120300228D01*
X176914911Y-120300165D01*
X176694091Y-120333955D01*
X176481756Y-120403357D01*
X176283607Y-120506507D01*
X176279474Y-120509610D01*
X176279471Y-120509612D01*
X176109100Y-120637530D01*
X176104965Y-120640635D01*
X175950629Y-120802138D01*
X175947715Y-120806410D01*
X175947714Y-120806411D01*
X175888005Y-120893941D01*
X175824743Y-120986680D01*
X175804166Y-121031010D01*
X175735249Y-121179480D01*
X175730688Y-121189305D01*
X175670989Y-121404570D01*
X175647251Y-121626695D01*
X168348665Y-121626695D01*
X166558665Y-119836695D01*
X172797251Y-119836695D01*
X172797548Y-119841848D01*
X172797548Y-119841851D01*
X172803011Y-119936590D01*
X172810110Y-120059715D01*
X172811247Y-120064761D01*
X172811248Y-120064767D01*
X172831119Y-120152939D01*
X172859222Y-120277639D01*
X172943266Y-120484616D01*
X172945965Y-120489020D01*
X173052611Y-120663051D01*
X173059987Y-120675088D01*
X173206250Y-120843938D01*
X173378126Y-120986632D01*
X173571000Y-121099338D01*
X173779692Y-121179030D01*
X173784760Y-121180061D01*
X173784763Y-121180062D01*
X173854731Y-121194297D01*
X173998597Y-121223567D01*
X174003772Y-121223757D01*
X174003774Y-121223757D01*
X174216673Y-121231564D01*
X174216677Y-121231564D01*
X174221837Y-121231753D01*
X174226957Y-121231097D01*
X174226959Y-121231097D01*
X174438288Y-121204025D01*
X174438289Y-121204025D01*
X174443416Y-121203368D01*
X174473651Y-121194297D01*
X174652429Y-121140661D01*
X174652434Y-121140659D01*
X174657384Y-121139174D01*
X174857994Y-121040896D01*
X175039860Y-120911173D01*
X175057153Y-120893941D01*
X175194435Y-120757137D01*
X175198096Y-120753489D01*
X175257594Y-120670689D01*
X175325435Y-120576277D01*
X175328453Y-120572077D01*
X175351919Y-120524598D01*
X175425136Y-120376453D01*
X175425137Y-120376451D01*
X175427430Y-120371811D01*
X175492370Y-120158069D01*
X175521529Y-119936590D01*
X175523156Y-119870000D01*
X175504852Y-119647361D01*
X175450431Y-119430702D01*
X175361354Y-119225840D01*
X175240014Y-119038277D01*
X175089670Y-118873051D01*
X175085619Y-118869852D01*
X175085615Y-118869848D01*
X174918414Y-118737800D01*
X174918410Y-118737798D01*
X174914359Y-118734598D01*
X174718789Y-118626638D01*
X174713920Y-118624914D01*
X174713916Y-118624912D01*
X174513087Y-118553795D01*
X174513083Y-118553794D01*
X174508212Y-118552069D01*
X174503119Y-118551162D01*
X174503116Y-118551161D01*
X174293373Y-118513800D01*
X174293367Y-118513799D01*
X174288284Y-118512894D01*
X174214452Y-118511992D01*
X174070081Y-118510228D01*
X174070079Y-118510228D01*
X174064911Y-118510165D01*
X173844091Y-118543955D01*
X173631756Y-118613357D01*
X173433607Y-118716507D01*
X173429474Y-118719610D01*
X173429471Y-118719612D01*
X173405247Y-118737800D01*
X173254965Y-118850635D01*
X173100629Y-119012138D01*
X172974743Y-119196680D01*
X172880688Y-119399305D01*
X172820989Y-119614570D01*
X172797251Y-119836695D01*
X166558665Y-119836695D01*
X163211450Y-116489480D01*
X163205596Y-116483215D01*
X163205201Y-116482762D01*
X163167561Y-116439615D01*
X163115280Y-116402871D01*
X163109986Y-116398939D01*
X163065693Y-116364209D01*
X163059718Y-116359524D01*
X163052802Y-116356401D01*
X163050516Y-116355017D01*
X163035835Y-116346643D01*
X163033475Y-116345378D01*
X163027261Y-116341010D01*
X163020182Y-116338250D01*
X163020180Y-116338249D01*
X162967725Y-116317798D01*
X162961656Y-116315247D01*
X162903427Y-116288955D01*
X162895960Y-116287571D01*
X162893405Y-116286770D01*
X162877152Y-116282141D01*
X162874572Y-116281478D01*
X162867491Y-116278718D01*
X162859960Y-116277727D01*
X162859958Y-116277726D01*
X162830339Y-116273827D01*
X162804139Y-116270378D01*
X162797641Y-116269348D01*
X162734814Y-116257704D01*
X162727234Y-116258141D01*
X162727233Y-116258141D01*
X162672608Y-116261291D01*
X162665354Y-116261500D01*
X161141009Y-116261500D01*
X161072888Y-116241498D01*
X161026395Y-116187842D01*
X161024097Y-116182306D01*
X161023767Y-116181703D01*
X161020615Y-116173295D01*
X160933261Y-116056739D01*
X160816705Y-115969385D01*
X160680316Y-115918255D01*
X160618134Y-115911500D01*
X159421866Y-115911500D01*
X159359684Y-115918255D01*
X159223295Y-115969385D01*
X159106739Y-116056739D01*
X159019385Y-116173295D01*
X159016233Y-116181703D01*
X159011923Y-116189575D01*
X159010259Y-116188664D01*
X158974337Y-116236490D01*
X158907776Y-116261193D01*
X158898991Y-116261500D01*
X150617721Y-116261500D01*
X150549600Y-116241498D01*
X150524085Y-116219810D01*
X150475675Y-116166045D01*
X150475674Y-116166044D01*
X150471253Y-116161134D01*
X150316752Y-116048882D01*
X150310724Y-116046198D01*
X150310722Y-116046197D01*
X150148319Y-115973891D01*
X150148318Y-115973891D01*
X150142288Y-115971206D01*
X150048888Y-115951353D01*
X149961944Y-115932872D01*
X149961939Y-115932872D01*
X149955487Y-115931500D01*
X149764513Y-115931500D01*
X149758061Y-115932872D01*
X149758056Y-115932872D01*
X149671112Y-115951353D01*
X149577712Y-115971206D01*
X149571682Y-115973891D01*
X149571681Y-115973891D01*
X149409278Y-116046197D01*
X149409276Y-116046198D01*
X149403248Y-116048882D01*
X149248747Y-116161134D01*
X149244326Y-116166044D01*
X149244325Y-116166045D01*
X149195915Y-116219810D01*
X149135469Y-116257050D01*
X149102279Y-116261500D01*
X143361009Y-116261500D01*
X143292888Y-116241498D01*
X143246395Y-116187842D01*
X143244097Y-116182306D01*
X143243767Y-116181703D01*
X143240615Y-116173295D01*
X143153261Y-116056739D01*
X143036705Y-115969385D01*
X142900316Y-115918255D01*
X142838134Y-115911500D01*
X141641866Y-115911500D01*
X141579684Y-115918255D01*
X141443295Y-115969385D01*
X141326739Y-116056739D01*
X141239385Y-116173295D01*
X141236233Y-116181703D01*
X141231923Y-116189575D01*
X141230259Y-116188664D01*
X141194337Y-116236490D01*
X141127776Y-116261193D01*
X141118991Y-116261500D01*
X124311009Y-116261500D01*
X124242888Y-116241498D01*
X124196395Y-116187842D01*
X124194097Y-116182306D01*
X124193767Y-116181703D01*
X124190615Y-116173295D01*
X124103261Y-116056739D01*
X123986705Y-115969385D01*
X123850316Y-115918255D01*
X123788134Y-115911500D01*
X122591866Y-115911500D01*
X122529684Y-115918255D01*
X122393295Y-115969385D01*
X122276739Y-116056739D01*
X122189385Y-116173295D01*
X122138255Y-116309684D01*
X122131500Y-116371866D01*
X122131500Y-117568134D01*
X109728000Y-117568134D01*
X109728000Y-112056695D01*
X118837251Y-112056695D01*
X118837548Y-112061848D01*
X118837548Y-112061851D01*
X118843011Y-112156590D01*
X118850110Y-112279715D01*
X118851247Y-112284761D01*
X118851248Y-112284767D01*
X118871119Y-112372939D01*
X118899222Y-112497639D01*
X118983266Y-112704616D01*
X119099987Y-112895088D01*
X119246250Y-113063938D01*
X119418126Y-113206632D01*
X119611000Y-113319338D01*
X119819692Y-113399030D01*
X119824760Y-113400061D01*
X119824763Y-113400062D01*
X119932017Y-113421883D01*
X120038597Y-113443567D01*
X120043772Y-113443757D01*
X120043774Y-113443757D01*
X120256673Y-113451564D01*
X120256677Y-113451564D01*
X120261837Y-113451753D01*
X120266957Y-113451097D01*
X120266959Y-113451097D01*
X120478288Y-113424025D01*
X120478289Y-113424025D01*
X120483416Y-113423368D01*
X120488366Y-113421883D01*
X120692429Y-113360661D01*
X120692434Y-113360659D01*
X120697384Y-113359174D01*
X120897994Y-113260896D01*
X121033498Y-113164243D01*
X121100568Y-113140971D01*
X121169576Y-113157654D01*
X121195754Y-113177724D01*
X122094597Y-114076568D01*
X122128621Y-114138878D01*
X122131500Y-114165660D01*
X122131500Y-114768134D01*
X122138255Y-114830316D01*
X122189385Y-114966705D01*
X122276739Y-115083261D01*
X122393295Y-115170615D01*
X122529684Y-115221745D01*
X122591866Y-115228500D01*
X123788134Y-115228500D01*
X123850316Y-115221745D01*
X123986705Y-115170615D01*
X124103261Y-115083261D01*
X124190615Y-114966705D01*
X124241745Y-114830316D01*
X124248500Y-114768134D01*
X124248500Y-113571866D01*
X124241745Y-113509684D01*
X124190615Y-113373295D01*
X124103261Y-113256739D01*
X123986705Y-113169385D01*
X123850316Y-113118255D01*
X123788134Y-113111500D01*
X123185660Y-113111500D01*
X123117539Y-113091498D01*
X123096565Y-113074595D01*
X122078665Y-112056695D01*
X137847251Y-112056695D01*
X137847548Y-112061848D01*
X137847548Y-112061851D01*
X137853011Y-112156590D01*
X137860110Y-112279715D01*
X137861247Y-112284761D01*
X137861248Y-112284767D01*
X137881119Y-112372939D01*
X137909222Y-112497639D01*
X137993266Y-112704616D01*
X138109987Y-112895088D01*
X138256250Y-113063938D01*
X138428126Y-113206632D01*
X138621000Y-113319338D01*
X138829692Y-113399030D01*
X138834760Y-113400061D01*
X138834763Y-113400062D01*
X138942017Y-113421883D01*
X139048597Y-113443567D01*
X139053772Y-113443757D01*
X139053774Y-113443757D01*
X139266673Y-113451564D01*
X139266677Y-113451564D01*
X139271837Y-113451753D01*
X139276957Y-113451097D01*
X139276959Y-113451097D01*
X139488288Y-113424025D01*
X139488289Y-113424025D01*
X139493416Y-113423368D01*
X139498366Y-113421883D01*
X139702429Y-113360661D01*
X139702434Y-113360659D01*
X139707384Y-113359174D01*
X139907994Y-113260896D01*
X139912199Y-113257896D01*
X139912205Y-113257893D01*
X140024592Y-113177728D01*
X140066843Y-113147591D01*
X140133915Y-113124318D01*
X140202923Y-113141001D01*
X140229101Y-113161071D01*
X141144597Y-114076568D01*
X141178621Y-114138878D01*
X141181500Y-114165660D01*
X141181500Y-114768134D01*
X141188255Y-114830316D01*
X141239385Y-114966705D01*
X141326739Y-115083261D01*
X141443295Y-115170615D01*
X141579684Y-115221745D01*
X141641866Y-115228500D01*
X142838134Y-115228500D01*
X142900316Y-115221745D01*
X143036705Y-115170615D01*
X143153261Y-115083261D01*
X143240615Y-114966705D01*
X143291745Y-114830316D01*
X143298500Y-114768134D01*
X143298500Y-113571866D01*
X143291745Y-113509684D01*
X143240615Y-113373295D01*
X143153261Y-113256739D01*
X143036705Y-113169385D01*
X142900316Y-113118255D01*
X142838134Y-113111500D01*
X142235660Y-113111500D01*
X142167539Y-113091498D01*
X142146565Y-113074595D01*
X141128665Y-112056695D01*
X156747251Y-112056695D01*
X156747548Y-112061848D01*
X156747548Y-112061851D01*
X156753011Y-112156590D01*
X156760110Y-112279715D01*
X156761247Y-112284761D01*
X156761248Y-112284767D01*
X156781119Y-112372939D01*
X156809222Y-112497639D01*
X156893266Y-112704616D01*
X157009987Y-112895088D01*
X157156250Y-113063938D01*
X157328126Y-113206632D01*
X157521000Y-113319338D01*
X157729692Y-113399030D01*
X157734760Y-113400061D01*
X157734763Y-113400062D01*
X157842017Y-113421883D01*
X157948597Y-113443567D01*
X157953772Y-113443757D01*
X157953774Y-113443757D01*
X158166673Y-113451564D01*
X158166677Y-113451564D01*
X158171837Y-113451753D01*
X158223894Y-113445084D01*
X158294002Y-113456268D01*
X158328998Y-113480968D01*
X158924595Y-114076565D01*
X158958621Y-114138877D01*
X158961500Y-114165660D01*
X158961500Y-114768134D01*
X158968255Y-114830316D01*
X159019385Y-114966705D01*
X159106739Y-115083261D01*
X159223295Y-115170615D01*
X159359684Y-115221745D01*
X159421866Y-115228500D01*
X160618134Y-115228500D01*
X160680316Y-115221745D01*
X160816705Y-115170615D01*
X160933261Y-115083261D01*
X161020615Y-114966705D01*
X161071745Y-114830316D01*
X161078500Y-114768134D01*
X161078500Y-113571866D01*
X161071745Y-113509684D01*
X161020615Y-113373295D01*
X160933261Y-113256739D01*
X160816705Y-113169385D01*
X160680316Y-113118255D01*
X160618134Y-113111500D01*
X160015660Y-113111500D01*
X159947539Y-113091498D01*
X159926565Y-113074595D01*
X159446319Y-112594349D01*
X159412293Y-112532037D01*
X159414856Y-112468627D01*
X159442370Y-112378069D01*
X159471529Y-112156590D01*
X159473156Y-112090000D01*
X159454852Y-111867361D01*
X159400431Y-111650702D01*
X159311354Y-111445840D01*
X159190014Y-111258277D01*
X159039670Y-111093051D01*
X159035619Y-111089852D01*
X159035615Y-111089848D01*
X158868414Y-110957800D01*
X158868410Y-110957798D01*
X158864359Y-110954598D01*
X158668789Y-110846638D01*
X158663920Y-110844914D01*
X158663916Y-110844912D01*
X158463087Y-110773795D01*
X158463083Y-110773794D01*
X158458212Y-110772069D01*
X158453119Y-110771162D01*
X158453116Y-110771161D01*
X158243373Y-110733800D01*
X158243367Y-110733799D01*
X158238284Y-110732894D01*
X158164452Y-110731992D01*
X158020081Y-110730228D01*
X158020079Y-110730228D01*
X158014911Y-110730165D01*
X157794091Y-110763955D01*
X157581756Y-110833357D01*
X157383607Y-110936507D01*
X157379474Y-110939610D01*
X157379471Y-110939612D01*
X157341570Y-110968069D01*
X157204965Y-111070635D01*
X157050629Y-111232138D01*
X156924743Y-111416680D01*
X156905447Y-111458250D01*
X156835249Y-111609480D01*
X156830688Y-111619305D01*
X156770989Y-111834570D01*
X156747251Y-112056695D01*
X141128665Y-112056695D01*
X140681450Y-111609480D01*
X140675596Y-111603215D01*
X140675201Y-111602762D01*
X140637561Y-111559615D01*
X140585280Y-111522871D01*
X140579986Y-111518939D01*
X140535693Y-111484209D01*
X140529718Y-111479524D01*
X140522802Y-111476401D01*
X140520516Y-111475017D01*
X140505835Y-111466643D01*
X140503475Y-111465378D01*
X140497261Y-111461010D01*
X140490182Y-111458250D01*
X140490180Y-111458249D01*
X140437725Y-111437798D01*
X140431650Y-111435244D01*
X140427085Y-111433183D01*
X140373154Y-111386791D01*
X140292822Y-111262617D01*
X140292820Y-111262614D01*
X140290014Y-111258277D01*
X140139670Y-111093051D01*
X140135619Y-111089852D01*
X140135615Y-111089848D01*
X139968414Y-110957800D01*
X139968410Y-110957798D01*
X139964359Y-110954598D01*
X139768789Y-110846638D01*
X139763920Y-110844914D01*
X139763916Y-110844912D01*
X139563087Y-110773795D01*
X139563083Y-110773794D01*
X139558212Y-110772069D01*
X139553119Y-110771162D01*
X139553116Y-110771161D01*
X139343373Y-110733800D01*
X139343367Y-110733799D01*
X139338284Y-110732894D01*
X139264452Y-110731992D01*
X139120081Y-110730228D01*
X139120079Y-110730228D01*
X139114911Y-110730165D01*
X138894091Y-110763955D01*
X138681756Y-110833357D01*
X138483607Y-110936507D01*
X138479474Y-110939610D01*
X138479471Y-110939612D01*
X138441570Y-110968069D01*
X138304965Y-111070635D01*
X138150629Y-111232138D01*
X138024743Y-111416680D01*
X138005447Y-111458250D01*
X137935249Y-111609480D01*
X137930688Y-111619305D01*
X137870989Y-111834570D01*
X137847251Y-112056695D01*
X122078665Y-112056695D01*
X121631450Y-111609480D01*
X121625596Y-111603215D01*
X121625201Y-111602762D01*
X121587561Y-111559615D01*
X121535280Y-111522871D01*
X121529986Y-111518939D01*
X121485693Y-111484209D01*
X121479718Y-111479524D01*
X121472802Y-111476401D01*
X121470516Y-111475017D01*
X121455835Y-111466643D01*
X121453475Y-111465378D01*
X121447261Y-111461010D01*
X121436907Y-111456973D01*
X121435192Y-111455574D01*
X121433487Y-111454660D01*
X121433665Y-111454329D01*
X121376888Y-111408021D01*
X121282822Y-111262617D01*
X121282820Y-111262614D01*
X121280014Y-111258277D01*
X121129670Y-111093051D01*
X121125619Y-111089852D01*
X121125615Y-111089848D01*
X120958414Y-110957800D01*
X120958410Y-110957798D01*
X120954359Y-110954598D01*
X120758789Y-110846638D01*
X120753920Y-110844914D01*
X120753916Y-110844912D01*
X120553087Y-110773795D01*
X120553083Y-110773794D01*
X120548212Y-110772069D01*
X120543119Y-110771162D01*
X120543116Y-110771161D01*
X120333373Y-110733800D01*
X120333367Y-110733799D01*
X120328284Y-110732894D01*
X120254452Y-110731992D01*
X120110081Y-110730228D01*
X120110079Y-110730228D01*
X120104911Y-110730165D01*
X119884091Y-110763955D01*
X119671756Y-110833357D01*
X119473607Y-110936507D01*
X119469474Y-110939610D01*
X119469471Y-110939612D01*
X119431570Y-110968069D01*
X119294965Y-111070635D01*
X119140629Y-111232138D01*
X119014743Y-111416680D01*
X118995447Y-111458250D01*
X118925249Y-111609480D01*
X118920688Y-111619305D01*
X118860989Y-111834570D01*
X118837251Y-112056695D01*
X109728000Y-112056695D01*
X109728000Y-110646695D01*
X115857251Y-110646695D01*
X115857548Y-110651848D01*
X115857548Y-110651851D01*
X115869812Y-110864547D01*
X115870110Y-110869715D01*
X115871247Y-110874761D01*
X115871248Y-110874767D01*
X115884624Y-110934118D01*
X115919222Y-111087639D01*
X116003266Y-111294616D01*
X116005965Y-111299020D01*
X116113816Y-111475017D01*
X116119987Y-111485088D01*
X116266250Y-111653938D01*
X116438126Y-111796632D01*
X116631000Y-111909338D01*
X116839692Y-111989030D01*
X116844760Y-111990061D01*
X116844763Y-111990062D01*
X116952017Y-112011883D01*
X117058597Y-112033567D01*
X117063772Y-112033757D01*
X117063774Y-112033757D01*
X117276673Y-112041564D01*
X117276677Y-112041564D01*
X117281837Y-112041753D01*
X117286957Y-112041097D01*
X117286959Y-112041097D01*
X117498288Y-112014025D01*
X117498289Y-112014025D01*
X117503416Y-112013368D01*
X117508366Y-112011883D01*
X117712429Y-111950661D01*
X117712434Y-111950659D01*
X117717384Y-111949174D01*
X117917994Y-111850896D01*
X118099860Y-111721173D01*
X118258096Y-111563489D01*
X118317594Y-111480689D01*
X118385435Y-111386277D01*
X118388453Y-111382077D01*
X118447494Y-111262617D01*
X118485136Y-111186453D01*
X118485137Y-111186451D01*
X118487430Y-111181811D01*
X118552370Y-110968069D01*
X118581529Y-110746590D01*
X118581611Y-110743240D01*
X118583074Y-110683365D01*
X118583074Y-110683361D01*
X118583156Y-110680000D01*
X118580418Y-110646695D01*
X134957251Y-110646695D01*
X134957548Y-110651848D01*
X134957548Y-110651851D01*
X134969812Y-110864547D01*
X134970110Y-110869715D01*
X134971247Y-110874761D01*
X134971248Y-110874767D01*
X134984624Y-110934118D01*
X135019222Y-111087639D01*
X135103266Y-111294616D01*
X135105965Y-111299020D01*
X135213816Y-111475017D01*
X135219987Y-111485088D01*
X135366250Y-111653938D01*
X135538126Y-111796632D01*
X135731000Y-111909338D01*
X135939692Y-111989030D01*
X135944760Y-111990061D01*
X135944763Y-111990062D01*
X136052017Y-112011883D01*
X136158597Y-112033567D01*
X136163772Y-112033757D01*
X136163774Y-112033757D01*
X136376673Y-112041564D01*
X136376677Y-112041564D01*
X136381837Y-112041753D01*
X136386957Y-112041097D01*
X136386959Y-112041097D01*
X136598288Y-112014025D01*
X136598289Y-112014025D01*
X136603416Y-112013368D01*
X136608366Y-112011883D01*
X136812429Y-111950661D01*
X136812434Y-111950659D01*
X136817384Y-111949174D01*
X137017994Y-111850896D01*
X137199860Y-111721173D01*
X137358096Y-111563489D01*
X137417594Y-111480689D01*
X137485435Y-111386277D01*
X137488453Y-111382077D01*
X137547494Y-111262617D01*
X137585136Y-111186453D01*
X137585137Y-111186451D01*
X137587430Y-111181811D01*
X137652370Y-110968069D01*
X137681529Y-110746590D01*
X137681611Y-110743240D01*
X137683074Y-110683365D01*
X137683074Y-110683361D01*
X137683156Y-110680000D01*
X137680418Y-110646695D01*
X153757251Y-110646695D01*
X153757548Y-110651848D01*
X153757548Y-110651851D01*
X153769812Y-110864547D01*
X153770110Y-110869715D01*
X153771247Y-110874761D01*
X153771248Y-110874767D01*
X153784624Y-110934118D01*
X153819222Y-111087639D01*
X153903266Y-111294616D01*
X153905965Y-111299020D01*
X154013816Y-111475017D01*
X154019987Y-111485088D01*
X154166250Y-111653938D01*
X154338126Y-111796632D01*
X154531000Y-111909338D01*
X154739692Y-111989030D01*
X154744760Y-111990061D01*
X154744763Y-111990062D01*
X154852017Y-112011883D01*
X154958597Y-112033567D01*
X154963772Y-112033757D01*
X154963774Y-112033757D01*
X155176673Y-112041564D01*
X155176677Y-112041564D01*
X155181837Y-112041753D01*
X155186957Y-112041097D01*
X155186959Y-112041097D01*
X155398288Y-112014025D01*
X155398289Y-112014025D01*
X155403416Y-112013368D01*
X155408366Y-112011883D01*
X155612429Y-111950661D01*
X155612434Y-111950659D01*
X155617384Y-111949174D01*
X155817994Y-111850896D01*
X155999860Y-111721173D01*
X156158096Y-111563489D01*
X156217594Y-111480689D01*
X156285435Y-111386277D01*
X156288453Y-111382077D01*
X156347494Y-111262617D01*
X156385136Y-111186453D01*
X156385137Y-111186451D01*
X156387430Y-111181811D01*
X156452370Y-110968069D01*
X156481529Y-110746590D01*
X156481611Y-110743240D01*
X156483074Y-110683365D01*
X156483074Y-110683361D01*
X156483156Y-110680000D01*
X156464852Y-110457361D01*
X156410431Y-110240702D01*
X156321354Y-110035840D01*
X156200014Y-109848277D01*
X156049670Y-109683051D01*
X156045619Y-109679852D01*
X156045615Y-109679848D01*
X155878414Y-109547800D01*
X155878410Y-109547798D01*
X155874359Y-109544598D01*
X155678789Y-109436638D01*
X155673920Y-109434914D01*
X155673916Y-109434912D01*
X155473087Y-109363795D01*
X155473083Y-109363794D01*
X155468212Y-109362069D01*
X155463119Y-109361162D01*
X155463116Y-109361161D01*
X155253373Y-109323800D01*
X155253367Y-109323799D01*
X155248284Y-109322894D01*
X155174452Y-109321992D01*
X155030081Y-109320228D01*
X155030079Y-109320228D01*
X155024911Y-109320165D01*
X154804091Y-109353955D01*
X154591756Y-109423357D01*
X154393607Y-109526507D01*
X154389474Y-109529610D01*
X154389471Y-109529612D01*
X154365247Y-109547800D01*
X154214965Y-109660635D01*
X154060629Y-109822138D01*
X153934743Y-110006680D01*
X153840688Y-110209305D01*
X153780989Y-110424570D01*
X153757251Y-110646695D01*
X137680418Y-110646695D01*
X137664852Y-110457361D01*
X137610431Y-110240702D01*
X137521354Y-110035840D01*
X137400014Y-109848277D01*
X137249670Y-109683051D01*
X137245619Y-109679852D01*
X137245615Y-109679848D01*
X137078414Y-109547800D01*
X137078410Y-109547798D01*
X137074359Y-109544598D01*
X136878789Y-109436638D01*
X136873920Y-109434914D01*
X136873916Y-109434912D01*
X136673087Y-109363795D01*
X136673083Y-109363794D01*
X136668212Y-109362069D01*
X136663119Y-109361162D01*
X136663116Y-109361161D01*
X136453373Y-109323800D01*
X136453367Y-109323799D01*
X136448284Y-109322894D01*
X136374452Y-109321992D01*
X136230081Y-109320228D01*
X136230079Y-109320228D01*
X136224911Y-109320165D01*
X136004091Y-109353955D01*
X135791756Y-109423357D01*
X135593607Y-109526507D01*
X135589474Y-109529610D01*
X135589471Y-109529612D01*
X135565247Y-109547800D01*
X135414965Y-109660635D01*
X135260629Y-109822138D01*
X135134743Y-110006680D01*
X135040688Y-110209305D01*
X134980989Y-110424570D01*
X134957251Y-110646695D01*
X118580418Y-110646695D01*
X118564852Y-110457361D01*
X118510431Y-110240702D01*
X118421354Y-110035840D01*
X118300014Y-109848277D01*
X118149670Y-109683051D01*
X118145619Y-109679852D01*
X118145615Y-109679848D01*
X117978414Y-109547800D01*
X117978410Y-109547798D01*
X117974359Y-109544598D01*
X117778789Y-109436638D01*
X117773920Y-109434914D01*
X117773916Y-109434912D01*
X117573087Y-109363795D01*
X117573083Y-109363794D01*
X117568212Y-109362069D01*
X117563119Y-109361162D01*
X117563116Y-109361161D01*
X117353373Y-109323800D01*
X117353367Y-109323799D01*
X117348284Y-109322894D01*
X117274452Y-109321992D01*
X117130081Y-109320228D01*
X117130079Y-109320228D01*
X117124911Y-109320165D01*
X116904091Y-109353955D01*
X116691756Y-109423357D01*
X116493607Y-109526507D01*
X116489474Y-109529610D01*
X116489471Y-109529612D01*
X116465247Y-109547800D01*
X116314965Y-109660635D01*
X116160629Y-109822138D01*
X116034743Y-110006680D01*
X115940688Y-110209305D01*
X115880989Y-110424570D01*
X115857251Y-110646695D01*
X109728000Y-110646695D01*
X109728000Y-97248134D01*
X122131500Y-97248134D01*
X122138255Y-97310316D01*
X122189385Y-97446705D01*
X122276739Y-97563261D01*
X122393295Y-97650615D01*
X122529684Y-97701745D01*
X122591866Y-97708500D01*
X123788134Y-97708500D01*
X123850316Y-97701745D01*
X123986705Y-97650615D01*
X124103261Y-97563261D01*
X124190615Y-97446705D01*
X124193767Y-97438296D01*
X124198077Y-97430425D01*
X124199741Y-97431336D01*
X124235663Y-97383510D01*
X124302224Y-97358807D01*
X124311009Y-97358500D01*
X141118991Y-97358500D01*
X141187112Y-97378502D01*
X141233605Y-97432158D01*
X141235903Y-97437694D01*
X141236232Y-97438296D01*
X141239385Y-97446705D01*
X141326739Y-97563261D01*
X141443295Y-97650615D01*
X141579684Y-97701745D01*
X141641866Y-97708500D01*
X142838134Y-97708500D01*
X142900316Y-97701745D01*
X143036705Y-97650615D01*
X143153261Y-97563261D01*
X143240615Y-97446705D01*
X143243767Y-97438296D01*
X143248077Y-97430425D01*
X143249741Y-97431336D01*
X143285663Y-97383510D01*
X143352224Y-97358807D01*
X143361009Y-97358500D01*
X150752888Y-97358500D01*
X150804136Y-97369393D01*
X150841676Y-97386107D01*
X150841679Y-97386108D01*
X150847712Y-97388794D01*
X150889340Y-97397642D01*
X151028056Y-97427128D01*
X151028061Y-97427128D01*
X151034513Y-97428500D01*
X151225487Y-97428500D01*
X151231939Y-97427128D01*
X151231944Y-97427128D01*
X151370660Y-97397642D01*
X151412288Y-97388794D01*
X151418321Y-97386108D01*
X151418324Y-97386107D01*
X151455864Y-97369393D01*
X151507112Y-97358500D01*
X160168991Y-97358500D01*
X160237112Y-97378502D01*
X160283605Y-97432158D01*
X160285903Y-97437694D01*
X160286232Y-97438296D01*
X160289385Y-97446705D01*
X160376739Y-97563261D01*
X160493295Y-97650615D01*
X160629684Y-97701745D01*
X160691866Y-97708500D01*
X161888134Y-97708500D01*
X161950316Y-97701745D01*
X162086705Y-97650615D01*
X162203261Y-97563261D01*
X162290615Y-97446705D01*
X162293767Y-97438296D01*
X162298077Y-97430425D01*
X162299741Y-97431336D01*
X162335663Y-97383510D01*
X162402224Y-97358807D01*
X162411009Y-97358500D01*
X179307682Y-97358500D01*
X179375803Y-97378502D01*
X179408507Y-97408934D01*
X179426739Y-97433261D01*
X179543295Y-97520615D01*
X179679684Y-97571745D01*
X179741866Y-97578500D01*
X180938134Y-97578500D01*
X181000316Y-97571745D01*
X181136705Y-97520615D01*
X181253261Y-97433261D01*
X181340615Y-97316705D01*
X181391745Y-97180316D01*
X181398500Y-97118134D01*
X181398500Y-95921866D01*
X181391745Y-95859684D01*
X181340615Y-95723295D01*
X181253261Y-95606739D01*
X181136705Y-95519385D01*
X181000316Y-95468255D01*
X180938134Y-95461500D01*
X179741866Y-95461500D01*
X179679684Y-95468255D01*
X179543295Y-95519385D01*
X179426739Y-95606739D01*
X179339385Y-95723295D01*
X179288255Y-95859684D01*
X179284984Y-95858458D01*
X179257510Y-95906405D01*
X179194513Y-95939144D01*
X179170262Y-95941500D01*
X162411009Y-95941500D01*
X162342888Y-95921498D01*
X162296395Y-95867842D01*
X162294097Y-95862306D01*
X162293767Y-95861703D01*
X162290615Y-95853295D01*
X162203261Y-95736739D01*
X162086705Y-95649385D01*
X161950316Y-95598255D01*
X161888134Y-95591500D01*
X160691866Y-95591500D01*
X160629684Y-95598255D01*
X160493295Y-95649385D01*
X160376739Y-95736739D01*
X160289385Y-95853295D01*
X160286233Y-95861703D01*
X160281923Y-95869575D01*
X160280259Y-95868664D01*
X160244337Y-95916490D01*
X160177776Y-95941193D01*
X160168991Y-95941500D01*
X151887721Y-95941500D01*
X151819600Y-95921498D01*
X151794085Y-95899810D01*
X151745675Y-95846045D01*
X151745674Y-95846044D01*
X151741253Y-95841134D01*
X151586752Y-95728882D01*
X151580724Y-95726198D01*
X151580722Y-95726197D01*
X151418319Y-95653891D01*
X151418318Y-95653891D01*
X151412288Y-95651206D01*
X151318888Y-95631353D01*
X151231944Y-95612872D01*
X151231939Y-95612872D01*
X151225487Y-95611500D01*
X151034513Y-95611500D01*
X151028061Y-95612872D01*
X151028056Y-95612872D01*
X150941112Y-95631353D01*
X150847712Y-95651206D01*
X150841682Y-95653891D01*
X150841681Y-95653891D01*
X150679278Y-95726197D01*
X150679276Y-95726198D01*
X150673248Y-95728882D01*
X150518747Y-95841134D01*
X150514326Y-95846044D01*
X150514325Y-95846045D01*
X150465915Y-95899810D01*
X150405469Y-95937050D01*
X150372279Y-95941500D01*
X143361009Y-95941500D01*
X143292888Y-95921498D01*
X143246395Y-95867842D01*
X143244097Y-95862306D01*
X143243767Y-95861703D01*
X143240615Y-95853295D01*
X143153261Y-95736739D01*
X143036705Y-95649385D01*
X142900316Y-95598255D01*
X142838134Y-95591500D01*
X141641866Y-95591500D01*
X141579684Y-95598255D01*
X141443295Y-95649385D01*
X141326739Y-95736739D01*
X141239385Y-95853295D01*
X141236233Y-95861703D01*
X141231923Y-95869575D01*
X141230259Y-95868664D01*
X141194337Y-95916490D01*
X141127776Y-95941193D01*
X141118991Y-95941500D01*
X124311009Y-95941500D01*
X124242888Y-95921498D01*
X124196395Y-95867842D01*
X124194097Y-95862306D01*
X124193767Y-95861703D01*
X124190615Y-95853295D01*
X124103261Y-95736739D01*
X123986705Y-95649385D01*
X123850316Y-95598255D01*
X123788134Y-95591500D01*
X122591866Y-95591500D01*
X122529684Y-95598255D01*
X122393295Y-95649385D01*
X122276739Y-95736739D01*
X122189385Y-95853295D01*
X122138255Y-95989684D01*
X122131500Y-96051866D01*
X122131500Y-97248134D01*
X109728000Y-97248134D01*
X109728000Y-93026695D01*
X118837251Y-93026695D01*
X118837548Y-93031848D01*
X118837548Y-93031851D01*
X118842738Y-93121866D01*
X118850110Y-93249715D01*
X118851247Y-93254761D01*
X118851248Y-93254767D01*
X118875304Y-93361508D01*
X118899222Y-93467639D01*
X118983266Y-93674616D01*
X118985965Y-93679020D01*
X119085936Y-93842158D01*
X119099987Y-93865088D01*
X119246250Y-94033938D01*
X119418126Y-94176632D01*
X119611000Y-94289338D01*
X119819692Y-94369030D01*
X119824760Y-94370061D01*
X119824763Y-94370062D01*
X119911531Y-94387715D01*
X120038597Y-94413567D01*
X120043772Y-94413757D01*
X120043774Y-94413757D01*
X120256673Y-94421564D01*
X120256677Y-94421564D01*
X120261837Y-94421753D01*
X120266957Y-94421097D01*
X120266959Y-94421097D01*
X120478288Y-94394025D01*
X120478289Y-94394025D01*
X120483416Y-94393368D01*
X120488366Y-94391883D01*
X120692429Y-94330661D01*
X120692434Y-94330659D01*
X120697384Y-94329174D01*
X120897994Y-94230896D01*
X121079860Y-94101173D01*
X121238096Y-93943489D01*
X121326132Y-93820974D01*
X121382127Y-93777326D01*
X121428455Y-93768500D01*
X122005500Y-93768500D01*
X122073621Y-93788502D01*
X122120114Y-93842158D01*
X122131500Y-93894500D01*
X122131500Y-94448134D01*
X122138255Y-94510316D01*
X122189385Y-94646705D01*
X122276739Y-94763261D01*
X122393295Y-94850615D01*
X122529684Y-94901745D01*
X122591866Y-94908500D01*
X123788134Y-94908500D01*
X123850316Y-94901745D01*
X123986705Y-94850615D01*
X124103261Y-94763261D01*
X124190615Y-94646705D01*
X124241745Y-94510316D01*
X124248500Y-94448134D01*
X124248500Y-93251866D01*
X124241745Y-93189684D01*
X124190615Y-93053295D01*
X124170679Y-93026695D01*
X137847251Y-93026695D01*
X137847548Y-93031848D01*
X137847548Y-93031851D01*
X137852738Y-93121866D01*
X137860110Y-93249715D01*
X137861247Y-93254761D01*
X137861248Y-93254767D01*
X137885304Y-93361508D01*
X137909222Y-93467639D01*
X137993266Y-93674616D01*
X137995965Y-93679020D01*
X138095936Y-93842158D01*
X138109987Y-93865088D01*
X138256250Y-94033938D01*
X138428126Y-94176632D01*
X138621000Y-94289338D01*
X138829692Y-94369030D01*
X138834760Y-94370061D01*
X138834763Y-94370062D01*
X138921531Y-94387715D01*
X139048597Y-94413567D01*
X139053772Y-94413757D01*
X139053774Y-94413757D01*
X139266673Y-94421564D01*
X139266677Y-94421564D01*
X139271837Y-94421753D01*
X139276957Y-94421097D01*
X139276959Y-94421097D01*
X139488288Y-94394025D01*
X139488289Y-94394025D01*
X139493416Y-94393368D01*
X139498366Y-94391883D01*
X139702429Y-94330661D01*
X139702434Y-94330659D01*
X139707384Y-94329174D01*
X139907994Y-94230896D01*
X140089860Y-94101173D01*
X140248096Y-93943489D01*
X140336132Y-93820974D01*
X140392127Y-93777326D01*
X140438455Y-93768500D01*
X141055500Y-93768500D01*
X141123621Y-93788502D01*
X141170114Y-93842158D01*
X141181500Y-93894500D01*
X141181500Y-94448134D01*
X141188255Y-94510316D01*
X141239385Y-94646705D01*
X141326739Y-94763261D01*
X141443295Y-94850615D01*
X141579684Y-94901745D01*
X141641866Y-94908500D01*
X142838134Y-94908500D01*
X142900316Y-94901745D01*
X143036705Y-94850615D01*
X143153261Y-94763261D01*
X143240615Y-94646705D01*
X143291745Y-94510316D01*
X143298500Y-94448134D01*
X143298500Y-93251866D01*
X143291745Y-93189684D01*
X143240615Y-93053295D01*
X143220679Y-93026695D01*
X156747251Y-93026695D01*
X156747548Y-93031848D01*
X156747548Y-93031851D01*
X156752738Y-93121866D01*
X156760110Y-93249715D01*
X156761247Y-93254761D01*
X156761248Y-93254767D01*
X156785304Y-93361508D01*
X156809222Y-93467639D01*
X156893266Y-93674616D01*
X156895965Y-93679020D01*
X156995936Y-93842158D01*
X157009987Y-93865088D01*
X157156250Y-94033938D01*
X157328126Y-94176632D01*
X157521000Y-94289338D01*
X157729692Y-94369030D01*
X157734760Y-94370061D01*
X157734763Y-94370062D01*
X157821531Y-94387715D01*
X157948597Y-94413567D01*
X157953772Y-94413757D01*
X157953774Y-94413757D01*
X158166673Y-94421564D01*
X158166677Y-94421564D01*
X158171837Y-94421753D01*
X158176957Y-94421097D01*
X158176959Y-94421097D01*
X158388288Y-94394025D01*
X158388289Y-94394025D01*
X158393416Y-94393368D01*
X158398366Y-94391883D01*
X158602429Y-94330661D01*
X158602434Y-94330659D01*
X158607384Y-94329174D01*
X158807994Y-94230896D01*
X158989860Y-94101173D01*
X159148096Y-93943489D01*
X159236132Y-93820974D01*
X159292127Y-93777326D01*
X159338455Y-93768500D01*
X160105500Y-93768500D01*
X160173621Y-93788502D01*
X160220114Y-93842158D01*
X160231500Y-93894500D01*
X160231500Y-94448134D01*
X160238255Y-94510316D01*
X160289385Y-94646705D01*
X160376739Y-94763261D01*
X160493295Y-94850615D01*
X160629684Y-94901745D01*
X160691866Y-94908500D01*
X161888134Y-94908500D01*
X161950316Y-94901745D01*
X162086705Y-94850615D01*
X162203261Y-94763261D01*
X162290615Y-94646705D01*
X162341745Y-94510316D01*
X162348500Y-94448134D01*
X162348500Y-93251866D01*
X162341745Y-93189684D01*
X162290615Y-93053295D01*
X162270679Y-93026695D01*
X175647251Y-93026695D01*
X175647548Y-93031848D01*
X175647548Y-93031851D01*
X175652738Y-93121866D01*
X175660110Y-93249715D01*
X175661247Y-93254761D01*
X175661248Y-93254767D01*
X175685304Y-93361508D01*
X175709222Y-93467639D01*
X175793266Y-93674616D01*
X175795965Y-93679020D01*
X175895936Y-93842158D01*
X175909987Y-93865088D01*
X176056250Y-94033938D01*
X176228126Y-94176632D01*
X176421000Y-94289338D01*
X176629692Y-94369030D01*
X176634760Y-94370061D01*
X176634763Y-94370062D01*
X176721531Y-94387715D01*
X176848597Y-94413567D01*
X176853772Y-94413757D01*
X176853774Y-94413757D01*
X177066673Y-94421564D01*
X177066677Y-94421564D01*
X177071837Y-94421753D01*
X177076957Y-94421097D01*
X177076959Y-94421097D01*
X177288288Y-94394025D01*
X177288289Y-94394025D01*
X177293416Y-94393368D01*
X177298366Y-94391883D01*
X177502429Y-94330661D01*
X177502434Y-94330659D01*
X177507384Y-94329174D01*
X177707994Y-94230896D01*
X177889860Y-94101173D01*
X178048096Y-93943489D01*
X178136132Y-93820974D01*
X178192127Y-93777326D01*
X178238455Y-93768500D01*
X179155500Y-93768500D01*
X179223621Y-93788502D01*
X179270114Y-93842158D01*
X179281500Y-93894500D01*
X179281500Y-94318134D01*
X179288255Y-94380316D01*
X179339385Y-94516705D01*
X179426739Y-94633261D01*
X179543295Y-94720615D01*
X179679684Y-94771745D01*
X179741866Y-94778500D01*
X180938134Y-94778500D01*
X181000316Y-94771745D01*
X181136705Y-94720615D01*
X181253261Y-94633261D01*
X181340615Y-94516705D01*
X181391745Y-94380316D01*
X181398500Y-94318134D01*
X181398500Y-93121866D01*
X181391745Y-93059684D01*
X181340615Y-92923295D01*
X181253261Y-92806739D01*
X181136705Y-92719385D01*
X181000316Y-92668255D01*
X180938134Y-92661500D01*
X180335660Y-92661500D01*
X180267539Y-92641498D01*
X180246565Y-92624595D01*
X180201450Y-92579480D01*
X180195596Y-92573215D01*
X180195201Y-92572762D01*
X180157561Y-92529615D01*
X180105280Y-92492871D01*
X180099986Y-92488939D01*
X180055693Y-92454209D01*
X180049718Y-92449524D01*
X180042802Y-92446401D01*
X180040516Y-92445017D01*
X180025835Y-92436643D01*
X180023475Y-92435378D01*
X180017261Y-92431010D01*
X180010182Y-92428250D01*
X180010180Y-92428249D01*
X179957725Y-92407798D01*
X179951656Y-92405247D01*
X179893427Y-92378955D01*
X179885960Y-92377571D01*
X179883405Y-92376770D01*
X179867152Y-92372141D01*
X179864572Y-92371478D01*
X179857491Y-92368718D01*
X179849960Y-92367727D01*
X179849958Y-92367726D01*
X179820339Y-92363827D01*
X179794139Y-92360378D01*
X179787641Y-92359348D01*
X179724814Y-92347704D01*
X179717234Y-92348141D01*
X179717233Y-92348141D01*
X179662608Y-92351291D01*
X179655354Y-92351500D01*
X178238286Y-92351500D01*
X178170165Y-92331498D01*
X178132494Y-92293941D01*
X178090014Y-92228277D01*
X177939670Y-92063051D01*
X177935619Y-92059852D01*
X177935615Y-92059848D01*
X177768414Y-91927800D01*
X177768410Y-91927798D01*
X177764359Y-91924598D01*
X177568789Y-91816638D01*
X177563920Y-91814914D01*
X177563916Y-91814912D01*
X177363087Y-91743795D01*
X177363083Y-91743794D01*
X177358212Y-91742069D01*
X177353119Y-91741162D01*
X177353116Y-91741161D01*
X177143373Y-91703800D01*
X177143367Y-91703799D01*
X177138284Y-91702894D01*
X177064452Y-91701992D01*
X176920081Y-91700228D01*
X176920079Y-91700228D01*
X176914911Y-91700165D01*
X176694091Y-91733955D01*
X176481756Y-91803357D01*
X176283607Y-91906507D01*
X176279474Y-91909610D01*
X176279471Y-91909612D01*
X176200347Y-91969020D01*
X176104965Y-92040635D01*
X175950629Y-92202138D01*
X175824743Y-92386680D01*
X175804166Y-92431010D01*
X175735249Y-92579480D01*
X175730688Y-92589305D01*
X175670989Y-92804570D01*
X175647251Y-93026695D01*
X162270679Y-93026695D01*
X162203261Y-92936739D01*
X162086705Y-92849385D01*
X161950316Y-92798255D01*
X161888134Y-92791500D01*
X161285660Y-92791500D01*
X161217539Y-92771498D01*
X161196565Y-92754595D01*
X161021450Y-92579480D01*
X161015596Y-92573215D01*
X161015201Y-92572762D01*
X160977561Y-92529615D01*
X160925280Y-92492871D01*
X160919986Y-92488939D01*
X160875693Y-92454209D01*
X160869718Y-92449524D01*
X160862802Y-92446401D01*
X160860516Y-92445017D01*
X160845835Y-92436643D01*
X160843475Y-92435378D01*
X160837261Y-92431010D01*
X160830182Y-92428250D01*
X160830180Y-92428249D01*
X160777725Y-92407798D01*
X160771656Y-92405247D01*
X160713427Y-92378955D01*
X160705960Y-92377571D01*
X160703405Y-92376770D01*
X160687152Y-92372141D01*
X160684572Y-92371478D01*
X160677491Y-92368718D01*
X160669960Y-92367727D01*
X160669958Y-92367726D01*
X160640339Y-92363827D01*
X160614139Y-92360378D01*
X160607641Y-92359348D01*
X160544814Y-92347704D01*
X160537234Y-92348141D01*
X160537233Y-92348141D01*
X160482608Y-92351291D01*
X160475354Y-92351500D01*
X159338286Y-92351500D01*
X159270165Y-92331498D01*
X159232494Y-92293941D01*
X159190014Y-92228277D01*
X159039670Y-92063051D01*
X159035619Y-92059852D01*
X159035615Y-92059848D01*
X158868414Y-91927800D01*
X158868410Y-91927798D01*
X158864359Y-91924598D01*
X158668789Y-91816638D01*
X158663920Y-91814914D01*
X158663916Y-91814912D01*
X158463087Y-91743795D01*
X158463083Y-91743794D01*
X158458212Y-91742069D01*
X158453119Y-91741162D01*
X158453116Y-91741161D01*
X158243373Y-91703800D01*
X158243367Y-91703799D01*
X158238284Y-91702894D01*
X158164452Y-91701992D01*
X158020081Y-91700228D01*
X158020079Y-91700228D01*
X158014911Y-91700165D01*
X157794091Y-91733955D01*
X157581756Y-91803357D01*
X157383607Y-91906507D01*
X157379474Y-91909610D01*
X157379471Y-91909612D01*
X157300347Y-91969020D01*
X157204965Y-92040635D01*
X157050629Y-92202138D01*
X156924743Y-92386680D01*
X156904166Y-92431010D01*
X156835249Y-92579480D01*
X156830688Y-92589305D01*
X156770989Y-92804570D01*
X156747251Y-93026695D01*
X143220679Y-93026695D01*
X143153261Y-92936739D01*
X143036705Y-92849385D01*
X142900316Y-92798255D01*
X142838134Y-92791500D01*
X142235660Y-92791500D01*
X142167539Y-92771498D01*
X142146565Y-92754595D01*
X141971450Y-92579480D01*
X141965596Y-92573215D01*
X141965201Y-92572762D01*
X141927561Y-92529615D01*
X141875280Y-92492871D01*
X141869986Y-92488939D01*
X141825693Y-92454209D01*
X141819718Y-92449524D01*
X141812802Y-92446401D01*
X141810516Y-92445017D01*
X141795835Y-92436643D01*
X141793475Y-92435378D01*
X141787261Y-92431010D01*
X141780182Y-92428250D01*
X141780180Y-92428249D01*
X141727725Y-92407798D01*
X141721656Y-92405247D01*
X141663427Y-92378955D01*
X141655960Y-92377571D01*
X141653405Y-92376770D01*
X141637152Y-92372141D01*
X141634572Y-92371478D01*
X141627491Y-92368718D01*
X141619960Y-92367727D01*
X141619958Y-92367726D01*
X141590339Y-92363827D01*
X141564139Y-92360378D01*
X141557641Y-92359348D01*
X141494814Y-92347704D01*
X141487234Y-92348141D01*
X141487233Y-92348141D01*
X141432608Y-92351291D01*
X141425354Y-92351500D01*
X140438286Y-92351500D01*
X140370165Y-92331498D01*
X140332494Y-92293941D01*
X140290014Y-92228277D01*
X140139670Y-92063051D01*
X140135619Y-92059852D01*
X140135615Y-92059848D01*
X139968414Y-91927800D01*
X139968410Y-91927798D01*
X139964359Y-91924598D01*
X139768789Y-91816638D01*
X139763920Y-91814914D01*
X139763916Y-91814912D01*
X139563087Y-91743795D01*
X139563083Y-91743794D01*
X139558212Y-91742069D01*
X139553119Y-91741162D01*
X139553116Y-91741161D01*
X139343373Y-91703800D01*
X139343367Y-91703799D01*
X139338284Y-91702894D01*
X139264452Y-91701992D01*
X139120081Y-91700228D01*
X139120079Y-91700228D01*
X139114911Y-91700165D01*
X138894091Y-91733955D01*
X138681756Y-91803357D01*
X138483607Y-91906507D01*
X138479474Y-91909610D01*
X138479471Y-91909612D01*
X138400347Y-91969020D01*
X138304965Y-92040635D01*
X138150629Y-92202138D01*
X138024743Y-92386680D01*
X138004166Y-92431010D01*
X137935249Y-92579480D01*
X137930688Y-92589305D01*
X137870989Y-92804570D01*
X137847251Y-93026695D01*
X124170679Y-93026695D01*
X124103261Y-92936739D01*
X123986705Y-92849385D01*
X123850316Y-92798255D01*
X123788134Y-92791500D01*
X123185660Y-92791500D01*
X123117539Y-92771498D01*
X123096565Y-92754595D01*
X122921450Y-92579480D01*
X122915596Y-92573215D01*
X122915201Y-92572762D01*
X122877561Y-92529615D01*
X122825280Y-92492871D01*
X122819986Y-92488939D01*
X122775693Y-92454209D01*
X122769718Y-92449524D01*
X122762802Y-92446401D01*
X122760516Y-92445017D01*
X122745835Y-92436643D01*
X122743475Y-92435378D01*
X122737261Y-92431010D01*
X122730182Y-92428250D01*
X122730180Y-92428249D01*
X122677725Y-92407798D01*
X122671656Y-92405247D01*
X122613427Y-92378955D01*
X122605960Y-92377571D01*
X122603405Y-92376770D01*
X122587152Y-92372141D01*
X122584572Y-92371478D01*
X122577491Y-92368718D01*
X122569960Y-92367727D01*
X122569958Y-92367726D01*
X122540339Y-92363827D01*
X122514139Y-92360378D01*
X122507641Y-92359348D01*
X122444814Y-92347704D01*
X122437234Y-92348141D01*
X122437233Y-92348141D01*
X122382608Y-92351291D01*
X122375354Y-92351500D01*
X121428286Y-92351500D01*
X121360165Y-92331498D01*
X121322494Y-92293941D01*
X121280014Y-92228277D01*
X121129670Y-92063051D01*
X121125619Y-92059852D01*
X121125615Y-92059848D01*
X120958414Y-91927800D01*
X120958410Y-91927798D01*
X120954359Y-91924598D01*
X120758789Y-91816638D01*
X120753920Y-91814914D01*
X120753916Y-91814912D01*
X120553087Y-91743795D01*
X120553083Y-91743794D01*
X120548212Y-91742069D01*
X120543119Y-91741162D01*
X120543116Y-91741161D01*
X120333373Y-91703800D01*
X120333367Y-91703799D01*
X120328284Y-91702894D01*
X120254452Y-91701992D01*
X120110081Y-91700228D01*
X120110079Y-91700228D01*
X120104911Y-91700165D01*
X119884091Y-91733955D01*
X119671756Y-91803357D01*
X119473607Y-91906507D01*
X119469474Y-91909610D01*
X119469471Y-91909612D01*
X119390347Y-91969020D01*
X119294965Y-92040635D01*
X119140629Y-92202138D01*
X119014743Y-92386680D01*
X118994166Y-92431010D01*
X118925249Y-92579480D01*
X118920688Y-92589305D01*
X118860989Y-92804570D01*
X118837251Y-93026695D01*
X109728000Y-93026695D01*
X109728000Y-91316695D01*
X115857251Y-91316695D01*
X115857548Y-91321848D01*
X115857548Y-91321851D01*
X115863011Y-91416590D01*
X115870110Y-91539715D01*
X115871247Y-91544761D01*
X115871248Y-91544767D01*
X115891119Y-91632939D01*
X115919222Y-91757639D01*
X116003266Y-91964616D01*
X116119987Y-92155088D01*
X116266250Y-92323938D01*
X116438126Y-92466632D01*
X116631000Y-92579338D01*
X116635825Y-92581180D01*
X116635826Y-92581181D01*
X116708612Y-92608975D01*
X116839692Y-92659030D01*
X116844760Y-92660061D01*
X116844763Y-92660062D01*
X116952017Y-92681883D01*
X117058597Y-92703567D01*
X117063772Y-92703757D01*
X117063774Y-92703757D01*
X117276673Y-92711564D01*
X117276677Y-92711564D01*
X117281837Y-92711753D01*
X117286957Y-92711097D01*
X117286959Y-92711097D01*
X117498288Y-92684025D01*
X117498289Y-92684025D01*
X117503416Y-92683368D01*
X117553790Y-92668255D01*
X117712429Y-92620661D01*
X117712434Y-92620659D01*
X117717384Y-92619174D01*
X117917994Y-92520896D01*
X118099860Y-92391173D01*
X118114314Y-92376770D01*
X118254435Y-92237137D01*
X118258096Y-92233489D01*
X118277554Y-92206411D01*
X118385435Y-92056277D01*
X118388453Y-92052077D01*
X118461579Y-91904118D01*
X118485136Y-91856453D01*
X118485137Y-91856451D01*
X118487430Y-91851811D01*
X118552370Y-91638069D01*
X118581529Y-91416590D01*
X118583156Y-91350000D01*
X118580418Y-91316695D01*
X134957251Y-91316695D01*
X134957548Y-91321848D01*
X134957548Y-91321851D01*
X134963011Y-91416590D01*
X134970110Y-91539715D01*
X134971247Y-91544761D01*
X134971248Y-91544767D01*
X134991119Y-91632939D01*
X135019222Y-91757639D01*
X135103266Y-91964616D01*
X135219987Y-92155088D01*
X135366250Y-92323938D01*
X135538126Y-92466632D01*
X135731000Y-92579338D01*
X135735825Y-92581180D01*
X135735826Y-92581181D01*
X135808612Y-92608975D01*
X135939692Y-92659030D01*
X135944760Y-92660061D01*
X135944763Y-92660062D01*
X136052017Y-92681883D01*
X136158597Y-92703567D01*
X136163772Y-92703757D01*
X136163774Y-92703757D01*
X136376673Y-92711564D01*
X136376677Y-92711564D01*
X136381837Y-92711753D01*
X136386957Y-92711097D01*
X136386959Y-92711097D01*
X136598288Y-92684025D01*
X136598289Y-92684025D01*
X136603416Y-92683368D01*
X136653790Y-92668255D01*
X136812429Y-92620661D01*
X136812434Y-92620659D01*
X136817384Y-92619174D01*
X137017994Y-92520896D01*
X137199860Y-92391173D01*
X137214314Y-92376770D01*
X137354435Y-92237137D01*
X137358096Y-92233489D01*
X137377554Y-92206411D01*
X137485435Y-92056277D01*
X137488453Y-92052077D01*
X137561579Y-91904118D01*
X137585136Y-91856453D01*
X137585137Y-91856451D01*
X137587430Y-91851811D01*
X137652370Y-91638069D01*
X137681529Y-91416590D01*
X137683156Y-91350000D01*
X137680418Y-91316695D01*
X153757251Y-91316695D01*
X153757548Y-91321848D01*
X153757548Y-91321851D01*
X153763011Y-91416590D01*
X153770110Y-91539715D01*
X153771247Y-91544761D01*
X153771248Y-91544767D01*
X153791119Y-91632939D01*
X153819222Y-91757639D01*
X153903266Y-91964616D01*
X154019987Y-92155088D01*
X154166250Y-92323938D01*
X154338126Y-92466632D01*
X154531000Y-92579338D01*
X154535825Y-92581180D01*
X154535826Y-92581181D01*
X154608612Y-92608975D01*
X154739692Y-92659030D01*
X154744760Y-92660061D01*
X154744763Y-92660062D01*
X154852017Y-92681883D01*
X154958597Y-92703567D01*
X154963772Y-92703757D01*
X154963774Y-92703757D01*
X155176673Y-92711564D01*
X155176677Y-92711564D01*
X155181837Y-92711753D01*
X155186957Y-92711097D01*
X155186959Y-92711097D01*
X155398288Y-92684025D01*
X155398289Y-92684025D01*
X155403416Y-92683368D01*
X155453790Y-92668255D01*
X155612429Y-92620661D01*
X155612434Y-92620659D01*
X155617384Y-92619174D01*
X155817994Y-92520896D01*
X155999860Y-92391173D01*
X156014314Y-92376770D01*
X156154435Y-92237137D01*
X156158096Y-92233489D01*
X156177554Y-92206411D01*
X156285435Y-92056277D01*
X156288453Y-92052077D01*
X156361579Y-91904118D01*
X156385136Y-91856453D01*
X156385137Y-91856451D01*
X156387430Y-91851811D01*
X156452370Y-91638069D01*
X156481529Y-91416590D01*
X156483156Y-91350000D01*
X156480418Y-91316695D01*
X172797251Y-91316695D01*
X172797548Y-91321848D01*
X172797548Y-91321851D01*
X172803011Y-91416590D01*
X172810110Y-91539715D01*
X172811247Y-91544761D01*
X172811248Y-91544767D01*
X172831119Y-91632939D01*
X172859222Y-91757639D01*
X172943266Y-91964616D01*
X173059987Y-92155088D01*
X173206250Y-92323938D01*
X173378126Y-92466632D01*
X173571000Y-92579338D01*
X173575825Y-92581180D01*
X173575826Y-92581181D01*
X173648612Y-92608975D01*
X173779692Y-92659030D01*
X173784760Y-92660061D01*
X173784763Y-92660062D01*
X173892017Y-92681883D01*
X173998597Y-92703567D01*
X174003772Y-92703757D01*
X174003774Y-92703757D01*
X174216673Y-92711564D01*
X174216677Y-92711564D01*
X174221837Y-92711753D01*
X174226957Y-92711097D01*
X174226959Y-92711097D01*
X174438288Y-92684025D01*
X174438289Y-92684025D01*
X174443416Y-92683368D01*
X174493790Y-92668255D01*
X174652429Y-92620661D01*
X174652434Y-92620659D01*
X174657384Y-92619174D01*
X174857994Y-92520896D01*
X175039860Y-92391173D01*
X175054314Y-92376770D01*
X175194435Y-92237137D01*
X175198096Y-92233489D01*
X175217554Y-92206411D01*
X175325435Y-92056277D01*
X175328453Y-92052077D01*
X175401579Y-91904118D01*
X175425136Y-91856453D01*
X175425137Y-91856451D01*
X175427430Y-91851811D01*
X175492370Y-91638069D01*
X175521529Y-91416590D01*
X175523156Y-91350000D01*
X175504852Y-91127361D01*
X175450431Y-90910702D01*
X175361354Y-90705840D01*
X175240014Y-90518277D01*
X175089670Y-90353051D01*
X175085619Y-90349852D01*
X175085615Y-90349848D01*
X174918414Y-90217800D01*
X174918410Y-90217798D01*
X174914359Y-90214598D01*
X174718789Y-90106638D01*
X174713920Y-90104914D01*
X174713916Y-90104912D01*
X174513087Y-90033795D01*
X174513083Y-90033794D01*
X174508212Y-90032069D01*
X174503119Y-90031162D01*
X174503116Y-90031161D01*
X174293373Y-89993800D01*
X174293367Y-89993799D01*
X174288284Y-89992894D01*
X174214452Y-89991992D01*
X174070081Y-89990228D01*
X174070079Y-89990228D01*
X174064911Y-89990165D01*
X173844091Y-90023955D01*
X173631756Y-90093357D01*
X173433607Y-90196507D01*
X173429474Y-90199610D01*
X173429471Y-90199612D01*
X173405247Y-90217800D01*
X173254965Y-90330635D01*
X173100629Y-90492138D01*
X172974743Y-90676680D01*
X172880688Y-90879305D01*
X172820989Y-91094570D01*
X172797251Y-91316695D01*
X156480418Y-91316695D01*
X156464852Y-91127361D01*
X156410431Y-90910702D01*
X156321354Y-90705840D01*
X156200014Y-90518277D01*
X156049670Y-90353051D01*
X156045619Y-90349852D01*
X156045615Y-90349848D01*
X155878414Y-90217800D01*
X155878410Y-90217798D01*
X155874359Y-90214598D01*
X155678789Y-90106638D01*
X155673920Y-90104914D01*
X155673916Y-90104912D01*
X155473087Y-90033795D01*
X155473083Y-90033794D01*
X155468212Y-90032069D01*
X155463119Y-90031162D01*
X155463116Y-90031161D01*
X155253373Y-89993800D01*
X155253367Y-89993799D01*
X155248284Y-89992894D01*
X155174452Y-89991992D01*
X155030081Y-89990228D01*
X155030079Y-89990228D01*
X155024911Y-89990165D01*
X154804091Y-90023955D01*
X154591756Y-90093357D01*
X154393607Y-90196507D01*
X154389474Y-90199610D01*
X154389471Y-90199612D01*
X154365247Y-90217800D01*
X154214965Y-90330635D01*
X154060629Y-90492138D01*
X153934743Y-90676680D01*
X153840688Y-90879305D01*
X153780989Y-91094570D01*
X153757251Y-91316695D01*
X137680418Y-91316695D01*
X137664852Y-91127361D01*
X137610431Y-90910702D01*
X137521354Y-90705840D01*
X137400014Y-90518277D01*
X137249670Y-90353051D01*
X137245619Y-90349852D01*
X137245615Y-90349848D01*
X137078414Y-90217800D01*
X137078410Y-90217798D01*
X137074359Y-90214598D01*
X136878789Y-90106638D01*
X136873920Y-90104914D01*
X136873916Y-90104912D01*
X136673087Y-90033795D01*
X136673083Y-90033794D01*
X136668212Y-90032069D01*
X136663119Y-90031162D01*
X136663116Y-90031161D01*
X136453373Y-89993800D01*
X136453367Y-89993799D01*
X136448284Y-89992894D01*
X136374452Y-89991992D01*
X136230081Y-89990228D01*
X136230079Y-89990228D01*
X136224911Y-89990165D01*
X136004091Y-90023955D01*
X135791756Y-90093357D01*
X135593607Y-90196507D01*
X135589474Y-90199610D01*
X135589471Y-90199612D01*
X135565247Y-90217800D01*
X135414965Y-90330635D01*
X135260629Y-90492138D01*
X135134743Y-90676680D01*
X135040688Y-90879305D01*
X134980989Y-91094570D01*
X134957251Y-91316695D01*
X118580418Y-91316695D01*
X118564852Y-91127361D01*
X118510431Y-90910702D01*
X118421354Y-90705840D01*
X118300014Y-90518277D01*
X118149670Y-90353051D01*
X118145619Y-90349852D01*
X118145615Y-90349848D01*
X117978414Y-90217800D01*
X117978410Y-90217798D01*
X117974359Y-90214598D01*
X117778789Y-90106638D01*
X117773920Y-90104914D01*
X117773916Y-90104912D01*
X117573087Y-90033795D01*
X117573083Y-90033794D01*
X117568212Y-90032069D01*
X117563119Y-90031162D01*
X117563116Y-90031161D01*
X117353373Y-89993800D01*
X117353367Y-89993799D01*
X117348284Y-89992894D01*
X117274452Y-89991992D01*
X117130081Y-89990228D01*
X117130079Y-89990228D01*
X117124911Y-89990165D01*
X116904091Y-90023955D01*
X116691756Y-90093357D01*
X116493607Y-90196507D01*
X116489474Y-90199610D01*
X116489471Y-90199612D01*
X116465247Y-90217800D01*
X116314965Y-90330635D01*
X116160629Y-90492138D01*
X116034743Y-90676680D01*
X115940688Y-90879305D01*
X115880989Y-91094570D01*
X115857251Y-91316695D01*
X109728000Y-91316695D01*
X109728000Y-81547966D01*
X125668257Y-81547966D01*
X125698565Y-81682446D01*
X125701645Y-81692275D01*
X125781770Y-81889603D01*
X125786413Y-81898794D01*
X125897694Y-82080388D01*
X125903777Y-82088699D01*
X126043213Y-82249667D01*
X126050580Y-82256883D01*
X126214434Y-82392916D01*
X126222881Y-82398831D01*
X126406756Y-82506279D01*
X126416042Y-82510729D01*
X126615001Y-82586703D01*
X126624899Y-82589579D01*
X126728250Y-82610606D01*
X126742299Y-82609410D01*
X126746000Y-82599065D01*
X126746000Y-82598517D01*
X127254000Y-82598517D01*
X127258064Y-82612359D01*
X127271478Y-82614393D01*
X127278184Y-82613534D01*
X127288262Y-82611392D01*
X127492255Y-82550191D01*
X127501842Y-82546433D01*
X127693095Y-82452739D01*
X127701945Y-82447464D01*
X127875328Y-82323792D01*
X127883193Y-82317145D01*
X127987897Y-82212805D01*
X128050268Y-82178889D01*
X128121075Y-82184077D01*
X128177837Y-82226723D01*
X128194819Y-82257826D01*
X128239385Y-82376705D01*
X128326739Y-82493261D01*
X128443295Y-82580615D01*
X128579684Y-82631745D01*
X128641866Y-82638500D01*
X130438134Y-82638500D01*
X130500316Y-82631745D01*
X130636705Y-82580615D01*
X130753261Y-82493261D01*
X130840615Y-82376705D01*
X130891745Y-82240316D01*
X130898500Y-82178134D01*
X130898500Y-80381866D01*
X130891745Y-80319684D01*
X130840615Y-80183295D01*
X130753261Y-80066739D01*
X130636705Y-79979385D01*
X130500316Y-79928255D01*
X130438134Y-79921500D01*
X128641866Y-79921500D01*
X128579684Y-79928255D01*
X128443295Y-79979385D01*
X128326739Y-80066739D01*
X128239385Y-80183295D01*
X128236233Y-80191703D01*
X128236232Y-80191705D01*
X128194722Y-80302433D01*
X128152081Y-80359198D01*
X128085519Y-80383898D01*
X128016170Y-80368691D01*
X127983546Y-80343004D01*
X127932799Y-80287234D01*
X127925273Y-80280215D01*
X127758139Y-80148222D01*
X127749552Y-80142517D01*
X127563117Y-80039599D01*
X127553705Y-80035369D01*
X127352959Y-79964280D01*
X127342988Y-79961646D01*
X127271837Y-79948972D01*
X127258540Y-79950432D01*
X127254000Y-79964989D01*
X127254000Y-82598517D01*
X126746000Y-82598517D01*
X126746000Y-81552115D01*
X126741525Y-81536876D01*
X126740135Y-81535671D01*
X126732452Y-81534000D01*
X125683225Y-81534000D01*
X125669694Y-81537973D01*
X125668257Y-81547966D01*
X109728000Y-81547966D01*
X109728000Y-81014183D01*
X125664389Y-81014183D01*
X125665912Y-81022607D01*
X125678292Y-81026000D01*
X126727885Y-81026000D01*
X126743124Y-81021525D01*
X126744329Y-81020135D01*
X126746000Y-81012452D01*
X126746000Y-79963102D01*
X126742082Y-79949758D01*
X126727806Y-79947771D01*
X126689324Y-79953660D01*
X126679288Y-79956051D01*
X126476868Y-80022212D01*
X126467359Y-80026209D01*
X126278463Y-80124542D01*
X126269738Y-80130036D01*
X126099433Y-80257905D01*
X126091726Y-80264748D01*
X125944590Y-80418717D01*
X125938104Y-80426727D01*
X125818098Y-80602649D01*
X125813000Y-80611623D01*
X125723338Y-80804783D01*
X125719775Y-80814470D01*
X125664389Y-81014183D01*
X109728000Y-81014183D01*
X109728000Y-78198134D01*
X122131500Y-78198134D01*
X122138255Y-78260316D01*
X122189385Y-78396705D01*
X122276739Y-78513261D01*
X122393295Y-78600615D01*
X122529684Y-78651745D01*
X122591866Y-78658500D01*
X123788134Y-78658500D01*
X123850316Y-78651745D01*
X123986705Y-78600615D01*
X124103261Y-78513261D01*
X124190615Y-78396705D01*
X124193767Y-78388296D01*
X124198077Y-78380425D01*
X124199741Y-78381336D01*
X124235663Y-78333510D01*
X124302224Y-78308807D01*
X124311009Y-78308500D01*
X136684340Y-78308500D01*
X136752461Y-78328502D01*
X136773435Y-78345405D01*
X137778557Y-79350528D01*
X137784411Y-79356793D01*
X137822439Y-79400385D01*
X137874729Y-79437136D01*
X137879971Y-79441028D01*
X137930282Y-79480476D01*
X137937201Y-79483600D01*
X137939493Y-79484988D01*
X137954165Y-79493357D01*
X137956525Y-79494622D01*
X137962739Y-79498990D01*
X137969818Y-79501750D01*
X137969820Y-79501751D01*
X138022275Y-79522202D01*
X138028344Y-79524753D01*
X138086573Y-79551045D01*
X138094046Y-79552430D01*
X138096612Y-79553234D01*
X138112835Y-79557855D01*
X138115427Y-79558520D01*
X138122509Y-79561282D01*
X138130044Y-79562274D01*
X138185861Y-79569622D01*
X138192377Y-79570654D01*
X138230770Y-79577770D01*
X138255186Y-79582295D01*
X138262766Y-79581858D01*
X138262767Y-79581858D01*
X138312384Y-79578997D01*
X138317380Y-79578709D01*
X138324633Y-79578500D01*
X139848991Y-79578500D01*
X139917112Y-79598502D01*
X139963605Y-79652158D01*
X139965903Y-79657694D01*
X139966232Y-79658296D01*
X139969385Y-79666705D01*
X140056739Y-79783261D01*
X140173295Y-79870615D01*
X140309684Y-79921745D01*
X140371866Y-79928500D01*
X141568134Y-79928500D01*
X141630316Y-79921745D01*
X141766705Y-79870615D01*
X141883261Y-79783261D01*
X141970615Y-79666705D01*
X141973767Y-79658296D01*
X141978077Y-79650425D01*
X141979741Y-79651336D01*
X142015663Y-79603510D01*
X142082224Y-79578807D01*
X142091009Y-79578500D01*
X152022888Y-79578500D01*
X152074136Y-79589393D01*
X152111676Y-79606107D01*
X152111679Y-79606108D01*
X152117712Y-79608794D01*
X152159340Y-79617642D01*
X152298056Y-79647128D01*
X152298061Y-79647128D01*
X152304513Y-79648500D01*
X152495487Y-79648500D01*
X152501939Y-79647128D01*
X152501944Y-79647128D01*
X152640660Y-79617642D01*
X152682288Y-79608794D01*
X152688321Y-79606108D01*
X152688324Y-79606107D01*
X152725864Y-79589393D01*
X152777112Y-79578500D01*
X159991088Y-79578500D01*
X159999658Y-79578792D01*
X160049776Y-79582209D01*
X160049780Y-79582209D01*
X160057352Y-79582725D01*
X160064829Y-79581420D01*
X160064830Y-79581420D01*
X160091308Y-79576799D01*
X160120303Y-79571738D01*
X160126821Y-79570777D01*
X160190242Y-79563102D01*
X160197343Y-79560419D01*
X160199952Y-79559778D01*
X160216262Y-79555315D01*
X160218798Y-79554550D01*
X160226284Y-79553243D01*
X160284800Y-79527556D01*
X160290904Y-79525065D01*
X160343548Y-79505173D01*
X160343549Y-79505172D01*
X160350656Y-79502487D01*
X160356919Y-79498183D01*
X160359285Y-79496946D01*
X160374097Y-79488701D01*
X160376351Y-79487368D01*
X160383305Y-79484315D01*
X160434002Y-79445413D01*
X160439332Y-79441541D01*
X160485720Y-79409661D01*
X160485725Y-79409656D01*
X160491981Y-79405357D01*
X160533427Y-79358839D01*
X160538408Y-79353562D01*
X161196567Y-78695404D01*
X161258879Y-78661379D01*
X161285662Y-78658500D01*
X161888134Y-78658500D01*
X161950316Y-78651745D01*
X162086705Y-78600615D01*
X162203261Y-78513261D01*
X162290615Y-78396705D01*
X162293767Y-78388296D01*
X162298077Y-78380425D01*
X162299741Y-78381336D01*
X162335663Y-78333510D01*
X162402224Y-78308807D01*
X162411009Y-78308500D01*
X179218991Y-78308500D01*
X179287112Y-78328502D01*
X179333605Y-78382158D01*
X179335903Y-78387694D01*
X179336232Y-78388296D01*
X179339385Y-78396705D01*
X179426739Y-78513261D01*
X179543295Y-78600615D01*
X179679684Y-78651745D01*
X179741866Y-78658500D01*
X180938134Y-78658500D01*
X181000316Y-78651745D01*
X181136705Y-78600615D01*
X181253261Y-78513261D01*
X181340615Y-78396705D01*
X181391745Y-78260316D01*
X181398500Y-78198134D01*
X181398500Y-77001866D01*
X181391745Y-76939684D01*
X181340615Y-76803295D01*
X181253261Y-76686739D01*
X181136705Y-76599385D01*
X181000316Y-76548255D01*
X180938134Y-76541500D01*
X179741866Y-76541500D01*
X179679684Y-76548255D01*
X179543295Y-76599385D01*
X179426739Y-76686739D01*
X179339385Y-76803295D01*
X179336233Y-76811703D01*
X179331923Y-76819575D01*
X179330259Y-76818664D01*
X179294337Y-76866490D01*
X179227776Y-76891193D01*
X179218991Y-76891500D01*
X162411009Y-76891500D01*
X162342888Y-76871498D01*
X162296395Y-76817842D01*
X162294097Y-76812306D01*
X162293767Y-76811703D01*
X162290615Y-76803295D01*
X162203261Y-76686739D01*
X162086705Y-76599385D01*
X161950316Y-76548255D01*
X161888134Y-76541500D01*
X160691866Y-76541500D01*
X160629684Y-76548255D01*
X160493295Y-76599385D01*
X160376739Y-76686739D01*
X160289385Y-76803295D01*
X160238255Y-76939684D01*
X160231500Y-77001866D01*
X160231500Y-77604340D01*
X160211498Y-77672461D01*
X160194595Y-77693435D01*
X159763435Y-78124595D01*
X159701123Y-78158621D01*
X159674340Y-78161500D01*
X153157721Y-78161500D01*
X153089600Y-78141498D01*
X153064085Y-78119810D01*
X153015675Y-78066045D01*
X153015674Y-78066044D01*
X153011253Y-78061134D01*
X152856752Y-77948882D01*
X152850724Y-77946198D01*
X152850722Y-77946197D01*
X152688319Y-77873891D01*
X152688318Y-77873891D01*
X152682288Y-77871206D01*
X152588888Y-77851353D01*
X152501944Y-77832872D01*
X152501939Y-77832872D01*
X152495487Y-77831500D01*
X152304513Y-77831500D01*
X152298061Y-77832872D01*
X152298056Y-77832872D01*
X152211112Y-77851353D01*
X152117712Y-77871206D01*
X152111682Y-77873891D01*
X152111681Y-77873891D01*
X151949278Y-77946197D01*
X151949276Y-77946198D01*
X151943248Y-77948882D01*
X151788747Y-78061134D01*
X151784326Y-78066044D01*
X151784325Y-78066045D01*
X151735915Y-78119810D01*
X151675469Y-78157050D01*
X151642279Y-78161500D01*
X142091009Y-78161500D01*
X142022888Y-78141498D01*
X141976395Y-78087842D01*
X141974097Y-78082306D01*
X141973768Y-78081704D01*
X141970615Y-78073295D01*
X141883261Y-77956739D01*
X141766705Y-77869385D01*
X141630316Y-77818255D01*
X141568134Y-77811500D01*
X140371866Y-77811500D01*
X140309684Y-77818255D01*
X140173295Y-77869385D01*
X140056739Y-77956739D01*
X139969385Y-78073295D01*
X139966233Y-78081704D01*
X139961923Y-78089575D01*
X139960259Y-78088664D01*
X139924337Y-78136490D01*
X139857776Y-78161193D01*
X139848991Y-78161500D01*
X138645660Y-78161500D01*
X138577539Y-78141498D01*
X138556565Y-78124595D01*
X137551450Y-77119480D01*
X137545596Y-77113215D01*
X137545201Y-77112762D01*
X137507561Y-77069615D01*
X137455280Y-77032871D01*
X137449986Y-77028939D01*
X137405693Y-76994209D01*
X137399718Y-76989524D01*
X137392802Y-76986401D01*
X137390516Y-76985017D01*
X137375835Y-76976643D01*
X137373475Y-76975378D01*
X137367261Y-76971010D01*
X137360182Y-76968250D01*
X137360180Y-76968249D01*
X137307725Y-76947798D01*
X137301656Y-76945247D01*
X137243427Y-76918955D01*
X137235960Y-76917571D01*
X137233405Y-76916770D01*
X137217152Y-76912141D01*
X137214572Y-76911478D01*
X137207491Y-76908718D01*
X137199960Y-76907727D01*
X137199958Y-76907726D01*
X137170339Y-76903827D01*
X137144139Y-76900378D01*
X137137641Y-76899348D01*
X137074814Y-76887704D01*
X137067234Y-76888141D01*
X137067233Y-76888141D01*
X137012608Y-76891291D01*
X137005354Y-76891500D01*
X124311009Y-76891500D01*
X124242888Y-76871498D01*
X124196395Y-76817842D01*
X124194097Y-76812306D01*
X124193767Y-76811703D01*
X124190615Y-76803295D01*
X124103261Y-76686739D01*
X123986705Y-76599385D01*
X123850316Y-76548255D01*
X123788134Y-76541500D01*
X122591866Y-76541500D01*
X122529684Y-76548255D01*
X122393295Y-76599385D01*
X122276739Y-76686739D01*
X122189385Y-76803295D01*
X122138255Y-76939684D01*
X122131500Y-77001866D01*
X122131500Y-78198134D01*
X109728000Y-78198134D01*
X109728000Y-72226695D01*
X115857251Y-72226695D01*
X115857548Y-72231848D01*
X115857548Y-72231851D01*
X115863011Y-72326590D01*
X115870110Y-72449715D01*
X115871247Y-72454761D01*
X115871248Y-72454767D01*
X115891119Y-72542939D01*
X115919222Y-72667639D01*
X115957461Y-72761811D01*
X115991458Y-72845535D01*
X116003266Y-72874616D01*
X116119987Y-73065088D01*
X116266250Y-73233938D01*
X116438126Y-73376632D01*
X116631000Y-73489338D01*
X116839692Y-73569030D01*
X116844760Y-73570061D01*
X116844763Y-73570062D01*
X116952017Y-73591883D01*
X117058597Y-73613567D01*
X117063772Y-73613757D01*
X117063774Y-73613757D01*
X117276673Y-73621564D01*
X117276677Y-73621564D01*
X117281837Y-73621753D01*
X117286957Y-73621097D01*
X117286959Y-73621097D01*
X117498288Y-73594025D01*
X117498289Y-73594025D01*
X117503416Y-73593368D01*
X117508366Y-73591883D01*
X117712429Y-73530661D01*
X117712434Y-73530659D01*
X117717384Y-73529174D01*
X117783682Y-73496695D01*
X118837251Y-73496695D01*
X118837548Y-73501848D01*
X118837548Y-73501851D01*
X118844424Y-73621097D01*
X118850110Y-73719715D01*
X118851247Y-73724761D01*
X118851248Y-73724767D01*
X118857167Y-73751029D01*
X118899222Y-73937639D01*
X118983266Y-74144616D01*
X119099987Y-74335088D01*
X119246250Y-74503938D01*
X119418126Y-74646632D01*
X119611000Y-74759338D01*
X119819692Y-74839030D01*
X119824760Y-74840061D01*
X119824763Y-74840062D01*
X119932017Y-74861883D01*
X120038597Y-74883567D01*
X120043772Y-74883757D01*
X120043774Y-74883757D01*
X120256673Y-74891564D01*
X120256677Y-74891564D01*
X120261837Y-74891753D01*
X120266957Y-74891097D01*
X120266959Y-74891097D01*
X120478288Y-74864025D01*
X120478289Y-74864025D01*
X120483416Y-74863368D01*
X120488366Y-74861883D01*
X120692429Y-74800661D01*
X120692434Y-74800659D01*
X120697384Y-74799174D01*
X120897994Y-74700896D01*
X121079860Y-74571173D01*
X121238096Y-74413489D01*
X121241112Y-74409292D01*
X121326132Y-74290974D01*
X121382127Y-74247326D01*
X121428455Y-74238500D01*
X121574339Y-74238500D01*
X121642460Y-74258502D01*
X121663435Y-74275405D01*
X122094596Y-74706567D01*
X122128621Y-74768879D01*
X122131500Y-74795662D01*
X122131500Y-75398134D01*
X122138255Y-75460316D01*
X122189385Y-75596705D01*
X122276739Y-75713261D01*
X122393295Y-75800615D01*
X122529684Y-75851745D01*
X122591866Y-75858500D01*
X123788134Y-75858500D01*
X123850316Y-75851745D01*
X123986705Y-75800615D01*
X124103261Y-75713261D01*
X124190615Y-75596705D01*
X124241745Y-75460316D01*
X124248500Y-75398134D01*
X124248500Y-74201866D01*
X124241745Y-74139684D01*
X124190615Y-74003295D01*
X124103261Y-73886739D01*
X123986705Y-73799385D01*
X123850316Y-73748255D01*
X123788134Y-73741500D01*
X123185660Y-73741500D01*
X123117539Y-73721498D01*
X123096565Y-73704595D01*
X122441450Y-73049480D01*
X122435596Y-73043215D01*
X122435201Y-73042762D01*
X122397561Y-72999615D01*
X122345280Y-72962871D01*
X122339986Y-72958939D01*
X122295693Y-72924209D01*
X122289718Y-72919524D01*
X122282802Y-72916401D01*
X122280516Y-72915017D01*
X122265835Y-72906643D01*
X122263475Y-72905378D01*
X122257261Y-72901010D01*
X122250182Y-72898250D01*
X122250180Y-72898249D01*
X122197725Y-72877798D01*
X122191656Y-72875247D01*
X122133427Y-72848955D01*
X122125960Y-72847571D01*
X122123405Y-72846770D01*
X122107152Y-72842141D01*
X122104572Y-72841478D01*
X122097491Y-72838718D01*
X122089960Y-72837727D01*
X122089958Y-72837726D01*
X122060339Y-72833827D01*
X122034139Y-72830378D01*
X122027641Y-72829348D01*
X121964814Y-72817704D01*
X121957234Y-72818141D01*
X121957233Y-72818141D01*
X121902608Y-72821291D01*
X121895354Y-72821500D01*
X121428286Y-72821500D01*
X121360165Y-72801498D01*
X121322494Y-72763941D01*
X121317911Y-72756857D01*
X121280014Y-72698277D01*
X121129670Y-72533051D01*
X121125619Y-72529852D01*
X121125615Y-72529848D01*
X120958414Y-72397800D01*
X120958410Y-72397798D01*
X120954359Y-72394598D01*
X120758789Y-72286638D01*
X120753920Y-72284914D01*
X120753916Y-72284912D01*
X120589516Y-72226695D01*
X134957251Y-72226695D01*
X134957548Y-72231848D01*
X134957548Y-72231851D01*
X134963011Y-72326590D01*
X134970110Y-72449715D01*
X134971247Y-72454761D01*
X134971248Y-72454767D01*
X134991119Y-72542939D01*
X135019222Y-72667639D01*
X135057461Y-72761811D01*
X135091458Y-72845535D01*
X135103266Y-72874616D01*
X135219987Y-73065088D01*
X135366250Y-73233938D01*
X135538126Y-73376632D01*
X135731000Y-73489338D01*
X135939692Y-73569030D01*
X135944760Y-73570061D01*
X135944763Y-73570062D01*
X136052017Y-73591883D01*
X136158597Y-73613567D01*
X136163772Y-73613757D01*
X136163774Y-73613757D01*
X136376673Y-73621564D01*
X136376677Y-73621564D01*
X136381837Y-73621753D01*
X136386957Y-73621097D01*
X136386959Y-73621097D01*
X136598288Y-73594025D01*
X136598289Y-73594025D01*
X136603416Y-73593368D01*
X136608366Y-73591883D01*
X136812429Y-73530661D01*
X136812434Y-73530659D01*
X136817384Y-73529174D01*
X136883682Y-73496695D01*
X137847251Y-73496695D01*
X137847548Y-73501848D01*
X137847548Y-73501851D01*
X137854424Y-73621097D01*
X137860110Y-73719715D01*
X137861247Y-73724761D01*
X137861248Y-73724767D01*
X137867167Y-73751029D01*
X137909222Y-73937639D01*
X137993266Y-74144616D01*
X138109987Y-74335088D01*
X138256250Y-74503938D01*
X138428126Y-74646632D01*
X138621000Y-74759338D01*
X138625823Y-74761180D01*
X138625832Y-74761184D01*
X138648801Y-74769955D01*
X138687669Y-74793587D01*
X138721169Y-74823434D01*
X138726446Y-74828416D01*
X139874595Y-75976565D01*
X139908621Y-76038877D01*
X139911500Y-76065660D01*
X139911500Y-76668134D01*
X139918255Y-76730316D01*
X139969385Y-76866705D01*
X140056739Y-76983261D01*
X140173295Y-77070615D01*
X140309684Y-77121745D01*
X140371866Y-77128500D01*
X141568134Y-77128500D01*
X141630316Y-77121745D01*
X141766705Y-77070615D01*
X141883261Y-76983261D01*
X141970615Y-76866705D01*
X142021745Y-76730316D01*
X142028500Y-76668134D01*
X142028500Y-75471866D01*
X142021745Y-75409684D01*
X141970615Y-75273295D01*
X141883261Y-75156739D01*
X141766705Y-75069385D01*
X141630316Y-75018255D01*
X141568134Y-75011500D01*
X140965660Y-75011500D01*
X140897539Y-74991498D01*
X140876565Y-74974595D01*
X140351954Y-74449984D01*
X140317928Y-74387672D01*
X140322993Y-74316857D01*
X140338726Y-74287363D01*
X140347319Y-74275405D01*
X140378453Y-74232077D01*
X140391696Y-74205283D01*
X140475136Y-74036453D01*
X140475137Y-74036451D01*
X140477430Y-74031811D01*
X140542370Y-73818069D01*
X140571529Y-73596590D01*
X140572177Y-73570062D01*
X140573074Y-73533365D01*
X140573074Y-73533361D01*
X140573156Y-73530000D01*
X140554852Y-73307361D01*
X140500431Y-73090702D01*
X140411354Y-72885840D01*
X140290014Y-72698277D01*
X140139670Y-72533051D01*
X140135619Y-72529852D01*
X140135615Y-72529848D01*
X139968414Y-72397800D01*
X139968410Y-72397798D01*
X139964359Y-72394598D01*
X139768789Y-72286638D01*
X139763920Y-72284914D01*
X139763916Y-72284912D01*
X139599516Y-72226695D01*
X153757251Y-72226695D01*
X153757548Y-72231848D01*
X153757548Y-72231851D01*
X153763011Y-72326590D01*
X153770110Y-72449715D01*
X153771247Y-72454761D01*
X153771248Y-72454767D01*
X153791119Y-72542939D01*
X153819222Y-72667639D01*
X153857461Y-72761811D01*
X153891458Y-72845535D01*
X153903266Y-72874616D01*
X154019987Y-73065088D01*
X154166250Y-73233938D01*
X154338126Y-73376632D01*
X154531000Y-73489338D01*
X154739692Y-73569030D01*
X154744760Y-73570061D01*
X154744763Y-73570062D01*
X154852017Y-73591883D01*
X154958597Y-73613567D01*
X154963772Y-73613757D01*
X154963774Y-73613757D01*
X155176673Y-73621564D01*
X155176677Y-73621564D01*
X155181837Y-73621753D01*
X155186957Y-73621097D01*
X155186959Y-73621097D01*
X155398288Y-73594025D01*
X155398289Y-73594025D01*
X155403416Y-73593368D01*
X155408366Y-73591883D01*
X155612429Y-73530661D01*
X155612434Y-73530659D01*
X155617384Y-73529174D01*
X155683682Y-73496695D01*
X156747251Y-73496695D01*
X156747548Y-73501848D01*
X156747548Y-73501851D01*
X156754424Y-73621097D01*
X156760110Y-73719715D01*
X156761247Y-73724761D01*
X156761248Y-73724767D01*
X156767167Y-73751029D01*
X156809222Y-73937639D01*
X156893266Y-74144616D01*
X157009987Y-74335088D01*
X157156250Y-74503938D01*
X157328126Y-74646632D01*
X157521000Y-74759338D01*
X157729692Y-74839030D01*
X157734760Y-74840061D01*
X157734763Y-74840062D01*
X157842017Y-74861883D01*
X157948597Y-74883567D01*
X157953772Y-74883757D01*
X157953774Y-74883757D01*
X158166673Y-74891564D01*
X158166677Y-74891564D01*
X158171837Y-74891753D01*
X158176957Y-74891097D01*
X158176959Y-74891097D01*
X158388288Y-74864025D01*
X158388289Y-74864025D01*
X158393416Y-74863368D01*
X158398366Y-74861883D01*
X158602429Y-74800661D01*
X158602434Y-74800659D01*
X158607384Y-74799174D01*
X158807994Y-74700896D01*
X158989860Y-74571173D01*
X159148096Y-74413489D01*
X159151112Y-74409292D01*
X159236132Y-74290974D01*
X159292127Y-74247326D01*
X159338455Y-74238500D01*
X159674339Y-74238500D01*
X159742460Y-74258502D01*
X159763435Y-74275405D01*
X160194596Y-74706567D01*
X160228621Y-74768879D01*
X160231500Y-74795662D01*
X160231500Y-75398134D01*
X160238255Y-75460316D01*
X160289385Y-75596705D01*
X160376739Y-75713261D01*
X160493295Y-75800615D01*
X160629684Y-75851745D01*
X160691866Y-75858500D01*
X161888134Y-75858500D01*
X161950316Y-75851745D01*
X162086705Y-75800615D01*
X162203261Y-75713261D01*
X162290615Y-75596705D01*
X162341745Y-75460316D01*
X162348500Y-75398134D01*
X162348500Y-74201866D01*
X162341745Y-74139684D01*
X162290615Y-74003295D01*
X162203261Y-73886739D01*
X162086705Y-73799385D01*
X161950316Y-73748255D01*
X161888134Y-73741500D01*
X161285660Y-73741500D01*
X161217539Y-73721498D01*
X161196565Y-73704595D01*
X160541450Y-73049480D01*
X160535596Y-73043215D01*
X160535201Y-73042762D01*
X160497561Y-72999615D01*
X160445280Y-72962871D01*
X160439986Y-72958939D01*
X160395693Y-72924209D01*
X160389718Y-72919524D01*
X160382802Y-72916401D01*
X160380516Y-72915017D01*
X160365835Y-72906643D01*
X160363475Y-72905378D01*
X160357261Y-72901010D01*
X160350182Y-72898250D01*
X160350180Y-72898249D01*
X160297725Y-72877798D01*
X160291656Y-72875247D01*
X160233427Y-72848955D01*
X160225960Y-72847571D01*
X160223405Y-72846770D01*
X160207152Y-72842141D01*
X160204572Y-72841478D01*
X160197491Y-72838718D01*
X160189960Y-72837727D01*
X160189958Y-72837726D01*
X160160339Y-72833827D01*
X160134139Y-72830378D01*
X160127641Y-72829348D01*
X160064814Y-72817704D01*
X160057234Y-72818141D01*
X160057233Y-72818141D01*
X160002608Y-72821291D01*
X159995354Y-72821500D01*
X159338286Y-72821500D01*
X159270165Y-72801498D01*
X159232494Y-72763941D01*
X159227911Y-72756857D01*
X159190014Y-72698277D01*
X159039670Y-72533051D01*
X159035619Y-72529852D01*
X159035615Y-72529848D01*
X158868414Y-72397800D01*
X158868410Y-72397798D01*
X158864359Y-72394598D01*
X158668789Y-72286638D01*
X158663920Y-72284914D01*
X158663916Y-72284912D01*
X158499516Y-72226695D01*
X172797251Y-72226695D01*
X172797548Y-72231848D01*
X172797548Y-72231851D01*
X172803011Y-72326590D01*
X172810110Y-72449715D01*
X172811247Y-72454761D01*
X172811248Y-72454767D01*
X172831119Y-72542939D01*
X172859222Y-72667639D01*
X172897461Y-72761811D01*
X172931458Y-72845535D01*
X172943266Y-72874616D01*
X173059987Y-73065088D01*
X173206250Y-73233938D01*
X173378126Y-73376632D01*
X173571000Y-73489338D01*
X173779692Y-73569030D01*
X173784760Y-73570061D01*
X173784763Y-73570062D01*
X173892017Y-73591883D01*
X173998597Y-73613567D01*
X174003772Y-73613757D01*
X174003774Y-73613757D01*
X174216673Y-73621564D01*
X174216677Y-73621564D01*
X174221837Y-73621753D01*
X174226957Y-73621097D01*
X174226959Y-73621097D01*
X174438288Y-73594025D01*
X174438289Y-73594025D01*
X174443416Y-73593368D01*
X174448366Y-73591883D01*
X174652429Y-73530661D01*
X174652434Y-73530659D01*
X174657384Y-73529174D01*
X174723682Y-73496695D01*
X175647251Y-73496695D01*
X175647548Y-73501848D01*
X175647548Y-73501851D01*
X175654424Y-73621097D01*
X175660110Y-73719715D01*
X175661247Y-73724761D01*
X175661248Y-73724767D01*
X175667167Y-73751029D01*
X175709222Y-73937639D01*
X175793266Y-74144616D01*
X175909987Y-74335088D01*
X176056250Y-74503938D01*
X176228126Y-74646632D01*
X176421000Y-74759338D01*
X176629692Y-74839030D01*
X176634760Y-74840061D01*
X176634763Y-74840062D01*
X176742017Y-74861883D01*
X176848597Y-74883567D01*
X176853772Y-74883757D01*
X176853774Y-74883757D01*
X177066673Y-74891564D01*
X177066677Y-74891564D01*
X177071837Y-74891753D01*
X177076957Y-74891097D01*
X177076959Y-74891097D01*
X177288288Y-74864025D01*
X177288289Y-74864025D01*
X177293416Y-74863368D01*
X177298366Y-74861883D01*
X177502429Y-74800661D01*
X177502434Y-74800659D01*
X177507384Y-74799174D01*
X177707994Y-74700896D01*
X177889860Y-74571173D01*
X178048096Y-74413489D01*
X178051112Y-74409292D01*
X178136132Y-74290974D01*
X178192127Y-74247326D01*
X178238455Y-74238500D01*
X178724339Y-74238500D01*
X178792460Y-74258502D01*
X178813435Y-74275405D01*
X179244596Y-74706567D01*
X179278621Y-74768879D01*
X179281500Y-74795662D01*
X179281500Y-75398134D01*
X179288255Y-75460316D01*
X179339385Y-75596705D01*
X179426739Y-75713261D01*
X179543295Y-75800615D01*
X179679684Y-75851745D01*
X179741866Y-75858500D01*
X180938134Y-75858500D01*
X181000316Y-75851745D01*
X181136705Y-75800615D01*
X181253261Y-75713261D01*
X181340615Y-75596705D01*
X181391745Y-75460316D01*
X181398500Y-75398134D01*
X181398500Y-74201866D01*
X181391745Y-74139684D01*
X181340615Y-74003295D01*
X181253261Y-73886739D01*
X181136705Y-73799385D01*
X181000316Y-73748255D01*
X180938134Y-73741500D01*
X180335660Y-73741500D01*
X180267539Y-73721498D01*
X180246565Y-73704595D01*
X179591450Y-73049480D01*
X179585596Y-73043215D01*
X179585201Y-73042762D01*
X179547561Y-72999615D01*
X179495280Y-72962871D01*
X179489986Y-72958939D01*
X179445693Y-72924209D01*
X179439718Y-72919524D01*
X179432802Y-72916401D01*
X179430516Y-72915017D01*
X179415835Y-72906643D01*
X179413475Y-72905378D01*
X179407261Y-72901010D01*
X179400182Y-72898250D01*
X179400180Y-72898249D01*
X179347725Y-72877798D01*
X179341656Y-72875247D01*
X179283427Y-72848955D01*
X179275960Y-72847571D01*
X179273405Y-72846770D01*
X179257152Y-72842141D01*
X179254572Y-72841478D01*
X179247491Y-72838718D01*
X179239960Y-72837727D01*
X179239958Y-72837726D01*
X179210339Y-72833827D01*
X179184139Y-72830378D01*
X179177641Y-72829348D01*
X179114814Y-72817704D01*
X179107234Y-72818141D01*
X179107233Y-72818141D01*
X179052608Y-72821291D01*
X179045354Y-72821500D01*
X178238286Y-72821500D01*
X178170165Y-72801498D01*
X178132494Y-72763941D01*
X178127911Y-72756857D01*
X178090014Y-72698277D01*
X177939670Y-72533051D01*
X177935619Y-72529852D01*
X177935615Y-72529848D01*
X177768414Y-72397800D01*
X177768410Y-72397798D01*
X177764359Y-72394598D01*
X177568789Y-72286638D01*
X177563920Y-72284914D01*
X177563916Y-72284912D01*
X177363087Y-72213795D01*
X177363083Y-72213794D01*
X177358212Y-72212069D01*
X177353119Y-72211162D01*
X177353116Y-72211161D01*
X177143373Y-72173800D01*
X177143367Y-72173799D01*
X177138284Y-72172894D01*
X177064452Y-72171992D01*
X176920081Y-72170228D01*
X176920079Y-72170228D01*
X176914911Y-72170165D01*
X176694091Y-72203955D01*
X176481756Y-72273357D01*
X176451443Y-72289137D01*
X176379497Y-72326590D01*
X176283607Y-72376507D01*
X176279474Y-72379610D01*
X176279471Y-72379612D01*
X176179374Y-72454767D01*
X176104965Y-72510635D01*
X176101393Y-72514373D01*
X175959748Y-72662596D01*
X175950629Y-72672138D01*
X175824743Y-72856680D01*
X175804166Y-72901010D01*
X175735249Y-73049480D01*
X175730688Y-73059305D01*
X175670989Y-73274570D01*
X175647251Y-73496695D01*
X174723682Y-73496695D01*
X174857994Y-73430896D01*
X175039860Y-73301173D01*
X175198096Y-73143489D01*
X175257594Y-73060689D01*
X175325435Y-72966277D01*
X175328453Y-72962077D01*
X175347169Y-72924209D01*
X175425136Y-72766453D01*
X175425137Y-72766451D01*
X175427430Y-72761811D01*
X175492370Y-72548069D01*
X175521529Y-72326590D01*
X175522505Y-72286638D01*
X175523074Y-72263365D01*
X175523074Y-72263361D01*
X175523156Y-72260000D01*
X175504852Y-72037361D01*
X175450431Y-71820702D01*
X175361354Y-71615840D01*
X175240014Y-71428277D01*
X175089670Y-71263051D01*
X175085619Y-71259852D01*
X175085615Y-71259848D01*
X174918414Y-71127800D01*
X174918410Y-71127798D01*
X174914359Y-71124598D01*
X174718789Y-71016638D01*
X174713920Y-71014914D01*
X174713916Y-71014912D01*
X174513087Y-70943795D01*
X174513083Y-70943794D01*
X174508212Y-70942069D01*
X174503119Y-70941162D01*
X174503116Y-70941161D01*
X174293373Y-70903800D01*
X174293367Y-70903799D01*
X174288284Y-70902894D01*
X174214452Y-70901992D01*
X174070081Y-70900228D01*
X174070079Y-70900228D01*
X174064911Y-70900165D01*
X173844091Y-70933955D01*
X173631756Y-71003357D01*
X173433607Y-71106507D01*
X173429474Y-71109610D01*
X173429471Y-71109612D01*
X173405247Y-71127800D01*
X173254965Y-71240635D01*
X173100629Y-71402138D01*
X172974743Y-71586680D01*
X172880688Y-71789305D01*
X172820989Y-72004570D01*
X172797251Y-72226695D01*
X158499516Y-72226695D01*
X158463087Y-72213795D01*
X158463083Y-72213794D01*
X158458212Y-72212069D01*
X158453119Y-72211162D01*
X158453116Y-72211161D01*
X158243373Y-72173800D01*
X158243367Y-72173799D01*
X158238284Y-72172894D01*
X158164452Y-72171992D01*
X158020081Y-72170228D01*
X158020079Y-72170228D01*
X158014911Y-72170165D01*
X157794091Y-72203955D01*
X157581756Y-72273357D01*
X157551443Y-72289137D01*
X157479497Y-72326590D01*
X157383607Y-72376507D01*
X157379474Y-72379610D01*
X157379471Y-72379612D01*
X157279374Y-72454767D01*
X157204965Y-72510635D01*
X157201393Y-72514373D01*
X157059748Y-72662596D01*
X157050629Y-72672138D01*
X156924743Y-72856680D01*
X156904166Y-72901010D01*
X156835249Y-73049480D01*
X156830688Y-73059305D01*
X156770989Y-73274570D01*
X156747251Y-73496695D01*
X155683682Y-73496695D01*
X155817994Y-73430896D01*
X155999860Y-73301173D01*
X156158096Y-73143489D01*
X156217594Y-73060689D01*
X156285435Y-72966277D01*
X156288453Y-72962077D01*
X156307169Y-72924209D01*
X156385136Y-72766453D01*
X156385137Y-72766451D01*
X156387430Y-72761811D01*
X156452370Y-72548069D01*
X156481529Y-72326590D01*
X156482505Y-72286638D01*
X156483074Y-72263365D01*
X156483074Y-72263361D01*
X156483156Y-72260000D01*
X156464852Y-72037361D01*
X156410431Y-71820702D01*
X156321354Y-71615840D01*
X156200014Y-71428277D01*
X156049670Y-71263051D01*
X156045619Y-71259852D01*
X156045615Y-71259848D01*
X155878414Y-71127800D01*
X155878410Y-71127798D01*
X155874359Y-71124598D01*
X155678789Y-71016638D01*
X155673920Y-71014914D01*
X155673916Y-71014912D01*
X155473087Y-70943795D01*
X155473083Y-70943794D01*
X155468212Y-70942069D01*
X155463119Y-70941162D01*
X155463116Y-70941161D01*
X155253373Y-70903800D01*
X155253367Y-70903799D01*
X155248284Y-70902894D01*
X155174452Y-70901992D01*
X155030081Y-70900228D01*
X155030079Y-70900228D01*
X155024911Y-70900165D01*
X154804091Y-70933955D01*
X154591756Y-71003357D01*
X154393607Y-71106507D01*
X154389474Y-71109610D01*
X154389471Y-71109612D01*
X154365247Y-71127800D01*
X154214965Y-71240635D01*
X154060629Y-71402138D01*
X153934743Y-71586680D01*
X153840688Y-71789305D01*
X153780989Y-72004570D01*
X153757251Y-72226695D01*
X139599516Y-72226695D01*
X139563087Y-72213795D01*
X139563083Y-72213794D01*
X139558212Y-72212069D01*
X139553119Y-72211162D01*
X139553116Y-72211161D01*
X139343373Y-72173800D01*
X139343367Y-72173799D01*
X139338284Y-72172894D01*
X139264452Y-72171992D01*
X139120081Y-72170228D01*
X139120079Y-72170228D01*
X139114911Y-72170165D01*
X138894091Y-72203955D01*
X138681756Y-72273357D01*
X138651443Y-72289137D01*
X138579497Y-72326590D01*
X138483607Y-72376507D01*
X138479474Y-72379610D01*
X138479471Y-72379612D01*
X138379374Y-72454767D01*
X138304965Y-72510635D01*
X138301393Y-72514373D01*
X138159748Y-72662596D01*
X138150629Y-72672138D01*
X138024743Y-72856680D01*
X138004166Y-72901010D01*
X137935249Y-73049480D01*
X137930688Y-73059305D01*
X137870989Y-73274570D01*
X137847251Y-73496695D01*
X136883682Y-73496695D01*
X137017994Y-73430896D01*
X137199860Y-73301173D01*
X137358096Y-73143489D01*
X137417594Y-73060689D01*
X137485435Y-72966277D01*
X137488453Y-72962077D01*
X137507169Y-72924209D01*
X137585136Y-72766453D01*
X137585137Y-72766451D01*
X137587430Y-72761811D01*
X137652370Y-72548069D01*
X137681529Y-72326590D01*
X137682505Y-72286638D01*
X137683074Y-72263365D01*
X137683074Y-72263361D01*
X137683156Y-72260000D01*
X137664852Y-72037361D01*
X137610431Y-71820702D01*
X137521354Y-71615840D01*
X137400014Y-71428277D01*
X137249670Y-71263051D01*
X137245619Y-71259852D01*
X137245615Y-71259848D01*
X137078414Y-71127800D01*
X137078410Y-71127798D01*
X137074359Y-71124598D01*
X136878789Y-71016638D01*
X136873920Y-71014914D01*
X136873916Y-71014912D01*
X136673087Y-70943795D01*
X136673083Y-70943794D01*
X136668212Y-70942069D01*
X136663119Y-70941162D01*
X136663116Y-70941161D01*
X136453373Y-70903800D01*
X136453367Y-70903799D01*
X136448284Y-70902894D01*
X136374452Y-70901992D01*
X136230081Y-70900228D01*
X136230079Y-70900228D01*
X136224911Y-70900165D01*
X136004091Y-70933955D01*
X135791756Y-71003357D01*
X135593607Y-71106507D01*
X135589474Y-71109610D01*
X135589471Y-71109612D01*
X135565247Y-71127800D01*
X135414965Y-71240635D01*
X135260629Y-71402138D01*
X135134743Y-71586680D01*
X135040688Y-71789305D01*
X134980989Y-72004570D01*
X134957251Y-72226695D01*
X120589516Y-72226695D01*
X120553087Y-72213795D01*
X120553083Y-72213794D01*
X120548212Y-72212069D01*
X120543119Y-72211162D01*
X120543116Y-72211161D01*
X120333373Y-72173800D01*
X120333367Y-72173799D01*
X120328284Y-72172894D01*
X120254452Y-72171992D01*
X120110081Y-72170228D01*
X120110079Y-72170228D01*
X120104911Y-72170165D01*
X119884091Y-72203955D01*
X119671756Y-72273357D01*
X119641443Y-72289137D01*
X119569497Y-72326590D01*
X119473607Y-72376507D01*
X119469474Y-72379610D01*
X119469471Y-72379612D01*
X119369374Y-72454767D01*
X119294965Y-72510635D01*
X119291393Y-72514373D01*
X119149748Y-72662596D01*
X119140629Y-72672138D01*
X119014743Y-72856680D01*
X118994166Y-72901010D01*
X118925249Y-73049480D01*
X118920688Y-73059305D01*
X118860989Y-73274570D01*
X118837251Y-73496695D01*
X117783682Y-73496695D01*
X117917994Y-73430896D01*
X118099860Y-73301173D01*
X118258096Y-73143489D01*
X118317594Y-73060689D01*
X118385435Y-72966277D01*
X118388453Y-72962077D01*
X118407169Y-72924209D01*
X118485136Y-72766453D01*
X118485137Y-72766451D01*
X118487430Y-72761811D01*
X118552370Y-72548069D01*
X118581529Y-72326590D01*
X118582505Y-72286638D01*
X118583074Y-72263365D01*
X118583074Y-72263361D01*
X118583156Y-72260000D01*
X118564852Y-72037361D01*
X118510431Y-71820702D01*
X118421354Y-71615840D01*
X118300014Y-71428277D01*
X118149670Y-71263051D01*
X118145619Y-71259852D01*
X118145615Y-71259848D01*
X117978414Y-71127800D01*
X117978410Y-71127798D01*
X117974359Y-71124598D01*
X117778789Y-71016638D01*
X117773920Y-71014914D01*
X117773916Y-71014912D01*
X117573087Y-70943795D01*
X117573083Y-70943794D01*
X117568212Y-70942069D01*
X117563119Y-70941162D01*
X117563116Y-70941161D01*
X117353373Y-70903800D01*
X117353367Y-70903799D01*
X117348284Y-70902894D01*
X117274452Y-70901992D01*
X117130081Y-70900228D01*
X117130079Y-70900228D01*
X117124911Y-70900165D01*
X116904091Y-70933955D01*
X116691756Y-71003357D01*
X116493607Y-71106507D01*
X116489474Y-71109610D01*
X116489471Y-71109612D01*
X116465247Y-71127800D01*
X116314965Y-71240635D01*
X116160629Y-71402138D01*
X116034743Y-71586680D01*
X115940688Y-71789305D01*
X115880989Y-72004570D01*
X115857251Y-72226695D01*
X109728000Y-72226695D01*
X109728000Y-53126695D01*
X115857251Y-53126695D01*
X115857548Y-53131848D01*
X115857548Y-53131851D01*
X115863011Y-53226590D01*
X115870110Y-53349715D01*
X115871247Y-53354761D01*
X115871248Y-53354767D01*
X115883946Y-53411110D01*
X115919222Y-53567639D01*
X116003266Y-53774616D01*
X116020109Y-53802101D01*
X116090844Y-53917530D01*
X116119987Y-53965088D01*
X116266250Y-54133938D01*
X116438126Y-54276632D01*
X116631000Y-54389338D01*
X116839692Y-54469030D01*
X116844760Y-54470061D01*
X116844763Y-54470062D01*
X116952017Y-54491883D01*
X117058597Y-54513567D01*
X117063772Y-54513757D01*
X117063774Y-54513757D01*
X117276673Y-54521564D01*
X117276677Y-54521564D01*
X117281837Y-54521753D01*
X117286957Y-54521097D01*
X117286959Y-54521097D01*
X117498288Y-54494025D01*
X117498289Y-54494025D01*
X117503416Y-54493368D01*
X117556230Y-54477523D01*
X117712429Y-54430661D01*
X117712434Y-54430659D01*
X117717384Y-54429174D01*
X117917994Y-54330896D01*
X118099860Y-54201173D01*
X118216190Y-54085248D01*
X118278561Y-54051333D01*
X118305129Y-54048500D01*
X118925100Y-54048500D01*
X118993221Y-54068502D01*
X119039714Y-54122158D01*
X119049818Y-54192432D01*
X119029189Y-54245503D01*
X119014743Y-54266680D01*
X118920688Y-54469305D01*
X118860989Y-54684570D01*
X118837251Y-54906695D01*
X118837548Y-54911848D01*
X118837548Y-54911851D01*
X118844689Y-55035700D01*
X118850110Y-55129715D01*
X118851247Y-55134761D01*
X118851248Y-55134767D01*
X118872275Y-55228069D01*
X118899222Y-55347639D01*
X118941296Y-55451256D01*
X118974846Y-55533879D01*
X118983266Y-55554616D01*
X119099987Y-55745088D01*
X119246250Y-55913938D01*
X119418126Y-56056632D01*
X119611000Y-56169338D01*
X119615825Y-56171180D01*
X119615826Y-56171181D01*
X119621823Y-56173471D01*
X119819692Y-56249030D01*
X119824760Y-56250061D01*
X119824763Y-56250062D01*
X119907574Y-56266910D01*
X120038597Y-56293567D01*
X120043772Y-56293757D01*
X120043774Y-56293757D01*
X120147948Y-56297577D01*
X120215290Y-56320062D01*
X120232427Y-56334397D01*
X120824596Y-56926567D01*
X120858621Y-56988879D01*
X120861500Y-57015660D01*
X120861500Y-57618134D01*
X120868255Y-57680316D01*
X120919385Y-57816705D01*
X121006739Y-57933261D01*
X121123295Y-58020615D01*
X121259684Y-58071745D01*
X121321866Y-58078500D01*
X122518134Y-58078500D01*
X122580316Y-58071745D01*
X122716705Y-58020615D01*
X122833261Y-57933261D01*
X122920615Y-57816705D01*
X122971745Y-57680316D01*
X122978500Y-57618134D01*
X122978500Y-56421866D01*
X122971745Y-56359684D01*
X122920615Y-56223295D01*
X122833261Y-56106739D01*
X122716705Y-56019385D01*
X122580316Y-55968255D01*
X122518134Y-55961500D01*
X121915660Y-55961500D01*
X121847539Y-55941498D01*
X121826565Y-55924595D01*
X121490436Y-55588466D01*
X121456410Y-55526154D01*
X121461475Y-55455339D01*
X121463240Y-55451256D01*
X121463235Y-55451254D01*
X121465136Y-55446453D01*
X121467430Y-55441811D01*
X121532370Y-55228069D01*
X121561529Y-55006590D01*
X121563156Y-54940000D01*
X121544852Y-54717361D01*
X121490431Y-54500702D01*
X121401354Y-54295840D01*
X121367130Y-54242938D01*
X121346924Y-54174881D01*
X121366720Y-54106700D01*
X121420235Y-54060045D01*
X121472923Y-54048500D01*
X128373122Y-54048500D01*
X128441243Y-54068502D01*
X128476335Y-54102229D01*
X128530643Y-54179789D01*
X128533802Y-54184300D01*
X128695700Y-54346198D01*
X128700208Y-54349355D01*
X128700211Y-54349357D01*
X128753587Y-54386731D01*
X128883251Y-54477523D01*
X128888233Y-54479846D01*
X128888238Y-54479849D01*
X128922457Y-54495805D01*
X128975742Y-54542722D01*
X128995203Y-54610999D01*
X128974661Y-54678959D01*
X128922457Y-54724195D01*
X128888238Y-54740151D01*
X128888233Y-54740154D01*
X128883251Y-54742477D01*
X128778389Y-54815902D01*
X128700211Y-54870643D01*
X128700208Y-54870645D01*
X128695700Y-54873802D01*
X128533802Y-55035700D01*
X128402477Y-55223251D01*
X128400154Y-55228233D01*
X128400151Y-55228238D01*
X128336773Y-55364154D01*
X128305716Y-55430757D01*
X128304294Y-55436065D01*
X128304293Y-55436067D01*
X128247967Y-55646277D01*
X128246457Y-55651913D01*
X128226502Y-55880000D01*
X128246457Y-56108087D01*
X128247881Y-56113400D01*
X128247881Y-56113402D01*
X128296157Y-56293567D01*
X128305716Y-56329243D01*
X128308039Y-56334224D01*
X128308039Y-56334225D01*
X128400151Y-56531762D01*
X128400154Y-56531767D01*
X128402477Y-56536749D01*
X128533802Y-56724300D01*
X128695700Y-56886198D01*
X128700208Y-56889355D01*
X128700211Y-56889357D01*
X128753350Y-56926565D01*
X128883251Y-57017523D01*
X128888233Y-57019846D01*
X128888238Y-57019849D01*
X128922457Y-57035805D01*
X128975742Y-57082722D01*
X128995203Y-57150999D01*
X128974661Y-57218959D01*
X128922457Y-57264195D01*
X128888238Y-57280151D01*
X128888233Y-57280154D01*
X128883251Y-57282477D01*
X128778389Y-57355902D01*
X128700211Y-57410643D01*
X128700208Y-57410645D01*
X128695700Y-57413802D01*
X128533802Y-57575700D01*
X128402477Y-57763251D01*
X128400154Y-57768233D01*
X128400151Y-57768238D01*
X128320691Y-57938642D01*
X128305716Y-57970757D01*
X128304294Y-57976065D01*
X128304293Y-57976067D01*
X128252509Y-58169328D01*
X128246457Y-58191913D01*
X128226502Y-58420000D01*
X128246457Y-58648087D01*
X128247881Y-58653400D01*
X128247881Y-58653402D01*
X128302034Y-58855500D01*
X128305716Y-58869243D01*
X128308039Y-58874224D01*
X128308039Y-58874225D01*
X128400151Y-59071762D01*
X128400154Y-59071767D01*
X128402477Y-59076749D01*
X128533802Y-59264300D01*
X128695700Y-59426198D01*
X128700208Y-59429355D01*
X128700211Y-59429357D01*
X128778389Y-59484098D01*
X128883251Y-59557523D01*
X128888233Y-59559846D01*
X128888238Y-59559849D01*
X128922457Y-59575805D01*
X128975742Y-59622722D01*
X128995203Y-59690999D01*
X128974661Y-59758959D01*
X128922457Y-59804195D01*
X128888238Y-59820151D01*
X128888233Y-59820154D01*
X128883251Y-59822477D01*
X128806056Y-59876530D01*
X128700211Y-59950643D01*
X128700208Y-59950645D01*
X128695700Y-59953802D01*
X128533802Y-60115700D01*
X128402477Y-60303251D01*
X128400154Y-60308233D01*
X128400151Y-60308238D01*
X128308039Y-60505775D01*
X128305716Y-60510757D01*
X128304294Y-60516065D01*
X128304293Y-60516067D01*
X128248020Y-60726081D01*
X128246457Y-60731913D01*
X128226502Y-60960000D01*
X128246457Y-61188087D01*
X128274408Y-61292399D01*
X128272718Y-61363376D01*
X128232924Y-61422172D01*
X128167660Y-61450120D01*
X128152701Y-61451011D01*
X124605171Y-61451011D01*
X124537050Y-61431009D01*
X124516076Y-61414106D01*
X123015405Y-59913435D01*
X122981379Y-59851123D01*
X122978500Y-59824340D01*
X122978500Y-59221866D01*
X122971745Y-59159684D01*
X122920615Y-59023295D01*
X122833261Y-58906739D01*
X122716705Y-58819385D01*
X122580316Y-58768255D01*
X122518134Y-58761500D01*
X121321866Y-58761500D01*
X121259684Y-58768255D01*
X121123295Y-58819385D01*
X121006739Y-58906739D01*
X120919385Y-59023295D01*
X120868255Y-59159684D01*
X120861500Y-59221866D01*
X120861500Y-60418134D01*
X120868255Y-60480316D01*
X120919385Y-60616705D01*
X121006739Y-60733261D01*
X121123295Y-60820615D01*
X121259684Y-60871745D01*
X121321866Y-60878500D01*
X121924340Y-60878500D01*
X121992461Y-60898502D01*
X122013435Y-60915405D01*
X123738068Y-62640039D01*
X123743922Y-62646304D01*
X123781950Y-62689896D01*
X123834240Y-62726647D01*
X123839482Y-62730539D01*
X123889793Y-62769987D01*
X123896712Y-62773111D01*
X123899004Y-62774499D01*
X123913676Y-62782868D01*
X123916036Y-62784133D01*
X123922250Y-62788501D01*
X123929329Y-62791261D01*
X123929331Y-62791262D01*
X123981786Y-62811713D01*
X123987855Y-62814264D01*
X124046084Y-62840556D01*
X124053557Y-62841941D01*
X124056123Y-62842745D01*
X124072346Y-62847366D01*
X124074938Y-62848031D01*
X124082020Y-62850793D01*
X124089555Y-62851785D01*
X124145372Y-62859133D01*
X124151888Y-62860165D01*
X124190281Y-62867281D01*
X124214697Y-62871806D01*
X124222277Y-62871369D01*
X124222278Y-62871369D01*
X124276891Y-62868220D01*
X124284144Y-62868011D01*
X128193152Y-62868011D01*
X128261273Y-62888013D01*
X128307766Y-62941669D01*
X128317870Y-63011943D01*
X128309387Y-63040409D01*
X128309922Y-63040604D01*
X128308043Y-63045768D01*
X128305716Y-63050757D01*
X128246457Y-63271913D01*
X128226502Y-63500000D01*
X128246457Y-63728087D01*
X128305716Y-63949243D01*
X128308039Y-63954224D01*
X128308039Y-63954225D01*
X128400151Y-64151762D01*
X128400154Y-64151767D01*
X128402477Y-64156749D01*
X128533802Y-64344300D01*
X128695700Y-64506198D01*
X128700208Y-64509355D01*
X128700211Y-64509357D01*
X128778389Y-64564098D01*
X128883251Y-64637523D01*
X128888233Y-64639846D01*
X128888238Y-64639849D01*
X128922457Y-64655805D01*
X128975742Y-64702722D01*
X128995203Y-64770999D01*
X128974661Y-64838959D01*
X128922457Y-64884195D01*
X128888238Y-64900151D01*
X128888233Y-64900154D01*
X128883251Y-64902477D01*
X128778389Y-64975902D01*
X128700211Y-65030643D01*
X128700208Y-65030645D01*
X128695700Y-65033802D01*
X128533802Y-65195700D01*
X128402477Y-65383251D01*
X128400154Y-65388233D01*
X128400151Y-65388238D01*
X128308039Y-65585775D01*
X128305716Y-65590757D01*
X128246457Y-65811913D01*
X128226502Y-66040000D01*
X128246457Y-66268087D01*
X128305716Y-66489243D01*
X128308039Y-66494224D01*
X128308039Y-66494225D01*
X128400151Y-66691762D01*
X128400154Y-66691767D01*
X128402477Y-66696749D01*
X128533802Y-66884300D01*
X128695700Y-67046198D01*
X128700208Y-67049355D01*
X128700211Y-67049357D01*
X128778389Y-67104098D01*
X128883251Y-67177523D01*
X128888233Y-67179846D01*
X128888238Y-67179849D01*
X129085775Y-67271961D01*
X129090757Y-67274284D01*
X129096065Y-67275706D01*
X129096067Y-67275707D01*
X129306598Y-67332119D01*
X129306600Y-67332119D01*
X129311913Y-67333543D01*
X129540000Y-67353498D01*
X129768087Y-67333543D01*
X129773400Y-67332119D01*
X129773402Y-67332119D01*
X129983933Y-67275707D01*
X129983935Y-67275706D01*
X129989243Y-67274284D01*
X129994225Y-67271961D01*
X130191762Y-67179849D01*
X130191767Y-67179846D01*
X130196749Y-67177523D01*
X130301611Y-67104098D01*
X130379789Y-67049357D01*
X130379792Y-67049355D01*
X130384300Y-67046198D01*
X130546198Y-66884300D01*
X130677523Y-66696749D01*
X130679846Y-66691767D01*
X130679849Y-66691762D01*
X130771961Y-66494225D01*
X130771961Y-66494224D01*
X130774284Y-66489243D01*
X130833543Y-66268087D01*
X130853498Y-66040000D01*
X130833543Y-65811913D01*
X130774284Y-65590757D01*
X130771961Y-65585775D01*
X130679849Y-65388238D01*
X130679846Y-65388233D01*
X130677523Y-65383251D01*
X130546198Y-65195700D01*
X130384300Y-65033802D01*
X130379792Y-65030645D01*
X130379789Y-65030643D01*
X130301611Y-64975902D01*
X130196749Y-64902477D01*
X130191767Y-64900154D01*
X130191762Y-64900151D01*
X130157543Y-64884195D01*
X130104258Y-64837278D01*
X130084797Y-64769001D01*
X130105339Y-64701041D01*
X130157543Y-64655805D01*
X130191762Y-64639849D01*
X130191767Y-64639846D01*
X130196749Y-64637523D01*
X130301611Y-64564098D01*
X130379789Y-64509357D01*
X130379792Y-64509355D01*
X130384300Y-64506198D01*
X130546198Y-64344300D01*
X130677523Y-64156749D01*
X130679846Y-64151767D01*
X130679849Y-64151762D01*
X130771961Y-63954225D01*
X130771961Y-63954224D01*
X130774284Y-63949243D01*
X130833543Y-63728087D01*
X130853498Y-63500000D01*
X130833543Y-63271913D01*
X130774284Y-63050757D01*
X130771957Y-63045768D01*
X130770078Y-63040604D01*
X130771562Y-63040064D01*
X130761991Y-62977079D01*
X130790966Y-62912264D01*
X130850383Y-62873403D01*
X130886848Y-62868011D01*
X138601577Y-62868011D01*
X138610147Y-62868303D01*
X138660265Y-62871720D01*
X138660269Y-62871720D01*
X138667841Y-62872236D01*
X138675318Y-62870931D01*
X138675319Y-62870931D01*
X138701797Y-62866310D01*
X138730792Y-62861249D01*
X138737310Y-62860288D01*
X138800731Y-62852613D01*
X138807832Y-62849930D01*
X138810441Y-62849289D01*
X138826751Y-62844826D01*
X138829287Y-62844061D01*
X138836773Y-62842754D01*
X138895289Y-62817067D01*
X138901393Y-62814576D01*
X138954037Y-62794684D01*
X138954038Y-62794683D01*
X138961145Y-62791998D01*
X138967408Y-62787694D01*
X138969774Y-62786457D01*
X138984586Y-62778212D01*
X138986840Y-62776879D01*
X138993794Y-62773826D01*
X139044491Y-62734924D01*
X139049821Y-62731052D01*
X139096209Y-62699172D01*
X139096214Y-62699167D01*
X139102470Y-62694868D01*
X139143925Y-62648340D01*
X139148905Y-62643065D01*
X139606565Y-62185405D01*
X139668877Y-62151379D01*
X139695660Y-62148500D01*
X140298134Y-62148500D01*
X140360316Y-62141745D01*
X140496705Y-62090615D01*
X140613261Y-62003261D01*
X140700615Y-61886705D01*
X140751745Y-61750316D01*
X140758500Y-61688134D01*
X140758500Y-61085660D01*
X140778502Y-61017539D01*
X140795405Y-60996565D01*
X141356565Y-60435405D01*
X141418877Y-60401379D01*
X141445660Y-60398500D01*
X143411588Y-60398500D01*
X143479709Y-60418502D01*
X143526202Y-60472158D01*
X143536306Y-60542432D01*
X143533295Y-60557111D01*
X143488020Y-60726081D01*
X143486457Y-60731913D01*
X143466502Y-60960000D01*
X143486457Y-61188087D01*
X143487880Y-61193399D01*
X143487881Y-61193402D01*
X143514408Y-61292399D01*
X143545716Y-61409243D01*
X143548039Y-61414224D01*
X143548039Y-61414225D01*
X143640151Y-61611762D01*
X143640154Y-61611767D01*
X143642477Y-61616749D01*
X143773802Y-61804300D01*
X143935700Y-61966198D01*
X143940208Y-61969355D01*
X143940211Y-61969357D01*
X143978377Y-61996081D01*
X144123251Y-62097523D01*
X144128233Y-62099846D01*
X144128238Y-62099849D01*
X144162457Y-62115805D01*
X144215742Y-62162722D01*
X144235203Y-62230999D01*
X144214661Y-62298959D01*
X144162457Y-62344195D01*
X144128238Y-62360151D01*
X144128233Y-62360154D01*
X144123251Y-62362477D01*
X144018389Y-62435902D01*
X143940211Y-62490643D01*
X143940208Y-62490645D01*
X143935700Y-62493802D01*
X143773802Y-62655700D01*
X143770645Y-62660208D01*
X143770643Y-62660211D01*
X143746376Y-62694868D01*
X143642477Y-62843251D01*
X143640154Y-62848233D01*
X143640151Y-62848238D01*
X143621604Y-62888013D01*
X143545716Y-63050757D01*
X143486457Y-63271913D01*
X143466502Y-63500000D01*
X143486457Y-63728087D01*
X143545716Y-63949243D01*
X143548039Y-63954224D01*
X143548039Y-63954225D01*
X143640151Y-64151762D01*
X143640154Y-64151767D01*
X143642477Y-64156749D01*
X143773802Y-64344300D01*
X143935700Y-64506198D01*
X143940208Y-64509355D01*
X143940211Y-64509357D01*
X144018389Y-64564098D01*
X144123251Y-64637523D01*
X144128233Y-64639846D01*
X144128238Y-64639849D01*
X144162457Y-64655805D01*
X144215742Y-64702722D01*
X144235203Y-64770999D01*
X144214661Y-64838959D01*
X144162457Y-64884195D01*
X144128238Y-64900151D01*
X144128233Y-64900154D01*
X144123251Y-64902477D01*
X144018389Y-64975902D01*
X143940211Y-65030643D01*
X143940208Y-65030645D01*
X143935700Y-65033802D01*
X143773802Y-65195700D01*
X143642477Y-65383251D01*
X143640154Y-65388233D01*
X143640151Y-65388238D01*
X143548039Y-65585775D01*
X143545716Y-65590757D01*
X143486457Y-65811913D01*
X143466502Y-66040000D01*
X143486457Y-66268087D01*
X143545716Y-66489243D01*
X143548039Y-66494224D01*
X143548039Y-66494225D01*
X143640151Y-66691762D01*
X143640154Y-66691767D01*
X143642477Y-66696749D01*
X143773802Y-66884300D01*
X143935700Y-67046198D01*
X143940208Y-67049355D01*
X143940211Y-67049357D01*
X144018389Y-67104098D01*
X144123251Y-67177523D01*
X144128233Y-67179846D01*
X144128238Y-67179849D01*
X144325775Y-67271961D01*
X144330757Y-67274284D01*
X144336065Y-67275706D01*
X144336067Y-67275707D01*
X144546598Y-67332119D01*
X144546600Y-67332119D01*
X144551913Y-67333543D01*
X144780000Y-67353498D01*
X145008087Y-67333543D01*
X145013400Y-67332119D01*
X145013402Y-67332119D01*
X145223933Y-67275707D01*
X145223935Y-67275706D01*
X145229243Y-67274284D01*
X145234225Y-67271961D01*
X145431762Y-67179849D01*
X145431767Y-67179846D01*
X145436749Y-67177523D01*
X145541611Y-67104098D01*
X145619789Y-67049357D01*
X145619792Y-67049355D01*
X145624300Y-67046198D01*
X145786198Y-66884300D01*
X145917523Y-66696749D01*
X145919846Y-66691767D01*
X145919849Y-66691762D01*
X146011961Y-66494225D01*
X146011961Y-66494224D01*
X146014284Y-66489243D01*
X146073543Y-66268087D01*
X146093498Y-66040000D01*
X146073543Y-65811913D01*
X146014284Y-65590757D01*
X146011961Y-65585775D01*
X145919849Y-65388238D01*
X145919846Y-65388233D01*
X145917523Y-65383251D01*
X145786198Y-65195700D01*
X145624300Y-65033802D01*
X145619792Y-65030645D01*
X145619789Y-65030643D01*
X145541611Y-64975902D01*
X145436749Y-64902477D01*
X145431767Y-64900154D01*
X145431762Y-64900151D01*
X145397543Y-64884195D01*
X145344258Y-64837278D01*
X145324797Y-64769001D01*
X145345339Y-64701041D01*
X145397543Y-64655805D01*
X145431762Y-64639849D01*
X145431767Y-64639846D01*
X145436749Y-64637523D01*
X145541611Y-64564098D01*
X145619789Y-64509357D01*
X145619792Y-64509355D01*
X145624300Y-64506198D01*
X145786198Y-64344300D01*
X145917523Y-64156749D01*
X145919846Y-64151767D01*
X145919849Y-64151762D01*
X146011961Y-63954225D01*
X146011961Y-63954224D01*
X146014284Y-63949243D01*
X146073543Y-63728087D01*
X146093498Y-63500000D01*
X146073543Y-63271913D01*
X146014284Y-63050757D01*
X145938396Y-62888013D01*
X145919849Y-62848238D01*
X145919846Y-62848233D01*
X145917523Y-62843251D01*
X145813624Y-62694868D01*
X145789357Y-62660211D01*
X145789355Y-62660208D01*
X145786198Y-62655700D01*
X145624300Y-62493802D01*
X145619792Y-62490645D01*
X145619789Y-62490643D01*
X145541611Y-62435902D01*
X145436749Y-62362477D01*
X145431767Y-62360154D01*
X145431762Y-62360151D01*
X145397543Y-62344195D01*
X145344258Y-62297278D01*
X145324797Y-62229001D01*
X145345339Y-62161041D01*
X145397543Y-62115805D01*
X145431762Y-62099849D01*
X145431767Y-62099846D01*
X145436749Y-62097523D01*
X145581623Y-61996081D01*
X145619789Y-61969357D01*
X145619792Y-61969355D01*
X145624300Y-61966198D01*
X145786198Y-61804300D01*
X145917523Y-61616749D01*
X145919846Y-61611767D01*
X145919849Y-61611762D01*
X146011961Y-61414225D01*
X146011961Y-61414224D01*
X146014284Y-61409243D01*
X146045593Y-61292399D01*
X146072119Y-61193402D01*
X146072120Y-61193399D01*
X146073543Y-61188087D01*
X146093498Y-60960000D01*
X146073543Y-60731913D01*
X146071980Y-60726081D01*
X146026705Y-60557111D01*
X146028395Y-60486135D01*
X146068189Y-60427339D01*
X146133453Y-60399391D01*
X146148412Y-60398500D01*
X147311238Y-60398500D01*
X147311898Y-60398502D01*
X147397628Y-60398951D01*
X147397629Y-60398951D01*
X147402031Y-60398974D01*
X147403548Y-60398610D01*
X147405450Y-60398500D01*
X158850262Y-60398500D01*
X158918383Y-60418502D01*
X158964876Y-60472158D01*
X158967750Y-60480505D01*
X158968255Y-60480316D01*
X159019385Y-60616705D01*
X159106739Y-60733261D01*
X159223295Y-60820615D01*
X159359684Y-60871745D01*
X159421866Y-60878500D01*
X160618134Y-60878500D01*
X160680316Y-60871745D01*
X160816705Y-60820615D01*
X160933261Y-60733261D01*
X161020615Y-60616705D01*
X161023767Y-60608296D01*
X161028077Y-60600425D01*
X161029741Y-60601336D01*
X161065663Y-60553510D01*
X161132224Y-60528807D01*
X161141009Y-60528500D01*
X177948991Y-60528500D01*
X178017112Y-60548502D01*
X178063605Y-60602158D01*
X178065903Y-60607694D01*
X178066232Y-60608296D01*
X178069385Y-60616705D01*
X178156739Y-60733261D01*
X178273295Y-60820615D01*
X178409684Y-60871745D01*
X178471866Y-60878500D01*
X179668134Y-60878500D01*
X179730316Y-60871745D01*
X179866705Y-60820615D01*
X179983261Y-60733261D01*
X180070615Y-60616705D01*
X180121745Y-60480316D01*
X180128500Y-60418134D01*
X180128500Y-59221866D01*
X180121745Y-59159684D01*
X180070615Y-59023295D01*
X179983261Y-58906739D01*
X179866705Y-58819385D01*
X179730316Y-58768255D01*
X179668134Y-58761500D01*
X178471866Y-58761500D01*
X178409684Y-58768255D01*
X178273295Y-58819385D01*
X178156739Y-58906739D01*
X178069385Y-59023295D01*
X178066233Y-59031703D01*
X178061923Y-59039575D01*
X178060259Y-59038664D01*
X178024337Y-59086490D01*
X177957776Y-59111193D01*
X177948991Y-59111500D01*
X161141009Y-59111500D01*
X161072888Y-59091498D01*
X161026395Y-59037842D01*
X161024097Y-59032306D01*
X161023767Y-59031703D01*
X161020615Y-59023295D01*
X160933261Y-58906739D01*
X160816705Y-58819385D01*
X160680316Y-58768255D01*
X160618134Y-58761500D01*
X159421866Y-58761500D01*
X159359684Y-58768255D01*
X159223295Y-58819385D01*
X159106739Y-58906739D01*
X159101359Y-58913918D01*
X159088509Y-58931064D01*
X159031650Y-58973580D01*
X158987682Y-58981500D01*
X148154500Y-58981500D01*
X148086379Y-58961498D01*
X148039886Y-58907842D01*
X148028500Y-58855500D01*
X148028500Y-55908911D01*
X148028792Y-55900342D01*
X148032209Y-55850223D01*
X148032209Y-55850219D01*
X148032725Y-55842647D01*
X148021736Y-55779685D01*
X148020777Y-55773182D01*
X148017378Y-55745088D01*
X148013102Y-55709758D01*
X148010416Y-55702649D01*
X148009784Y-55700078D01*
X148005324Y-55683772D01*
X148004549Y-55681204D01*
X148003242Y-55673716D01*
X147977561Y-55615212D01*
X147975069Y-55609105D01*
X147955173Y-55556452D01*
X147955173Y-55556451D01*
X147952487Y-55549344D01*
X147948184Y-55543083D01*
X147946947Y-55540717D01*
X147938720Y-55525937D01*
X147937369Y-55523652D01*
X147934315Y-55516695D01*
X147929695Y-55510675D01*
X147929692Y-55510669D01*
X147895421Y-55466009D01*
X147891541Y-55460668D01*
X147859661Y-55414280D01*
X147859656Y-55414275D01*
X147855357Y-55408019D01*
X147826196Y-55382037D01*
X147808830Y-55366565D01*
X147803554Y-55361584D01*
X147348665Y-54906695D01*
X156747251Y-54906695D01*
X156747548Y-54911848D01*
X156747548Y-54911851D01*
X156754689Y-55035700D01*
X156760110Y-55129715D01*
X156761247Y-55134761D01*
X156761248Y-55134767D01*
X156782275Y-55228069D01*
X156809222Y-55347639D01*
X156851296Y-55451256D01*
X156884846Y-55533879D01*
X156893266Y-55554616D01*
X157009987Y-55745088D01*
X157156250Y-55913938D01*
X157328126Y-56056632D01*
X157521000Y-56169338D01*
X157525825Y-56171180D01*
X157525826Y-56171181D01*
X157531823Y-56173471D01*
X157729692Y-56249030D01*
X157734760Y-56250061D01*
X157734763Y-56250062D01*
X157817574Y-56266910D01*
X157948597Y-56293567D01*
X157953772Y-56293757D01*
X157953774Y-56293757D01*
X158166673Y-56301564D01*
X158166677Y-56301564D01*
X158171837Y-56301753D01*
X158223894Y-56295084D01*
X158294002Y-56306268D01*
X158328998Y-56330968D01*
X158924595Y-56926565D01*
X158958621Y-56988877D01*
X158961500Y-57015660D01*
X158961500Y-57618134D01*
X158968255Y-57680316D01*
X159019385Y-57816705D01*
X159106739Y-57933261D01*
X159223295Y-58020615D01*
X159359684Y-58071745D01*
X159421866Y-58078500D01*
X160618134Y-58078500D01*
X160680316Y-58071745D01*
X160816705Y-58020615D01*
X160933261Y-57933261D01*
X161020615Y-57816705D01*
X161071745Y-57680316D01*
X161078500Y-57618134D01*
X161078500Y-56421866D01*
X161071745Y-56359684D01*
X161020615Y-56223295D01*
X160933261Y-56106739D01*
X160816705Y-56019385D01*
X160680316Y-55968255D01*
X160618134Y-55961500D01*
X160015660Y-55961500D01*
X159947539Y-55941498D01*
X159926565Y-55924595D01*
X159446319Y-55444349D01*
X159412293Y-55382037D01*
X159414856Y-55318627D01*
X159442370Y-55228069D01*
X159471529Y-55006590D01*
X159473156Y-54940000D01*
X159470418Y-54906695D01*
X175647251Y-54906695D01*
X175647548Y-54911848D01*
X175647548Y-54911851D01*
X175654689Y-55035700D01*
X175660110Y-55129715D01*
X175661247Y-55134761D01*
X175661248Y-55134767D01*
X175682275Y-55228069D01*
X175709222Y-55347639D01*
X175751296Y-55451256D01*
X175784846Y-55533879D01*
X175793266Y-55554616D01*
X175909987Y-55745088D01*
X176056250Y-55913938D01*
X176228126Y-56056632D01*
X176421000Y-56169338D01*
X176425825Y-56171180D01*
X176425826Y-56171181D01*
X176431823Y-56173471D01*
X176629692Y-56249030D01*
X176634760Y-56250061D01*
X176634763Y-56250062D01*
X176717574Y-56266910D01*
X176848597Y-56293567D01*
X176853772Y-56293757D01*
X176853774Y-56293757D01*
X177066673Y-56301564D01*
X177066677Y-56301564D01*
X177071837Y-56301753D01*
X177076957Y-56301097D01*
X177076959Y-56301097D01*
X177256860Y-56278051D01*
X177326970Y-56289235D01*
X177361965Y-56313935D01*
X177974595Y-56926565D01*
X178008621Y-56988877D01*
X178011500Y-57015660D01*
X178011500Y-57618134D01*
X178018255Y-57680316D01*
X178069385Y-57816705D01*
X178156739Y-57933261D01*
X178273295Y-58020615D01*
X178409684Y-58071745D01*
X178471866Y-58078500D01*
X179668134Y-58078500D01*
X179730316Y-58071745D01*
X179866705Y-58020615D01*
X179983261Y-57933261D01*
X180070615Y-57816705D01*
X180121745Y-57680316D01*
X180128500Y-57618134D01*
X180128500Y-56421866D01*
X180121745Y-56359684D01*
X180070615Y-56223295D01*
X179983261Y-56106739D01*
X179866705Y-56019385D01*
X179730316Y-55968255D01*
X179668134Y-55961500D01*
X179065660Y-55961500D01*
X178997539Y-55941498D01*
X178976565Y-55924595D01*
X178379056Y-55327086D01*
X178345030Y-55264774D01*
X178343229Y-55221544D01*
X178356891Y-55117771D01*
X178371529Y-55006590D01*
X178373156Y-54940000D01*
X178354852Y-54717361D01*
X178300431Y-54500702D01*
X178211354Y-54295840D01*
X178106615Y-54133938D01*
X178092822Y-54112617D01*
X178092820Y-54112614D01*
X178090014Y-54108277D01*
X177939670Y-53943051D01*
X177935619Y-53939852D01*
X177935615Y-53939848D01*
X177768414Y-53807800D01*
X177768410Y-53807798D01*
X177764359Y-53804598D01*
X177736544Y-53789243D01*
X177701375Y-53769829D01*
X177568789Y-53696638D01*
X177563920Y-53694914D01*
X177563916Y-53694912D01*
X177363087Y-53623795D01*
X177363083Y-53623794D01*
X177358212Y-53622069D01*
X177353119Y-53621162D01*
X177353116Y-53621161D01*
X177143373Y-53583800D01*
X177143367Y-53583799D01*
X177138284Y-53582894D01*
X177064452Y-53581992D01*
X176920081Y-53580228D01*
X176920079Y-53580228D01*
X176914911Y-53580165D01*
X176694091Y-53613955D01*
X176481756Y-53683357D01*
X176451443Y-53699137D01*
X176288552Y-53783933D01*
X176283607Y-53786507D01*
X176279474Y-53789610D01*
X176279471Y-53789612D01*
X176182957Y-53862077D01*
X176104965Y-53920635D01*
X176062485Y-53965088D01*
X175971742Y-54060045D01*
X175950629Y-54082138D01*
X175824743Y-54266680D01*
X175730688Y-54469305D01*
X175670989Y-54684570D01*
X175647251Y-54906695D01*
X159470418Y-54906695D01*
X159454852Y-54717361D01*
X159400431Y-54500702D01*
X159311354Y-54295840D01*
X159206615Y-54133938D01*
X159192822Y-54112617D01*
X159192820Y-54112614D01*
X159190014Y-54108277D01*
X159039670Y-53943051D01*
X159035619Y-53939852D01*
X159035615Y-53939848D01*
X158868414Y-53807800D01*
X158868410Y-53807798D01*
X158864359Y-53804598D01*
X158836544Y-53789243D01*
X158801375Y-53769829D01*
X158668789Y-53696638D01*
X158663920Y-53694914D01*
X158663916Y-53694912D01*
X158463087Y-53623795D01*
X158463083Y-53623794D01*
X158458212Y-53622069D01*
X158453119Y-53621162D01*
X158453116Y-53621161D01*
X158243373Y-53583800D01*
X158243367Y-53583799D01*
X158238284Y-53582894D01*
X158164452Y-53581992D01*
X158020081Y-53580228D01*
X158020079Y-53580228D01*
X158014911Y-53580165D01*
X157794091Y-53613955D01*
X157581756Y-53683357D01*
X157551443Y-53699137D01*
X157388552Y-53783933D01*
X157383607Y-53786507D01*
X157379474Y-53789610D01*
X157379471Y-53789612D01*
X157282957Y-53862077D01*
X157204965Y-53920635D01*
X157162485Y-53965088D01*
X157071742Y-54060045D01*
X157050629Y-54082138D01*
X156924743Y-54266680D01*
X156830688Y-54469305D01*
X156770989Y-54684570D01*
X156747251Y-54906695D01*
X147348665Y-54906695D01*
X146109982Y-53668012D01*
X146075956Y-53605700D01*
X146073556Y-53567935D01*
X146093019Y-53345475D01*
X146093498Y-53340000D01*
X146074836Y-53126695D01*
X153757251Y-53126695D01*
X153757548Y-53131848D01*
X153757548Y-53131851D01*
X153763011Y-53226590D01*
X153770110Y-53349715D01*
X153771247Y-53354761D01*
X153771248Y-53354767D01*
X153783946Y-53411110D01*
X153819222Y-53567639D01*
X153903266Y-53774616D01*
X153920109Y-53802101D01*
X153990844Y-53917530D01*
X154019987Y-53965088D01*
X154166250Y-54133938D01*
X154338126Y-54276632D01*
X154531000Y-54389338D01*
X154739692Y-54469030D01*
X154744760Y-54470061D01*
X154744763Y-54470062D01*
X154852017Y-54491883D01*
X154958597Y-54513567D01*
X154963772Y-54513757D01*
X154963774Y-54513757D01*
X155176673Y-54521564D01*
X155176677Y-54521564D01*
X155181837Y-54521753D01*
X155186957Y-54521097D01*
X155186959Y-54521097D01*
X155398288Y-54494025D01*
X155398289Y-54494025D01*
X155403416Y-54493368D01*
X155456230Y-54477523D01*
X155612429Y-54430661D01*
X155612434Y-54430659D01*
X155617384Y-54429174D01*
X155817994Y-54330896D01*
X155999860Y-54201173D01*
X156012882Y-54188197D01*
X156141482Y-54060045D01*
X156158096Y-54043489D01*
X156195266Y-53991762D01*
X156285435Y-53866277D01*
X156288453Y-53862077D01*
X156321988Y-53794225D01*
X156385136Y-53666453D01*
X156385137Y-53666451D01*
X156387430Y-53661811D01*
X156428114Y-53527906D01*
X156450865Y-53453023D01*
X156450865Y-53453021D01*
X156452370Y-53448069D01*
X156481529Y-53226590D01*
X156483156Y-53160000D01*
X156480418Y-53126695D01*
X172797251Y-53126695D01*
X172797548Y-53131848D01*
X172797548Y-53131851D01*
X172803011Y-53226590D01*
X172810110Y-53349715D01*
X172811247Y-53354761D01*
X172811248Y-53354767D01*
X172823946Y-53411110D01*
X172859222Y-53567639D01*
X172943266Y-53774616D01*
X172960109Y-53802101D01*
X173030844Y-53917530D01*
X173059987Y-53965088D01*
X173206250Y-54133938D01*
X173378126Y-54276632D01*
X173571000Y-54389338D01*
X173779692Y-54469030D01*
X173784760Y-54470061D01*
X173784763Y-54470062D01*
X173892017Y-54491883D01*
X173998597Y-54513567D01*
X174003772Y-54513757D01*
X174003774Y-54513757D01*
X174216673Y-54521564D01*
X174216677Y-54521564D01*
X174221837Y-54521753D01*
X174226957Y-54521097D01*
X174226959Y-54521097D01*
X174438288Y-54494025D01*
X174438289Y-54494025D01*
X174443416Y-54493368D01*
X174496230Y-54477523D01*
X174652429Y-54430661D01*
X174652434Y-54430659D01*
X174657384Y-54429174D01*
X174857994Y-54330896D01*
X175039860Y-54201173D01*
X175052882Y-54188197D01*
X175181482Y-54060045D01*
X175198096Y-54043489D01*
X175235266Y-53991762D01*
X175325435Y-53866277D01*
X175328453Y-53862077D01*
X175361988Y-53794225D01*
X175425136Y-53666453D01*
X175425137Y-53666451D01*
X175427430Y-53661811D01*
X175468114Y-53527906D01*
X175490865Y-53453023D01*
X175490865Y-53453021D01*
X175492370Y-53448069D01*
X175521529Y-53226590D01*
X175523156Y-53160000D01*
X175504852Y-52937361D01*
X175450431Y-52720702D01*
X175361354Y-52515840D01*
X175321906Y-52454862D01*
X175242822Y-52332617D01*
X175242820Y-52332614D01*
X175240014Y-52328277D01*
X175089670Y-52163051D01*
X175085619Y-52159852D01*
X175085615Y-52159848D01*
X174918414Y-52027800D01*
X174918410Y-52027798D01*
X174914359Y-52024598D01*
X174718789Y-51916638D01*
X174713920Y-51914914D01*
X174713916Y-51914912D01*
X174513087Y-51843795D01*
X174513083Y-51843794D01*
X174508212Y-51842069D01*
X174503119Y-51841162D01*
X174503116Y-51841161D01*
X174293373Y-51803800D01*
X174293367Y-51803799D01*
X174288284Y-51802894D01*
X174214452Y-51801992D01*
X174070081Y-51800228D01*
X174070079Y-51800228D01*
X174064911Y-51800165D01*
X173844091Y-51833955D01*
X173631756Y-51903357D01*
X173433607Y-52006507D01*
X173429474Y-52009610D01*
X173429471Y-52009612D01*
X173259436Y-52137278D01*
X173254965Y-52140635D01*
X173100629Y-52302138D01*
X172974743Y-52486680D01*
X172959003Y-52520590D01*
X172885591Y-52678743D01*
X172880688Y-52689305D01*
X172820989Y-52904570D01*
X172797251Y-53126695D01*
X156480418Y-53126695D01*
X156464852Y-52937361D01*
X156410431Y-52720702D01*
X156321354Y-52515840D01*
X156281906Y-52454862D01*
X156202822Y-52332617D01*
X156202820Y-52332614D01*
X156200014Y-52328277D01*
X156049670Y-52163051D01*
X156045619Y-52159852D01*
X156045615Y-52159848D01*
X155878414Y-52027800D01*
X155878410Y-52027798D01*
X155874359Y-52024598D01*
X155678789Y-51916638D01*
X155673920Y-51914914D01*
X155673916Y-51914912D01*
X155473087Y-51843795D01*
X155473083Y-51843794D01*
X155468212Y-51842069D01*
X155463119Y-51841162D01*
X155463116Y-51841161D01*
X155253373Y-51803800D01*
X155253367Y-51803799D01*
X155248284Y-51802894D01*
X155174452Y-51801992D01*
X155030081Y-51800228D01*
X155030079Y-51800228D01*
X155024911Y-51800165D01*
X154804091Y-51833955D01*
X154591756Y-51903357D01*
X154393607Y-52006507D01*
X154389474Y-52009610D01*
X154389471Y-52009612D01*
X154219436Y-52137278D01*
X154214965Y-52140635D01*
X154060629Y-52302138D01*
X153934743Y-52486680D01*
X153919003Y-52520590D01*
X153845591Y-52678743D01*
X153840688Y-52689305D01*
X153780989Y-52904570D01*
X153757251Y-53126695D01*
X146074836Y-53126695D01*
X146073543Y-53111913D01*
X146072119Y-53106598D01*
X146015707Y-52896067D01*
X146015706Y-52896065D01*
X146014284Y-52890757D01*
X146011961Y-52885775D01*
X145919849Y-52688238D01*
X145919846Y-52688233D01*
X145917523Y-52683251D01*
X145803626Y-52520590D01*
X145789357Y-52500211D01*
X145789355Y-52500208D01*
X145786198Y-52495700D01*
X145624300Y-52333802D01*
X145619792Y-52330645D01*
X145619789Y-52330643D01*
X145541611Y-52275902D01*
X145436749Y-52202477D01*
X145431767Y-52200154D01*
X145431762Y-52200151D01*
X145397543Y-52184195D01*
X145344258Y-52137278D01*
X145324797Y-52069001D01*
X145345339Y-52001041D01*
X145397543Y-51955805D01*
X145431762Y-51939849D01*
X145431767Y-51939846D01*
X145436749Y-51937523D01*
X145585776Y-51833173D01*
X145619789Y-51809357D01*
X145619792Y-51809355D01*
X145624300Y-51806198D01*
X145786198Y-51644300D01*
X145917523Y-51456749D01*
X145919846Y-51451767D01*
X145919849Y-51451762D01*
X146011961Y-51254225D01*
X146011961Y-51254224D01*
X146014284Y-51249243D01*
X146073543Y-51028087D01*
X146093498Y-50800000D01*
X146073543Y-50571913D01*
X146014284Y-50350757D01*
X146011961Y-50345775D01*
X145919849Y-50148238D01*
X145919846Y-50148233D01*
X145917523Y-50143251D01*
X145786198Y-49955700D01*
X145624300Y-49793802D01*
X145619792Y-49790645D01*
X145619789Y-49790643D01*
X145541611Y-49735902D01*
X145436749Y-49662477D01*
X145431767Y-49660154D01*
X145431762Y-49660151D01*
X145397543Y-49644195D01*
X145344258Y-49597278D01*
X145324797Y-49529001D01*
X145345339Y-49461041D01*
X145397543Y-49415805D01*
X145431762Y-49399849D01*
X145431767Y-49399846D01*
X145436749Y-49397523D01*
X145541611Y-49324098D01*
X145619789Y-49269357D01*
X145619792Y-49269355D01*
X145624300Y-49266198D01*
X145786198Y-49104300D01*
X145917523Y-48916749D01*
X145919846Y-48911767D01*
X145919849Y-48911762D01*
X146011961Y-48714225D01*
X146011961Y-48714224D01*
X146014284Y-48709243D01*
X146073543Y-48488087D01*
X146093498Y-48260000D01*
X146073543Y-48031913D01*
X146014284Y-47810757D01*
X146011961Y-47805775D01*
X145919849Y-47608238D01*
X145919846Y-47608233D01*
X145917523Y-47603251D01*
X145786198Y-47415700D01*
X145624300Y-47253802D01*
X145619792Y-47250645D01*
X145619789Y-47250643D01*
X145541611Y-47195902D01*
X145436749Y-47122477D01*
X145431767Y-47120154D01*
X145431762Y-47120151D01*
X145396951Y-47103919D01*
X145343666Y-47057002D01*
X145324205Y-46988725D01*
X145344747Y-46920765D01*
X145396951Y-46875529D01*
X145431511Y-46859414D01*
X145441006Y-46853931D01*
X145493048Y-46817491D01*
X145501424Y-46807012D01*
X145494356Y-46793566D01*
X144792812Y-46092022D01*
X144778868Y-46084408D01*
X144777035Y-46084539D01*
X144770420Y-46088790D01*
X144064923Y-46794287D01*
X144058493Y-46806062D01*
X144067789Y-46818077D01*
X144118994Y-46853931D01*
X144128489Y-46859414D01*
X144163049Y-46875529D01*
X144216334Y-46922446D01*
X144235795Y-46990723D01*
X144215253Y-47058683D01*
X144163049Y-47103919D01*
X144128238Y-47120151D01*
X144128233Y-47120154D01*
X144123251Y-47122477D01*
X144018389Y-47195902D01*
X143940211Y-47250643D01*
X143940208Y-47250645D01*
X143935700Y-47253802D01*
X143773802Y-47415700D01*
X143642477Y-47603251D01*
X143640154Y-47608233D01*
X143640151Y-47608238D01*
X143548039Y-47805775D01*
X143545716Y-47810757D01*
X143486457Y-48031913D01*
X143466502Y-48260000D01*
X143486457Y-48488087D01*
X143545716Y-48709243D01*
X143548039Y-48714224D01*
X143548039Y-48714225D01*
X143640151Y-48911762D01*
X143640154Y-48911767D01*
X143642477Y-48916749D01*
X143773802Y-49104300D01*
X143935700Y-49266198D01*
X143940208Y-49269355D01*
X143940211Y-49269357D01*
X144018389Y-49324098D01*
X144123251Y-49397523D01*
X144128233Y-49399846D01*
X144128238Y-49399849D01*
X144162457Y-49415805D01*
X144215742Y-49462722D01*
X144235203Y-49530999D01*
X144214661Y-49598959D01*
X144162457Y-49644195D01*
X144128238Y-49660151D01*
X144128233Y-49660154D01*
X144123251Y-49662477D01*
X144018389Y-49735902D01*
X143940211Y-49790643D01*
X143940208Y-49790645D01*
X143935700Y-49793802D01*
X143773802Y-49955700D01*
X143642477Y-50143251D01*
X143640154Y-50148233D01*
X143640151Y-50148238D01*
X143548039Y-50345775D01*
X143545716Y-50350757D01*
X143486457Y-50571913D01*
X143466502Y-50800000D01*
X143486457Y-51028087D01*
X143545716Y-51249243D01*
X143548039Y-51254224D01*
X143548039Y-51254225D01*
X143640151Y-51451762D01*
X143640154Y-51451767D01*
X143642477Y-51456749D01*
X143773802Y-51644300D01*
X143935700Y-51806198D01*
X143940208Y-51809355D01*
X143940211Y-51809357D01*
X143974224Y-51833173D01*
X144123251Y-51937523D01*
X144128233Y-51939846D01*
X144128238Y-51939849D01*
X144162457Y-51955805D01*
X144215742Y-52002722D01*
X144235203Y-52070999D01*
X144214661Y-52138959D01*
X144162457Y-52184195D01*
X144128238Y-52200151D01*
X144128233Y-52200154D01*
X144123251Y-52202477D01*
X144018389Y-52275902D01*
X143940211Y-52330643D01*
X143940208Y-52330645D01*
X143935700Y-52333802D01*
X143773802Y-52495700D01*
X143770645Y-52500208D01*
X143770643Y-52500211D01*
X143756374Y-52520590D01*
X143642477Y-52683251D01*
X143640154Y-52688233D01*
X143640151Y-52688238D01*
X143548039Y-52885775D01*
X143545716Y-52890757D01*
X143544294Y-52896065D01*
X143544293Y-52896067D01*
X143487881Y-53106598D01*
X143486457Y-53111913D01*
X143466502Y-53340000D01*
X143486457Y-53568087D01*
X143487881Y-53573400D01*
X143487881Y-53573402D01*
X143500922Y-53622069D01*
X143545716Y-53789243D01*
X143548039Y-53794224D01*
X143548039Y-53794225D01*
X143640151Y-53991762D01*
X143640154Y-53991767D01*
X143642477Y-53996749D01*
X143692719Y-54068502D01*
X143767207Y-54174881D01*
X143773802Y-54184300D01*
X143935700Y-54346198D01*
X143940208Y-54349355D01*
X143940211Y-54349357D01*
X143993587Y-54386731D01*
X144123251Y-54477523D01*
X144128233Y-54479846D01*
X144128238Y-54479849D01*
X144162457Y-54495805D01*
X144215742Y-54542722D01*
X144235203Y-54610999D01*
X144214661Y-54678959D01*
X144162457Y-54724195D01*
X144128238Y-54740151D01*
X144128233Y-54740154D01*
X144123251Y-54742477D01*
X144018389Y-54815902D01*
X143940211Y-54870643D01*
X143940208Y-54870645D01*
X143935700Y-54873802D01*
X143773802Y-55035700D01*
X143642477Y-55223251D01*
X143640154Y-55228233D01*
X143640151Y-55228238D01*
X143576773Y-55364154D01*
X143545716Y-55430757D01*
X143544294Y-55436065D01*
X143544293Y-55436067D01*
X143487967Y-55646277D01*
X143486457Y-55651913D01*
X143466502Y-55880000D01*
X143486457Y-56108087D01*
X143487881Y-56113400D01*
X143487881Y-56113402D01*
X143536157Y-56293567D01*
X143545716Y-56329243D01*
X143548039Y-56334224D01*
X143548039Y-56334225D01*
X143640151Y-56531762D01*
X143640154Y-56531767D01*
X143642477Y-56536749D01*
X143773802Y-56724300D01*
X143935700Y-56886198D01*
X143940208Y-56889355D01*
X143940211Y-56889357D01*
X143993350Y-56926565D01*
X144123251Y-57017523D01*
X144128233Y-57019846D01*
X144128238Y-57019849D01*
X144162457Y-57035805D01*
X144215742Y-57082722D01*
X144235203Y-57150999D01*
X144214661Y-57218959D01*
X144162457Y-57264195D01*
X144128238Y-57280151D01*
X144128233Y-57280154D01*
X144123251Y-57282477D01*
X144018389Y-57355902D01*
X143940211Y-57410643D01*
X143940208Y-57410645D01*
X143935700Y-57413802D01*
X143773802Y-57575700D01*
X143642477Y-57763251D01*
X143640154Y-57768233D01*
X143640151Y-57768238D01*
X143560691Y-57938642D01*
X143545716Y-57970757D01*
X143544294Y-57976065D01*
X143544293Y-57976067D01*
X143492509Y-58169328D01*
X143486457Y-58191913D01*
X143466502Y-58420000D01*
X143486457Y-58648087D01*
X143487881Y-58653400D01*
X143487881Y-58653402D01*
X143533295Y-58822889D01*
X143531605Y-58893865D01*
X143491811Y-58952661D01*
X143426547Y-58980609D01*
X143411588Y-58981500D01*
X141128912Y-58981500D01*
X141120342Y-58981208D01*
X141070224Y-58977791D01*
X141070220Y-58977791D01*
X141062648Y-58977275D01*
X141055171Y-58978580D01*
X141055170Y-58978580D01*
X141028692Y-58983201D01*
X140999697Y-58988262D01*
X140993179Y-58989223D01*
X140929758Y-58996898D01*
X140922654Y-58999582D01*
X140915273Y-59001395D01*
X140914506Y-58998273D01*
X140858235Y-59002536D01*
X140795780Y-58968773D01*
X140761493Y-58906605D01*
X140758500Y-58879304D01*
X140758500Y-57691866D01*
X140751745Y-57629684D01*
X140700615Y-57493295D01*
X140613261Y-57376739D01*
X140496705Y-57289385D01*
X140360316Y-57238255D01*
X140298134Y-57231500D01*
X140044500Y-57231500D01*
X139976379Y-57211498D01*
X139929886Y-57157842D01*
X139918500Y-57105500D01*
X139918500Y-56168297D01*
X139938502Y-56100176D01*
X139971332Y-56065718D01*
X140085656Y-55984172D01*
X140085659Y-55984170D01*
X140089860Y-55981173D01*
X140248096Y-55823489D01*
X140307594Y-55740689D01*
X140375435Y-55646277D01*
X140378453Y-55642077D01*
X140384664Y-55629511D01*
X140475136Y-55446453D01*
X140475137Y-55446451D01*
X140477430Y-55441811D01*
X140542370Y-55228069D01*
X140571529Y-55006590D01*
X140573156Y-54940000D01*
X140554852Y-54717361D01*
X140500431Y-54500702D01*
X140411354Y-54295840D01*
X140306615Y-54133938D01*
X140292822Y-54112617D01*
X140292820Y-54112614D01*
X140290014Y-54108277D01*
X140139670Y-53943051D01*
X140135619Y-53939852D01*
X140135615Y-53939848D01*
X139968414Y-53807800D01*
X139968410Y-53807798D01*
X139964359Y-53804598D01*
X139936544Y-53789243D01*
X139901375Y-53769829D01*
X139768789Y-53696638D01*
X139763920Y-53694914D01*
X139763916Y-53694912D01*
X139563087Y-53623795D01*
X139563083Y-53623794D01*
X139558212Y-53622069D01*
X139553119Y-53621162D01*
X139553116Y-53621161D01*
X139343373Y-53583800D01*
X139343367Y-53583799D01*
X139338284Y-53582894D01*
X139264452Y-53581992D01*
X139120081Y-53580228D01*
X139120079Y-53580228D01*
X139114911Y-53580165D01*
X138894091Y-53613955D01*
X138681756Y-53683357D01*
X138651443Y-53699137D01*
X138488552Y-53783933D01*
X138483607Y-53786507D01*
X138479474Y-53789610D01*
X138479471Y-53789612D01*
X138382957Y-53862077D01*
X138304965Y-53920635D01*
X138262485Y-53965088D01*
X138171742Y-54060045D01*
X138150629Y-54082138D01*
X138024743Y-54266680D01*
X137930688Y-54469305D01*
X137870989Y-54684570D01*
X137847251Y-54906695D01*
X137847548Y-54911848D01*
X137847548Y-54911851D01*
X137854689Y-55035700D01*
X137860110Y-55129715D01*
X137861247Y-55134761D01*
X137861248Y-55134767D01*
X137882275Y-55228069D01*
X137909222Y-55347639D01*
X137951296Y-55451256D01*
X137984846Y-55533879D01*
X137993266Y-55554616D01*
X138109987Y-55745088D01*
X138256250Y-55913938D01*
X138428126Y-56056632D01*
X138439070Y-56063027D01*
X138487793Y-56114664D01*
X138501500Y-56171815D01*
X138501500Y-57771088D01*
X138501208Y-57779658D01*
X138498193Y-57823891D01*
X138497275Y-57837352D01*
X138498580Y-57844829D01*
X138498580Y-57844830D01*
X138508261Y-57900299D01*
X138509223Y-57906821D01*
X138516898Y-57970242D01*
X138519581Y-57977343D01*
X138520222Y-57979952D01*
X138524685Y-57996262D01*
X138525450Y-57998798D01*
X138526757Y-58006284D01*
X138529811Y-58013241D01*
X138552442Y-58064795D01*
X138554933Y-58070899D01*
X138577513Y-58130656D01*
X138581817Y-58136919D01*
X138583054Y-58139285D01*
X138591299Y-58154097D01*
X138592632Y-58156351D01*
X138595685Y-58163305D01*
X138600307Y-58169328D01*
X138615461Y-58189077D01*
X138641063Y-58255297D01*
X138641500Y-58265783D01*
X138641500Y-58888134D01*
X138648255Y-58950316D01*
X138699385Y-59086705D01*
X138786739Y-59203261D01*
X138903295Y-59290615D01*
X139039684Y-59341745D01*
X139101866Y-59348500D01*
X140135340Y-59348500D01*
X140203461Y-59368502D01*
X140249954Y-59422158D01*
X140260058Y-59492432D01*
X140230564Y-59557012D01*
X140224435Y-59563595D01*
X139793435Y-59994595D01*
X139731123Y-60028621D01*
X139704340Y-60031500D01*
X139101866Y-60031500D01*
X139039684Y-60038255D01*
X138903295Y-60089385D01*
X138786739Y-60176739D01*
X138699385Y-60293295D01*
X138648255Y-60429684D01*
X138641500Y-60491866D01*
X138641500Y-61094340D01*
X138621498Y-61162461D01*
X138604595Y-61183435D01*
X138373924Y-61414106D01*
X138311612Y-61448132D01*
X138284829Y-61451011D01*
X130927299Y-61451011D01*
X130859178Y-61431009D01*
X130812685Y-61377353D01*
X130802581Y-61307079D01*
X130805592Y-61292399D01*
X130833543Y-61188087D01*
X130853498Y-60960000D01*
X130833543Y-60731913D01*
X130831980Y-60726081D01*
X130775707Y-60516067D01*
X130775706Y-60516065D01*
X130774284Y-60510757D01*
X130771961Y-60505775D01*
X130679849Y-60308238D01*
X130679846Y-60308233D01*
X130677523Y-60303251D01*
X130546198Y-60115700D01*
X130384300Y-59953802D01*
X130379792Y-59950645D01*
X130379789Y-59950643D01*
X130273944Y-59876530D01*
X130196749Y-59822477D01*
X130191767Y-59820154D01*
X130191762Y-59820151D01*
X130157543Y-59804195D01*
X130104258Y-59757278D01*
X130084797Y-59689001D01*
X130105339Y-59621041D01*
X130157543Y-59575805D01*
X130191762Y-59559849D01*
X130191767Y-59559846D01*
X130196749Y-59557523D01*
X130301611Y-59484098D01*
X130379789Y-59429357D01*
X130379792Y-59429355D01*
X130384300Y-59426198D01*
X130546198Y-59264300D01*
X130677523Y-59076749D01*
X130679846Y-59071767D01*
X130679849Y-59071762D01*
X130771961Y-58874225D01*
X130771961Y-58874224D01*
X130774284Y-58869243D01*
X130777967Y-58855500D01*
X130832119Y-58653402D01*
X130832119Y-58653400D01*
X130833543Y-58648087D01*
X130853498Y-58420000D01*
X130833543Y-58191913D01*
X130827491Y-58169328D01*
X130775707Y-57976067D01*
X130775706Y-57976065D01*
X130774284Y-57970757D01*
X130759309Y-57938642D01*
X130679849Y-57768238D01*
X130679846Y-57768233D01*
X130677523Y-57763251D01*
X130546198Y-57575700D01*
X130384300Y-57413802D01*
X130379792Y-57410645D01*
X130379789Y-57410643D01*
X130301611Y-57355902D01*
X130196749Y-57282477D01*
X130191767Y-57280154D01*
X130191762Y-57280151D01*
X130157543Y-57264195D01*
X130104258Y-57217278D01*
X130084797Y-57149001D01*
X130105339Y-57081041D01*
X130157543Y-57035805D01*
X130191762Y-57019849D01*
X130191767Y-57019846D01*
X130196749Y-57017523D01*
X130326650Y-56926565D01*
X130379789Y-56889357D01*
X130379792Y-56889355D01*
X130384300Y-56886198D01*
X130546198Y-56724300D01*
X130603665Y-56642229D01*
X130659122Y-56597901D01*
X130706878Y-56588500D01*
X133571088Y-56588500D01*
X133579658Y-56588792D01*
X133629776Y-56592209D01*
X133629780Y-56592209D01*
X133637352Y-56592725D01*
X133644829Y-56591420D01*
X133644830Y-56591420D01*
X133671308Y-56586799D01*
X133700303Y-56581738D01*
X133706821Y-56580777D01*
X133770242Y-56573102D01*
X133777343Y-56570419D01*
X133779952Y-56569778D01*
X133796262Y-56565315D01*
X133798798Y-56564550D01*
X133806284Y-56563243D01*
X133864800Y-56537556D01*
X133870904Y-56535065D01*
X133879646Y-56531762D01*
X133930656Y-56512487D01*
X133936919Y-56508183D01*
X133939285Y-56506946D01*
X133954097Y-56498701D01*
X133956351Y-56497368D01*
X133963305Y-56494315D01*
X134014002Y-56455413D01*
X134019332Y-56451541D01*
X134065720Y-56419661D01*
X134065725Y-56419656D01*
X134071981Y-56415357D01*
X134113436Y-56368829D01*
X134118416Y-56363554D01*
X135952684Y-54529286D01*
X136014996Y-54495260D01*
X136066896Y-54494910D01*
X136158597Y-54513567D01*
X136163772Y-54513757D01*
X136163774Y-54513757D01*
X136376673Y-54521564D01*
X136376677Y-54521564D01*
X136381837Y-54521753D01*
X136386957Y-54521097D01*
X136386959Y-54521097D01*
X136598288Y-54494025D01*
X136598289Y-54494025D01*
X136603416Y-54493368D01*
X136656230Y-54477523D01*
X136812429Y-54430661D01*
X136812434Y-54430659D01*
X136817384Y-54429174D01*
X137017994Y-54330896D01*
X137199860Y-54201173D01*
X137212882Y-54188197D01*
X137341482Y-54060045D01*
X137358096Y-54043489D01*
X137395266Y-53991762D01*
X137485435Y-53866277D01*
X137488453Y-53862077D01*
X137521988Y-53794225D01*
X137585136Y-53666453D01*
X137585137Y-53666451D01*
X137587430Y-53661811D01*
X137628114Y-53527906D01*
X137650865Y-53453023D01*
X137650865Y-53453021D01*
X137652370Y-53448069D01*
X137681529Y-53226590D01*
X137683156Y-53160000D01*
X137664852Y-52937361D01*
X137610431Y-52720702D01*
X137521354Y-52515840D01*
X137481906Y-52454862D01*
X137402822Y-52332617D01*
X137402820Y-52332614D01*
X137400014Y-52328277D01*
X137249670Y-52163051D01*
X137245619Y-52159852D01*
X137245615Y-52159848D01*
X137078414Y-52027800D01*
X137078410Y-52027798D01*
X137074359Y-52024598D01*
X136878789Y-51916638D01*
X136873920Y-51914914D01*
X136873916Y-51914912D01*
X136673087Y-51843795D01*
X136673083Y-51843794D01*
X136668212Y-51842069D01*
X136663119Y-51841162D01*
X136663116Y-51841161D01*
X136453373Y-51803800D01*
X136453367Y-51803799D01*
X136448284Y-51802894D01*
X136374452Y-51801992D01*
X136230081Y-51800228D01*
X136230079Y-51800228D01*
X136224911Y-51800165D01*
X136004091Y-51833955D01*
X135791756Y-51903357D01*
X135593607Y-52006507D01*
X135589474Y-52009610D01*
X135589471Y-52009612D01*
X135419436Y-52137278D01*
X135414965Y-52140635D01*
X135260629Y-52302138D01*
X135134743Y-52486680D01*
X135119003Y-52520590D01*
X135045591Y-52678743D01*
X135040688Y-52689305D01*
X134980989Y-52904570D01*
X134957251Y-53126695D01*
X134957548Y-53131848D01*
X134957548Y-53131851D01*
X134963011Y-53226590D01*
X134970110Y-53349715D01*
X134971247Y-53354761D01*
X134971248Y-53354767D01*
X134983946Y-53411110D01*
X134979410Y-53481962D01*
X134950124Y-53527906D01*
X133343435Y-55134595D01*
X133281123Y-55168621D01*
X133254340Y-55171500D01*
X130706878Y-55171500D01*
X130638757Y-55151498D01*
X130603665Y-55117771D01*
X130549357Y-55040211D01*
X130549355Y-55040208D01*
X130546198Y-55035700D01*
X130384300Y-54873802D01*
X130379792Y-54870645D01*
X130379789Y-54870643D01*
X130301611Y-54815902D01*
X130196749Y-54742477D01*
X130191767Y-54740154D01*
X130191762Y-54740151D01*
X130157543Y-54724195D01*
X130104258Y-54677278D01*
X130084797Y-54609001D01*
X130105339Y-54541041D01*
X130157543Y-54495805D01*
X130191762Y-54479849D01*
X130191767Y-54479846D01*
X130196749Y-54477523D01*
X130326413Y-54386731D01*
X130379789Y-54349357D01*
X130379792Y-54349355D01*
X130384300Y-54346198D01*
X130546198Y-54184300D01*
X130552794Y-54174881D01*
X130627281Y-54068502D01*
X130677523Y-53996749D01*
X130679846Y-53991767D01*
X130679849Y-53991762D01*
X130771961Y-53794225D01*
X130771961Y-53794224D01*
X130774284Y-53789243D01*
X130819079Y-53622069D01*
X130832119Y-53573402D01*
X130832119Y-53573400D01*
X130833543Y-53568087D01*
X130853498Y-53340000D01*
X130833543Y-53111913D01*
X130832119Y-53106598D01*
X130775707Y-52896067D01*
X130775706Y-52896065D01*
X130774284Y-52890757D01*
X130771961Y-52885775D01*
X130679849Y-52688238D01*
X130679846Y-52688233D01*
X130677523Y-52683251D01*
X130563626Y-52520590D01*
X130549357Y-52500211D01*
X130549355Y-52500208D01*
X130546198Y-52495700D01*
X130384300Y-52333802D01*
X130379792Y-52330645D01*
X130379789Y-52330643D01*
X130301611Y-52275902D01*
X130196749Y-52202477D01*
X130191767Y-52200154D01*
X130191762Y-52200151D01*
X130157543Y-52184195D01*
X130104258Y-52137278D01*
X130084797Y-52069001D01*
X130105339Y-52001041D01*
X130157543Y-51955805D01*
X130191762Y-51939849D01*
X130191767Y-51939846D01*
X130196749Y-51937523D01*
X130345776Y-51833173D01*
X130379789Y-51809357D01*
X130379792Y-51809355D01*
X130384300Y-51806198D01*
X130546198Y-51644300D01*
X130677523Y-51456749D01*
X130679846Y-51451767D01*
X130679849Y-51451762D01*
X130771961Y-51254225D01*
X130771961Y-51254224D01*
X130774284Y-51249243D01*
X130833543Y-51028087D01*
X130853498Y-50800000D01*
X130833543Y-50571913D01*
X130774284Y-50350757D01*
X130771961Y-50345775D01*
X130679849Y-50148238D01*
X130679846Y-50148233D01*
X130677523Y-50143251D01*
X130546198Y-49955700D01*
X130384300Y-49793802D01*
X130379792Y-49790645D01*
X130379789Y-49790643D01*
X130301611Y-49735902D01*
X130196749Y-49662477D01*
X130191767Y-49660154D01*
X130191762Y-49660151D01*
X130157543Y-49644195D01*
X130104258Y-49597278D01*
X130084797Y-49529001D01*
X130105339Y-49461041D01*
X130157543Y-49415805D01*
X130191762Y-49399849D01*
X130191767Y-49399846D01*
X130196749Y-49397523D01*
X130301611Y-49324098D01*
X130379789Y-49269357D01*
X130379792Y-49269355D01*
X130384300Y-49266198D01*
X130546198Y-49104300D01*
X130677523Y-48916749D01*
X130679846Y-48911767D01*
X130679849Y-48911762D01*
X130771961Y-48714225D01*
X130771961Y-48714224D01*
X130774284Y-48709243D01*
X130833543Y-48488087D01*
X130853498Y-48260000D01*
X130833543Y-48031913D01*
X130774284Y-47810757D01*
X130771961Y-47805775D01*
X130679849Y-47608238D01*
X130679846Y-47608233D01*
X130677523Y-47603251D01*
X130546198Y-47415700D01*
X130384300Y-47253802D01*
X130379792Y-47250645D01*
X130379789Y-47250643D01*
X130301611Y-47195902D01*
X130196749Y-47122477D01*
X130191767Y-47120154D01*
X130191762Y-47120151D01*
X130157543Y-47104195D01*
X130104258Y-47057278D01*
X130084797Y-46989001D01*
X130105339Y-46921041D01*
X130157543Y-46875805D01*
X130191762Y-46859849D01*
X130191767Y-46859846D01*
X130196749Y-46857523D01*
X130301611Y-46784098D01*
X130379789Y-46729357D01*
X130379792Y-46729355D01*
X130384300Y-46726198D01*
X130546198Y-46564300D01*
X130677523Y-46376749D01*
X130679846Y-46371767D01*
X130679849Y-46371762D01*
X130771961Y-46174225D01*
X130771961Y-46174224D01*
X130774284Y-46169243D01*
X130794976Y-46092022D01*
X130832119Y-45953402D01*
X130832119Y-45953400D01*
X130833543Y-45948087D01*
X130853019Y-45725475D01*
X143467483Y-45725475D01*
X143486472Y-45942519D01*
X143488375Y-45953312D01*
X143544764Y-46163761D01*
X143548510Y-46174053D01*
X143640586Y-46371511D01*
X143646069Y-46381006D01*
X143682509Y-46433048D01*
X143692988Y-46441424D01*
X143706434Y-46434356D01*
X144407978Y-45732812D01*
X144414356Y-45721132D01*
X145144408Y-45721132D01*
X145144539Y-45722965D01*
X145148790Y-45729580D01*
X145854287Y-46435077D01*
X145866062Y-46441507D01*
X145878077Y-46432211D01*
X145913931Y-46381006D01*
X145919414Y-46371511D01*
X146011490Y-46174053D01*
X146015236Y-46163761D01*
X146071625Y-45953312D01*
X146073528Y-45942519D01*
X146092517Y-45725475D01*
X146092517Y-45714525D01*
X146073528Y-45497481D01*
X146071625Y-45486688D01*
X146015236Y-45276239D01*
X146011490Y-45265947D01*
X145919414Y-45068489D01*
X145913931Y-45058994D01*
X145877491Y-45006952D01*
X145867012Y-44998576D01*
X145853566Y-45005644D01*
X145152022Y-45707188D01*
X145144408Y-45721132D01*
X144414356Y-45721132D01*
X144415592Y-45718868D01*
X144415461Y-45717035D01*
X144411210Y-45710420D01*
X143705713Y-45004923D01*
X143693938Y-44998493D01*
X143681923Y-45007789D01*
X143646069Y-45058994D01*
X143640586Y-45068489D01*
X143548510Y-45265947D01*
X143544764Y-45276239D01*
X143488375Y-45486688D01*
X143486472Y-45497481D01*
X143467483Y-45714525D01*
X143467483Y-45725475D01*
X130853019Y-45725475D01*
X130853498Y-45720000D01*
X130833543Y-45491913D01*
X130796981Y-45355461D01*
X130775707Y-45276067D01*
X130775706Y-45276065D01*
X130774284Y-45270757D01*
X130679966Y-45068489D01*
X130679849Y-45068238D01*
X130679846Y-45068233D01*
X130677523Y-45063251D01*
X130546198Y-44875700D01*
X130384300Y-44713802D01*
X130379792Y-44710645D01*
X130379789Y-44710643D01*
X130253920Y-44622509D01*
X130196749Y-44582477D01*
X130191767Y-44580154D01*
X130191762Y-44580151D01*
X130157543Y-44564195D01*
X130104258Y-44517278D01*
X130084797Y-44449001D01*
X130105339Y-44381041D01*
X130157543Y-44335805D01*
X130191762Y-44319849D01*
X130191767Y-44319846D01*
X130196749Y-44317523D01*
X130270243Y-44266062D01*
X144058493Y-44266062D01*
X144067789Y-44278077D01*
X144118994Y-44313931D01*
X144128489Y-44319414D01*
X144163641Y-44335805D01*
X144216926Y-44382722D01*
X144236387Y-44450999D01*
X144215845Y-44518959D01*
X144163641Y-44564195D01*
X144128489Y-44580586D01*
X144118994Y-44586069D01*
X144066952Y-44622509D01*
X144058576Y-44632988D01*
X144065644Y-44646434D01*
X144767188Y-45347978D01*
X144781132Y-45355592D01*
X144782965Y-45355461D01*
X144789580Y-45351210D01*
X145495077Y-44645713D01*
X145501507Y-44633938D01*
X145492211Y-44621923D01*
X145441006Y-44586069D01*
X145431511Y-44580586D01*
X145396359Y-44564195D01*
X145343074Y-44517278D01*
X145323613Y-44449001D01*
X145344155Y-44381041D01*
X145396359Y-44335805D01*
X145431511Y-44319414D01*
X145441006Y-44313931D01*
X145493048Y-44277491D01*
X145501424Y-44267012D01*
X145494356Y-44253566D01*
X144792812Y-43552022D01*
X144778868Y-43544408D01*
X144777035Y-43544539D01*
X144770420Y-43548790D01*
X144064923Y-44254287D01*
X144058493Y-44266062D01*
X130270243Y-44266062D01*
X130301611Y-44244098D01*
X130379789Y-44189357D01*
X130379792Y-44189355D01*
X130384300Y-44186198D01*
X130546198Y-44024300D01*
X130677523Y-43836749D01*
X130679846Y-43831767D01*
X130679849Y-43831762D01*
X130771961Y-43634225D01*
X130771961Y-43634224D01*
X130774284Y-43629243D01*
X130794976Y-43552022D01*
X130832119Y-43413402D01*
X130832119Y-43413400D01*
X130833543Y-43408087D01*
X130853019Y-43185475D01*
X143467483Y-43185475D01*
X143486472Y-43402519D01*
X143488375Y-43413312D01*
X143544764Y-43623761D01*
X143548510Y-43634053D01*
X143640586Y-43831511D01*
X143646069Y-43841006D01*
X143682509Y-43893048D01*
X143692988Y-43901424D01*
X143706434Y-43894356D01*
X144407978Y-43192812D01*
X144414356Y-43181132D01*
X145144408Y-43181132D01*
X145144539Y-43182965D01*
X145148790Y-43189580D01*
X145854287Y-43895077D01*
X145866062Y-43901507D01*
X145878077Y-43892211D01*
X145913931Y-43841006D01*
X145919414Y-43831511D01*
X146011490Y-43634053D01*
X146015236Y-43623761D01*
X146071625Y-43413312D01*
X146073528Y-43402519D01*
X146092517Y-43185475D01*
X146092517Y-43174525D01*
X146073528Y-42957481D01*
X146071625Y-42946688D01*
X146015236Y-42736239D01*
X146011490Y-42725947D01*
X145919414Y-42528489D01*
X145913931Y-42518994D01*
X145877491Y-42466952D01*
X145867012Y-42458576D01*
X145853566Y-42465644D01*
X145152022Y-43167188D01*
X145144408Y-43181132D01*
X144414356Y-43181132D01*
X144415592Y-43178868D01*
X144415461Y-43177035D01*
X144411210Y-43170420D01*
X143705713Y-42464923D01*
X143693938Y-42458493D01*
X143681923Y-42467789D01*
X143646069Y-42518994D01*
X143640586Y-42528489D01*
X143548510Y-42725947D01*
X143544764Y-42736239D01*
X143488375Y-42946688D01*
X143486472Y-42957481D01*
X143467483Y-43174525D01*
X143467483Y-43185475D01*
X130853019Y-43185475D01*
X130853498Y-43180000D01*
X130833543Y-42951913D01*
X130796981Y-42815461D01*
X130775707Y-42736067D01*
X130775706Y-42736065D01*
X130774284Y-42730757D01*
X130745037Y-42668036D01*
X130679849Y-42528238D01*
X130679846Y-42528233D01*
X130677523Y-42523251D01*
X130546198Y-42335700D01*
X130384300Y-42173802D01*
X130379792Y-42170645D01*
X130379789Y-42170643D01*
X130268886Y-42092988D01*
X130196749Y-42042477D01*
X130191767Y-42040154D01*
X130191762Y-42040151D01*
X130156951Y-42023919D01*
X130103666Y-41977002D01*
X130084205Y-41908725D01*
X130104747Y-41840765D01*
X130156951Y-41795529D01*
X130191511Y-41779414D01*
X130201006Y-41773931D01*
X130253048Y-41737491D01*
X130261424Y-41727012D01*
X130254356Y-41713566D01*
X129552812Y-41012022D01*
X129538868Y-41004408D01*
X129537035Y-41004539D01*
X129530420Y-41008790D01*
X128824923Y-41714287D01*
X128818493Y-41726062D01*
X128827789Y-41738077D01*
X128878994Y-41773931D01*
X128888489Y-41779414D01*
X128923049Y-41795529D01*
X128976334Y-41842446D01*
X128995795Y-41910723D01*
X128975253Y-41978683D01*
X128923049Y-42023919D01*
X128888238Y-42040151D01*
X128888233Y-42040154D01*
X128883251Y-42042477D01*
X128811114Y-42092988D01*
X128700211Y-42170643D01*
X128700208Y-42170645D01*
X128695700Y-42173802D01*
X128533802Y-42335700D01*
X128402477Y-42523251D01*
X128400154Y-42528233D01*
X128400151Y-42528238D01*
X128334963Y-42668036D01*
X128305716Y-42730757D01*
X128304294Y-42736065D01*
X128304293Y-42736067D01*
X128283019Y-42815461D01*
X128246457Y-42951913D01*
X128226502Y-43180000D01*
X128246457Y-43408087D01*
X128247881Y-43413400D01*
X128247881Y-43413402D01*
X128285025Y-43552022D01*
X128305716Y-43629243D01*
X128308039Y-43634224D01*
X128308039Y-43634225D01*
X128400151Y-43831762D01*
X128400154Y-43831767D01*
X128402477Y-43836749D01*
X128533802Y-44024300D01*
X128695700Y-44186198D01*
X128700208Y-44189355D01*
X128700211Y-44189357D01*
X128778389Y-44244098D01*
X128883251Y-44317523D01*
X128888233Y-44319846D01*
X128888238Y-44319849D01*
X128922457Y-44335805D01*
X128975742Y-44382722D01*
X128995203Y-44450999D01*
X128974661Y-44518959D01*
X128922457Y-44564195D01*
X128888238Y-44580151D01*
X128888233Y-44580154D01*
X128883251Y-44582477D01*
X128826080Y-44622509D01*
X128700211Y-44710643D01*
X128700208Y-44710645D01*
X128695700Y-44713802D01*
X128533802Y-44875700D01*
X128402477Y-45063251D01*
X128400154Y-45068233D01*
X128400151Y-45068238D01*
X128400034Y-45068489D01*
X128305716Y-45270757D01*
X128304294Y-45276065D01*
X128304293Y-45276067D01*
X128283019Y-45355461D01*
X128246457Y-45491913D01*
X128226502Y-45720000D01*
X128246457Y-45948087D01*
X128247881Y-45953400D01*
X128247881Y-45953402D01*
X128285025Y-46092022D01*
X128305716Y-46169243D01*
X128308039Y-46174224D01*
X128308039Y-46174225D01*
X128400151Y-46371762D01*
X128400154Y-46371767D01*
X128402477Y-46376749D01*
X128533802Y-46564300D01*
X128695700Y-46726198D01*
X128700208Y-46729355D01*
X128700211Y-46729357D01*
X128778389Y-46784098D01*
X128883251Y-46857523D01*
X128888233Y-46859846D01*
X128888238Y-46859849D01*
X128922457Y-46875805D01*
X128975742Y-46922722D01*
X128995203Y-46990999D01*
X128974661Y-47058959D01*
X128922457Y-47104195D01*
X128888238Y-47120151D01*
X128888233Y-47120154D01*
X128883251Y-47122477D01*
X128778389Y-47195902D01*
X128700211Y-47250643D01*
X128700208Y-47250645D01*
X128695700Y-47253802D01*
X128533802Y-47415700D01*
X128402477Y-47603251D01*
X128400154Y-47608233D01*
X128400151Y-47608238D01*
X128308039Y-47805775D01*
X128305716Y-47810757D01*
X128246457Y-48031913D01*
X128226502Y-48260000D01*
X128246457Y-48488087D01*
X128305716Y-48709243D01*
X128308039Y-48714224D01*
X128308039Y-48714225D01*
X128400151Y-48911762D01*
X128400154Y-48911767D01*
X128402477Y-48916749D01*
X128533802Y-49104300D01*
X128695700Y-49266198D01*
X128700208Y-49269355D01*
X128700211Y-49269357D01*
X128778389Y-49324098D01*
X128883251Y-49397523D01*
X128888233Y-49399846D01*
X128888238Y-49399849D01*
X128922457Y-49415805D01*
X128975742Y-49462722D01*
X128995203Y-49530999D01*
X128974661Y-49598959D01*
X128922457Y-49644195D01*
X128888238Y-49660151D01*
X128888233Y-49660154D01*
X128883251Y-49662477D01*
X128778389Y-49735902D01*
X128700211Y-49790643D01*
X128700208Y-49790645D01*
X128695700Y-49793802D01*
X128533802Y-49955700D01*
X128402477Y-50143251D01*
X128400154Y-50148233D01*
X128400151Y-50148238D01*
X128308039Y-50345775D01*
X128305716Y-50350757D01*
X128246457Y-50571913D01*
X128226502Y-50800000D01*
X128246457Y-51028087D01*
X128305716Y-51249243D01*
X128308039Y-51254224D01*
X128308039Y-51254225D01*
X128400151Y-51451762D01*
X128400154Y-51451767D01*
X128402477Y-51456749D01*
X128533802Y-51644300D01*
X128695700Y-51806198D01*
X128700208Y-51809355D01*
X128700211Y-51809357D01*
X128734224Y-51833173D01*
X128883251Y-51937523D01*
X128888233Y-51939846D01*
X128888238Y-51939849D01*
X128922457Y-51955805D01*
X128975742Y-52002722D01*
X128995203Y-52070999D01*
X128974661Y-52138959D01*
X128922457Y-52184195D01*
X128888238Y-52200151D01*
X128888233Y-52200154D01*
X128883251Y-52202477D01*
X128778389Y-52275902D01*
X128700211Y-52330643D01*
X128700208Y-52330645D01*
X128695700Y-52333802D01*
X128533802Y-52495700D01*
X128530645Y-52500208D01*
X128530643Y-52500211D01*
X128476335Y-52577771D01*
X128420878Y-52622099D01*
X128373122Y-52631500D01*
X118554254Y-52631500D01*
X118486133Y-52611498D01*
X118438705Y-52555744D01*
X118423419Y-52520590D01*
X118421354Y-52515840D01*
X118381906Y-52454862D01*
X118302822Y-52332617D01*
X118302820Y-52332614D01*
X118300014Y-52328277D01*
X118149670Y-52163051D01*
X118145619Y-52159852D01*
X118145615Y-52159848D01*
X117978414Y-52027800D01*
X117978410Y-52027798D01*
X117974359Y-52024598D01*
X117778789Y-51916638D01*
X117773920Y-51914914D01*
X117773916Y-51914912D01*
X117573087Y-51843795D01*
X117573083Y-51843794D01*
X117568212Y-51842069D01*
X117563119Y-51841162D01*
X117563116Y-51841161D01*
X117353373Y-51803800D01*
X117353367Y-51803799D01*
X117348284Y-51802894D01*
X117274452Y-51801992D01*
X117130081Y-51800228D01*
X117130079Y-51800228D01*
X117124911Y-51800165D01*
X116904091Y-51833955D01*
X116691756Y-51903357D01*
X116493607Y-52006507D01*
X116489474Y-52009610D01*
X116489471Y-52009612D01*
X116319436Y-52137278D01*
X116314965Y-52140635D01*
X116160629Y-52302138D01*
X116034743Y-52486680D01*
X116019003Y-52520590D01*
X115945591Y-52678743D01*
X115940688Y-52689305D01*
X115880989Y-52904570D01*
X115857251Y-53126695D01*
X109728000Y-53126695D01*
X109728000Y-40772703D01*
X110920743Y-40772703D01*
X110921302Y-40776947D01*
X110921302Y-40776951D01*
X110933988Y-40873312D01*
X110958268Y-41057734D01*
X111034129Y-41335036D01*
X111146923Y-41599476D01*
X111215636Y-41714287D01*
X111292338Y-41842446D01*
X111294561Y-41846161D01*
X111474313Y-42070528D01*
X111682851Y-42268423D01*
X111916317Y-42436186D01*
X111920112Y-42438195D01*
X111920113Y-42438196D01*
X111941869Y-42449715D01*
X112170392Y-42570712D01*
X112440373Y-42669511D01*
X112721264Y-42730755D01*
X112749841Y-42733004D01*
X112944282Y-42748307D01*
X112944291Y-42748307D01*
X112946739Y-42748500D01*
X113102271Y-42748500D01*
X113104407Y-42748354D01*
X113104418Y-42748354D01*
X113312548Y-42734165D01*
X113312554Y-42734164D01*
X113316825Y-42733873D01*
X113321020Y-42733004D01*
X113321022Y-42733004D01*
X113457584Y-42704723D01*
X113598342Y-42675574D01*
X113869343Y-42579607D01*
X114124812Y-42447750D01*
X114128313Y-42445289D01*
X114128317Y-42445287D01*
X114242417Y-42365096D01*
X114360023Y-42282441D01*
X114562876Y-42093938D01*
X114567479Y-42089661D01*
X114567481Y-42089658D01*
X114570622Y-42086740D01*
X114752713Y-41864268D01*
X114902927Y-41619142D01*
X114962119Y-41484300D01*
X115016757Y-41359830D01*
X115018483Y-41355898D01*
X115097244Y-41079406D01*
X115137751Y-40794784D01*
X115137845Y-40776951D01*
X115138534Y-40645475D01*
X128227483Y-40645475D01*
X128246472Y-40862519D01*
X128248375Y-40873312D01*
X128304764Y-41083761D01*
X128308510Y-41094053D01*
X128400586Y-41291511D01*
X128406069Y-41301006D01*
X128442509Y-41353048D01*
X128452988Y-41361424D01*
X128466434Y-41354356D01*
X129167978Y-40652812D01*
X129174356Y-40641132D01*
X129904408Y-40641132D01*
X129904539Y-40642965D01*
X129908790Y-40649580D01*
X130614287Y-41355077D01*
X130626062Y-41361507D01*
X130638077Y-41352211D01*
X130673931Y-41301006D01*
X130679414Y-41291511D01*
X130771490Y-41094053D01*
X130775236Y-41083761D01*
X130831625Y-40873312D01*
X130833528Y-40862519D01*
X130852517Y-40645475D01*
X130852517Y-40634525D01*
X130833528Y-40417481D01*
X130831625Y-40406688D01*
X130775236Y-40196239D01*
X130771490Y-40185947D01*
X130679414Y-39988489D01*
X130673931Y-39978994D01*
X130637491Y-39926952D01*
X130627012Y-39918576D01*
X130613566Y-39925644D01*
X129912022Y-40627188D01*
X129904408Y-40641132D01*
X129174356Y-40641132D01*
X129175592Y-40638868D01*
X129175461Y-40637035D01*
X129171210Y-40630420D01*
X128465713Y-39924923D01*
X128453938Y-39918493D01*
X128441923Y-39927789D01*
X128406069Y-39978994D01*
X128400586Y-39988489D01*
X128308510Y-40185947D01*
X128304764Y-40196239D01*
X128248375Y-40406688D01*
X128246472Y-40417481D01*
X128227483Y-40634525D01*
X128227483Y-40645475D01*
X115138534Y-40645475D01*
X115139235Y-40511583D01*
X115139235Y-40511576D01*
X115139257Y-40507297D01*
X115126700Y-40411913D01*
X115108735Y-40275461D01*
X115101732Y-40222266D01*
X115025871Y-39944964D01*
X115014580Y-39918493D01*
X114914763Y-39684476D01*
X114914761Y-39684472D01*
X114913077Y-39680524D01*
X114770294Y-39441951D01*
X114767643Y-39437521D01*
X114767640Y-39437517D01*
X114765439Y-39433839D01*
X114585687Y-39209472D01*
X114377149Y-39011577D01*
X114143683Y-38843814D01*
X114121843Y-38832250D01*
X113987760Y-38761257D01*
X113889608Y-38709288D01*
X113619627Y-38610489D01*
X113338736Y-38549245D01*
X113307685Y-38546801D01*
X113115718Y-38531693D01*
X113115709Y-38531693D01*
X113113261Y-38531500D01*
X112957729Y-38531500D01*
X112955593Y-38531646D01*
X112955582Y-38531646D01*
X112747452Y-38545835D01*
X112747446Y-38545836D01*
X112743175Y-38546127D01*
X112738980Y-38546996D01*
X112738978Y-38546996D01*
X112602417Y-38575276D01*
X112461658Y-38604426D01*
X112190657Y-38700393D01*
X111935188Y-38832250D01*
X111931687Y-38834711D01*
X111931683Y-38834713D01*
X111921594Y-38841804D01*
X111699977Y-38997559D01*
X111489378Y-39193260D01*
X111307287Y-39415732D01*
X111157073Y-39660858D01*
X111155347Y-39664791D01*
X111155346Y-39664792D01*
X111095901Y-39800211D01*
X111041517Y-39924102D01*
X110962756Y-40200594D01*
X110922249Y-40485216D01*
X110922227Y-40489505D01*
X110922226Y-40489512D01*
X110920765Y-40768417D01*
X110920743Y-40772703D01*
X109728000Y-40772703D01*
X109728000Y-40689328D01*
X109729500Y-40669943D01*
X109731805Y-40655142D01*
X109731805Y-40655139D01*
X109733186Y-40646270D01*
X109730743Y-40627589D01*
X109729852Y-40604657D01*
X109739954Y-40411913D01*
X109745743Y-40301443D01*
X109747121Y-40288329D01*
X109749139Y-40275592D01*
X109785072Y-40048715D01*
X109799123Y-39959998D01*
X109801865Y-39947098D01*
X109884768Y-39637699D01*
X109887903Y-39625999D01*
X109891979Y-39613456D01*
X109906385Y-39575929D01*
X110011105Y-39303124D01*
X110016469Y-39291076D01*
X110167388Y-38994880D01*
X110173982Y-38983459D01*
X110355033Y-38704666D01*
X110362779Y-38694004D01*
X110429214Y-38611964D01*
X110571985Y-38435655D01*
X110580810Y-38425855D01*
X110815855Y-38190810D01*
X110825656Y-38181984D01*
X110920137Y-38105475D01*
X111084008Y-37972776D01*
X111094666Y-37965033D01*
X111373464Y-37783979D01*
X111384880Y-37777388D01*
X111681076Y-37626469D01*
X111693124Y-37621105D01*
X111730642Y-37606703D01*
X112003464Y-37501977D01*
X112016000Y-37497903D01*
X112337098Y-37411865D01*
X112349998Y-37409123D01*
X112519701Y-37382245D01*
X112678335Y-37357120D01*
X112691443Y-37355743D01*
X112987334Y-37340236D01*
X113013312Y-37341564D01*
X113014856Y-37341805D01*
X113014860Y-37341805D01*
X113023730Y-37343186D01*
X113032632Y-37342022D01*
X113032635Y-37342022D01*
X113055251Y-37339064D01*
X113071589Y-37338000D01*
X128253776Y-37338000D01*
X128321897Y-37358002D01*
G37*
%TD.AperFunction*%
%TD*%
M02*
