%TF.GenerationSoftware,KiCad,Pcbnew,(6.0.0)*%
%TF.CreationDate,2022-03-13T19:29:42-04:00*%
%TF.ProjectId,numpad_pcb,6e756d70-6164-45f7-9063-622e6b696361,rev?*%
%TF.SameCoordinates,Original*%
%TF.FileFunction,Soldermask,Top*%
%TF.FilePolarity,Negative*%
%FSLAX46Y46*%
G04 Gerber Fmt 4.6, Leading zero omitted, Abs format (unit mm)*
G04 Created by KiCad (PCBNEW (6.0.0)) date 2022-03-13 19:29:42*
%MOMM*%
%LPD*%
G01*
G04 APERTURE LIST*
G04 Aperture macros list*
%AMFreePoly0*
4,1,6,1.000000,0.000000,0.500000,-0.750000,-0.500000,-0.750000,-0.500000,0.750000,0.500000,0.750000,1.000000,0.000000,1.000000,0.000000,$1*%
%AMFreePoly1*
4,1,6,0.500000,-0.750000,-0.650000,-0.750000,-0.150000,0.000000,-0.650000,0.750000,0.500000,0.750000,0.500000,-0.750000,0.500000,-0.750000,$1*%
G04 Aperture macros list end*
%ADD10FreePoly0,90.000000*%
%ADD11FreePoly1,90.000000*%
%ADD12C,1.700000*%
%ADD13C,3.200000*%
%ADD14R,1.700000X1.700000*%
%ADD15O,1.700000X1.700000*%
%ADD16R,1.600000X1.600000*%
%ADD17C,1.600000*%
G04 APERTURE END LIST*
D10*
%TO.C,J11*%
X154940000Y-86032000D03*
D11*
X154940000Y-84582000D03*
%TD*%
D10*
%TO.C,J7*%
X136372600Y-66282400D03*
D11*
X136372600Y-64832400D03*
%TD*%
D10*
%TO.C,J8*%
X136474200Y-85408600D03*
D11*
X136474200Y-83958600D03*
%TD*%
D10*
%TO.C,J15*%
X174117000Y-85942000D03*
D11*
X174117000Y-84492000D03*
%TD*%
D10*
%TO.C,J14*%
X174269400Y-66434800D03*
D11*
X174269400Y-64984800D03*
%TD*%
D12*
%TO.C,J1*%
X117220000Y-53160000D03*
X120200000Y-54940000D03*
X136320000Y-53160000D03*
X139210000Y-54940000D03*
X155120000Y-53160000D03*
X158110000Y-54940000D03*
X174160000Y-53160000D03*
X177010000Y-54940000D03*
X117220000Y-72260000D03*
X120200000Y-73530000D03*
X136320000Y-72260000D03*
X139210000Y-73530000D03*
X155120000Y-72260000D03*
X158110000Y-73530000D03*
X174160000Y-72260000D03*
X177010000Y-73530000D03*
X117220000Y-91350000D03*
X120200000Y-93060000D03*
X136320000Y-91350000D03*
X139210000Y-93060000D03*
X155120000Y-91350000D03*
X158110000Y-93060000D03*
X174160000Y-91350000D03*
X177010000Y-93060000D03*
X117220000Y-110680000D03*
X120200000Y-112090000D03*
X136320000Y-110680000D03*
X139210000Y-112090000D03*
X155120000Y-110680000D03*
X158110000Y-112090000D03*
X174160000Y-119870000D03*
X177010000Y-121660000D03*
X126580000Y-129540000D03*
X129590000Y-131180000D03*
X155120000Y-129540000D03*
X158110000Y-131180000D03*
%TD*%
D10*
%TO.C,J9*%
X136144000Y-100521600D03*
D11*
X136144000Y-99071600D03*
%TD*%
D13*
%TO.C,REF\u002A\u002A*%
X113030000Y-40640000D03*
%TD*%
D10*
%TO.C,J10*%
X154889200Y-66511000D03*
D11*
X154889200Y-65061000D03*
%TD*%
D10*
%TO.C,J6*%
X116840000Y-116332000D03*
D11*
X116840000Y-114882000D03*
%TD*%
D10*
%TO.C,J13*%
X155143200Y-123635600D03*
D11*
X155143200Y-122185600D03*
%TD*%
D10*
%TO.C,J4*%
X116738400Y-100597800D03*
D11*
X116738400Y-99147800D03*
%TD*%
D10*
%TO.C,J17*%
X173990000Y-110453000D03*
D11*
X173990000Y-109003000D03*
%TD*%
D13*
%TO.C,REF\u002A\u002A*%
X181610000Y-40640000D03*
%TD*%
D10*
%TO.C,J12*%
X154559000Y-100521600D03*
D11*
X154559000Y-99071600D03*
%TD*%
D10*
%TO.C,J3*%
X117195600Y-81471600D03*
D11*
X117195600Y-80021600D03*
%TD*%
D10*
%TO.C,J2*%
X117322600Y-66739600D03*
D11*
X117322600Y-65289600D03*
%TD*%
D14*
%TO.C,B1*%
X129540000Y-81280000D03*
D15*
X127000000Y-81280000D03*
%TD*%
D16*
%TO.C,U1*%
X144780000Y-38100000D03*
D17*
X144780000Y-40640000D03*
X144780000Y-43180000D03*
X144780000Y-45720000D03*
X144780000Y-48260000D03*
X144780000Y-50800000D03*
X144780000Y-53340000D03*
X144780000Y-55880000D03*
X144780000Y-58420000D03*
X144780000Y-60960000D03*
X144780000Y-63500000D03*
X144780000Y-66040000D03*
X129540000Y-66040000D03*
X129540000Y-63500000D03*
X129540000Y-60960000D03*
X129540000Y-58420000D03*
X129540000Y-55880000D03*
X129540000Y-53340000D03*
X129540000Y-50800000D03*
X129540000Y-48260000D03*
X129540000Y-45720000D03*
X129540000Y-43180000D03*
X129540000Y-40640000D03*
X129540000Y-38100000D03*
%TD*%
M02*
