%TF.GenerationSoftware,KiCad,Pcbnew,(6.0.0)*%
%TF.CreationDate,2022-03-13T19:29:42-04:00*%
%TF.ProjectId,numpad_pcb,6e756d70-6164-45f7-9063-622e6b696361,rev?*%
%TF.SameCoordinates,Original*%
%TF.FileFunction,Legend,Top*%
%TF.FilePolarity,Positive*%
%FSLAX46Y46*%
G04 Gerber Fmt 4.6, Leading zero omitted, Abs format (unit mm)*
G04 Created by KiCad (PCBNEW (6.0.0)) date 2022-03-13 19:29:42*
%MOMM*%
%LPD*%
G01*
G04 APERTURE LIST*
G04 Aperture macros list*
%AMFreePoly0*
4,1,6,1.000000,0.000000,0.500000,-0.750000,-0.500000,-0.750000,-0.500000,0.750000,0.500000,0.750000,1.000000,0.000000,1.000000,0.000000,$1*%
%AMFreePoly1*
4,1,6,0.500000,-0.750000,-0.650000,-0.750000,-0.150000,0.000000,-0.650000,0.750000,0.500000,0.750000,0.500000,-0.750000,0.500000,-0.750000,$1*%
G04 Aperture macros list end*
%ADD10C,0.150000*%
%ADD11C,0.120000*%
%ADD12FreePoly0,90.000000*%
%ADD13FreePoly1,90.000000*%
%ADD14C,1.700000*%
%ADD15C,3.200000*%
%ADD16R,1.700000X1.700000*%
%ADD17O,1.700000X1.700000*%
%ADD18R,1.600000X1.600000*%
%ADD19C,1.600000*%
G04 APERTURE END LIST*
D10*
X130534285Y-108148380D02*
X130534285Y-107148380D01*
X130772380Y-107148380D01*
X130915238Y-107196000D01*
X131010476Y-107291238D01*
X131058095Y-107386476D01*
X131105714Y-107576952D01*
X131105714Y-107719809D01*
X131058095Y-107910285D01*
X131010476Y-108005523D01*
X130915238Y-108100761D01*
X130772380Y-108148380D01*
X130534285Y-108148380D01*
X131724761Y-107148380D02*
X131915238Y-107148380D01*
X132010476Y-107196000D01*
X132105714Y-107291238D01*
X132153333Y-107481714D01*
X132153333Y-107815047D01*
X132105714Y-108005523D01*
X132010476Y-108100761D01*
X131915238Y-108148380D01*
X131724761Y-108148380D01*
X131629523Y-108100761D01*
X131534285Y-108005523D01*
X131486666Y-107815047D01*
X131486666Y-107481714D01*
X131534285Y-107291238D01*
X131629523Y-107196000D01*
X131724761Y-107148380D01*
X133343809Y-108148380D02*
X133343809Y-107148380D01*
X133915238Y-108148380D01*
X133915238Y-107148380D01*
X134581904Y-107148380D02*
X134772380Y-107148380D01*
X134867619Y-107196000D01*
X134962857Y-107291238D01*
X135010476Y-107481714D01*
X135010476Y-107815047D01*
X134962857Y-108005523D01*
X134867619Y-108100761D01*
X134772380Y-108148380D01*
X134581904Y-108148380D01*
X134486666Y-108100761D01*
X134391428Y-108005523D01*
X134343809Y-107815047D01*
X134343809Y-107481714D01*
X134391428Y-107291238D01*
X134486666Y-107196000D01*
X134581904Y-107148380D01*
X135296190Y-107148380D02*
X135867619Y-107148380D01*
X135581904Y-108148380D02*
X135581904Y-107148380D01*
X136915238Y-108100761D02*
X137058095Y-108148380D01*
X137296190Y-108148380D01*
X137391428Y-108100761D01*
X137439047Y-108053142D01*
X137486666Y-107957904D01*
X137486666Y-107862666D01*
X137439047Y-107767428D01*
X137391428Y-107719809D01*
X137296190Y-107672190D01*
X137105714Y-107624571D01*
X137010476Y-107576952D01*
X136962857Y-107529333D01*
X136915238Y-107434095D01*
X136915238Y-107338857D01*
X136962857Y-107243619D01*
X137010476Y-107196000D01*
X137105714Y-107148380D01*
X137343809Y-107148380D01*
X137486666Y-107196000D01*
X138105714Y-107148380D02*
X138296190Y-107148380D01*
X138391428Y-107196000D01*
X138486666Y-107291238D01*
X138534285Y-107481714D01*
X138534285Y-107815047D01*
X138486666Y-108005523D01*
X138391428Y-108100761D01*
X138296190Y-108148380D01*
X138105714Y-108148380D01*
X138010476Y-108100761D01*
X137915238Y-108005523D01*
X137867619Y-107815047D01*
X137867619Y-107481714D01*
X137915238Y-107291238D01*
X138010476Y-107196000D01*
X138105714Y-107148380D01*
X139439047Y-108148380D02*
X138962857Y-108148380D01*
X138962857Y-107148380D01*
X139772380Y-108148380D02*
X139772380Y-107148380D01*
X140010476Y-107148380D01*
X140153333Y-107196000D01*
X140248571Y-107291238D01*
X140296190Y-107386476D01*
X140343809Y-107576952D01*
X140343809Y-107719809D01*
X140296190Y-107910285D01*
X140248571Y-108005523D01*
X140153333Y-108100761D01*
X140010476Y-108148380D01*
X139772380Y-108148380D01*
X140772380Y-107624571D02*
X141105714Y-107624571D01*
X141248571Y-108148380D02*
X140772380Y-108148380D01*
X140772380Y-107148380D01*
X141248571Y-107148380D01*
X142248571Y-108148380D02*
X141915238Y-107672190D01*
X141677142Y-108148380D02*
X141677142Y-107148380D01*
X142058095Y-107148380D01*
X142153333Y-107196000D01*
X142200952Y-107243619D01*
X142248571Y-107338857D01*
X142248571Y-107481714D01*
X142200952Y-107576952D01*
X142153333Y-107624571D01*
X142058095Y-107672190D01*
X141677142Y-107672190D01*
X143724761Y-107148380D02*
X143724761Y-107862666D01*
X143677142Y-108005523D01*
X143581904Y-108100761D01*
X143439047Y-108148380D01*
X143343809Y-108148380D01*
X144200952Y-107148380D02*
X144200952Y-107957904D01*
X144248571Y-108053142D01*
X144296190Y-108100761D01*
X144391428Y-108148380D01*
X144581904Y-108148380D01*
X144677142Y-108100761D01*
X144724761Y-108053142D01*
X144772380Y-107957904D01*
X144772380Y-107148380D01*
X145248571Y-108148380D02*
X145248571Y-107148380D01*
X145581904Y-107862666D01*
X145915238Y-107148380D01*
X145915238Y-108148380D01*
X146391428Y-108148380D02*
X146391428Y-107148380D01*
X146772380Y-107148380D01*
X146867619Y-107196000D01*
X146915238Y-107243619D01*
X146962857Y-107338857D01*
X146962857Y-107481714D01*
X146915238Y-107576952D01*
X146867619Y-107624571D01*
X146772380Y-107672190D01*
X146391428Y-107672190D01*
X147391428Y-107624571D02*
X147724761Y-107624571D01*
X147867619Y-108148380D02*
X147391428Y-108148380D01*
X147391428Y-107148380D01*
X147867619Y-107148380D01*
X148867619Y-108148380D02*
X148534285Y-107672190D01*
X148296190Y-108148380D02*
X148296190Y-107148380D01*
X148677142Y-107148380D01*
X148772380Y-107196000D01*
X148820000Y-107243619D01*
X148867619Y-107338857D01*
X148867619Y-107481714D01*
X148820000Y-107576952D01*
X148772380Y-107624571D01*
X148677142Y-107672190D01*
X148296190Y-107672190D01*
X149248571Y-108100761D02*
X149391428Y-108148380D01*
X149629523Y-108148380D01*
X149724761Y-108100761D01*
X149772380Y-108053142D01*
X149820000Y-107957904D01*
X149820000Y-107862666D01*
X149772380Y-107767428D01*
X149724761Y-107719809D01*
X149629523Y-107672190D01*
X149439047Y-107624571D01*
X149343809Y-107576952D01*
X149296190Y-107529333D01*
X149248571Y-107434095D01*
X149248571Y-107338857D01*
X149296190Y-107243619D01*
X149343809Y-107196000D01*
X149439047Y-107148380D01*
X149677142Y-107148380D01*
X149820000Y-107196000D01*
X150867619Y-107481714D02*
X151248571Y-107481714D01*
X151010476Y-108148380D02*
X151010476Y-107291238D01*
X151058095Y-107196000D01*
X151153333Y-107148380D01*
X151248571Y-107148380D01*
X151724761Y-108148380D02*
X151629523Y-108100761D01*
X151581904Y-108053142D01*
X151534285Y-107957904D01*
X151534285Y-107672190D01*
X151581904Y-107576952D01*
X151629523Y-107529333D01*
X151724761Y-107481714D01*
X151867619Y-107481714D01*
X151962857Y-107529333D01*
X152010476Y-107576952D01*
X152058095Y-107672190D01*
X152058095Y-107957904D01*
X152010476Y-108053142D01*
X151962857Y-108100761D01*
X151867619Y-108148380D01*
X151724761Y-108148380D01*
X152486666Y-108148380D02*
X152486666Y-107481714D01*
X152486666Y-107672190D02*
X152534285Y-107576952D01*
X152581904Y-107529333D01*
X152677142Y-107481714D01*
X152772380Y-107481714D01*
X153820000Y-107862666D02*
X154296190Y-107862666D01*
X153724761Y-108148380D02*
X154058095Y-107148380D01*
X154391428Y-108148380D01*
X154724761Y-108148380D02*
X154724761Y-107148380D01*
X154962857Y-107148380D01*
X155105714Y-107196000D01*
X155200952Y-107291238D01*
X155248571Y-107386476D01*
X155296190Y-107576952D01*
X155296190Y-107719809D01*
X155248571Y-107910285D01*
X155200952Y-108005523D01*
X155105714Y-108100761D01*
X154962857Y-108148380D01*
X154724761Y-108148380D01*
X155724761Y-108148380D02*
X155724761Y-107148380D01*
X156058095Y-107862666D01*
X156391428Y-107148380D01*
X156391428Y-108148380D01*
X156772380Y-107148380D02*
X157391428Y-107148380D01*
X157058095Y-107529333D01*
X157200952Y-107529333D01*
X157296190Y-107576952D01*
X157343809Y-107624571D01*
X157391428Y-107719809D01*
X157391428Y-107957904D01*
X157343809Y-108053142D01*
X157296190Y-108100761D01*
X157200952Y-108148380D01*
X156915238Y-108148380D01*
X156820000Y-108100761D01*
X156772380Y-108053142D01*
X157772380Y-107862666D02*
X158248571Y-107862666D01*
X157677142Y-108148380D02*
X158010476Y-107148380D01*
X158343809Y-108148380D01*
X159439047Y-108148380D02*
X159439047Y-107148380D01*
X159534285Y-107767428D02*
X159820000Y-108148380D01*
X159820000Y-107481714D02*
X159439047Y-107862666D01*
X160629523Y-108100761D02*
X160534285Y-108148380D01*
X160343809Y-108148380D01*
X160248571Y-108100761D01*
X160200952Y-108005523D01*
X160200952Y-107624571D01*
X160248571Y-107529333D01*
X160343809Y-107481714D01*
X160534285Y-107481714D01*
X160629523Y-107529333D01*
X160677142Y-107624571D01*
X160677142Y-107719809D01*
X160200952Y-107815047D01*
X161010476Y-107481714D02*
X161248571Y-108148380D01*
X161486666Y-107481714D02*
X161248571Y-108148380D01*
X161153333Y-108386476D01*
X161105714Y-108434095D01*
X161010476Y-108481714D01*
X161867619Y-107481714D02*
X161867619Y-108481714D01*
X161867619Y-107529333D02*
X161962857Y-107481714D01*
X162153333Y-107481714D01*
X162248571Y-107529333D01*
X162296190Y-107576952D01*
X162343809Y-107672190D01*
X162343809Y-107957904D01*
X162296190Y-108053142D01*
X162248571Y-108100761D01*
X162153333Y-108148380D01*
X161962857Y-108148380D01*
X161867619Y-108100761D01*
X163200952Y-108148380D02*
X163200952Y-107624571D01*
X163153333Y-107529333D01*
X163058095Y-107481714D01*
X162867619Y-107481714D01*
X162772380Y-107529333D01*
X163200952Y-108100761D02*
X163105714Y-108148380D01*
X162867619Y-108148380D01*
X162772380Y-108100761D01*
X162724761Y-108005523D01*
X162724761Y-107910285D01*
X162772380Y-107815047D01*
X162867619Y-107767428D01*
X163105714Y-107767428D01*
X163200952Y-107719809D01*
X164105714Y-108148380D02*
X164105714Y-107148380D01*
X164105714Y-108100761D02*
X164010476Y-108148380D01*
X163820000Y-108148380D01*
X163724761Y-108100761D01*
X163677142Y-108053142D01*
X163629523Y-107957904D01*
X163629523Y-107672190D01*
X163677142Y-107576952D01*
X163724761Y-107529333D01*
X163820000Y-107481714D01*
X164010476Y-107481714D01*
X164105714Y-107529333D01*
X134335714Y-105306761D02*
X134430952Y-105354380D01*
X134621428Y-105354380D01*
X134716666Y-105306761D01*
X134764285Y-105211523D01*
X134764285Y-105163904D01*
X134716666Y-105068666D01*
X134621428Y-105021047D01*
X134478571Y-105021047D01*
X134383333Y-104973428D01*
X134335714Y-104878190D01*
X134335714Y-104830571D01*
X134383333Y-104735333D01*
X134478571Y-104687714D01*
X134621428Y-104687714D01*
X134716666Y-104735333D01*
X135335714Y-105354380D02*
X135240476Y-105306761D01*
X135192857Y-105259142D01*
X135145238Y-105163904D01*
X135145238Y-104878190D01*
X135192857Y-104782952D01*
X135240476Y-104735333D01*
X135335714Y-104687714D01*
X135478571Y-104687714D01*
X135573809Y-104735333D01*
X135621428Y-104782952D01*
X135669047Y-104878190D01*
X135669047Y-105163904D01*
X135621428Y-105259142D01*
X135573809Y-105306761D01*
X135478571Y-105354380D01*
X135335714Y-105354380D01*
X136240476Y-105354380D02*
X136145238Y-105306761D01*
X136097619Y-105211523D01*
X136097619Y-104354380D01*
X137050000Y-105354380D02*
X137050000Y-104354380D01*
X137050000Y-105306761D02*
X136954761Y-105354380D01*
X136764285Y-105354380D01*
X136669047Y-105306761D01*
X136621428Y-105259142D01*
X136573809Y-105163904D01*
X136573809Y-104878190D01*
X136621428Y-104782952D01*
X136669047Y-104735333D01*
X136764285Y-104687714D01*
X136954761Y-104687714D01*
X137050000Y-104735333D01*
X137907142Y-105306761D02*
X137811904Y-105354380D01*
X137621428Y-105354380D01*
X137526190Y-105306761D01*
X137478571Y-105211523D01*
X137478571Y-104830571D01*
X137526190Y-104735333D01*
X137621428Y-104687714D01*
X137811904Y-104687714D01*
X137907142Y-104735333D01*
X137954761Y-104830571D01*
X137954761Y-104925809D01*
X137478571Y-105021047D01*
X138383333Y-105354380D02*
X138383333Y-104687714D01*
X138383333Y-104878190D02*
X138430952Y-104782952D01*
X138478571Y-104735333D01*
X138573809Y-104687714D01*
X138669047Y-104687714D01*
X139764285Y-104687714D02*
X139764285Y-105544857D01*
X139716666Y-105640095D01*
X139621428Y-105687714D01*
X139573809Y-105687714D01*
X139764285Y-104354380D02*
X139716666Y-104402000D01*
X139764285Y-104449619D01*
X139811904Y-104402000D01*
X139764285Y-104354380D01*
X139764285Y-104449619D01*
X140669047Y-104687714D02*
X140669047Y-105354380D01*
X140240476Y-104687714D02*
X140240476Y-105211523D01*
X140288095Y-105306761D01*
X140383333Y-105354380D01*
X140526190Y-105354380D01*
X140621428Y-105306761D01*
X140669047Y-105259142D01*
X141145238Y-105354380D02*
X141145238Y-104687714D01*
X141145238Y-104782952D02*
X141192857Y-104735333D01*
X141288095Y-104687714D01*
X141430952Y-104687714D01*
X141526190Y-104735333D01*
X141573809Y-104830571D01*
X141573809Y-105354380D01*
X141573809Y-104830571D02*
X141621428Y-104735333D01*
X141716666Y-104687714D01*
X141859523Y-104687714D01*
X141954761Y-104735333D01*
X142002380Y-104830571D01*
X142002380Y-105354380D01*
X142478571Y-104687714D02*
X142478571Y-105687714D01*
X142478571Y-104735333D02*
X142573809Y-104687714D01*
X142764285Y-104687714D01*
X142859523Y-104735333D01*
X142907142Y-104782952D01*
X142954761Y-104878190D01*
X142954761Y-105163904D01*
X142907142Y-105259142D01*
X142859523Y-105306761D01*
X142764285Y-105354380D01*
X142573809Y-105354380D01*
X142478571Y-105306761D01*
X143764285Y-105306761D02*
X143669047Y-105354380D01*
X143478571Y-105354380D01*
X143383333Y-105306761D01*
X143335714Y-105211523D01*
X143335714Y-104830571D01*
X143383333Y-104735333D01*
X143478571Y-104687714D01*
X143669047Y-104687714D01*
X143764285Y-104735333D01*
X143811904Y-104830571D01*
X143811904Y-104925809D01*
X143335714Y-105021047D01*
X144240476Y-105354380D02*
X144240476Y-104687714D01*
X144240476Y-104878190D02*
X144288095Y-104782952D01*
X144335714Y-104735333D01*
X144430952Y-104687714D01*
X144526190Y-104687714D01*
X144811904Y-105306761D02*
X144907142Y-105354380D01*
X145097619Y-105354380D01*
X145192857Y-105306761D01*
X145240476Y-105211523D01*
X145240476Y-105163904D01*
X145192857Y-105068666D01*
X145097619Y-105021047D01*
X144954761Y-105021047D01*
X144859523Y-104973428D01*
X144811904Y-104878190D01*
X144811904Y-104830571D01*
X144859523Y-104735333D01*
X144954761Y-104687714D01*
X145097619Y-104687714D01*
X145192857Y-104735333D01*
X146288095Y-104687714D02*
X146669047Y-104687714D01*
X146430952Y-105354380D02*
X146430952Y-104497238D01*
X146478571Y-104402000D01*
X146573809Y-104354380D01*
X146669047Y-104354380D01*
X147145238Y-105354380D02*
X147050000Y-105306761D01*
X147002380Y-105259142D01*
X146954761Y-105163904D01*
X146954761Y-104878190D01*
X147002380Y-104782952D01*
X147050000Y-104735333D01*
X147145238Y-104687714D01*
X147288095Y-104687714D01*
X147383333Y-104735333D01*
X147430952Y-104782952D01*
X147478571Y-104878190D01*
X147478571Y-105163904D01*
X147430952Y-105259142D01*
X147383333Y-105306761D01*
X147288095Y-105354380D01*
X147145238Y-105354380D01*
X147907142Y-105354380D02*
X147907142Y-104687714D01*
X147907142Y-104878190D02*
X147954761Y-104782952D01*
X148002380Y-104735333D01*
X148097619Y-104687714D01*
X148192857Y-104687714D01*
X149288095Y-104354380D02*
X149288095Y-105163904D01*
X149335714Y-105259142D01*
X149383333Y-105306761D01*
X149478571Y-105354380D01*
X149669047Y-105354380D01*
X149764285Y-105306761D01*
X149811904Y-105259142D01*
X149859523Y-105163904D01*
X149859523Y-104354380D01*
X150288095Y-105306761D02*
X150430952Y-105354380D01*
X150669047Y-105354380D01*
X150764285Y-105306761D01*
X150811904Y-105259142D01*
X150859523Y-105163904D01*
X150859523Y-105068666D01*
X150811904Y-104973428D01*
X150764285Y-104925809D01*
X150669047Y-104878190D01*
X150478571Y-104830571D01*
X150383333Y-104782952D01*
X150335714Y-104735333D01*
X150288095Y-104640095D01*
X150288095Y-104544857D01*
X150335714Y-104449619D01*
X150383333Y-104402000D01*
X150478571Y-104354380D01*
X150716666Y-104354380D01*
X150859523Y-104402000D01*
X151621428Y-104830571D02*
X151764285Y-104878190D01*
X151811904Y-104925809D01*
X151859523Y-105021047D01*
X151859523Y-105163904D01*
X151811904Y-105259142D01*
X151764285Y-105306761D01*
X151669047Y-105354380D01*
X151288095Y-105354380D01*
X151288095Y-104354380D01*
X151621428Y-104354380D01*
X151716666Y-104402000D01*
X151764285Y-104449619D01*
X151811904Y-104544857D01*
X151811904Y-104640095D01*
X151764285Y-104735333D01*
X151716666Y-104782952D01*
X151621428Y-104830571D01*
X151288095Y-104830571D01*
X153050000Y-105354380D02*
X153050000Y-104354380D01*
X153145238Y-104973428D02*
X153430952Y-105354380D01*
X153430952Y-104687714D02*
X153050000Y-105068666D01*
X154240476Y-105306761D02*
X154145238Y-105354380D01*
X153954761Y-105354380D01*
X153859523Y-105306761D01*
X153811904Y-105211523D01*
X153811904Y-104830571D01*
X153859523Y-104735333D01*
X153954761Y-104687714D01*
X154145238Y-104687714D01*
X154240476Y-104735333D01*
X154288095Y-104830571D01*
X154288095Y-104925809D01*
X153811904Y-105021047D01*
X154621428Y-104687714D02*
X154859523Y-105354380D01*
X155097619Y-104687714D02*
X154859523Y-105354380D01*
X154764285Y-105592476D01*
X154716666Y-105640095D01*
X154621428Y-105687714D01*
X155478571Y-104687714D02*
X155478571Y-105687714D01*
X155478571Y-104735333D02*
X155573809Y-104687714D01*
X155764285Y-104687714D01*
X155859523Y-104735333D01*
X155907142Y-104782952D01*
X155954761Y-104878190D01*
X155954761Y-105163904D01*
X155907142Y-105259142D01*
X155859523Y-105306761D01*
X155764285Y-105354380D01*
X155573809Y-105354380D01*
X155478571Y-105306761D01*
X156811904Y-105354380D02*
X156811904Y-104830571D01*
X156764285Y-104735333D01*
X156669047Y-104687714D01*
X156478571Y-104687714D01*
X156383333Y-104735333D01*
X156811904Y-105306761D02*
X156716666Y-105354380D01*
X156478571Y-105354380D01*
X156383333Y-105306761D01*
X156335714Y-105211523D01*
X156335714Y-105116285D01*
X156383333Y-105021047D01*
X156478571Y-104973428D01*
X156716666Y-104973428D01*
X156811904Y-104925809D01*
X157716666Y-105354380D02*
X157716666Y-104354380D01*
X157716666Y-105306761D02*
X157621428Y-105354380D01*
X157430952Y-105354380D01*
X157335714Y-105306761D01*
X157288095Y-105259142D01*
X157240476Y-105163904D01*
X157240476Y-104878190D01*
X157288095Y-104782952D01*
X157335714Y-104735333D01*
X157430952Y-104687714D01*
X157621428Y-104687714D01*
X157716666Y-104735333D01*
%TO.C,J11*%
X152592380Y-86116523D02*
X153306666Y-86116523D01*
X153449523Y-86164142D01*
X153544761Y-86259380D01*
X153592380Y-86402238D01*
X153592380Y-86497476D01*
X153592380Y-85116523D02*
X153592380Y-85687952D01*
X153592380Y-85402238D02*
X152592380Y-85402238D01*
X152735238Y-85497476D01*
X152830476Y-85592714D01*
X152878095Y-85687952D01*
X153592380Y-84164142D02*
X153592380Y-84735571D01*
X153592380Y-84449857D02*
X152592380Y-84449857D01*
X152735238Y-84545095D01*
X152830476Y-84640333D01*
X152878095Y-84735571D01*
%TO.C,J7*%
X134024980Y-65890733D02*
X134739266Y-65890733D01*
X134882123Y-65938352D01*
X134977361Y-66033590D01*
X135024980Y-66176447D01*
X135024980Y-66271685D01*
X134024980Y-65509780D02*
X134024980Y-64843114D01*
X135024980Y-65271685D01*
%TO.C,J8*%
X134126580Y-85016933D02*
X134840866Y-85016933D01*
X134983723Y-85064552D01*
X135078961Y-85159790D01*
X135126580Y-85302647D01*
X135126580Y-85397885D01*
X134555152Y-84397885D02*
X134507533Y-84493123D01*
X134459914Y-84540742D01*
X134364676Y-84588361D01*
X134317057Y-84588361D01*
X134221819Y-84540742D01*
X134174200Y-84493123D01*
X134126580Y-84397885D01*
X134126580Y-84207409D01*
X134174200Y-84112171D01*
X134221819Y-84064552D01*
X134317057Y-84016933D01*
X134364676Y-84016933D01*
X134459914Y-84064552D01*
X134507533Y-84112171D01*
X134555152Y-84207409D01*
X134555152Y-84397885D01*
X134602771Y-84493123D01*
X134650390Y-84540742D01*
X134745628Y-84588361D01*
X134936104Y-84588361D01*
X135031342Y-84540742D01*
X135078961Y-84493123D01*
X135126580Y-84397885D01*
X135126580Y-84207409D01*
X135078961Y-84112171D01*
X135031342Y-84064552D01*
X134936104Y-84016933D01*
X134745628Y-84016933D01*
X134650390Y-84064552D01*
X134602771Y-84112171D01*
X134555152Y-84207409D01*
%TO.C,J15*%
X171769380Y-86026523D02*
X172483666Y-86026523D01*
X172626523Y-86074142D01*
X172721761Y-86169380D01*
X172769380Y-86312238D01*
X172769380Y-86407476D01*
X172769380Y-85026523D02*
X172769380Y-85597952D01*
X172769380Y-85312238D02*
X171769380Y-85312238D01*
X171912238Y-85407476D01*
X172007476Y-85502714D01*
X172055095Y-85597952D01*
X171769380Y-84121761D02*
X171769380Y-84597952D01*
X172245571Y-84645571D01*
X172197952Y-84597952D01*
X172150333Y-84502714D01*
X172150333Y-84264619D01*
X172197952Y-84169380D01*
X172245571Y-84121761D01*
X172340809Y-84074142D01*
X172578904Y-84074142D01*
X172674142Y-84121761D01*
X172721761Y-84169380D01*
X172769380Y-84264619D01*
X172769380Y-84502714D01*
X172721761Y-84597952D01*
X172674142Y-84645571D01*
%TO.C,J14*%
X171921780Y-66519323D02*
X172636066Y-66519323D01*
X172778923Y-66566942D01*
X172874161Y-66662180D01*
X172921780Y-66805038D01*
X172921780Y-66900276D01*
X172921780Y-65519323D02*
X172921780Y-66090752D01*
X172921780Y-65805038D02*
X171921780Y-65805038D01*
X172064638Y-65900276D01*
X172159876Y-65995514D01*
X172207495Y-66090752D01*
X172255114Y-64662180D02*
X172921780Y-64662180D01*
X171874161Y-64900276D02*
X172588447Y-65138371D01*
X172588447Y-64519323D01*
%TO.C,J1*%
X116796666Y-47542380D02*
X116796666Y-48256666D01*
X116749047Y-48399523D01*
X116653809Y-48494761D01*
X116510952Y-48542380D01*
X116415714Y-48542380D01*
X117796666Y-48542380D02*
X117225238Y-48542380D01*
X117510952Y-48542380D02*
X117510952Y-47542380D01*
X117415714Y-47685238D01*
X117320476Y-47780476D01*
X117225238Y-47828095D01*
X118700476Y-97975714D02*
X118700476Y-98642380D01*
X118462380Y-97594761D02*
X118224285Y-98309047D01*
X118843333Y-98309047D01*
X173811428Y-99177142D02*
X173763809Y-99224761D01*
X173620952Y-99272380D01*
X173525714Y-99272380D01*
X173382857Y-99224761D01*
X173287619Y-99129523D01*
X173240000Y-99034285D01*
X173192380Y-98843809D01*
X173192380Y-98700952D01*
X173240000Y-98510476D01*
X173287619Y-98415238D01*
X173382857Y-98320000D01*
X173525714Y-98272380D01*
X173620952Y-98272380D01*
X173763809Y-98320000D01*
X173811428Y-98367619D01*
X174382857Y-99272380D02*
X174287619Y-99224761D01*
X174240000Y-99177142D01*
X174192380Y-99081904D01*
X174192380Y-98796190D01*
X174240000Y-98700952D01*
X174287619Y-98653333D01*
X174382857Y-98605714D01*
X174525714Y-98605714D01*
X174620952Y-98653333D01*
X174668571Y-98700952D01*
X174716190Y-98796190D01*
X174716190Y-99081904D01*
X174668571Y-99177142D01*
X174620952Y-99224761D01*
X174525714Y-99272380D01*
X174382857Y-99272380D01*
X175144761Y-99272380D02*
X175144761Y-98605714D01*
X175144761Y-98700952D02*
X175192380Y-98653333D01*
X175287619Y-98605714D01*
X175430476Y-98605714D01*
X175525714Y-98653333D01*
X175573333Y-98748571D01*
X175573333Y-99272380D01*
X175573333Y-98748571D02*
X175620952Y-98653333D01*
X175716190Y-98605714D01*
X175859047Y-98605714D01*
X175954285Y-98653333D01*
X176001904Y-98748571D01*
X176001904Y-99272380D01*
X176478095Y-99272380D02*
X176478095Y-98605714D01*
X176478095Y-98700952D02*
X176525714Y-98653333D01*
X176620952Y-98605714D01*
X176763809Y-98605714D01*
X176859047Y-98653333D01*
X176906666Y-98748571D01*
X176906666Y-99272380D01*
X176906666Y-98748571D02*
X176954285Y-98653333D01*
X177049523Y-98605714D01*
X177192380Y-98605714D01*
X177287619Y-98653333D01*
X177335238Y-98748571D01*
X177335238Y-99272380D01*
X178240000Y-99272380D02*
X178240000Y-98748571D01*
X178192380Y-98653333D01*
X178097142Y-98605714D01*
X177906666Y-98605714D01*
X177811428Y-98653333D01*
X178240000Y-99224761D02*
X178144761Y-99272380D01*
X177906666Y-99272380D01*
X177811428Y-99224761D01*
X177763809Y-99129523D01*
X177763809Y-99034285D01*
X177811428Y-98939047D01*
X177906666Y-98891428D01*
X178144761Y-98891428D01*
X178240000Y-98843809D01*
X118615714Y-119062380D02*
X118044285Y-119062380D01*
X118330000Y-119062380D02*
X118330000Y-118062380D01*
X118234761Y-118205238D01*
X118139523Y-118300476D01*
X118044285Y-118348095D01*
X174049047Y-79922380D02*
X174049047Y-78922380D01*
X174382380Y-79636666D01*
X174715714Y-78922380D01*
X174715714Y-79922380D01*
X175191904Y-79922380D02*
X175191904Y-79255714D01*
X175191904Y-78922380D02*
X175144285Y-78970000D01*
X175191904Y-79017619D01*
X175239523Y-78970000D01*
X175191904Y-78922380D01*
X175191904Y-79017619D01*
X175668095Y-79255714D02*
X175668095Y-79922380D01*
X175668095Y-79350952D02*
X175715714Y-79303333D01*
X175810952Y-79255714D01*
X175953809Y-79255714D01*
X176049047Y-79303333D01*
X176096666Y-79398571D01*
X176096666Y-79922380D01*
X177001428Y-79255714D02*
X177001428Y-79922380D01*
X176572857Y-79255714D02*
X176572857Y-79779523D01*
X176620476Y-79874761D01*
X176715714Y-79922380D01*
X176858571Y-79922380D01*
X176953809Y-79874761D01*
X177001428Y-79827142D01*
X177430000Y-79874761D02*
X177525238Y-79922380D01*
X177715714Y-79922380D01*
X177810952Y-79874761D01*
X177858571Y-79779523D01*
X177858571Y-79731904D01*
X177810952Y-79636666D01*
X177715714Y-79589047D01*
X177572857Y-79589047D01*
X177477619Y-79541428D01*
X177430000Y-79446190D01*
X177430000Y-79398571D01*
X177477619Y-79303333D01*
X177572857Y-79255714D01*
X177715714Y-79255714D01*
X177810952Y-79303333D01*
X173879523Y-127718571D02*
X174212857Y-127718571D01*
X174355714Y-128242380D02*
X173879523Y-128242380D01*
X173879523Y-127242380D01*
X174355714Y-127242380D01*
X174784285Y-127575714D02*
X174784285Y-128242380D01*
X174784285Y-127670952D02*
X174831904Y-127623333D01*
X174927142Y-127575714D01*
X175070000Y-127575714D01*
X175165238Y-127623333D01*
X175212857Y-127718571D01*
X175212857Y-128242380D01*
X175546190Y-127575714D02*
X175927142Y-127575714D01*
X175689047Y-127242380D02*
X175689047Y-128099523D01*
X175736666Y-128194761D01*
X175831904Y-128242380D01*
X175927142Y-128242380D01*
X176641428Y-128194761D02*
X176546190Y-128242380D01*
X176355714Y-128242380D01*
X176260476Y-128194761D01*
X176212857Y-128099523D01*
X176212857Y-127718571D01*
X176260476Y-127623333D01*
X176355714Y-127575714D01*
X176546190Y-127575714D01*
X176641428Y-127623333D01*
X176689047Y-127718571D01*
X176689047Y-127813809D01*
X176212857Y-127909047D01*
X177117619Y-128242380D02*
X177117619Y-127575714D01*
X177117619Y-127766190D02*
X177165238Y-127670952D01*
X177212857Y-127623333D01*
X177308095Y-127575714D01*
X177403333Y-127575714D01*
X136389047Y-60302380D02*
X136389047Y-59302380D01*
X136770000Y-59302380D01*
X136865238Y-59350000D01*
X136912857Y-59397619D01*
X136960476Y-59492857D01*
X136960476Y-59635714D01*
X136912857Y-59730952D01*
X136865238Y-59778571D01*
X136770000Y-59826190D01*
X136389047Y-59826190D01*
X137531904Y-60302380D02*
X137436666Y-60254761D01*
X137389047Y-60159523D01*
X137389047Y-59302380D01*
X138341428Y-59635714D02*
X138341428Y-60302380D01*
X137912857Y-59635714D02*
X137912857Y-60159523D01*
X137960476Y-60254761D01*
X138055714Y-60302380D01*
X138198571Y-60302380D01*
X138293809Y-60254761D01*
X138341428Y-60207142D01*
X138770000Y-60254761D02*
X138865238Y-60302380D01*
X139055714Y-60302380D01*
X139150952Y-60254761D01*
X139198571Y-60159523D01*
X139198571Y-60111904D01*
X139150952Y-60016666D01*
X139055714Y-59969047D01*
X138912857Y-59969047D01*
X138817619Y-59921428D01*
X138770000Y-59826190D01*
X138770000Y-59778571D01*
X138817619Y-59683333D01*
X138912857Y-59635714D01*
X139055714Y-59635714D01*
X139150952Y-59683333D01*
X136944285Y-117617619D02*
X136991904Y-117570000D01*
X137087142Y-117522380D01*
X137325238Y-117522380D01*
X137420476Y-117570000D01*
X137468095Y-117617619D01*
X137515714Y-117712857D01*
X137515714Y-117808095D01*
X137468095Y-117950952D01*
X136896666Y-118522380D01*
X137515714Y-118522380D01*
X138278095Y-98182380D02*
X137801904Y-98182380D01*
X137754285Y-98658571D01*
X137801904Y-98610952D01*
X137897142Y-98563333D01*
X138135238Y-98563333D01*
X138230476Y-98610952D01*
X138278095Y-98658571D01*
X138325714Y-98753809D01*
X138325714Y-98991904D01*
X138278095Y-99087142D01*
X138230476Y-99134761D01*
X138135238Y-99182380D01*
X137897142Y-99182380D01*
X137801904Y-99134761D01*
X137754285Y-99087142D01*
X154257142Y-136752380D02*
X154257142Y-135752380D01*
X154638095Y-135752380D01*
X154733333Y-135800000D01*
X154780952Y-135847619D01*
X154828571Y-135942857D01*
X154828571Y-136085714D01*
X154780952Y-136180952D01*
X154733333Y-136228571D01*
X154638095Y-136276190D01*
X154257142Y-136276190D01*
X155638095Y-136704761D02*
X155542857Y-136752380D01*
X155352380Y-136752380D01*
X155257142Y-136704761D01*
X155209523Y-136609523D01*
X155209523Y-136228571D01*
X155257142Y-136133333D01*
X155352380Y-136085714D01*
X155542857Y-136085714D01*
X155638095Y-136133333D01*
X155685714Y-136228571D01*
X155685714Y-136323809D01*
X155209523Y-136419047D01*
X156114285Y-136752380D02*
X156114285Y-136085714D01*
X156114285Y-136276190D02*
X156161904Y-136180952D01*
X156209523Y-136133333D01*
X156304761Y-136085714D01*
X156400000Y-136085714D01*
X156733333Y-136752380D02*
X156733333Y-136085714D01*
X156733333Y-135752380D02*
X156685714Y-135800000D01*
X156733333Y-135847619D01*
X156780952Y-135800000D01*
X156733333Y-135752380D01*
X156733333Y-135847619D01*
X157352380Y-136752380D02*
X157257142Y-136704761D01*
X157209523Y-136657142D01*
X157161904Y-136561904D01*
X157161904Y-136276190D01*
X157209523Y-136180952D01*
X157257142Y-136133333D01*
X157352380Y-136085714D01*
X157495238Y-136085714D01*
X157590476Y-136133333D01*
X157638095Y-136180952D01*
X157685714Y-136276190D01*
X157685714Y-136561904D01*
X157638095Y-136657142D01*
X157590476Y-136704761D01*
X157495238Y-136752380D01*
X157352380Y-136752380D01*
X158542857Y-136752380D02*
X158542857Y-135752380D01*
X158542857Y-136704761D02*
X158447619Y-136752380D01*
X158257142Y-136752380D01*
X158161904Y-136704761D01*
X158114285Y-136657142D01*
X158066666Y-136561904D01*
X158066666Y-136276190D01*
X158114285Y-136180952D01*
X158161904Y-136133333D01*
X158257142Y-136085714D01*
X158447619Y-136085714D01*
X158542857Y-136133333D01*
X118896666Y-78652380D02*
X119563333Y-78652380D01*
X119134761Y-79652380D01*
X156206666Y-118062380D02*
X156825714Y-118062380D01*
X156492380Y-118443333D01*
X156635238Y-118443333D01*
X156730476Y-118490952D01*
X156778095Y-118538571D01*
X156825714Y-118633809D01*
X156825714Y-118871904D01*
X156778095Y-118967142D01*
X156730476Y-119014761D01*
X156635238Y-119062380D01*
X156349523Y-119062380D01*
X156254285Y-119014761D01*
X156206666Y-118967142D01*
X137674761Y-79080952D02*
X137579523Y-79033333D01*
X137531904Y-78985714D01*
X137484285Y-78890476D01*
X137484285Y-78842857D01*
X137531904Y-78747619D01*
X137579523Y-78700000D01*
X137674761Y-78652380D01*
X137865238Y-78652380D01*
X137960476Y-78700000D01*
X138008095Y-78747619D01*
X138055714Y-78842857D01*
X138055714Y-78890476D01*
X138008095Y-78985714D01*
X137960476Y-79033333D01*
X137865238Y-79080952D01*
X137674761Y-79080952D01*
X137579523Y-79128571D01*
X137531904Y-79176190D01*
X137484285Y-79271428D01*
X137484285Y-79461904D01*
X137531904Y-79557142D01*
X137579523Y-79604761D01*
X137674761Y-79652380D01*
X137865238Y-79652380D01*
X137960476Y-79604761D01*
X138008095Y-79557142D01*
X138055714Y-79461904D01*
X138055714Y-79271428D01*
X138008095Y-79176190D01*
X137960476Y-79128571D01*
X137865238Y-79080952D01*
X157019523Y-80102380D02*
X157210000Y-80102380D01*
X157305238Y-80054761D01*
X157352857Y-80007142D01*
X157448095Y-79864285D01*
X157495714Y-79673809D01*
X157495714Y-79292857D01*
X157448095Y-79197619D01*
X157400476Y-79150000D01*
X157305238Y-79102380D01*
X157114761Y-79102380D01*
X157019523Y-79150000D01*
X156971904Y-79197619D01*
X156924285Y-79292857D01*
X156924285Y-79530952D01*
X156971904Y-79626190D01*
X157019523Y-79673809D01*
X157114761Y-79721428D01*
X157305238Y-79721428D01*
X157400476Y-79673809D01*
X157448095Y-79626190D01*
X157495714Y-79530952D01*
X116361904Y-59508571D02*
X116695238Y-59508571D01*
X116838095Y-60032380D02*
X116361904Y-60032380D01*
X116361904Y-59032380D01*
X116838095Y-59032380D01*
X117695238Y-59365714D02*
X117695238Y-60365714D01*
X117695238Y-59984761D02*
X117600000Y-60032380D01*
X117409523Y-60032380D01*
X117314285Y-59984761D01*
X117266666Y-59937142D01*
X117219047Y-59841904D01*
X117219047Y-59556190D01*
X117266666Y-59460952D01*
X117314285Y-59413333D01*
X117409523Y-59365714D01*
X117600000Y-59365714D01*
X117695238Y-59413333D01*
X118600000Y-59365714D02*
X118600000Y-60032380D01*
X118171428Y-59365714D02*
X118171428Y-59889523D01*
X118219047Y-59984761D01*
X118314285Y-60032380D01*
X118457142Y-60032380D01*
X118552380Y-59984761D01*
X118600000Y-59937142D01*
X119504761Y-60032380D02*
X119504761Y-59508571D01*
X119457142Y-59413333D01*
X119361904Y-59365714D01*
X119171428Y-59365714D01*
X119076190Y-59413333D01*
X119504761Y-59984761D02*
X119409523Y-60032380D01*
X119171428Y-60032380D01*
X119076190Y-59984761D01*
X119028571Y-59889523D01*
X119028571Y-59794285D01*
X119076190Y-59699047D01*
X119171428Y-59651428D01*
X119409523Y-59651428D01*
X119504761Y-59603809D01*
X120123809Y-60032380D02*
X120028571Y-59984761D01*
X119980952Y-59889523D01*
X119980952Y-59032380D01*
X120457142Y-59984761D02*
X120552380Y-60032380D01*
X120742857Y-60032380D01*
X120838095Y-59984761D01*
X120885714Y-59889523D01*
X120885714Y-59841904D01*
X120838095Y-59746666D01*
X120742857Y-59699047D01*
X120600000Y-59699047D01*
X120504761Y-59651428D01*
X120457142Y-59556190D01*
X120457142Y-59508571D01*
X120504761Y-59413333D01*
X120600000Y-59365714D01*
X120742857Y-59365714D01*
X120838095Y-59413333D01*
X154982380Y-60434761D02*
X155125238Y-60482380D01*
X155363333Y-60482380D01*
X155458571Y-60434761D01*
X155506190Y-60387142D01*
X155553809Y-60291904D01*
X155553809Y-60196666D01*
X155506190Y-60101428D01*
X155458571Y-60053809D01*
X155363333Y-60006190D01*
X155172857Y-59958571D01*
X155077619Y-59910952D01*
X155030000Y-59863333D01*
X154982380Y-59768095D01*
X154982380Y-59672857D01*
X155030000Y-59577619D01*
X155077619Y-59530000D01*
X155172857Y-59482380D01*
X155410952Y-59482380D01*
X155553809Y-59530000D01*
X155982380Y-59815714D02*
X155982380Y-60815714D01*
X155982380Y-59863333D02*
X156077619Y-59815714D01*
X156268095Y-59815714D01*
X156363333Y-59863333D01*
X156410952Y-59910952D01*
X156458571Y-60006190D01*
X156458571Y-60291904D01*
X156410952Y-60387142D01*
X156363333Y-60434761D01*
X156268095Y-60482380D01*
X156077619Y-60482380D01*
X155982380Y-60434761D01*
X157315714Y-60482380D02*
X157315714Y-59958571D01*
X157268095Y-59863333D01*
X157172857Y-59815714D01*
X156982380Y-59815714D01*
X156887142Y-59863333D01*
X157315714Y-60434761D02*
X157220476Y-60482380D01*
X156982380Y-60482380D01*
X156887142Y-60434761D01*
X156839523Y-60339523D01*
X156839523Y-60244285D01*
X156887142Y-60149047D01*
X156982380Y-60101428D01*
X157220476Y-60101428D01*
X157315714Y-60053809D01*
X158220476Y-60434761D02*
X158125238Y-60482380D01*
X157934761Y-60482380D01*
X157839523Y-60434761D01*
X157791904Y-60387142D01*
X157744285Y-60291904D01*
X157744285Y-60006190D01*
X157791904Y-59910952D01*
X157839523Y-59863333D01*
X157934761Y-59815714D01*
X158125238Y-59815714D01*
X158220476Y-59863333D01*
X159030000Y-60434761D02*
X158934761Y-60482380D01*
X158744285Y-60482380D01*
X158649047Y-60434761D01*
X158601428Y-60339523D01*
X158601428Y-59958571D01*
X158649047Y-59863333D01*
X158744285Y-59815714D01*
X158934761Y-59815714D01*
X159030000Y-59863333D01*
X159077619Y-59958571D01*
X159077619Y-60053809D01*
X158601428Y-60149047D01*
X157040476Y-98272380D02*
X156850000Y-98272380D01*
X156754761Y-98320000D01*
X156707142Y-98367619D01*
X156611904Y-98510476D01*
X156564285Y-98700952D01*
X156564285Y-99081904D01*
X156611904Y-99177142D01*
X156659523Y-99224761D01*
X156754761Y-99272380D01*
X156945238Y-99272380D01*
X157040476Y-99224761D01*
X157088095Y-99177142D01*
X157135714Y-99081904D01*
X157135714Y-98843809D01*
X157088095Y-98748571D01*
X157040476Y-98700952D01*
X156945238Y-98653333D01*
X156754761Y-98653333D01*
X156659523Y-98700952D01*
X156611904Y-98748571D01*
X156564285Y-98843809D01*
X128002380Y-135752380D02*
X128097619Y-135752380D01*
X128192857Y-135800000D01*
X128240476Y-135847619D01*
X128288095Y-135942857D01*
X128335714Y-136133333D01*
X128335714Y-136371428D01*
X128288095Y-136561904D01*
X128240476Y-136657142D01*
X128192857Y-136704761D01*
X128097619Y-136752380D01*
X128002380Y-136752380D01*
X127907142Y-136704761D01*
X127859523Y-136657142D01*
X127811904Y-136561904D01*
X127764285Y-136371428D01*
X127764285Y-136133333D01*
X127811904Y-135942857D01*
X127859523Y-135847619D01*
X127907142Y-135800000D01*
X128002380Y-135752380D01*
X175279523Y-59842380D02*
X175850952Y-59842380D01*
X175565238Y-60842380D02*
X175565238Y-59842380D01*
X176612857Y-60842380D02*
X176612857Y-60318571D01*
X176565238Y-60223333D01*
X176470000Y-60175714D01*
X176279523Y-60175714D01*
X176184285Y-60223333D01*
X176612857Y-60794761D02*
X176517619Y-60842380D01*
X176279523Y-60842380D01*
X176184285Y-60794761D01*
X176136666Y-60699523D01*
X176136666Y-60604285D01*
X176184285Y-60509047D01*
X176279523Y-60461428D01*
X176517619Y-60461428D01*
X176612857Y-60413809D01*
X177089047Y-60842380D02*
X177089047Y-59842380D01*
X177089047Y-60223333D02*
X177184285Y-60175714D01*
X177374761Y-60175714D01*
X177470000Y-60223333D01*
X177517619Y-60270952D01*
X177565238Y-60366190D01*
X177565238Y-60651904D01*
X177517619Y-60747142D01*
X177470000Y-60794761D01*
X177374761Y-60842380D01*
X177184285Y-60842380D01*
X177089047Y-60794761D01*
%TO.C,J9*%
X133796380Y-100129933D02*
X134510666Y-100129933D01*
X134653523Y-100177552D01*
X134748761Y-100272790D01*
X134796380Y-100415647D01*
X134796380Y-100510885D01*
X134796380Y-99606123D02*
X134796380Y-99415647D01*
X134748761Y-99320409D01*
X134701142Y-99272790D01*
X134558285Y-99177552D01*
X134367809Y-99129933D01*
X133986857Y-99129933D01*
X133891619Y-99177552D01*
X133844000Y-99225171D01*
X133796380Y-99320409D01*
X133796380Y-99510885D01*
X133844000Y-99606123D01*
X133891619Y-99653742D01*
X133986857Y-99701361D01*
X134224952Y-99701361D01*
X134320190Y-99653742D01*
X134367809Y-99606123D01*
X134415428Y-99510885D01*
X134415428Y-99320409D01*
X134367809Y-99225171D01*
X134320190Y-99177552D01*
X134224952Y-99129933D01*
%TO.C,J10*%
X152541580Y-66595523D02*
X153255866Y-66595523D01*
X153398723Y-66643142D01*
X153493961Y-66738380D01*
X153541580Y-66881238D01*
X153541580Y-66976476D01*
X153541580Y-65595523D02*
X153541580Y-66166952D01*
X153541580Y-65881238D02*
X152541580Y-65881238D01*
X152684438Y-65976476D01*
X152779676Y-66071714D01*
X152827295Y-66166952D01*
X152541580Y-64976476D02*
X152541580Y-64881238D01*
X152589200Y-64786000D01*
X152636819Y-64738380D01*
X152732057Y-64690761D01*
X152922533Y-64643142D01*
X153160628Y-64643142D01*
X153351104Y-64690761D01*
X153446342Y-64738380D01*
X153493961Y-64786000D01*
X153541580Y-64881238D01*
X153541580Y-64976476D01*
X153493961Y-65071714D01*
X153446342Y-65119333D01*
X153351104Y-65166952D01*
X153160628Y-65214571D01*
X152922533Y-65214571D01*
X152732057Y-65166952D01*
X152636819Y-65119333D01*
X152589200Y-65071714D01*
X152541580Y-64976476D01*
%TO.C,J6*%
X114492380Y-115940333D02*
X115206666Y-115940333D01*
X115349523Y-115987952D01*
X115444761Y-116083190D01*
X115492380Y-116226047D01*
X115492380Y-116321285D01*
X114492380Y-115035571D02*
X114492380Y-115226047D01*
X114540000Y-115321285D01*
X114587619Y-115368904D01*
X114730476Y-115464142D01*
X114920952Y-115511761D01*
X115301904Y-115511761D01*
X115397142Y-115464142D01*
X115444761Y-115416523D01*
X115492380Y-115321285D01*
X115492380Y-115130809D01*
X115444761Y-115035571D01*
X115397142Y-114987952D01*
X115301904Y-114940333D01*
X115063809Y-114940333D01*
X114968571Y-114987952D01*
X114920952Y-115035571D01*
X114873333Y-115130809D01*
X114873333Y-115321285D01*
X114920952Y-115416523D01*
X114968571Y-115464142D01*
X115063809Y-115511761D01*
%TO.C,J13*%
X152795580Y-123720123D02*
X153509866Y-123720123D01*
X153652723Y-123767742D01*
X153747961Y-123862980D01*
X153795580Y-124005838D01*
X153795580Y-124101076D01*
X153795580Y-122720123D02*
X153795580Y-123291552D01*
X153795580Y-123005838D02*
X152795580Y-123005838D01*
X152938438Y-123101076D01*
X153033676Y-123196314D01*
X153081295Y-123291552D01*
X152795580Y-122386790D02*
X152795580Y-121767742D01*
X153176533Y-122101076D01*
X153176533Y-121958219D01*
X153224152Y-121862980D01*
X153271771Y-121815361D01*
X153367009Y-121767742D01*
X153605104Y-121767742D01*
X153700342Y-121815361D01*
X153747961Y-121862980D01*
X153795580Y-121958219D01*
X153795580Y-122243933D01*
X153747961Y-122339171D01*
X153700342Y-122386790D01*
%TO.C,J4*%
X114390780Y-100206133D02*
X115105066Y-100206133D01*
X115247923Y-100253752D01*
X115343161Y-100348990D01*
X115390780Y-100491847D01*
X115390780Y-100587085D01*
X114724114Y-99301371D02*
X115390780Y-99301371D01*
X114343161Y-99539466D02*
X115057447Y-99777561D01*
X115057447Y-99158514D01*
%TO.C,J17*%
X171642380Y-110537523D02*
X172356666Y-110537523D01*
X172499523Y-110585142D01*
X172594761Y-110680380D01*
X172642380Y-110823238D01*
X172642380Y-110918476D01*
X172642380Y-109537523D02*
X172642380Y-110108952D01*
X172642380Y-109823238D02*
X171642380Y-109823238D01*
X171785238Y-109918476D01*
X171880476Y-110013714D01*
X171928095Y-110108952D01*
X171642380Y-109204190D02*
X171642380Y-108537523D01*
X172642380Y-108966095D01*
%TO.C,J12*%
X152211380Y-100606123D02*
X152925666Y-100606123D01*
X153068523Y-100653742D01*
X153163761Y-100748980D01*
X153211380Y-100891838D01*
X153211380Y-100987076D01*
X153211380Y-99606123D02*
X153211380Y-100177552D01*
X153211380Y-99891838D02*
X152211380Y-99891838D01*
X152354238Y-99987076D01*
X152449476Y-100082314D01*
X152497095Y-100177552D01*
X152306619Y-99225171D02*
X152259000Y-99177552D01*
X152211380Y-99082314D01*
X152211380Y-98844219D01*
X152259000Y-98748980D01*
X152306619Y-98701361D01*
X152401857Y-98653742D01*
X152497095Y-98653742D01*
X152639952Y-98701361D01*
X153211380Y-99272790D01*
X153211380Y-98653742D01*
%TO.C,J3*%
X114847980Y-81079933D02*
X115562266Y-81079933D01*
X115705123Y-81127552D01*
X115800361Y-81222790D01*
X115847980Y-81365647D01*
X115847980Y-81460885D01*
X114847980Y-80698980D02*
X114847980Y-80079933D01*
X115228933Y-80413266D01*
X115228933Y-80270409D01*
X115276552Y-80175171D01*
X115324171Y-80127552D01*
X115419409Y-80079933D01*
X115657504Y-80079933D01*
X115752742Y-80127552D01*
X115800361Y-80175171D01*
X115847980Y-80270409D01*
X115847980Y-80556123D01*
X115800361Y-80651361D01*
X115752742Y-80698980D01*
%TO.C,J2*%
X114974980Y-66347933D02*
X115689266Y-66347933D01*
X115832123Y-66395552D01*
X115927361Y-66490790D01*
X115974980Y-66633647D01*
X115974980Y-66728885D01*
X115070219Y-65919361D02*
X115022600Y-65871742D01*
X114974980Y-65776504D01*
X114974980Y-65538409D01*
X115022600Y-65443171D01*
X115070219Y-65395552D01*
X115165457Y-65347933D01*
X115260695Y-65347933D01*
X115403552Y-65395552D01*
X115974980Y-65966980D01*
X115974980Y-65347933D01*
D11*
%TO.C,J11*%
X155940000Y-83907000D02*
X155940000Y-86707000D01*
X153940000Y-86707000D02*
X153940000Y-83907000D01*
X153940000Y-83907000D02*
X155940000Y-83907000D01*
X155940000Y-86707000D02*
X153940000Y-86707000D01*
%TO.C,J7*%
X135372600Y-64157400D02*
X137372600Y-64157400D01*
X135372600Y-66957400D02*
X135372600Y-64157400D01*
X137372600Y-66957400D02*
X135372600Y-66957400D01*
X137372600Y-64157400D02*
X137372600Y-66957400D01*
%TO.C,J8*%
X137474200Y-86083600D02*
X135474200Y-86083600D01*
X137474200Y-83283600D02*
X137474200Y-86083600D01*
X135474200Y-83283600D02*
X137474200Y-83283600D01*
X135474200Y-86083600D02*
X135474200Y-83283600D01*
%TO.C,J15*%
X175117000Y-86617000D02*
X173117000Y-86617000D01*
X175117000Y-83817000D02*
X175117000Y-86617000D01*
X173117000Y-83817000D02*
X175117000Y-83817000D01*
X173117000Y-86617000D02*
X173117000Y-83817000D01*
%TO.C,J14*%
X173269400Y-64309800D02*
X175269400Y-64309800D01*
X173269400Y-67109800D02*
X173269400Y-64309800D01*
X175269400Y-67109800D02*
X173269400Y-67109800D01*
X175269400Y-64309800D02*
X175269400Y-67109800D01*
%TO.C,J1*%
X185220000Y-44450000D02*
X185220000Y-139810000D01*
X109220000Y-82740000D02*
X185220000Y-82740000D01*
X109220000Y-44450000D02*
X185220000Y-44440000D01*
X185220000Y-139810000D02*
X109220000Y-139810000D01*
X128310000Y-44450000D02*
X128310000Y-120820000D01*
X147400000Y-44450000D02*
X147400000Y-139810000D01*
X109220000Y-139810000D02*
X109220000Y-44450000D01*
X109220000Y-63730000D02*
X185220000Y-63730000D01*
X166130000Y-44450000D02*
X166130000Y-139810000D01*
X109220000Y-101640000D02*
X185220000Y-101640000D01*
X109220000Y-120820000D02*
X166130000Y-120820000D01*
%TO.C,J9*%
X137144000Y-101196600D02*
X135144000Y-101196600D01*
X135144000Y-101196600D02*
X135144000Y-98396600D01*
X135144000Y-98396600D02*
X137144000Y-98396600D01*
X137144000Y-98396600D02*
X137144000Y-101196600D01*
%TO.C,J10*%
X155889200Y-67186000D02*
X153889200Y-67186000D01*
X153889200Y-64386000D02*
X155889200Y-64386000D01*
X155889200Y-64386000D02*
X155889200Y-67186000D01*
X153889200Y-67186000D02*
X153889200Y-64386000D01*
%TO.C,J6*%
X115840000Y-114207000D02*
X117840000Y-114207000D01*
X115840000Y-117007000D02*
X115840000Y-114207000D01*
X117840000Y-117007000D02*
X115840000Y-117007000D01*
X117840000Y-114207000D02*
X117840000Y-117007000D01*
%TO.C,J13*%
X156143200Y-121510600D02*
X156143200Y-124310600D01*
X154143200Y-124310600D02*
X154143200Y-121510600D01*
X156143200Y-124310600D02*
X154143200Y-124310600D01*
X154143200Y-121510600D02*
X156143200Y-121510600D01*
%TO.C,J4*%
X115738400Y-101272800D02*
X115738400Y-98472800D01*
X117738400Y-101272800D02*
X115738400Y-101272800D01*
X115738400Y-98472800D02*
X117738400Y-98472800D01*
X117738400Y-98472800D02*
X117738400Y-101272800D01*
%TO.C,J17*%
X174990000Y-111128000D02*
X172990000Y-111128000D01*
X174990000Y-108328000D02*
X174990000Y-111128000D01*
X172990000Y-108328000D02*
X174990000Y-108328000D01*
X172990000Y-111128000D02*
X172990000Y-108328000D01*
%TO.C,J12*%
X153559000Y-101196600D02*
X153559000Y-98396600D01*
X153559000Y-98396600D02*
X155559000Y-98396600D01*
X155559000Y-101196600D02*
X153559000Y-101196600D01*
X155559000Y-98396600D02*
X155559000Y-101196600D01*
%TO.C,J3*%
X118195600Y-82146600D02*
X116195600Y-82146600D01*
X116195600Y-79346600D02*
X118195600Y-79346600D01*
X118195600Y-79346600D02*
X118195600Y-82146600D01*
X116195600Y-82146600D02*
X116195600Y-79346600D01*
%TO.C,J2*%
X118322600Y-64614600D02*
X118322600Y-67414600D01*
X116322600Y-64614600D02*
X118322600Y-64614600D01*
X116322600Y-67414600D02*
X116322600Y-64614600D01*
X118322600Y-67414600D02*
X116322600Y-67414600D01*
D10*
%TO.C,U1*%
X128270000Y-67310000D02*
X146050000Y-67310000D01*
X140970000Y-36830000D02*
X140970000Y-34290000D01*
X133350000Y-36830000D02*
X128270000Y-36830000D01*
X140970000Y-34290000D02*
X133350000Y-34290000D01*
X128270000Y-36830000D02*
X128270000Y-67310000D01*
X133350000Y-34290000D02*
X133350000Y-36830000D01*
X146050000Y-67310000D02*
X146050000Y-36830000D01*
X146050000Y-36830000D02*
X140970000Y-36830000D01*
%TD*%
%LPC*%
D12*
%TO.C,J11*%
X154940000Y-86032000D03*
D13*
X154940000Y-84582000D03*
%TD*%
D12*
%TO.C,J7*%
X136372600Y-66282400D03*
D13*
X136372600Y-64832400D03*
%TD*%
D12*
%TO.C,J8*%
X136474200Y-85408600D03*
D13*
X136474200Y-83958600D03*
%TD*%
D12*
%TO.C,J15*%
X174117000Y-85942000D03*
D13*
X174117000Y-84492000D03*
%TD*%
D12*
%TO.C,J14*%
X174269400Y-66434800D03*
D13*
X174269400Y-64984800D03*
%TD*%
D14*
%TO.C,J1*%
X117220000Y-53160000D03*
X120200000Y-54940000D03*
X136320000Y-53160000D03*
X139210000Y-54940000D03*
X155120000Y-53160000D03*
X158110000Y-54940000D03*
X174160000Y-53160000D03*
X177010000Y-54940000D03*
X117220000Y-72260000D03*
X120200000Y-73530000D03*
X136320000Y-72260000D03*
X139210000Y-73530000D03*
X155120000Y-72260000D03*
X158110000Y-73530000D03*
X174160000Y-72260000D03*
X177010000Y-73530000D03*
X117220000Y-91350000D03*
X120200000Y-93060000D03*
X136320000Y-91350000D03*
X139210000Y-93060000D03*
X155120000Y-91350000D03*
X158110000Y-93060000D03*
X174160000Y-91350000D03*
X177010000Y-93060000D03*
X117220000Y-110680000D03*
X120200000Y-112090000D03*
X136320000Y-110680000D03*
X139210000Y-112090000D03*
X155120000Y-110680000D03*
X158110000Y-112090000D03*
X174160000Y-119870000D03*
X177010000Y-121660000D03*
X126580000Y-129540000D03*
X129590000Y-131180000D03*
X155120000Y-129540000D03*
X158110000Y-131180000D03*
%TD*%
D12*
%TO.C,J9*%
X136144000Y-100521600D03*
D13*
X136144000Y-99071600D03*
%TD*%
D15*
%TO.C,REF\u002A\u002A*%
X113030000Y-40640000D03*
%TD*%
D12*
%TO.C,J10*%
X154889200Y-66511000D03*
D13*
X154889200Y-65061000D03*
%TD*%
D12*
%TO.C,J6*%
X116840000Y-116332000D03*
D13*
X116840000Y-114882000D03*
%TD*%
D12*
%TO.C,J13*%
X155143200Y-123635600D03*
D13*
X155143200Y-122185600D03*
%TD*%
D12*
%TO.C,J4*%
X116738400Y-100597800D03*
D13*
X116738400Y-99147800D03*
%TD*%
D12*
%TO.C,J17*%
X173990000Y-110453000D03*
D13*
X173990000Y-109003000D03*
%TD*%
D15*
%TO.C,REF\u002A\u002A*%
X181610000Y-40640000D03*
%TD*%
D12*
%TO.C,J12*%
X154559000Y-100521600D03*
D13*
X154559000Y-99071600D03*
%TD*%
D12*
%TO.C,J3*%
X117195600Y-81471600D03*
D13*
X117195600Y-80021600D03*
%TD*%
D12*
%TO.C,J2*%
X117322600Y-66739600D03*
D13*
X117322600Y-65289600D03*
%TD*%
D16*
%TO.C,B1*%
X129540000Y-81280000D03*
D17*
X127000000Y-81280000D03*
%TD*%
D18*
%TO.C,U1*%
X144780000Y-38100000D03*
D19*
X144780000Y-40640000D03*
X144780000Y-43180000D03*
X144780000Y-45720000D03*
X144780000Y-48260000D03*
X144780000Y-50800000D03*
X144780000Y-53340000D03*
X144780000Y-55880000D03*
X144780000Y-58420000D03*
X144780000Y-60960000D03*
X144780000Y-63500000D03*
X144780000Y-66040000D03*
X129540000Y-66040000D03*
X129540000Y-63500000D03*
X129540000Y-60960000D03*
X129540000Y-58420000D03*
X129540000Y-55880000D03*
X129540000Y-53340000D03*
X129540000Y-50800000D03*
X129540000Y-48260000D03*
X129540000Y-45720000D03*
X129540000Y-43180000D03*
X129540000Y-40640000D03*
X129540000Y-38100000D03*
%TD*%
M02*
